<svg width="74" height="50" viewBox="0 0 74 50" fill="none" xmlns="http://www.w3.org/2000/svg">
<path d="M1 49C3.93057 48.8197 9.92961 48.4321 10.4812 48.3239C11.1708 48.1887 11.2857 49.1352 11.7454 48.7296C12.2051 48.3239 12.7223 48.8647 13.182 48.3239C13.6417 47.7832 13.929 47.648 14.4461 47.7832C14.9633 47.9184 15.8827 47.783 16.17 47.2422C16.4573 46.7014 16.917 46.1605 17.2043 47.2422C17.4916 48.3239 18.2961 45.6197 18.3536 43.9972C18.3995 42.6991 18.5259 41.0225 18.5834 40.3465L18.7558 43.0507L18.9856 41.4281L20.4222 46.1605C20.518 45.6648 20.8014 44.7814 21.1692 45.2141C21.6289 45.7549 24.0998 45.3493 24.1572 46.1605C24.2147 46.9718 26.3408 47.3774 26.8579 46.1605C27.3751 44.9436 27.3751 43.1859 28.8691 44.538C30.3631 45.8901 30.7079 46.431 31.2825 45.2141C31.8571 43.9972 32.087 45.3493 32.087 46.1605C32.087 46.9718 38.925 44.1324 38.6377 32.6394L39.0399 35.8845L39.6145 24.1211L39.7869 29.2591L40.0168 23.0394L40.6488 24.7972L41.5682 22.3634L42.0279 33.4507L42.8324 32.6394L43.407 35.0732L44.154 25.338L45.3607 29.2591L46.51 18.8479L48.2913 33.4507L48.9808 29.2591L49.498 31.4225L50.3025 26.8253L51.5666 35.0732L51.9689 34.3972L52.601 39.6704L53.4629 36.5605L56.2211 41.0225L59.9561 33.7211L62.427 36.5605L67.8859 13.169L71.3336 21.8225L73 1" stroke="#00FFAA" stroke-width="2" stroke-linecap="round"/>
</svg>
