<svg width="200" height="301" viewBox="0 0 200 301" fill="none" xmlns="http://www.w3.org/2000/svg">
<path d="M100 100.781C155.228 100.781 200 145.553 200 200.781C200 256.01 155.228 300.781 100 300.781C44.7715 300.781 0 256.01 0 200.781C0 145.553 44.7715 100.781 100 100.781Z" fill="white"/>
<path fill-rule="evenodd" clip-rule="evenodd" d="M75.705 282.131C40.576 271.503 15 238.879 15 200.281C15 153.061 53.2797 114.781 100.5 114.781C131.793 114.781 159.159 131.592 174.06 156.676H103.065C87.9545 156.676 75.705 168.926 75.705 184.036V282.131ZM103.065 169.501C95.0375 169.501 88.53 176.009 88.53 184.036V284.95C92.4414 285.498 96.4376 285.781 100.5 285.781C147.72 285.781 186 247.502 186 200.281C186 189.43 183.979 179.052 180.292 169.501H103.065ZM174.885 200.281C174.885 241.363 141.582 274.666 100.5 274.666C100.215 274.666 99.9298 274.665 99.645 274.661V184.036C99.645 182.147 101.176 180.616 103.065 180.616H172.261C173.994 186.958 174.885 193.553 174.885 200.281ZM103.065 145.561C81.8158 145.561 64.59 162.787 64.59 184.036V265.453C41.3492 252.637 26.115 227.941 26.115 200.281C26.115 159.2 59.4183 125.896 100.5 125.896C119.599 125.896 137.434 133.149 150.901 145.561H103.065Z" fill="black"/>
<path d="M100 0C155.228 0 200 44.7715 200 100C200 155.228 155.228 200 100 200C44.7715 200 0 155.228 0 100C0 44.7715 44.7715 0 100 0Z" fill="black"/>
<path fill-rule="evenodd" clip-rule="evenodd" d="M75.705 181.349C40.576 170.722 15 138.098 15 99.5C15 52.2797 53.2797 14 100.5 14C131.793 14 159.159 30.8112 174.06 55.895H103.065C87.9545 55.895 75.705 68.1445 75.705 83.255V181.349ZM103.065 68.72C95.0375 68.72 88.53 75.2275 88.53 83.255V184.169C92.4414 184.717 96.4376 185 100.5 185C147.72 185 186 146.72 186 99.5C186 88.6492 183.979 78.2706 180.292 68.72H103.065ZM174.885 99.5C174.885 140.582 141.582 173.885 100.5 173.885C100.215 173.885 99.9298 173.883 99.645 173.88V83.255C99.645 81.3662 101.176 79.835 103.065 79.835H172.261C173.994 86.1767 174.885 92.7722 174.885 99.5ZM103.065 44.78C81.8158 44.78 64.59 62.0058 64.59 83.255V164.671C41.3492 151.855 26.115 127.16 26.115 99.5C26.115 58.4183 59.4183 25.115 100.5 25.115C119.599 25.115 137.434 32.3675 150.901 44.78H103.065Z" fill="white"/>
</svg>
