<svg width="181" height="40" viewBox="0 0 181 40" fill="none" xmlns="http://www.w3.org/2000/svg">
<g id="roobinium_horizontal_white">
<g id="sign">
<path id="shape" fill-rule="evenodd" clip-rule="evenodd" d="M109.616 26.0001H104.215H100.736V8.84009H104.216L104.215 13.6401H109.616C111.76 13.6401 113.432 14.1681 114.632 15.2241C115.832 16.2801 116.432 17.8161 116.432 19.8321C116.432 21.8321 115.832 23.3601 114.632 24.4161C113.432 25.4721 111.76 26.0001 109.616 26.0001ZM79.0239 24.5241C77.8239 25.5881 76.1519 26.1201 74.0079 26.1201H69.5679C67.4239 26.1201 65.7519 25.5881 64.5519 24.5241C63.3519 23.4601 62.7519 21.8961 62.7519 19.8321C62.7519 17.7521 63.3519 16.1801 64.5519 15.1161C65.7519 14.0521 67.4239 13.5201 69.5679 13.5201H74.0079C76.1519 13.5201 77.8239 14.0521 79.0239 15.1161C80.2239 16.1801 80.8239 17.7521 80.8239 19.8321C80.8239 21.8961 80.2239 23.4601 79.0239 24.5241ZM53.2879 16.4241L58.3039 16.4231H61.8319V13.6401H52.3759C50.9839 13.6401 49.9599 13.9881 49.3039 14.6841C48.6479 15.3801 48.3199 16.2961 48.3199 17.4321V26.0001H51.8479V17.8641C51.8479 16.9041 52.3279 16.4241 53.2879 16.4241ZM74.0079 23.3601H69.5679C68.5279 23.3601 67.7319 23.0721 67.1799 22.4961C66.6279 21.9201 66.3519 21.0321 66.3519 19.8321C66.3519 18.6161 66.6279 17.7201 67.1799 17.1441C67.7319 16.5681 68.5279 16.2801 69.5679 16.2801H74.0079C75.0479 16.2801 75.8439 16.5681 76.3959 17.1441C76.9479 17.7201 77.2239 18.6161 77.2239 19.8321C77.2239 21.0321 76.9479 21.9201 76.3959 22.4961C75.8439 23.0721 75.0479 23.3601 74.0079 23.3601ZM97.7759 24.5241C96.5759 25.5881 94.9039 26.1201 92.7599 26.1201H88.3199C86.1759 26.1201 84.5039 25.5881 83.3039 24.5241C82.1039 23.4601 81.5039 21.8961 81.5039 19.8321C81.5039 17.7521 82.1039 16.1801 83.3039 15.1161C84.5039 14.0521 86.1759 13.5201 88.3199 13.5201H92.7599C94.9039 13.5201 96.5759 14.0521 97.7759 15.1161C98.9759 16.1801 99.5759 17.7521 99.5759 19.8321C99.5759 21.8961 98.9759 23.4601 97.7759 24.5241ZM92.7599 23.3601H88.3199C87.2799 23.3601 86.4839 23.0721 85.9319 22.4961C85.3799 21.9201 85.1039 21.0321 85.1039 19.8321C85.1039 18.6161 85.3799 17.7201 85.9319 17.1441C86.4839 16.5681 87.2799 16.2801 88.3199 16.2801H92.7599C93.7999 16.2801 94.5959 16.5681 95.1479 17.1441C95.6999 17.7201 95.9759 18.6161 95.9759 19.8321C95.9759 21.0321 95.6999 21.9201 95.1479 22.4961C94.5959 23.0721 93.7999 23.3601 92.7599 23.3601ZM104.215 16.4001H109.616C110.656 16.4001 111.452 16.6841 112.004 17.2521C112.556 17.8201 112.832 18.6801 112.832 19.8321C112.832 20.9681 112.556 21.8201 112.004 22.3881C111.452 22.9561 110.656 23.2401 109.616 23.2401H104.215V16.4001ZM121.096 8.88809V11.6001H117.568V8.88809H121.096ZM121.072 26.0001V13.6401H117.592V26.0001H121.072ZM126.192 16.4001V26.0001H122.712V13.6401H133.488C134.896 13.6401 135.924 13.9881 136.572 14.6841C137.22 15.3801 137.544 16.2961 137.544 17.4321V26.0001H134.064V17.8401C134.064 16.8801 133.584 16.4001 132.624 16.4001H126.192ZM142.568 11.6001V8.88809H139.04V11.6001H142.568ZM142.544 13.6401V26.0001H139.064V13.6401H142.544ZM154.84 26.0001C156.248 26.0001 157.276 25.6481 157.924 24.9441C158.572 24.2401 158.896 23.3281 158.896 22.2081V13.6401H155.416V21.8001C155.416 22.7601 154.936 23.2401 153.976 23.2401H148.984C148.024 23.2401 147.544 22.7601 147.544 21.8001V13.6401H144.064V22.2081C144.064 23.3281 144.388 24.2401 145.036 24.9441C145.684 25.6481 146.712 26.0001 148.12 26.0001H154.84ZM163.896 16.4001V26.0001H160.416V13.6401H176.424C177.832 13.6401 178.864 13.9881 179.52 14.6841C180.176 15.3801 180.504 16.2961 180.504 17.4321V26.0001H177.024V17.8641C177.024 16.8881 176.528 16.4001 175.536 16.4001H172.2V26.0001H168.72V16.4001H163.896Z" fill="white"/>
</g>
<g id="mark">
<path id="shape_2" d="M20 0C31.0457 0 40 8.9543 40 20C40 31.0457 31.0457 40 20 40C8.9543 40 0 31.0457 0 20C0 8.9543 8.9543 0 20 0Z" fill="white"/>
<path id="shape_3" fill-rule="evenodd" clip-rule="evenodd" d="M15.141 36.2699C8.11519 34.1444 3 27.6196 3 19.9C3 10.456 10.6559 2.80005 20.1 2.80005C26.3586 2.80005 31.8318 6.1623 34.8121 11.179H20.613C17.5909 11.179 15.141 13.6289 15.141 16.651V36.2699ZM20.613 13.744C19.0075 13.744 17.706 15.0456 17.706 16.651V36.8338C18.4883 36.9434 19.2875 37 20.1 37C29.5441 37 37.2 29.3441 37.2 19.9C37.2 17.7299 36.7957 15.6542 36.0584 13.744H20.613ZM34.977 19.9C34.977 28.1164 28.3163 34.777 20.1 34.777C20.043 34.777 19.986 34.7767 19.929 34.7761V16.651C19.929 16.2733 20.2352 15.967 20.613 15.967H34.4522C34.7989 17.2354 34.977 18.5545 34.977 19.9ZM20.613 8.95605C16.3632 8.95605 12.918 12.4012 12.918 16.651V32.9343C8.26985 30.3711 5.223 25.4321 5.223 19.9C5.223 11.6837 11.8837 5.02305 20.1 5.02305C23.9198 5.02305 27.4868 6.47354 30.1803 8.95605H20.613Z" fill="black"/>
</g>
</g>
</svg>
