<svg width="24" height="24" viewBox="0 0 24 24" fill="none" xmlns="http://www.w3.org/2000/svg">
<path fill-rule="evenodd" clip-rule="evenodd" d="M13.1914 21.1641C13.8242 21.1641 14.2617 20.6719 14.5508 19.9219L19.7461 6.33594C19.8711 6 19.9414 5.70313 19.9414 5.44531C19.9414 4.84375 19.5664 4.46875 18.9648 4.46875C18.707 4.46875 18.4023 4.53906 18.0664 4.66406L4.44141 9.875C3.75391 10.1406 3.24609 10.5781 3.24609 11.2188C3.24609 11.9844 3.80859 12.3047 4.58984 12.5391L10.2227 14.1875L11.8633 19.7656C12.0977 20.5781 12.418 21.1641 13.1914 21.1641ZM10.7539 12.5547L6.31641 11.1954C6.21484 11.1641 6.17578 11.1329 6.17578 11.0782C6.17578 11.0313 6.20703 10.9844 6.30078 10.9532L14.582 7.76569C15.1492 7.54511 15.7062 7.28896 16.3228 7.00541L16.3228 7.00541C16.4706 6.93745 16.6218 6.86792 16.7773 6.79694C16.1836 7.28131 15.457 7.87506 14.9492 8.37506L10.7539 12.5547ZM13.2188 18.0938C13.25 18.1954 13.2812 18.2422 13.3359 18.2422C13.3906 18.2422 13.4219 18.1954 13.4531 18.1094L16.6484 9.82819C16.8628 9.27088 17.1107 8.72799 17.3848 8.12799C17.4603 7.96258 17.5378 7.79283 17.6172 7.61725C17.1484 8.211 16.5234 8.96881 16.0391 9.461L11.8594 13.6563L13.2188 18.0938Z" fill="white"/>
</svg>
