<svg width="24" height="24" viewBox="0 0 24 24" fill="none" xmlns="http://www.w3.org/2000/svg">
<rect x="2" y="2" width="20" height="20" rx="10" fill="#26A17B"/>
<path fill-rule="evenodd" clip-rule="evenodd" d="M13.2207 9.14893V10.6273L13.2223 10.6289C15.9679 10.7553 18.0319 11.3009 18.0319 11.9521C18.0319 12.6049 15.9679 13.1489 13.2223 13.2753V18.0145H10.7759V13.2753C8.02705 13.1473 5.95825 12.6033 5.95825 11.9505C5.95825 11.2977 8.02545 10.7537 10.7759 10.6273V9.14893H7.39185V6.89453H16.6047V9.14893H13.2207ZM13.2207 12.8688V12.8704V12.872C15.6447 12.7632 17.4543 12.3408 17.4543 11.8352C17.4543 11.3296 15.6463 10.9072 13.2207 10.7984V12.4496C13.1503 12.456 12.7727 12.488 12.0175 12.488C11.3887 12.488 10.9327 12.4608 10.7743 12.4496V10.7968C8.34553 10.904 6.53113 11.328 6.53113 11.8336C6.53113 12.3408 8.34393 12.7632 10.7743 12.8704V12.8688C10.9311 12.8768 11.3743 12.8944 12.0063 12.8944C12.7967 12.8944 13.1519 12.8736 13.2207 12.8688Z" fill="white"/>
</svg>
