<svg width="200" height="140" viewBox="0 0 200 140" fill="none" xmlns="http://www.w3.org/2000/svg">
<path fill-rule="evenodd" clip-rule="evenodd" d="M121.189 25.1115C121.584 25.2437 121.94 25.4726 122.224 25.7774C122.611 26.1622 122.861 26.6629 122.936 27.2031C123.012 27.7434 122.909 28.2936 122.642 28.7696C122.577 28.8604 122.543 28.9691 122.543 29.0806C122.543 29.1921 122.577 29.3008 122.642 29.3916L130.235 37.8641C130.313 37.9499 130.417 38.0086 130.53 38.0317C130.644 38.0549 130.762 38.0412 130.868 37.9928C131.367 37.7664 131.927 37.7103 132.461 37.8332C132.995 37.9562 133.474 38.2513 133.823 38.6731C134.173 39.0949 134.375 39.62 134.397 40.1676C134.419 40.7152 134.26 41.2548 133.946 41.7035C133.904 41.755 133.881 41.8194 133.881 41.8858C133.881 41.9522 133.904 42.0165 133.946 42.0681L140.777 49.8971C140.804 49.9269 140.838 49.951 140.874 49.9673C140.912 49.9836 140.951 49.9922 140.992 49.9922C141.032 49.9922 141.072 49.9836 141.109 49.9673C141.146 49.951 141.179 49.9269 141.206 49.8971C141.3 49.7933 141.404 49.6999 141.517 49.6182C142.034 49.3234 142.638 49.2191 143.224 49.3237C143.809 49.4283 144.34 49.7351 144.723 50.1906C145.106 50.6461 145.316 51.2215 145.319 51.8167C145.321 52.4117 145.114 52.9886 144.735 53.4469C144.381 53.8573 143.903 54.14 143.373 54.2514C143.185 54.29 143.019 54.3971 142.906 54.5519C142.793 54.7064 142.741 54.8973 142.761 55.0876L143.684 63.3028C143.688 63.3697 143.706 63.435 143.738 63.4941C143.769 63.5531 143.813 63.605 143.866 63.6459C144.294 64.0081 144.629 64.4679 144.842 64.9866C144.947 65.2319 145.012 65.4928 145.035 65.7587C145.042 66.4452 144.78 67.1074 144.306 67.6033C144.262 67.6522 144.229 67.7104 144.211 67.7734C144.192 67.8366 144.188 67.9031 144.198 67.9681L145.121 76.2045C145.139 76.3495 145.211 76.4824 145.322 76.5775C145.433 76.6725 145.575 76.7232 145.721 76.7192C146.093 76.7044 146.462 76.7724 146.804 76.9184C147.145 77.0641 147.45 77.2843 147.696 77.563C147.941 77.8414 148.122 78.171 148.224 78.5282C148.326 78.8852 148.348 79.2607 148.287 79.6269C148.226 79.9931 148.084 80.3413 147.871 80.646C147.659 80.9506 147.381 81.2039 147.058 81.3878C146.735 81.5714 146.376 81.681 146.005 81.7081C145.635 81.7354 145.263 81.6797 144.917 81.5453C144.787 81.4914 144.641 81.4878 144.508 81.5355C144.375 81.5832 144.265 81.6782 144.198 81.8026L139.34 90.5112C139.289 90.6062 139.273 90.7163 139.294 90.8222C139.316 90.9278 139.374 91.0229 139.458 91.0903C139.622 91.2183 139.776 91.3582 139.919 91.5085C140.579 92.196 141.004 93.0742 141.136 94.0178C141.267 94.9615 141.097 95.9224 140.65 96.7637C140.203 97.6053 139.502 98.284 138.647 98.7039C137.792 99.1236 136.826 99.2628 135.887 99.1015C135.704 99.0684 135.516 99.0995 135.354 99.1896C135.192 99.2794 135.066 99.4226 134.997 99.5949L132.112 106.62L132.23 106.716C132.463 106.919 132.616 107.198 132.66 107.504C132.704 107.81 132.636 108.121 132.47 108.381C132.303 108.642 132.049 108.833 131.753 108.921C131.457 109.009 131.139 108.988 130.857 108.861C130.689 108.795 130.536 108.697 130.407 108.571L129.935 108.486L119.21 113.183C119.055 113.254 118.925 113.37 118.835 113.515C118.736 113.661 118.625 113.797 118.502 113.923C118.239 114.183 117.922 114.382 117.574 114.506C117.226 114.63 116.854 114.676 116.486 114.642C116.184 114.605 115.878 114.646 115.596 114.759L108.089 118.052C108.004 118.087 107.932 118.146 107.882 118.223C107.833 118.299 107.807 118.39 107.81 118.481C107.818 118.69 107.773 118.898 107.68 119.086C107.586 119.273 107.446 119.434 107.274 119.553C107.061 119.7 106.808 119.778 106.55 119.778C106.291 119.778 106.039 119.7 105.826 119.553C105.674 119.454 105.546 119.323 105.449 119.169C105.353 119.016 105.291 118.843 105.268 118.663C105.255 118.557 105.206 118.458 105.131 118.383C105.055 118.307 104.956 118.258 104.85 118.245L92.3129 116.754C92.208 116.739 92.1012 116.756 92.0059 116.802C91.9103 116.848 91.8305 116.921 91.7766 117.012C91.6025 117.295 91.3735 117.541 91.1033 117.736C90.833 117.93 90.5267 118.069 90.2024 118.144C89.878 118.219 89.5419 118.228 89.2138 118.172C88.8857 118.116 88.5719 117.995 88.2912 117.816C88.0203 117.647 87.7868 117.424 87.6047 117.162C87.458 116.96 87.2457 116.816 87.0042 116.754L75.5288 114.191C75.443 114.171 75.3533 114.176 75.2699 114.204C75.1865 114.232 75.1128 114.284 75.057 114.352C75.0004 114.421 74.9356 114.482 74.8639 114.534C74.6589 114.69 74.4118 114.781 74.1547 114.795C73.8976 114.808 73.6422 114.745 73.4216 114.612C73.2011 114.479 73.0254 114.283 72.9173 114.05C72.8093 113.816 72.7738 113.555 72.8155 113.301C72.833 113.208 72.8306 113.111 72.8084 113.019C72.7862 112.927 72.7448 112.84 72.6868 112.765L56.5999 93.1708C56.5084 93.0624 56.3929 92.9771 56.2626 92.9212C56.1323 92.8652 55.9908 92.8407 55.8492 92.8492C55.6178 92.8637 55.387 92.8116 55.1843 92.6989C55.0052 92.6099 54.8521 92.4762 54.7394 92.3109C54.6268 92.1458 54.5584 91.9545 54.5408 91.7553C54.5151 91.5654 54.5285 91.3723 54.5802 91.1879C54.6318 91.0035 54.7206 90.8315 54.8411 90.6827C54.8839 90.6288 54.9154 90.5668 54.9338 90.5006C54.9522 90.4341 54.9572 90.3649 54.9484 90.2967L53.7365 79.2933C53.726 79.2098 53.6852 79.1332 53.622 79.0778C53.5587 79.0224 53.4773 78.9923 53.3933 78.9928C52.9393 78.9737 52.4991 78.831 52.1201 78.5804C51.7411 78.3296 51.4376 77.9802 51.2424 77.57C51.0472 77.1597 50.9675 76.7037 51.012 76.2516C51.0565 75.7994 51.2235 75.3677 51.495 75.0032C51.826 74.5753 52.2901 74.2695 52.8141 74.1346C52.9622 74.0935 53.0917 74.0029 53.1814 73.8782C53.2711 73.7533 53.3156 73.6018 53.3075 73.4483L52.5675 62.5091C52.5622 62.4361 52.5362 62.3659 52.4925 62.3072C52.4488 62.2482 52.3893 62.2031 52.3208 62.1768C52.1096 62.09 51.9247 61.9495 51.7846 61.7691C51.5991 61.5401 51.4979 61.2542 51.4979 60.9595C51.4979 60.6647 51.5991 60.3788 51.7846 60.1498C51.9154 59.9962 52.081 59.8763 52.2675 59.7998C52.4541 59.7233 52.6562 59.6927 52.857 59.71C52.9494 59.7148 53.0413 59.6955 53.124 59.6541C53.2067 59.6127 53.2773 59.5508 53.3289 59.474L58.2194 52.1922C58.2661 52.1233 58.2844 52.0392 58.2704 51.9572C58.2564 51.8752 58.2112 51.8017 58.1443 51.7525C57.924 51.5965 57.7318 51.4044 57.5759 51.1841C57.2556 50.7417 57.0892 50.2064 57.102 49.6603C57.1148 49.1142 57.3061 48.5875 57.6467 48.1606C57.9873 47.7336 58.4584 47.4301 58.9879 47.2962C59.5174 47.1625 60.0762 47.2059 60.5788 47.4196C60.6265 47.4432 60.6784 47.4567 60.7315 47.4595C60.7846 47.4625 60.8377 47.4547 60.8877 47.4367C60.9378 47.4186 60.9836 47.3908 61.0227 47.3546C61.0617 47.3188 61.0931 47.2751 61.115 47.2267L65.5871 37.6174C65.6212 37.5607 65.6391 37.4958 65.6391 37.4297C65.6391 37.3636 65.6212 37.2987 65.5871 37.242C65.446 37.0611 65.3537 36.8469 65.319 36.62C65.2984 36.428 65.3172 36.2338 65.3744 36.0494C65.4316 35.865 65.5259 35.6942 65.6515 35.5475C65.8792 35.3556 66.1624 35.2417 66.4597 35.2223C66.7569 35.203 67.0524 35.2794 67.3031 35.4403C67.3585 35.4723 67.4214 35.4892 67.4854 35.4892C67.5494 35.4892 67.6123 35.4723 67.6677 35.4403L76.6979 30.3354C76.7794 30.2939 76.8436 30.2248 76.879 30.1403C76.9143 30.0558 76.9186 29.9615 76.8908 29.8742C76.7322 29.3928 76.7242 28.8743 76.8682 28.3883C77.0124 27.9022 77.3014 27.4717 77.6967 27.1545C78.0923 26.8372 78.5751 26.6483 79.0808 26.6131C79.5865 26.5778 80.0909 26.6978 80.5266 26.9572C80.8178 27.1234 81.0702 27.3501 81.2666 27.6221C81.3476 27.7327 81.4642 27.8123 81.5969 27.8474C81.7296 27.8825 81.8703 27.8711 81.9958 27.8151L93.396 23.0105L93.6641 22.6137C93.633 21.9993 93.8307 21.3952 94.219 20.918C94.6073 20.4407 95.1584 20.1243 95.7664 20.0296C96.3742 19.935 96.9955 20.0689 97.5104 20.4055C98.0254 20.7421 98.3974 21.2575 98.5547 21.8522C98.6726 21.9702 98.7584 22.056 99.4554 22.3134L117.687 26.6997C117.767 26.72 117.851 26.7118 117.926 26.6765C118 26.6413 118.06 26.5813 118.095 26.5067C118.257 26.123 118.513 25.786 118.839 25.5264C119.165 25.2668 119.551 25.0929 119.961 25.0204C120.372 24.9479 120.794 24.9792 121.189 25.1115ZM125.803 45.137L129.431 41.5962C129.473 41.5322 129.494 41.4568 129.493 41.3801C129.491 41.3033 129.465 41.2291 129.42 41.1672C129.286 40.8074 129.234 40.4218 129.269 40.0393C129.305 39.6568 129.426 39.2872 129.624 38.958C129.696 38.8642 129.735 38.7492 129.735 38.6309C129.735 38.5125 129.696 38.3975 129.624 38.3038L122.052 29.8528C121.977 29.7664 121.875 29.7071 121.763 29.6838C121.65 29.6606 121.534 29.6747 121.43 29.7241C121.12 29.873 120.781 29.956 120.437 29.9681C120.093 29.9801 119.75 29.9207 119.429 29.7939C119.109 29.667 118.819 29.4752 118.576 29.2307C118.334 28.9861 118.144 28.694 118.02 28.3728C117.97 28.247 117.883 28.14 117.769 28.0669C117.656 27.9937 117.522 27.9582 117.387 27.9653L109.462 28.4479C109.383 28.4501 109.308 28.4807 109.251 28.534C109.194 28.5873 109.158 28.6596 109.15 28.7374C109.094 29.316 108.84 29.8575 108.432 30.271C108.353 30.3449 108.3 30.4421 108.281 30.5483C108.262 30.6545 108.277 30.7641 108.325 30.8609L110.915 35.8926C110.606 35.7931 110.296 35.6978 109.985 35.6066L107.671 31.1397C107.623 31.0431 107.544 30.9653 107.447 30.9186C107.349 30.872 107.24 30.8592 107.134 30.8824C106.52 31.0035 105.884 30.8901 105.35 30.5644C104.815 30.2388 104.423 29.7246 104.249 29.1235C104.232 29.0498 104.189 28.9847 104.128 28.9396C104.067 28.8945 103.993 28.8723 103.917 28.8768L81.835 29.6598C81.7916 29.663 81.7502 29.6776 81.7143 29.7021C81.6785 29.7266 81.6499 29.7601 81.631 29.7992C81.5272 30.205 81.316 30.5754 81.0198 30.8716L80.8161 31.0432C80.783 31.0739 80.7591 31.1134 80.7476 31.1571C80.7363 31.2008 80.7378 31.2469 80.7516 31.2899L83.3764 38.0669C83.1736 38.1697 82.9718 38.2744 82.771 38.3811L80.1619 31.6438C80.1388 31.5982 80.1002 31.5623 80.053 31.5427C80.0059 31.523 79.9532 31.5208 79.9045 31.5366C79.5694 31.6292 79.2188 31.6504 78.8751 31.5986C78.5315 31.5469 78.2026 31.4234 77.9096 31.2363C77.8718 31.2058 77.8244 31.1892 77.7757 31.1892C77.727 31.1892 77.6796 31.2058 77.6415 31.2363L61.9515 48.503C61.9153 48.5406 61.8909 48.5882 61.8814 48.6397C61.8718 48.6911 61.8776 48.7443 61.8979 48.7924C61.9217 48.8526 61.9658 48.9028 62.0225 48.9341C62.0793 48.9655 62.1452 48.976 62.2089 48.964L72.0526 47.0827C71.8341 47.3472 71.6196 47.6145 71.4091 47.8844L62.5306 49.554C62.4134 49.5768 62.3061 49.6357 62.2235 49.722C62.141 49.8086 62.0872 49.9182 62.0695 50.0366C62.0105 50.4775 61.8367 50.8954 61.5654 51.2484C61.5084 51.3261 61.4716 51.4169 61.4585 51.5122C61.4454 51.6078 61.4563 51.7051 61.4903 51.7954L64.85 61.2928C64.7485 61.6941 64.6538 62.0974 64.566 62.5024L60.9863 52.4388C60.9399 52.3081 60.8447 52.2005 60.7208 52.1386C60.5968 52.0766 60.4537 52.0651 60.3214 52.1062C60.2391 52.1318 60.1646 52.1777 60.1047 52.2397C60.0447 52.3014 60.0012 52.3774 59.9782 52.4601L54.3907 73.7165C54.3587 73.8399 54.3675 73.9703 54.4159 74.0882C54.4642 74.2061 54.5494 74.3052 54.6588 74.3706C54.8522 74.4813 55.029 74.6185 55.1843 74.7782C55.2873 74.8851 55.3773 75.004 55.4524 75.1322C55.5144 75.2205 55.5986 75.2907 55.6966 75.3358C55.7945 75.381 55.9027 75.3996 56.0101 75.3895L63.9841 74.3678C64.009 74.5821 64.0357 74.7959 64.0644 75.0094L56.2567 76.0329C56.1525 76.0505 56.0578 76.1042 55.9892 76.1847C55.9206 76.2649 55.8824 76.367 55.8814 76.4726C55.8955 76.9886 55.7452 77.4955 55.4524 77.9205C55.398 77.9945 55.3669 78.0827 55.3631 78.1746C55.3592 78.2664 55.3829 78.3569 55.431 78.4352L66.5095 97.3427C66.5327 97.381 66.566 97.4121 66.6057 97.433C66.6454 97.4538 66.69 97.4633 66.7347 97.4606C66.7983 97.4608 66.8594 97.4362 66.9054 97.3923C66.9514 97.3482 66.9786 97.2882 66.9813 97.2248L67.757 86.775C67.9479 87.1463 68.1453 87.5145 68.3491 87.8793L67.6355 97.3534C67.6291 97.4069 67.6402 97.4608 67.6674 97.5075C67.6945 97.5539 67.736 97.5902 67.7857 97.6108C68.3036 97.8182 68.7351 98.1968 69.0083 98.6834C69.0324 98.7207 69.0658 98.7514 69.1053 98.7719C69.1448 98.7927 69.189 98.8028 69.2335 98.8013L77.78 98.8476C78.0858 99.0849 78.3951 99.3171 78.7077 99.544L69.566 99.4554L69.5981 99.4768C69.5382 99.4755 69.4797 99.4953 69.4328 99.5325C69.3857 99.5696 69.3532 99.622 69.3407 99.6807C69.3622 100.073 69.2963 100.465 69.1477 100.828C69.1223 100.882 69.117 100.943 69.1327 101C69.1485 101.057 69.1843 101.106 69.2335 101.139L87.1971 114.009C87.2799 114.083 87.3867 114.123 87.4976 114.123C87.6082 114.123 87.7153 114.083 87.7978 114.009L87.8944 113.912C88.2275 113.573 88.6524 113.338 89.117 113.237C89.2507 113.214 89.3733 113.148 89.4661 113.049C89.5592 112.951 89.6171 112.824 89.6317 112.69L90.4556 105.18C90.6797 105.242 90.9044 105.301 91.1297 105.358L90.3074 112.7C90.2954 112.851 90.3328 113.002 90.4141 113.13C90.4953 113.257 90.616 113.355 90.7577 113.408C91.0233 113.53 91.2636 113.701 91.4656 113.912L91.5513 113.987C91.6156 114.062 91.6971 114.119 91.7889 114.155C91.8804 114.19 91.9793 114.203 92.0768 114.191L114.041 112.582C114.081 112.581 114.12 112.572 114.156 112.554C114.193 112.537 114.225 112.513 114.251 112.483C114.277 112.452 114.297 112.417 114.308 112.379C114.32 112.341 114.324 112.3 114.32 112.261C114.314 112.164 114.314 112.067 114.32 111.971C114.32 111.921 114.306 111.873 114.28 111.831C114.253 111.789 114.215 111.756 114.17 111.735L103.606 106.286C103.989 106.248 104.37 106.204 104.75 106.153L114.062 110.941C114.158 110.992 114.27 111.003 114.374 110.974C114.478 110.943 114.566 110.874 114.62 110.781C114.723 110.594 114.853 110.424 115.006 110.276C115.294 109.987 115.65 109.774 116.041 109.656C116.433 109.538 116.847 109.519 117.247 109.601C117.372 109.621 117.5 109.593 117.605 109.524C117.71 109.454 117.785 109.348 117.816 109.225L119.905 100.527C120.176 100.349 120.445 100.167 120.712 99.9818L118.363 109.826C118.343 109.912 118.35 110.003 118.383 110.085C118.415 110.167 118.472 110.238 118.545 110.287C118.566 110.31 118.592 110.329 118.621 110.341C118.649 110.354 118.68 110.361 118.711 110.361C118.743 110.361 118.774 110.354 118.802 110.341C118.831 110.329 118.857 110.31 118.878 110.287L132.208 96.7101C132.308 96.6047 132.379 96.475 132.413 96.3338C132.447 96.1926 132.443 96.0448 132.401 95.9056C132.052 94.7917 132.144 93.5859 132.659 92.5382C132.754 92.3616 132.784 92.1569 132.743 91.9605C132.702 91.7641 132.592 91.5887 132.434 91.4656L130.415 89.8728C130.54 89.6756 130.664 89.4773 130.785 89.2779L133.474 91.3798C134.199 90.6564 135.148 90.1991 136.166 90.0822C136.261 90.0692 136.35 90.0273 136.421 89.9621C136.492 89.8969 136.541 89.8116 136.563 89.7175L140.702 69.523C140.72 69.4282 140.708 69.3301 140.667 69.2425C140.627 69.155 140.56 69.0825 140.476 69.0351C140.392 68.9877 140.295 68.9679 140.199 68.9787C140.103 68.9892 140.013 69.0296 139.941 69.0941L135.998 72.6706C136.021 72.3022 136.038 71.9329 136.05 71.5629L140.209 67.7749V67.7857C140.289 67.7122 140.341 67.6134 140.357 67.506C140.372 67.3987 140.35 67.289 140.295 67.1957C139.964 66.6248 139.872 65.9468 140.037 65.3082C140.076 65.1617 140.067 65.0064 140.011 64.8655C139.955 64.7245 139.855 64.6053 139.726 64.5253L134.985 61.6285C134.902 61.2943 134.813 60.9615 134.721 60.6301L140.638 64.2467L140.702 64.1822C141.124 63.7528 141.689 63.4934 142.289 63.453C142.384 63.4462 142.477 63.4207 142.562 63.3773C142.647 63.3339 142.722 63.2739 142.783 63.2007C142.844 63.1277 142.89 63.0429 142.917 62.9518C142.945 62.8605 142.954 62.7647 142.944 62.6702L142.021 54.5621C142.007 54.438 141.963 54.3193 141.891 54.2165C141.82 54.1134 141.725 54.0296 141.614 53.9724C141.412 53.8558 141.225 53.7153 141.056 53.554C140.807 53.2962 140.613 52.9894 140.488 52.6533C140.438 52.5233 140.349 52.4117 140.235 52.3332C140.12 52.2547 139.983 52.2131 139.844 52.2136H131.166C131.043 52.0014 130.918 51.7905 130.79 51.5807H139.984C140.078 51.581 140.17 51.5494 140.243 51.4909C140.317 51.4325 140.369 51.3507 140.391 51.2591C140.415 51.1611 140.443 51.0645 140.477 50.9694C140.508 50.8984 140.517 50.8199 140.504 50.7439C140.49 50.6677 140.455 50.5969 140.402 50.5405L133.41 42.5293C133.364 42.4809 133.303 42.4485 133.238 42.4369C133.172 42.4253 133.105 42.4351 133.045 42.4649C132.649 42.6753 132.206 42.7788 131.758 42.7652C131.169 42.7396 130.607 42.5081 130.171 42.111C130.129 42.0741 130.076 42.0536 130.021 42.0536C129.965 42.0536 129.912 42.0741 129.87 42.111L126.266 45.6222C126.113 45.4592 125.959 45.2974 125.803 45.137ZM126.266 45.6222L123.264 48.5458C123.133 48.6715 123.051 48.8391 123.031 49.0197C123.011 49.2 123.056 49.3816 123.157 49.5324C123.464 49.9746 123.689 50.4688 123.822 50.991C123.862 51.1575 123.957 51.3058 124.091 51.4126C124.225 51.5193 124.39 51.5785 124.562 51.5807H130.79C129.5 49.4577 127.986 47.4593 126.266 45.6222ZM131.166 52.2136H124.68C124.499 52.2131 124.323 52.2763 124.184 52.3919C124.045 52.5075 123.951 52.6683 123.918 52.8464C123.897 52.9846 123.865 53.1208 123.822 53.2538C123.767 53.4201 123.77 53.5994 123.828 53.7642C123.886 53.929 123.997 54.0703 124.143 54.1656L134.721 60.6301C133.895 57.6866 132.701 54.8583 131.166 52.2136ZM134.985 61.6285L123.929 54.8732C123.767 54.7774 123.576 54.7432 123.391 54.7766C123.206 54.8102 123.039 54.909 122.921 55.0555L122.642 55.3558C121.933 56.0579 121.014 56.5096 120.025 56.6428C119.922 56.6571 119.823 56.692 119.733 56.7454C119.643 56.7988 119.565 56.8693 119.503 56.9534C119.441 57.0374 119.397 57.1327 119.372 57.234C119.348 57.3354 119.344 57.4407 119.36 57.5438L123.339 81.4274C123.36 81.5799 123.425 81.7229 123.526 81.839C123.627 81.9551 123.76 82.0394 123.907 82.0816C124.044 82.1245 124.19 82.1302 124.329 82.0984C124.469 82.0663 124.597 81.9975 124.701 81.8992L136.05 71.5629C136.064 71.1186 136.07 70.6733 136.067 70.2272C136.051 67.304 135.683 64.4188 134.985 61.6285ZM135.998 72.6706L124.926 82.7144C125.204 82.9911 125.413 83.3297 125.536 83.7022C125.659 84.075 125.693 84.4713 125.634 84.8593C125.619 84.9654 125.631 85.0738 125.671 85.1736C125.71 85.2735 125.775 85.361 125.859 85.4277L130.785 89.2779C133.829 84.2718 135.632 78.5751 135.998 72.6706ZM130.415 89.8728L125.72 86.1677C125.599 86.0751 125.447 86.0305 125.295 86.0423C125.143 86.0543 125 86.1218 124.894 86.2319C124.627 86.5008 124.3 86.703 123.94 86.8219C123.912 86.8331 123.887 86.8507 123.866 86.873C123.846 86.8951 123.831 86.9217 123.822 86.9505L120.712 99.9818C122.401 98.8084 123.999 97.4859 125.483 96.0231L125.483 96.0237L125.719 95.7984C127.5 93.9783 129.071 91.9905 130.415 89.8728ZM119.905 100.527L123.103 87.2079V87.1758C123.113 87.1474 123.115 87.1168 123.11 87.0875C123.104 87.0579 123.091 87.0306 123.071 87.0077C123.052 86.9849 123.027 86.9676 122.998 86.9576C122.97 86.9475 122.94 86.945 122.91 86.9505C122.327 86.8994 121.781 86.645 121.366 86.2319C121.201 86.0663 121.061 85.8787 120.948 85.6743C120.937 85.6535 120.923 85.6352 120.905 85.6201C120.888 85.6048 120.868 85.5935 120.845 85.5865C120.824 85.5795 120.8 85.577 120.777 85.5792C120.754 85.5815 120.732 85.5882 120.711 85.5993L94.9725 98.1471C94.894 98.1895 94.8293 98.2534 94.7856 98.3312C94.742 98.409 94.7212 98.4975 94.7259 98.5868C94.7575 99.0576 94.6612 99.5282 94.447 99.9488L94.2646 100.249C94.23 100.294 94.2057 100.346 94.1934 100.401C94.1811 100.456 94.1811 100.513 94.1934 100.569C94.2057 100.624 94.23 100.676 94.2646 100.721C94.299 100.766 94.3431 100.802 94.3933 100.828L104.75 106.153C110.171 105.44 115.351 103.512 119.905 100.527ZM103.606 106.286L93.5891 101.118C93.4098 101.048 93.2109 101.048 93.0313 101.118C92.805 101.203 92.5652 101.246 92.3237 101.246C92.1227 101.25 91.9301 101.325 91.7804 101.459C91.6306 101.593 91.5343 101.777 91.5085 101.976L91.1297 105.358C94.0104 106.086 96.9929 106.463 100.014 106.463C101.219 106.463 102.418 106.404 103.606 106.286ZM90.4556 105.18L90.8543 101.547C90.8784 101.373 90.8598 101.197 90.8001 101.032C90.7401 100.868 90.6411 100.72 90.5111 100.603L90.4467 100.549C90.2819 100.374 90.1379 100.179 90.0177 99.9702C89.9691 99.8748 89.8956 99.7948 89.805 99.7381C89.7142 99.6814 89.6099 99.6503 89.503 99.6486L78.7077 99.544C82.2594 102.122 86.2421 104.029 90.4556 105.18ZM77.78 98.8476L88.9883 98.9084C89.1664 98.9089 89.339 98.8469 89.4762 98.7333C89.6134 98.6197 89.7064 98.4616 89.7391 98.2866C89.7802 98.0397 89.8597 97.8007 89.9748 97.5787C90.0265 97.4781 90.0448 97.3637 90.0275 97.2519C90.0102 97.1402 89.958 97.0369 89.8783 96.9566L69.6303 76.5797C69.6011 76.5476 69.5639 76.5238 69.5225 76.5105C69.481 76.4975 69.4368 76.4955 69.3944 76.5047L69.4266 76.5263C69.3527 76.5394 69.2864 76.5797 69.2407 76.6392C69.1951 76.6986 69.1734 76.7731 69.1799 76.8479L68.3491 87.8793C69.9642 90.7707 71.9815 93.4519 74.3648 95.8357C75.4448 96.9159 76.5859 97.921 77.78 98.8476ZM67.757 86.775L68.5042 76.7087C68.5102 76.6442 68.4945 76.5795 68.4595 76.5251C68.4245 76.4706 68.3723 76.4295 68.3112 76.4082C67.9462 76.294 67.6119 76.0986 67.3333 75.8368C67.0547 75.5749 66.839 75.2533 66.7025 74.8961C66.6812 74.8349 66.6401 74.7828 66.5856 74.7479C66.5312 74.7128 66.4666 74.697 66.4022 74.703L64.0644 75.0094C64.6166 79.1281 65.8708 83.1063 67.757 86.775ZM63.9841 74.3678L66.3057 74.0704C66.3682 74.0578 66.4254 74.0265 66.4696 73.9806C66.5137 73.9344 66.5426 73.876 66.5524 73.813C66.6058 73.2366 66.8602 72.6976 67.2709 72.2899C67.3977 72.161 67.5379 72.0461 67.6892 71.9468C67.7457 71.9149 67.7888 71.8638 67.8105 71.8028C67.8322 71.7416 67.831 71.6746 67.8071 71.6144L64.566 62.5024C64.0229 65.0073 63.7429 67.5812 63.7426 70.184C63.7425 71.5891 63.8239 72.9858 63.9841 74.3678ZM64.85 61.2928L68.4292 71.4105C68.4525 71.4725 68.4956 71.5252 68.5518 71.56C68.6081 71.5949 68.6743 71.6102 68.7402 71.6037C69.1398 71.5512 69.5462 71.6029 69.9199 71.7539C69.9845 71.778 70.0557 71.7785 70.1206 71.7549C70.1855 71.7313 70.2398 71.6852 70.2738 71.625L84.2157 47.3662C84.2769 47.2571 84.2942 47.1286 84.2643 47.0072C84.2345 46.8858 84.1597 46.7802 84.0549 46.7117C83.8931 46.6056 83.7421 46.4835 83.6044 46.3473C83.4769 46.2326 83.3683 46.0987 83.2828 45.9505C83.2289 45.8697 83.1521 45.8072 83.0621 45.7709C82.9723 45.7345 82.8734 45.726 82.7786 45.7465L71.4091 47.8844C68.3074 51.8628 66.0794 56.4329 64.85 61.2928ZM72.0526 47.0827L82.4676 45.0923C82.584 45.0698 82.6886 45.0068 82.7633 44.9146C82.8378 44.8224 82.8774 44.7069 82.8752 44.5884C82.8679 44.2559 82.9289 43.9254 83.0543 43.6174C83.1797 43.3093 83.3671 43.0303 83.6044 42.7974C83.7125 42.6894 83.8311 42.5924 83.9583 42.5078C84.0514 42.4449 84.1201 42.3522 84.1532 42.2449C84.1863 42.1377 84.182 42.0224 84.1407 41.918L82.771 38.3811C79.7336 39.9938 76.9148 42.044 74.4128 44.492L74.3711 44.5357L74.3701 44.5347C73.5543 45.3503 72.7813 46.2009 72.0526 47.0827ZM83.3764 38.0669L84.8056 41.7571C84.8415 41.8519 84.9065 41.9331 84.9912 41.9889C85.076 42.0447 85.1761 42.0725 85.2774 42.0681C85.6201 42.0577 85.961 42.117 86.28 42.2424C86.5988 42.3677 86.8891 42.5565 87.1329 42.7974C87.5891 43.2532 87.8508 43.8684 87.8621 44.5133C87.8603 44.6277 87.8992 44.7391 87.9719 44.8275C88.0447 44.9159 88.1462 44.9756 88.2589 44.9959L114.77 50.1116C114.927 50.1397 115.089 50.1198 115.234 50.0546C115.379 49.9897 115.502 49.8826 115.585 49.7468C115.77 49.4373 115.993 49.1524 116.25 48.8998C116.37 48.7796 116.449 48.6241 116.474 48.456C116.499 48.2882 116.469 48.1167 116.39 47.9667L109.985 35.6066C106.764 34.663 103.4 34.1629 99.9842 34.1443C94.1622 34.1125 88.4758 35.4809 83.3764 38.0669ZM125.803 45.137L122.749 48.1167C122.625 48.2383 122.464 48.3156 122.292 48.3369C122.119 48.3582 121.945 48.3224 121.795 48.2348C121.208 47.8869 120.551 47.6754 119.871 47.616C119.192 47.5566 118.508 47.6506 117.87 47.8917C117.692 47.9604 117.495 47.9614 117.317 47.8942C117.139 47.8267 116.992 47.696 116.904 47.527L110.915 35.8926C116.344 37.6422 121.334 40.6635 125.441 44.7703C125.562 44.8917 125.683 45.014 125.803 45.137ZM116.69 27.1502L98.8655 22.8604C98.789 22.9528 98.6889 23.0231 98.576 23.0641C98.5025 23.3601 98.3753 23.64 98.2007 23.8899L98.3186 24.2974L104.518 27.1931C104.762 26.7593 105.137 26.4139 105.59 26.2064C106.031 25.9947 106.524 25.9154 107.01 25.9782C107.495 26.0411 107.952 26.2432 108.325 26.5603C108.594 26.8024 108.81 27.0983 108.957 27.429C108.993 27.5114 109.054 27.5806 109.13 27.6267C109.207 27.6729 109.297 27.6938 109.387 27.6864L116.69 27.2896C116.704 27.284 116.716 27.2744 116.724 27.262C116.732 27.2496 116.737 27.2349 116.737 27.2199C116.737 27.2049 116.732 27.1902 116.724 27.1778C116.716 27.1654 116.704 27.1558 116.69 27.1502ZM95.4551 65.7374L86.4466 47.2696C86.3904 47.1798 86.3069 47.1106 86.2085 47.0719C86.11 47.0333 86.0016 47.0275 85.8995 47.0551C85.7463 47.0709 85.5917 47.0709 85.4385 47.0551C85.3522 47.0579 85.2679 47.0817 85.1929 47.1246C85.1182 47.1678 85.0552 47.2285 85.0093 47.3017L70.7242 72.215L70.81 72.2899C70.9769 72.4537 71.1179 72.6416 71.2283 72.8478C71.2549 72.8942 71.2943 72.9321 71.3418 72.9569C71.3894 72.9815 71.443 72.992 71.4964 72.987L92.1305 71.2068C92.4039 71.175 92.6585 71.0516 92.8532 70.8569C93.0478 70.6623 93.171 70.4077 93.2031 70.1343C93.2921 69.5275 93.5059 68.9453 93.8307 68.4251C94.1555 67.9046 94.5844 67.4568 95.0906 67.1099C95.3084 66.965 95.4654 66.7455 95.5326 66.4926C95.5998 66.2398 95.5722 65.9711 95.4551 65.7374ZM94.8654 97.4606L120.604 84.9235C120.629 84.8985 120.645 84.8666 120.651 84.8322C120.656 84.7976 120.652 84.7622 120.636 84.7306C120.597 84.3589 120.641 83.9829 120.765 83.6305C120.89 83.2778 121.091 82.9575 121.355 82.6929L121.441 82.6179C121.465 82.601 121.485 82.5787 121.499 82.5524C121.513 82.5263 121.52 82.4972 121.52 82.4676C121.52 82.438 121.513 82.4089 121.499 82.3828C121.485 82.3567 121.465 82.3342 121.441 82.3176L102.458 73.963C102.14 73.8218 101.79 73.7691 101.445 73.8108C101.099 73.8524 100.771 73.9864 100.496 74.1991C99.9962 74.5926 99.4484 74.9207 98.8655 75.1751C98.3104 75.3554 97.8014 75.6557 97.3747 76.0542C96.9701 76.4741 96.6977 77.0039 96.5919 77.5773L93.1278 96.0235C93.1075 96.1299 93.1228 96.2402 93.1712 96.3371C93.2197 96.4339 93.2987 96.5121 93.396 96.5598C93.6232 96.6805 93.8327 96.832 94.0181 97.0103C94.1099 97.1049 94.1959 97.2052 94.2754 97.3106C94.3401 97.4011 94.435 97.4658 94.5428 97.4934C94.6509 97.5208 94.765 97.5092 94.8654 97.4606ZM71.3726 74.92C71.247 75.2413 71.0554 75.5328 70.81 75.7756C70.7206 75.8794 70.6199 75.973 70.5097 76.0542C70.4782 76.0806 70.4529 76.1132 70.4355 76.1503C70.4181 76.1874 70.4091 76.2278 70.4091 76.269C70.4091 76.3098 70.4181 76.3502 70.4355 76.3873C70.4529 76.4245 70.4782 76.4571 70.5097 76.4834L90.2322 96.3667C90.3471 96.4873 90.4968 96.5688 90.6604 96.5997C90.8239 96.6303 90.9932 96.609 91.144 96.5382C91.3853 96.4243 91.6416 96.3448 91.9053 96.3024C92.0472 96.2844 92.1799 96.2217 92.284 96.1233C92.3881 96.025 92.4584 95.8961 92.4845 95.7554L96.1416 76.2366C96.1946 75.9351 96.1542 75.6246 96.0257 75.3466C95.8973 75.0687 95.6871 74.8367 95.423 74.6817C95.0766 74.487 94.759 74.2452 94.4791 73.963C94.0755 73.5589 93.7517 73.0823 93.5247 72.5581C93.4203 72.3108 93.241 72.1023 93.0122 71.9621C92.7834 71.8216 92.5163 71.7564 92.2484 71.7752L71.7967 73.5983C71.759 73.6011 71.7223 73.6113 71.6887 73.6287C71.6552 73.6457 71.6254 73.6698 71.6014 73.6989C71.5773 73.728 71.5594 73.7616 71.5487 73.7977C71.538 73.8338 71.5348 73.872 71.5393 73.9093C71.5551 74.2542 71.4983 74.5984 71.3726 74.92ZM122.508 82.0078C122.528 82.0078 122.548 82.0038 122.567 81.9958V82.0387C122.593 82.0409 122.62 82.0369 122.644 82.0269C122.669 82.0171 122.691 82.0018 122.709 81.982C122.726 81.9624 122.739 81.9388 122.746 81.9133C122.753 81.8877 122.754 81.8608 122.749 81.835L118.567 57.0181C118.546 56.8769 118.486 56.7444 118.393 56.6361C118.3 56.5277 118.178 56.4482 118.041 56.4068C117.661 56.2728 117.3 56.089 116.969 55.86C116.836 55.7687 116.679 55.7197 116.518 55.7197C116.357 55.7197 116.2 55.7687 116.068 55.86L101.654 66.5844C101.414 66.7623 101.254 67.0272 101.208 67.3222C101.161 67.6171 101.233 67.9186 101.407 68.1609C101.52 68.3252 101.62 68.4973 101.708 68.6759C102.119 69.5895 102.271 70.5986 102.147 71.5929C102.077 71.9754 102.137 72.3702 102.318 72.7144C102.499 73.0585 102.79 73.3319 103.145 73.4912L122.449 81.9958C122.468 82.0038 122.488 82.0078 122.508 82.0078ZM100.871 66.3379L115.403 55.5274C115.559 55.4115 115.665 55.2412 115.701 55.0505C115.736 54.8596 115.699 54.6625 115.596 54.4979C115.059 53.6338 114.832 52.6126 114.953 51.6023C114.976 51.4061 114.924 51.2082 114.81 51.0477C114.694 50.8869 114.524 50.775 114.33 50.7336L88.0123 45.6502C87.9137 45.6309 87.8116 45.6419 87.7196 45.6823C87.6278 45.7224 87.5503 45.7899 87.4976 45.8755C87.3942 46.0425 87.2718 46.1973 87.1329 46.3365C87.0544 46.406 87.0014 46.4995 86.9819 46.6024C86.9626 46.7052 86.9779 46.8116 87.0255 46.9049L96.1093 65.5442C96.2229 65.7855 96.4063 65.9872 96.6358 66.1229C96.865 66.2589 97.1302 66.3223 97.3963 66.3058C98.0269 66.2614 98.6595 66.3527 99.2517 66.5739C99.5199 66.6725 99.8086 66.7026 100.091 66.6614C100.374 66.6201 100.642 66.5089 100.871 66.3379ZM94.0181 23.8041L93.5783 23.6647L81.8992 28.6195C81.857 28.6358 81.8214 28.6658 81.7981 28.7046C81.7748 28.7435 81.7652 28.789 81.7705 28.834C81.7783 28.888 81.8054 28.9373 81.847 28.9728C81.8884 29.0083 81.9413 29.0275 81.9958 29.027L103.938 28.1905C103.992 28.1871 104.042 28.1664 104.083 28.1316C104.124 28.0968 104.152 28.0497 104.164 27.9974C104.173 27.9479 104.165 27.8966 104.142 27.8519C104.118 27.8071 104.081 27.7715 104.035 27.7508L97.6 24.7479H97.2568C96.789 24.9812 96.2595 25.0612 95.7436 24.9765C95.2276 24.8917 94.7515 24.6467 94.3828 24.276C94.2406 24.1358 94.1179 23.9771 94.0181 23.8041ZM66.3704 37.8407C66.2821 37.9046 66.2118 37.9902 66.1663 38.0893L61.7692 47.4196C61.7647 47.4374 61.766 47.456 61.7729 47.473C61.7798 47.4898 61.7919 47.5041 61.8074 47.5137C61.823 47.5234 61.8412 47.5277 61.8594 47.5262C61.8776 47.5247 61.8948 47.5174 61.9086 47.5054L76.6334 31.3435C76.6427 31.3365 76.6502 31.3277 76.656 31.3177C76.6617 31.3077 76.6655 31.2966 76.667 31.2852C76.6685 31.2737 76.6678 31.2621 76.6647 31.2509C76.6617 31.2398 76.6567 31.2293 76.6494 31.2202C76.6424 31.211 76.6336 31.2033 76.6239 31.1976C76.6138 31.1918 76.6028 31.1881 76.5913 31.1866C76.5797 31.1851 76.5682 31.1859 76.5569 31.1889C76.5459 31.1919 76.5353 31.1971 76.5263 31.2041L68.161 35.9336C68.0654 35.99 67.9857 36.0698 67.9294 36.1655C67.8731 36.2612 67.8421 36.3696 67.8393 36.4806C67.8384 36.6448 67.8048 36.8071 67.7403 36.9581C67.6759 37.1092 67.5819 37.2458 67.4639 37.36C67.2539 37.576 66.971 37.706 66.6703 37.7246C66.562 37.7369 66.4587 37.7768 66.3704 37.8407ZM53.2074 62.2442C53.1714 62.3087 53.154 62.3819 53.1573 62.4557L53.833 72.3757C53.8396 72.3948 53.8519 72.4111 53.8682 72.4229C53.8846 72.4344 53.9041 72.4407 53.9241 72.4407C53.9442 72.4407 53.9637 72.4344 53.9801 72.4229C53.9964 72.4111 54.0087 72.3948 54.0153 72.3757L59.2918 52.3851C59.2982 52.3633 59.2998 52.3402 59.2966 52.3177C59.2935 52.2951 59.2855 52.2735 59.2734 52.2542C59.2612 52.2351 59.2451 52.2186 59.2261 52.206C59.2071 52.1935 59.1856 52.185 59.1631 52.1815C59.1316 52.1697 59.0968 52.1697 59.0652 52.1815C59.0337 52.1932 59.0075 52.2161 58.9915 52.2457L53.833 59.9137C53.794 59.9767 53.7734 60.0492 53.7734 60.1229C53.7734 60.1969 53.794 60.2694 53.833 60.3321C53.9733 60.5779 54.0294 60.8631 53.9926 61.1438C53.9558 61.4248 53.8282 61.6856 53.6292 61.887C53.55 61.9676 53.4598 62.0363 53.3611 62.091C53.2966 62.1268 53.2434 62.1798 53.2074 62.2442ZM54.7386 78.7485C54.6691 78.7286 54.5948 78.7354 54.5301 78.7678C54.4858 78.7866 54.448 78.8179 54.4213 78.8578C54.3947 78.898 54.3803 78.9449 54.3799 78.9928L55.5489 89.5459C55.5685 89.7208 55.6389 89.8861 55.7513 90.0213C55.8638 90.1567 56.0134 90.2561 56.1817 90.3075C56.3711 90.3714 56.5435 90.4778 56.6857 90.6183C56.8086 90.7424 56.9051 90.8899 56.9696 91.0519C57.0341 91.2142 57.0652 91.3876 57.0611 91.5621C57.0576 91.7127 57.0909 91.8616 57.1582 91.9961C57.2255 92.1308 57.3247 92.2469 57.4472 92.3342L65.0295 97.9432C65.0732 97.9748 65.1257 97.9916 65.1796 97.9916C65.2335 97.9916 65.286 97.9748 65.3298 97.9432C65.4284 97.8679 65.5323 97.7999 65.6408 97.7395C65.6715 97.7237 65.6986 97.7019 65.7207 97.6755C65.7428 97.6489 65.7593 97.6183 65.7694 97.5852C65.7794 97.5524 65.7826 97.5175 65.779 97.4834C65.7753 97.449 65.7648 97.4157 65.748 97.3856L54.9054 78.8749C54.8675 78.8134 54.808 78.7683 54.7386 78.7485ZM64.5683 98.4473L57.608 93.2994L71.2497 109.88C71.3248 109.987 71.4857 109.88 71.432 109.762L67.7535 102.469C67.7281 102.417 67.6851 102.376 67.6321 102.352C67.5792 102.329 67.5196 102.324 67.4639 102.34C66.9972 102.458 66.5064 102.439 66.0504 102.284C65.5945 102.13 65.1928 101.847 64.8937 101.47C64.5947 101.093 64.411 100.637 64.3646 100.158C64.3183 99.6789 64.4114 99.1966 64.6327 98.7692C64.6632 98.717 64.6736 98.6553 64.6617 98.5958C64.6499 98.5366 64.6166 98.4837 64.5683 98.4473ZM75.4527 113.373C75.5062 113.425 75.5737 113.459 75.6468 113.472L86.8111 115.961C86.8592 115.972 86.9091 115.972 86.9573 115.961C87.0054 115.951 87.0506 115.929 87.089 115.898C87.1274 115.867 87.158 115.827 87.1785 115.782C87.1993 115.737 87.2094 115.688 87.2079 115.639C87.1973 115.496 87.1973 115.353 87.2079 115.21C87.2237 115.132 87.2167 115.051 87.1883 114.977C87.1597 114.903 87.1108 114.839 87.0471 114.792L68.6973 101.718H68.6437C68.5882 101.781 68.5272 101.838 68.4613 101.89C68.4139 101.924 68.3803 101.975 68.3665 102.032C68.3528 102.088 68.3598 102.149 68.3863 102.201L73.266 111.853C73.3261 111.976 73.4241 112.077 73.5457 112.141C73.6672 112.205 73.806 112.228 73.9416 112.207C74.1363 112.183 74.334 112.203 74.5197 112.266C74.7055 112.329 74.8745 112.434 75.0141 112.572C75.1794 112.741 75.2945 112.952 75.3465 113.183C75.3623 113.255 75.3993 113.322 75.4527 113.373ZM107.515 117.446C107.592 117.446 107.668 117.426 107.735 117.387L115.049 114.148C115.078 114.131 115.102 114.107 115.119 114.078C115.135 114.049 115.144 114.015 115.144 113.982C115.144 113.948 115.135 113.915 115.119 113.886C115.102 113.857 115.078 113.833 115.049 113.816C114.916 113.682 114.797 113.535 114.695 113.376C114.663 113.329 114.62 113.291 114.569 113.264C114.519 113.238 114.462 113.225 114.405 113.226L92.4416 114.845C92.3972 114.849 92.354 114.862 92.3149 114.883C92.2758 114.905 92.2414 114.934 92.2143 114.969C92.187 115.004 92.1674 115.045 92.1566 115.088C92.1461 115.132 92.1443 115.177 92.1521 115.22C92.1679 115.36 92.1679 115.5 92.1521 115.639C92.1564 115.74 92.1962 115.837 92.265 115.911C92.3337 115.986 92.4268 116.034 92.5273 116.046L105.311 117.623C105.398 117.636 105.488 117.629 105.572 117.601C105.656 117.573 105.732 117.525 105.794 117.462C105.936 117.313 106.119 117.209 106.319 117.162C106.488 117.117 106.665 117.114 106.835 117.153C107.005 117.193 107.163 117.273 107.295 117.387C107.362 117.426 107.438 117.446 107.515 117.446ZM131.35 106.276L131.629 106.083L134.428 99.2623C134.499 99.0922 134.51 98.9029 134.459 98.7258C134.409 98.5484 134.299 98.3937 134.149 98.2866C133.921 98.1328 133.71 97.957 133.517 97.761C133.475 97.7244 133.435 97.6851 133.399 97.6429C133.324 97.5634 133.233 97.5002 133.132 97.4568C133.032 97.4136 132.924 97.3913 132.814 97.3913C132.705 97.3913 132.597 97.4136 132.496 97.4568C132.396 97.5002 132.305 97.5634 132.23 97.6429L119.264 110.856C119.205 110.915 119.164 110.99 119.145 111.071C119.126 111.152 119.13 111.238 119.157 111.317C119.21 111.498 119.243 111.685 119.253 111.875C119.257 111.926 119.274 111.975 119.301 112.019C119.328 112.062 119.365 112.099 119.409 112.125C119.453 112.151 119.503 112.166 119.554 112.169C119.605 112.173 119.656 112.163 119.703 112.143L129.892 107.692L130.106 107.402C130.138 107.12 130.263 106.856 130.46 106.652C130.698 106.418 131.017 106.283 131.35 106.276ZM144.454 77.0112C144.493 76.9191 144.509 76.8188 144.499 76.7192L143.63 68.783C143.621 68.7188 143.599 68.6571 143.565 68.6019C143.531 68.5467 143.486 68.4996 143.432 68.463C143.379 68.4266 143.318 68.402 143.254 68.3905C143.19 68.3792 143.125 68.3814 143.062 68.397C142.708 68.4667 142.343 68.4667 141.989 68.397C141.931 68.3862 141.871 68.3869 141.813 68.3995C141.754 68.412 141.699 68.4359 141.65 68.4697C141.602 68.5038 141.56 68.547 141.528 68.5971C141.496 68.6471 141.474 68.703 141.464 68.7617L137.303 89.6102C137.29 89.6688 137.289 89.729 137.3 89.788C137.312 89.8467 137.334 89.9026 137.367 89.9525C137.4 90.0025 137.442 90.0453 137.492 90.0787C137.542 90.1118 137.598 90.1349 137.656 90.1464C137.872 90.1908 138.083 90.2518 138.289 90.3288C138.391 90.3622 138.502 90.3591 138.601 90.32C138.701 90.2809 138.784 90.2081 138.836 90.1143L143.727 81.2021C143.785 81.1108 143.816 81.0047 143.816 80.8966C143.816 80.7883 143.785 80.6822 143.727 80.5909C143.407 80.112 143.263 79.5371 143.32 78.9639C143.376 78.391 143.63 77.8555 144.038 77.4486C144.111 77.3746 144.19 77.3064 144.273 77.2447C144.352 77.1835 144.415 77.103 144.454 77.0112Z" fill="url(#paint0_linear_155_333)"/>
<path fill-rule="evenodd" clip-rule="evenodd" d="M117.158 87.3321L121.928 92.1028L119.905 100.527C115.351 103.512 110.171 105.441 104.75 106.154L94.3933 100.829C94.3432 100.803 94.299 100.766 94.2647 100.721C94.23 100.677 94.2057 100.625 94.1934 100.569C94.1811 100.514 94.1811 100.457 94.1934 100.401C94.2057 100.346 94.23 100.294 94.2647 100.25L94.447 99.9493C94.6612 99.5287 94.7576 99.0581 94.7259 98.5873C94.7212 98.498 94.742 98.4095 94.7856 98.3317C94.8293 98.2539 94.894 98.19 94.9725 98.1476L117.158 87.3321ZM116.668 86.8415L94.8654 97.4611C94.7651 97.5097 94.6509 97.5213 94.5428 97.4939C94.435 97.4663 94.3402 97.4016 94.2754 97.3111C94.1959 97.2057 94.1099 97.1054 94.0181 97.0108C93.8327 96.8325 93.6233 96.681 93.396 96.5603C93.2987 96.5126 93.2197 96.4344 93.1713 96.3376C93.1229 96.2407 93.1076 96.1304 93.1279 96.024L96.5919 77.5778C96.6978 77.0044 96.9702 76.4746 97.3748 76.0547C97.8014 75.6562 98.3104 75.3559 98.8655 75.1756C99.4484 74.9212 99.9963 74.5931 100.496 74.1996C100.771 73.9869 101.099 73.8529 101.445 73.8113C101.79 73.7696 102.14 73.8223 102.458 73.9635L104.841 75.012L116.668 86.8415ZM102.175 72.3461L103.459 73.6302L103.145 73.4917C102.79 73.3324 102.499 73.059 102.318 72.7149C102.256 72.597 102.209 72.4733 102.175 72.3461ZM82.1399 52.3065L95.3471 65.5165L95.4551 65.7379C95.5723 65.9716 95.5999 66.2403 95.5326 66.4931C95.4654 66.746 95.3084 66.9655 95.0907 67.1104C94.5845 67.4573 94.1555 67.9051 93.8307 68.4256C93.5059 68.9458 93.2922 69.528 93.2031 70.1348C93.171 70.4082 93.0479 70.6628 92.8532 70.8574C92.6586 71.0521 92.404 71.1755 92.1305 71.2073L71.4964 72.9875C71.4431 72.9925 71.3894 72.982 71.3418 72.9574C71.2943 72.9326 71.2549 72.8947 71.2283 72.8483C71.1179 72.6421 70.9769 72.4542 70.81 72.2905L70.7243 72.2155L82.1399 52.3065ZM76.7207 46.8862L81.6553 51.8218L70.2738 71.6255C70.2399 71.6857 70.1855 71.7318 70.1207 71.7554C70.0557 71.779 69.9845 71.7785 69.9199 71.7544C69.5462 71.6034 69.1398 71.5517 68.7402 71.6042C68.6743 71.6107 68.6081 71.5954 68.5519 71.5605C68.4956 71.5257 68.4525 71.473 68.4292 71.411L64.85 61.2933C66.0794 56.4334 68.3075 51.8633 71.4092 47.8849L76.7207 46.8862ZM72.0527 47.0832C72.7813 46.2014 73.5543 45.3508 74.3702 44.5352L76.1373 46.3026L72.0527 47.0832ZM63.9842 74.3683C63.8239 72.9863 63.7425 71.5896 63.7427 70.1845C63.7429 67.5817 64.0229 65.0078 64.566 62.503L67.8072 71.6149C67.831 71.6751 67.8323 71.7421 67.8106 71.8033C67.7889 71.8643 67.7457 71.9154 67.6892 71.9473C67.5379 72.0466 67.3978 72.1615 67.2709 72.2905C66.8602 72.6981 66.6058 73.2371 66.5524 73.8135C66.5426 73.8765 66.5137 73.9349 66.4696 73.9811C66.4255 74.027 66.3682 74.0583 66.3057 74.0709L63.9842 74.3683ZM68.3491 87.8798L69.1799 76.8484C69.1734 76.7736 69.1951 76.6991 69.2407 76.6397C69.2864 76.5802 69.3527 76.5399 69.4266 76.5268L69.3944 76.5052C69.4368 76.496 69.481 76.498 69.5225 76.511C69.5639 76.5243 69.6011 76.5481 69.6303 76.5802L89.8783 96.9571C89.9581 97.0374 90.0102 97.1407 90.0275 97.2524C90.0449 97.3642 90.0265 97.4786 89.9749 97.5792C89.8597 97.8012 89.7802 98.0402 89.7391 98.2871C89.7065 98.4621 89.6134 98.6202 89.4762 98.7338C89.339 98.8474 89.1664 98.9094 88.9883 98.9089L77.78 98.8481C76.5859 97.9215 75.4448 96.9164 74.3648 95.8362C71.9815 93.4524 69.9643 90.7712 68.3491 87.8798ZM90.4556 105.181C86.2421 104.029 82.2595 102.123 78.7078 99.5445L89.503 99.6491C89.6099 99.6508 89.7142 99.6819 89.8051 99.7386C89.8956 99.7953 89.9691 99.8753 90.0178 99.9707C90.1379 100.18 90.2819 100.374 90.4467 100.55L90.5112 100.604C90.6411 100.721 90.7402 100.868 90.8001 101.033C90.8598 101.197 90.8784 101.374 90.8543 101.547L90.4556 105.181ZM103.606 106.286C102.418 106.404 101.219 106.464 100.014 106.464C96.9929 106.464 94.0105 106.086 91.1297 105.358L91.5085 101.976C91.5343 101.777 91.6306 101.594 91.7804 101.46C91.9301 101.326 92.1228 101.25 92.3237 101.247C92.5652 101.247 92.805 101.203 93.0313 101.118C93.2109 101.049 93.4098 101.049 93.5892 101.118L103.606 106.286ZM67.757 86.7755C65.8709 83.1068 64.6167 79.1286 64.0644 75.0099L66.4022 74.7035C66.4667 74.6975 66.5312 74.7133 66.5857 74.7484C66.6401 74.7833 66.6812 74.8354 66.7025 74.8966C66.839 75.2538 67.0547 75.5754 67.3333 75.8373C67.6119 76.0991 67.9463 76.2945 68.3112 76.4087C68.3723 76.43 68.4245 76.4711 68.4595 76.5256C68.4945 76.58 68.5103 76.6447 68.5043 76.7092L67.757 86.7755ZM122.464 92.6393L125.666 95.8417C124.13 97.377 122.471 98.7604 120.712 99.9823L122.464 92.6393ZM71.3727 74.9205C71.2471 75.2418 71.0554 75.5333 70.81 75.7761C70.7207 75.8799 70.62 75.9735 70.5098 76.0547C70.4783 76.0811 70.4529 76.1137 70.4355 76.1508C70.4181 76.1879 70.4091 76.2283 70.4091 76.2695C70.4091 76.3103 70.4181 76.3507 70.4355 76.3878C70.4529 76.425 70.4783 76.4576 70.5098 76.4839L90.2322 96.3672C90.3471 96.4878 90.4969 96.5693 90.6604 96.6002C90.8239 96.6308 90.9933 96.6095 91.144 96.5387C91.3853 96.4249 91.6417 96.3453 91.9053 96.3029C92.0473 96.2849 92.18 96.2222 92.2841 96.1238C92.3882 96.0255 92.4584 95.8966 92.4845 95.7559L96.1417 76.2371C96.1946 75.9356 96.1542 75.6251 96.0258 75.3471C95.8973 75.0692 95.6871 74.8372 95.423 74.6822C95.0766 74.4875 94.7591 74.2457 94.4791 73.9635C94.0755 73.5594 93.7517 73.0828 93.5247 72.5586C93.4203 72.3113 93.241 72.1028 93.0122 71.9626C92.7835 71.8221 92.5163 71.7569 92.2484 71.7757L71.7967 73.5988C71.7591 73.6016 71.7223 73.6119 71.6887 73.6292C71.6552 73.6462 71.6255 73.6703 71.6014 73.6994C71.5773 73.7285 71.5594 73.7621 71.5488 73.7982C71.5381 73.8343 71.5349 73.8725 71.5393 73.9098C71.5551 74.2547 71.4983 74.5989 71.3727 74.9205Z" fill="url(#paint1_linear_155_333)"/>
<path fill-rule="evenodd" clip-rule="evenodd" d="M83.3764 38.0677C88.4758 35.4818 94.1622 34.1133 99.9842 34.1451C103.4 34.1637 106.764 34.6638 109.985 35.6074L116.39 47.9676C116.469 48.1176 116.499 48.2892 116.474 48.457C116.449 48.6251 116.37 48.7806 116.25 48.9008C115.993 49.1533 115.77 49.4383 115.585 49.7478C115.502 49.8835 115.379 49.9906 115.234 50.0556C115.089 50.1208 114.927 50.1406 114.77 50.1125L88.2589 44.9969C88.1463 44.9766 88.0447 44.9169 87.9719 44.8285C87.8992 44.7401 87.8603 44.6287 87.8621 44.5143C87.8508 43.8694 87.5892 43.2542 87.1329 42.7983C86.8891 42.5575 86.5989 42.3687 86.2801 42.2433C85.961 42.118 85.6201 42.0587 85.2775 42.0691C85.1761 42.0734 85.076 42.0457 84.9913 41.9899C84.9065 41.934 84.8415 41.8529 84.8056 41.7581L83.3764 38.0677ZM75.8222 46.3633L74.1876 44.7288L74.4128 44.4928C76.9148 42.0449 79.7335 39.9947 82.7709 38.3819L84.1407 41.9189C84.1821 42.0233 84.1863 42.1387 84.1532 42.2459C84.1201 42.3531 84.0514 42.4459 83.9583 42.5088C83.8311 42.5934 83.7125 42.6904 83.6044 42.7983C83.3671 43.0312 83.1797 43.3103 83.0543 43.6183C82.9289 43.9264 82.8679 44.2569 82.8752 44.5894C82.8775 44.7079 82.8378 44.8234 82.7633 44.9156C82.6886 45.0078 82.584 45.0707 82.4676 45.0933L75.8222 46.3633ZM81.5187 52.0599L76.4049 46.946L82.7786 45.7475C82.8735 45.7269 82.9723 45.7355 83.0621 45.7718C83.1521 45.8082 83.2289 45.8707 83.2828 45.9514C83.3684 46.0997 83.477 46.2336 83.6044 46.3483C83.7421 46.4845 83.8931 46.6066 84.0549 46.7127C84.1597 46.7812 84.2345 46.8868 84.2643 47.0082C84.2942 47.1296 84.2769 47.258 84.2157 47.3671L81.5187 52.0599ZM95.5625 66.1036L82.0036 52.5447L85.0093 47.3027C85.0552 47.2294 85.1182 47.1687 85.1929 47.1256C85.2679 47.0827 85.3522 47.0589 85.4385 47.0561C85.5918 47.0719 85.7463 47.0719 85.8995 47.0561C86.0016 47.0285 86.11 47.0343 86.2086 47.0729C86.3069 47.1115 86.3904 47.1808 86.4466 47.2706L95.4551 65.7383C95.5129 65.8536 95.5489 65.9774 95.5625 66.1036ZM116.421 86.9622L104.181 74.7221L121.441 82.3186C121.465 82.3351 121.485 82.3577 121.499 82.3838C121.513 82.4099 121.52 82.439 121.52 82.4686C121.52 82.4982 121.513 82.5273 121.499 82.5534C121.485 82.5797 121.465 82.602 121.441 82.6188L121.355 82.6938C121.091 82.9585 120.89 83.2788 120.765 83.6315C120.641 83.9839 120.597 84.3599 120.637 84.7316C120.652 84.7632 120.656 84.7986 120.651 84.8332C120.645 84.8676 120.629 84.8994 120.604 84.9245L116.421 86.9622ZM121.857 92.3982L116.912 87.4527L120.712 85.6003C120.732 85.5892 120.754 85.5825 120.777 85.5802C120.8 85.5779 120.824 85.5804 120.845 85.5875C120.868 85.5945 120.888 85.6058 120.905 85.6211C120.923 85.6361 120.937 85.6544 120.948 85.6753C121.061 85.8797 121.201 86.0673 121.366 86.2329C121.781 86.646 122.327 86.9003 122.91 86.9515C122.94 86.946 122.97 86.9485 122.998 86.9585C123.027 86.9686 123.052 86.9859 123.071 87.0087C123.091 87.0315 123.104 87.0589 123.11 87.0885C123.115 87.1178 123.113 87.1484 123.103 87.1768V87.2089L121.857 92.3982ZM130.415 89.8737C129.071 91.9914 127.5 93.9791 125.719 95.7992L125.483 96.0245L122.394 92.9349L123.822 86.9515C123.831 86.9227 123.846 86.8961 123.866 86.874C123.887 86.8517 123.912 86.8341 123.94 86.8228C124.3 86.7039 124.627 86.5018 124.894 86.2329C125 86.1228 125.143 86.0553 125.295 86.0432C125.447 86.0314 125.599 86.0761 125.72 86.1687L130.415 89.8737ZM135.998 72.6716C135.632 78.5761 133.829 84.2727 130.785 89.2788L125.859 85.4287C125.775 85.362 125.71 85.2744 125.671 85.1746C125.631 85.0748 125.619 84.9664 125.634 84.8603C125.693 84.4723 125.659 84.0759 125.536 83.7032C125.413 83.3307 125.204 82.9921 124.926 82.7154L135.998 72.6716ZM134.985 61.6295C135.683 64.4198 136.051 67.3049 136.067 70.2281C136.07 70.6742 136.064 71.1196 136.05 71.5639L124.701 81.9002C124.597 81.9985 124.469 82.0672 124.329 82.0993C124.19 82.1312 124.044 82.1254 123.907 82.0825C123.76 82.0404 123.627 81.9561 123.526 81.84C123.425 81.7239 123.36 81.5809 123.339 81.4284L119.36 57.5448C119.344 57.4417 119.348 57.3364 119.372 57.235C119.397 57.1337 119.441 57.0384 119.503 56.9543C119.565 56.8703 119.643 56.7998 119.733 56.7464C119.823 56.693 119.922 56.6581 120.025 56.6438C121.014 56.5106 121.933 56.0588 122.642 55.3568L122.921 55.0565C123.039 54.91 123.206 54.8112 123.391 54.7776C123.576 54.7442 123.767 54.7783 123.929 54.8742L134.985 61.6295ZM131.166 52.2145C132.701 54.8593 133.895 57.6876 134.721 60.6311L124.143 54.1665C123.997 54.0712 123.886 53.93 123.828 53.7652C123.77 53.6004 123.767 53.4211 123.822 53.2548C123.865 53.1218 123.897 52.9856 123.918 52.8474C123.951 52.6693 124.045 52.5085 124.184 52.3929C124.323 52.2773 124.499 52.214 124.68 52.2145H131.166ZM126.266 45.6231C127.987 47.4602 129.5 49.4586 130.79 51.5817H124.562C124.391 51.5794 124.225 51.5202 124.091 51.4136C123.957 51.3068 123.862 51.1585 123.822 50.992C123.689 50.4697 123.464 49.9756 123.157 49.5334C123.056 49.3826 123.011 49.201 123.031 49.0207C123.051 48.84 123.133 48.6725 123.264 48.5468L126.266 45.6231ZM125.803 45.1379L122.749 48.1176C122.625 48.2393 122.464 48.3166 122.292 48.3379C122.119 48.3592 121.945 48.3233 121.795 48.2358C121.208 47.8879 120.551 47.6764 119.871 47.617C119.192 47.5575 118.508 47.6516 117.87 47.8926C117.692 47.9614 117.495 47.9624 117.317 47.8952C117.139 47.8277 116.992 47.697 116.904 47.5279L110.915 35.8934C116.344 37.643 121.334 40.6643 125.441 44.7711C125.563 44.8926 125.683 45.0148 125.803 45.1379ZM122.508 82.0088C122.528 82.0088 122.548 82.0048 122.567 81.9968V82.0396C122.593 82.0419 122.62 82.0379 122.644 82.0279C122.669 82.0181 122.691 82.0028 122.709 81.983C122.726 81.9634 122.739 81.9398 122.746 81.9142C122.753 81.8886 122.754 81.8618 122.749 81.836L118.567 57.019C118.546 56.8778 118.486 56.7454 118.393 56.637C118.3 56.5287 118.178 56.4492 118.041 56.4078C117.661 56.2738 117.3 56.09 116.969 55.8609C116.836 55.7696 116.679 55.7207 116.518 55.7207C116.358 55.7207 116.2 55.7696 116.068 55.8609L101.654 66.5854C101.414 66.7633 101.254 67.0281 101.208 67.3231C101.161 67.6181 101.233 67.9196 101.407 68.1619C101.52 68.3262 101.62 68.4983 101.708 68.6769C102.119 69.5904 102.271 70.5995 102.147 71.5939C102.077 71.9764 102.137 72.3712 102.318 72.7153C102.499 73.0595 102.79 73.3329 103.145 73.4922L122.449 81.9968C122.468 82.0048 122.488 82.0088 122.508 82.0088ZM100.871 66.3388L115.403 55.5283C115.559 55.4124 115.665 55.2421 115.701 55.0515C115.736 54.8606 115.699 54.6635 115.596 54.4989C115.059 53.6348 114.832 52.6136 114.953 51.6033C114.976 51.4071 114.924 51.2092 114.81 51.0487C114.694 50.8879 114.524 50.776 114.331 50.7346L88.0123 45.6512C87.9138 45.6319 87.8117 45.6429 87.7196 45.6833C87.6278 45.7234 87.5503 45.7909 87.4976 45.8764C87.3943 46.0435 87.2719 46.1983 87.1329 46.3375C87.0544 46.4069 87.0015 46.5005 86.9819 46.6034C86.9626 46.7062 86.9779 46.8125 87.0255 46.9059L96.1093 65.5452C96.2229 65.7865 96.4063 65.9882 96.6358 66.1239C96.8651 66.2598 97.1302 66.3233 97.3963 66.3067C98.0269 66.2623 98.6596 66.3536 99.2518 66.5749C99.5199 66.6735 99.8086 66.7036 100.091 66.6624C100.374 66.621 100.642 66.5099 100.871 66.3388Z" fill="url(#paint2_linear_155_333)"/>
<defs>
<linearGradient id="paint0_linear_155_333" x1="99.8397" y1="70.3752" x2="125.722" y2="44.4931" gradientUnits="userSpaceOnUse">
<stop stop-color="#171420"/>
<stop offset="0.2" stop-color="#171522"/>
<stop offset="0.32" stop-color="#18192B"/>
<stop offset="0.42" stop-color="#181F39"/>
<stop offset="0.5" stop-color="#19284D"/>
<stop offset="0.58" stop-color="#1B3467"/>
<stop offset="0.65" stop-color="#1C4287"/>
<stop offset="0.72" stop-color="#1E52AC"/>
<stop offset="0.78" stop-color="#2064D3"/>
</linearGradient>
<linearGradient id="paint1_linear_155_333" x1="100.196" y1="70.0495" x2="76.2782" y2="92.102" gradientUnits="userSpaceOnUse">
<stop stop-color="#171420"/>
<stop offset="0.27" stop-color="#1A1422"/>
<stop offset="0.44" stop-color="#22152B"/>
<stop offset="0.58" stop-color="#311738"/>
<stop offset="0.71" stop-color="#46194C"/>
<stop offset="0.82" stop-color="#601C65"/>
<stop offset="0.93" stop-color="#812083"/>
<stop offset="1" stop-color="#9A239B"/>
</linearGradient>
<linearGradient id="paint2_linear_155_333" x1="99.8397" y1="70.3761" x2="125.722" y2="44.4939" gradientUnits="userSpaceOnUse">
<stop stop-color="#171420"/>
<stop offset="0.2" stop-color="#171522"/>
<stop offset="0.32" stop-color="#18192B"/>
<stop offset="0.42" stop-color="#181F39"/>
<stop offset="0.5" stop-color="#19284D"/>
<stop offset="0.58" stop-color="#1B3467"/>
<stop offset="0.65" stop-color="#1C4287"/>
<stop offset="0.72" stop-color="#1E52AC"/>
<stop offset="0.78" stop-color="#2064D3"/>
</linearGradient>
</defs>
</svg>
