<svg width="200" height="140" viewBox="0 0 200 140" fill="none" xmlns="http://www.w3.org/2000/svg">
<path d="M52.0308 79.7927C51.278 95.1033 63.9488 107.688 79.4518 107.108C92.7487 106.608 103.75 96.2054 104.764 83.1281C105.136 78.3454 104.19 73.8198 102.259 69.8452H121.37L131.804 55.0488H78.9077C65.0668 55.0415 52.7016 66.1645 52.0308 79.7927ZM79.9065 92.2308C72.4456 93.1565 66.1699 86.9705 67.109 79.6164C67.75 74.6059 71.8568 70.5578 76.94 69.926C84.4009 69.0003 90.6766 75.1863 89.7375 82.5404C89.0965 87.5582 84.9897 91.5989 79.9065 92.2308Z" fill="#090D14"/>
<path d="M66.7583 33L56.3087 47.7964H136.872L147.307 33H66.7583Z" fill="#090D14"/>
</svg>
