<svg width="200" height="140" viewBox="0 0 200 140" fill="none" xmlns="http://www.w3.org/2000/svg">
<path fill-rule="evenodd" clip-rule="evenodd" d="M88.7395 57.591V81.183L102.99 81.161C114.697 81.143 117.968 80.808 121.321 79.286C136.594 72.349 140.149 52.241 128.082 41.047C122.084 35.484 119.361 34.743 103.49 34.358L88.7395 34V57.591ZM73.0255 81.864C69.4615 82.586 64.9595 87.494 64.2135 91.468C63.7255 94.071 64.0565 96.167 65.3865 98.89C67.9635 104.165 72.4205 106.18 81.5205 106.181L88.8015 106.183L88.5205 93.933L88.2395 81.683L81.7395 81.549C78.1645 81.475 74.2435 81.617 73.0255 81.864Z" fill="#D1F169"/>
</svg>
