<svg width="200" height="140" viewBox="0 0 200 140" fill="none" xmlns="http://www.w3.org/2000/svg">
<g clip-path="url(#clip0_155_377)">
<path d="M86.6954 86.1909C80.999 91.2401 73.5113 94.2999 65.3265 94.2999C47.4732 94.2999 33 79.7474 33 61.7962C33 43.8451 47.4732 29.2852 65.3265 29.2852C70.2885 29.2852 74.9803 30.4081 79.1851 32.4202V61.7962C79.1851 54.1019 72.979 47.862 65.3265 47.862C57.6741 47.862 51.4756 54.1019 51.4756 61.7962C51.4756 69.4908 57.6741 75.7231 65.3265 75.7231C72.979 75.7231 79.1851 69.4908 79.1851 61.7962V67.5992C79.1851 74.8263 82.0408 81.3828 86.6954 86.1909Z" fill="url(#paint0_linear_155_377)"/>
<path d="M97.6606 61.7959C97.6606 71.5177 93.4183 80.237 86.6953 86.1906C82.0408 81.3825 79.185 74.826 79.185 67.5989V32.4199C90.113 37.635 97.6606 48.8337 97.6606 61.7959Z" fill="url(#paint1_linear_155_377)"/>
<path d="M132.296 52.5034V67.5984C132.296 75.6922 128.721 82.9419 123.062 87.833C121.683 86.6499 120.424 85.3085 119.307 83.8538C118.602 82.9345 117.958 81.9622 117.381 80.9525C115.117 77.0185 113.82 72.4592 113.82 67.5984V52.5034C113.82 52.232 113.835 51.9607 113.858 51.697C113.865 51.6141 113.873 51.5312 113.88 51.4557C113.888 51.3805 113.895 51.305 113.91 51.2223C113.94 51.0036 113.978 50.7925 114.023 50.574C114.068 50.363 114.12 50.1597 114.18 49.9486C114.21 49.8431 114.24 49.7376 114.27 49.6395C114.308 49.5266 114.345 49.4211 114.382 49.3155C114.45 49.1345 114.525 48.9538 114.6 48.7805C114.607 48.7579 114.615 48.7353 114.63 48.7127C114.705 48.5392 114.787 48.3659 114.877 48.2003C114.915 48.1096 114.967 48.0193 115.02 47.9364C115.072 47.846 115.117 47.7631 115.169 47.6727C115.274 47.5068 115.387 47.341 115.499 47.1751C115.514 47.1525 115.529 47.1225 115.552 47.0999C115.664 46.9492 115.777 46.7985 115.897 46.6478C116.024 46.4895 116.159 46.3312 116.301 46.1805C116.444 46.0297 116.586 45.8866 116.736 45.7434C116.878 45.6077 117.036 45.4721 117.186 45.3364C117.186 45.3364 117.186 45.3364 117.193 45.3364C117.335 45.2234 117.478 45.1103 117.62 45.0048C117.635 44.9898 117.65 44.9747 117.665 44.9671C117.808 44.8616 117.958 44.7561 118.115 44.6657C118.145 44.6431 118.167 44.628 118.198 44.613C118.347 44.5225 118.497 44.4321 118.655 44.3416C119.164 44.0628 119.696 43.8367 120.251 43.6558C120.349 43.6257 120.446 43.5956 120.544 43.5729C120.836 43.4825 121.143 43.4147 121.45 43.3619C121.6 43.3318 121.75 43.3092 121.908 43.2941C122.132 43.264 122.357 43.2413 122.59 43.2338C122.747 43.2263 122.905 43.2188 123.062 43.2188C123.219 43.2188 123.377 43.2263 123.534 43.2338C123.609 43.2338 123.684 43.2413 123.759 43.2489C124.066 43.2715 124.373 43.3092 124.673 43.3619C124.756 43.377 124.838 43.3921 124.913 43.4071C124.981 43.4222 125.048 43.4373 125.116 43.4524C125.198 43.4675 125.288 43.49 125.37 43.5127C125.475 43.5428 125.588 43.5654 125.693 43.6031C125.805 43.6333 125.91 43.6709 126.015 43.7086C126.247 43.784 126.472 43.8669 126.697 43.9724C126.817 44.0251 126.937 44.0703 127.049 44.1306C127.169 44.1834 127.282 44.2437 127.394 44.304C127.904 44.5753 128.391 44.8993 128.841 45.2686C128.953 45.359 129.066 45.4495 129.178 45.555C129.283 45.6454 129.388 45.7434 129.485 45.8413C129.575 45.9242 129.658 46.0071 129.732 46.09C129.897 46.2558 130.047 46.4292 130.19 46.6101C130.257 46.693 130.325 46.7759 130.392 46.8588C130.437 46.9189 130.49 46.987 130.535 47.0547C130.595 47.1377 130.655 47.228 130.714 47.311C130.887 47.5595 131.044 47.8234 131.187 48.0948C131.254 48.2229 131.321 48.351 131.381 48.4791C131.449 48.6147 131.509 48.7502 131.569 48.8935C131.621 49.0141 131.674 49.1422 131.719 49.2704C131.749 49.3533 131.771 49.4362 131.801 49.5191C131.846 49.6321 131.884 49.7525 131.914 49.8657C131.944 49.9561 131.966 50.0465 131.988 50.1371C132.034 50.2878 132.071 50.4459 132.101 50.6041C132.124 50.7248 132.146 50.8454 132.161 50.9658C132.184 51.0713 132.198 51.1769 132.213 51.2824C132.266 51.6819 132.296 52.0888 132.296 52.5034Z" fill="url(#paint2_linear_155_377)"/>
<path d="M166.938 91.9779H166.841C166.901 92.7466 166.938 93.5153 166.938 94.2991C166.938 109.047 155.044 121 140.383 121C135.279 121 131.142 116.84 131.142 111.715C131.142 106.583 135.279 102.431 140.383 102.431C144.843 102.431 148.463 98.7907 148.463 94.2991C148.463 93.8844 148.433 93.4701 148.373 93.0706C145.847 93.8696 143.164 94.2991 140.383 94.2991C137.595 94.2991 134.912 93.8696 132.393 93.0706C128.923 91.9702 125.76 90.1692 123.062 87.833C128.721 82.9419 132.296 75.6922 132.296 67.5984C132.296 68.0128 132.326 68.4274 132.393 68.8266C132.978 72.7305 136.336 75.7223 140.383 75.7223C144.431 75.7223 147.781 72.7305 148.373 68.8266C148.433 68.4274 148.463 68.0128 148.463 67.5984V52.5034C148.463 48.9538 150.449 45.8639 153.365 44.304C154.661 43.6106 156.138 43.2188 157.697 43.2188C162.801 43.2188 166.938 47.3787 166.938 52.5034V91.9779Z" fill="url(#paint3_linear_155_377)"/>
<path d="M97.6606 29.2846V61.7957C97.6606 48.8334 90.113 37.6347 79.185 32.4197V29.2846C79.185 24.16 83.3223 20 88.4191 20C93.5233 20 97.6606 24.16 97.6606 29.2846ZM119.307 83.8541C118.602 82.9347 117.958 81.9624 117.381 80.9527C115.117 77.0188 113.82 72.4594 113.82 67.5986C113.82 72.0902 110.207 75.7225 105.741 75.7225C101.281 75.7225 97.6606 72.0902 97.6606 67.5986V61.7957C97.6606 71.5174 93.4183 80.2367 86.6953 86.1904C89.6859 89.3027 93.4485 91.6917 97.6606 93.0408C100.209 93.8621 102.922 94.2993 105.741 94.2993C108.559 94.2993 111.279 93.8621 113.82 93.0408C117.261 91.9404 120.394 90.1469 123.062 87.8332C121.683 86.6502 120.423 85.3087 119.307 83.8541Z" fill="url(#paint4_linear_155_377)"/>
</g>
<defs>
<linearGradient id="paint0_linear_155_377" x1="33" y1="61.7925" x2="86.6954" y2="61.7925" gradientUnits="userSpaceOnUse">
<stop offset="0.00541493" stop-color="#FF8A00"/>
<stop offset="1" stop-color="#F32B91"/>
</linearGradient>
<linearGradient id="paint1_linear_155_377" x1="79.1853" y1="59.3052" x2="97.6606" y2="59.3052" gradientUnits="userSpaceOnUse">
<stop offset="0.00541493" stop-color="#F4E1AB"/>
<stop offset="1" stop-color="#F0C5C3"/>
</linearGradient>
<linearGradient id="paint2_linear_155_377" x1="113.821" y1="65.5258" x2="132.296" y2="65.5258" gradientUnits="userSpaceOnUse">
<stop offset="0.00445" stop-color="#BBACFF"/>
<stop offset="1" stop-color="#9A90F6"/>
</linearGradient>
<linearGradient id="paint3_linear_155_377" x1="123.062" y1="82.1092" x2="166.939" y2="82.1092" gradientUnits="userSpaceOnUse">
<stop offset="0.00541493" stop-color="#A845FA"/>
<stop offset="0.999" stop-color="#5B01E5"/>
</linearGradient>
<linearGradient id="paint4_linear_155_377" x1="79.1853" y1="57.1497" x2="123.062" y2="57.1497" gradientUnits="userSpaceOnUse">
<stop stop-color="#34DFAD"/>
<stop offset="0.9946" stop-color="#0094FF"/>
</linearGradient>
<clipPath id="clip0_155_377">
<rect width="134" height="101" fill="white" transform="translate(33 20)"/>
</clipPath>
</defs>
</svg>
