<svg width="200" height="140" viewBox="0 0 200 140" fill="none" xmlns="http://www.w3.org/2000/svg">
<path fill-rule="evenodd" clip-rule="evenodd" d="M68.5413 101.618H51.8715V77.6818H41.0506V101.618H23.8674V39.9258H41.0506V62.8748H51.8715V39.9258H68.5413V101.618Z" fill="black"/>
<path fill-rule="evenodd" clip-rule="evenodd" d="M144.911 82.6628C151.675 82.6628 157.159 77.147 157.159 70.341C157.159 63.5367 151.675 58.02 144.911 58.02C138.146 58.02 132.663 63.5367 132.663 70.341C132.663 77.147 138.146 82.6628 144.911 82.6628ZM129.331 70.341C129.331 61.6853 136.306 54.6676 144.911 54.6676C153.516 54.6676 160.493 61.6853 160.493 70.341C160.493 78.9981 153.516 86.0155 144.911 86.0155C136.306 86.0155 129.331 78.9981 129.331 70.341ZM107.636 70.341C109.564 70.0954 112.777 67.8779 113.909 66.4625C113.512 68.2175 113.481 73.297 113.946 75.0521C112.654 73.0508 109.595 70.5875 107.636 70.341ZM96.4345 53.7477C98.883 53.7477 100.811 56.1792 100.811 58.9503C100.811 61.7214 98.883 64.1544 96.4345 64.1544H88.0188V53.7477H96.4345ZM96.4038 76.868C98.8519 76.868 100.78 79.3007 100.78 82.0709C100.78 84.8424 98.8519 87.2742 96.4038 87.2742H87.9881V76.868H96.4038ZM144.901 101.922C162.049 101.915 176.004 87.5819 176 70.3288C175.997 52.7119 162.049 39.0267 144.901 39.0137C127.773 39.0013 119.021 51.6849 116.858 56.8044C116.879 49.119 109.349 40.0477 100.541 40.038H72.1635V101.615L98.621 101.62C109.288 101.62 116.878 92.3221 116.891 84.349C119.326 89.367 127.773 101.928 144.901 101.922Z" fill="black"/>
</svg>
