<svg width="200" height="140" viewBox="0 0 200 140" fill="none" xmlns="http://www.w3.org/2000/svg">
<path fill-rule="evenodd" clip-rule="evenodd" d="M91.3478 33.2127L107.652 31V37.6383H91.3478V33.2127ZM137 89.0851L62 95.7234V109H114.174V102.362C114.174 100.529 115.634 99.0426 117.435 99.0426C119.236 99.0426 120.696 100.529 120.696 102.362V109H137V89.0851ZM70.1522 73.0425L128.848 67.5106V84.1064H86.4565V78.2979C86.4565 76.9231 85.3615 75.8085 84.0109 75.8085C82.6602 75.8085 81.5652 76.9231 81.5652 78.2979V84.1064H70.1522V73.0425ZM122.326 50.9149L76.6739 55.3405V64.1915H109.283V58.383C109.283 57.0082 110.378 55.8936 111.728 55.8936C113.079 55.8936 114.174 57.0082 114.174 58.383V64.1915H122.326V50.9149ZM84.8261 42.617L114.174 39.2979V49.2553H96.2391V45.9362C96.2391 45.0196 95.5092 44.2766 94.6087 44.2766C93.7082 44.2766 92.9783 45.0196 92.9783 45.9362V49.2553H84.8261V42.617Z" fill="#21E786"/>
</svg>
