<svg width="200" height="140" viewBox="0 0 200 140" fill="none" xmlns="http://www.w3.org/2000/svg">
<rect x="52" y="22" width="96" height="96" rx="48" fill="url(#paint0_linear_155_354)"/>
<path fill-rule="evenodd" clip-rule="evenodd" d="M125.69 64.4305C125.483 64.4218 125.285 64.5122 125.157 64.6738C124.106 65.2578 123.221 66.3308 122.575 67.3721C122.474 67.4555 122.405 67.571 122.378 67.6994C122.265 67.894 122.162 68.085 122.068 68.2687C121.683 69.005 121.376 69.7797 121.152 70.5802C120.968 70.9743 120.821 71.3848 120.714 71.8064C120.509 72.157 120.35 72.5323 120.241 72.9232C120.229 72.9687 120.219 73.0149 120.209 73.0612C120.206 73.0756 120.203 73.0901 120.199 73.1045C120.14 73.1771 120.099 73.2625 120.078 73.3539C119.756 74.6811 119.686 76.0569 119.872 77.4099C119.801 79.439 120.121 81.4628 120.815 83.3709C121.073 84.0687 121.382 84.7462 121.741 85.3977C120.754 86.8438 119.635 88.1948 118.398 89.433C107.455 100.382 90.8077 101.106 79.8649 90.1629C68.9221 79.2201 67.8272 60.9914 78.77 50.0485C89.7128 39.1057 107.449 38.8624 118.398 49.8052C122.33 53.7246 125.002 58.7286 126.073 64.1763C125.962 64.2517 125.853 64.3296 125.747 64.4111L125.69 64.4305ZM87.1727 81.028C93.4752 87.3305 103.694 87.3306 109.996 81.028C113.023 78.0014 114.723 73.8965 114.723 69.6162C114.723 65.336 113.023 61.231 109.996 58.2044C103.694 51.9019 93.4752 51.9019 87.1727 58.2045C80.8702 64.507 80.8702 74.7254 87.1727 81.028Z" fill="url(#paint1_linear_155_354)"/>
<path d="M128.738 55.3132V55.3132C130.711 54.3651 133.044 54.5779 134.812 55.8671C136.58 57.1563 137.496 59.3131 137.197 61.4807C136.897 63.6482 135.43 65.4755 133.378 66.2365V66.2487C126.892 68.9709 122.914 75.5792 123.544 82.5857L111.791 83.5589C111.169 76.4178 113.18 69.0467 118.152 63.121C121.008 59.7118 124.638 57.0348 128.738 55.3132Z" fill="url(#paint2_linear_155_354)"/>
<path d="M117.552 61.3093L117.566 61.2911C117.57 61.2853 117.574 61.2792 117.578 61.2728V61.2728C119.468 58.591 123.174 57.9491 125.856 59.8391C128.538 61.7291 129.179 65.4353 127.289 68.1171V68.1171C125.449 70.5879 124.931 72.6877 124.819 74.1998C124.697 75.8908 124.76 75.9906 124.651 78.4991C124.567 80.4358 124.005 82.1037 123.527 82.9942C122.117 85.6171 116.471 85.5636 112.943 82.1877C112.741 81.7927 112.541 81.3807 112.343 80.9516C112.113 80.4537 111.901 79.9671 111.707 79.4918C111.696 79.4529 111.744 79.6645 111.707 79.4918C111.652 79.2351 111.641 78.971 111.675 78.7108C111.692 78.5307 111.692 78.5307 111.723 78.0465C111.788 76.9845 111.824 75.802 112.24 74.0319V74.0319C112.326 73.6524 112.42 73.24 112.581 72.639C112.931 71.3543 113.322 70.2558 113.808 68.8945C113.814 68.8933 115.549 63.7424 117.552 61.3093Z" fill="url(#paint3_linear_155_354)"/>
<path d="M72.5681 60.1445C71.5852 62.7734 71.002 65.5349 70.8382 68.3367C70.826 68.6689 70.8102 68.9998 70.7956 69.3343C70.4619 83.6257 80.9394 95.8772 95.1095 97.765C96.4477 97.8148 99.3844 98.1226 102.259 97.7455C105.517 97.3185 108.69 96.1859 109.335 95.9657C109.995 95.6981 110.647 95.4045 111.291 95.0849C112.717 94.31 114.838 92.9158 116.141 92.0071C116.684 91.6299 117.59 90.8355 118.623 89.8027C120.598 87.8135 122.273 85.5463 123.592 83.0728C123.95 82.2642 124.105 81.3806 124.044 80.4985C123.822 77.6579 121.208 75.1311 118.53 74.9487C116.317 74.7921 114.2 75.8831 113.044 77.7771V77.7771C112.397 78.6875 111.681 79.5472 110.904 80.3489C110.193 81.0788 106.923 84.3501 103.045 85.5801C96.309 87.72 89.6447 83.1202 88.7725 82.501C85.2822 80.5582 72.5681 60.1445 72.5681 60.1445Z" fill="url(#paint4_linear_155_354)"/>
<circle cx="126.292" cy="45.6107" r="5.61071" fill="url(#paint5_linear_155_354)"/>
<path d="M111.63 79.3968C111.614 79.4199 111.624 79.235 111.592 79.2751C108.524 83.426 104.151 84.8712 103.442 85.0951C103.228 85.162 100.946 85.825 98.6862 85.825C90.3401 85.863 83.3418 79.5313 82.5472 71.223C81.7525 62.9148 87.4237 55.3712 95.6257 53.8266C103.828 52.2819 111.854 57.2458 114.136 65.2739C114.152 65.3286 114.455 66.623 114.568 66.769C114.69 66.4442 114.77 66.2824 114.911 65.9637C115.052 65.6449 115.224 65.1121 115.411 64.8189C115.411 64.8161 115.411 64.8132 115.411 64.8104L115.702 64.1632C115.702 64.1632 115.686 64.1328 115.526 63.4588C115.392 62.9041 115.382 62.8408 115.378 62.8238C113.592 52.3615 104.457 44.4186 93.4939 44.471C87.6325 44.4993 82.0224 46.855 77.8979 51.0199C73.7734 55.1847 71.4725 60.8175 71.5012 66.679C71.5633 79.9612 83.584 88.7277 93.7044 88.6741C103.763 88.6206 110.287 81.061 111.286 79.8469" fill="url(#paint6_linear_155_354)"/>
<defs>
<linearGradient id="paint0_linear_155_354" x1="4.41434" y1="69.5857" x2="99.5857" y2="164.757" gradientUnits="userSpaceOnUse">
<stop stop-color="#2D2F33"/>
<stop offset="0.51822" stop-color="#282A2E"/>
<stop offset="1" stop-color="#212429"/>
</linearGradient>
<linearGradient id="paint1_linear_155_354" x1="126.601" y1="41.4451" x2="71.0907" y2="41.4451" gradientUnits="userSpaceOnUse">
<stop offset="0.09" stop-color="#6DC1D6"/>
<stop offset="0.31" stop-color="#72C6D7"/>
<stop offset="0.61" stop-color="#589AC5"/>
<stop offset="1" stop-color="#3864AF"/>
</linearGradient>
<linearGradient id="paint2_linear_155_354" x1="136.772" y1="88.7936" x2="143.592" y2="57.8644" gradientUnits="userSpaceOnUse">
<stop offset="0.47" stop-color="#FFDF7F"/>
<stop offset="0.57" stop-color="#FFBE6B"/>
<stop offset="0.69" stop-color="#FF9E58"/>
<stop offset="0.8" stop-color="#FF884A"/>
<stop offset="0.91" stop-color="#FF7A42"/>
<stop offset="1" stop-color="#FF753F"/>
</linearGradient>
<linearGradient id="paint3_linear_155_354" x1="128.665" y1="59.5335" x2="114.335" y2="60.8719" gradientUnits="userSpaceOnUse">
<stop offset="0.01" stop-color="#E670A7"/>
<stop offset="0.12" stop-color="#CB65A2"/>
<stop offset="0.31" stop-color="#A2559B"/>
<stop offset="0.5" stop-color="#824895"/>
<stop offset="0.68" stop-color="#6C3F90"/>
<stop offset="0.85" stop-color="#5E3A8E"/>
<stop offset="1" stop-color="#59388D"/>
</linearGradient>
<linearGradient id="paint4_linear_155_354" x1="92.0359" y1="100.617" x2="120.101" y2="68.4143" gradientUnits="userSpaceOnUse">
<stop stop-color="#15ADFF"/>
<stop offset="0.06" stop-color="#40A3D4"/>
<stop offset="0.13" stop-color="#6D99A7"/>
<stop offset="0.21" stop-color="#949080"/>
<stop offset="0.3" stop-color="#B5885F"/>
<stop offset="0.38" stop-color="#D08244"/>
<stop offset="0.48" stop-color="#E57D2F"/>
<stop offset="0.59" stop-color="#F47A20"/>
<stop offset="0.72" stop-color="#FC7818"/>
<stop offset="0.92" stop-color="#FF7715"/>
</linearGradient>
<linearGradient id="paint5_linear_155_354" x1="127.663" y1="53.427" x2="134.108" y2="44.2397" gradientUnits="userSpaceOnUse">
<stop stop-color="#55398D"/>
<stop offset="1" stop-color="#C05B9D"/>
</linearGradient>
<linearGradient id="paint6_linear_155_354" x1="71.4887" y1="88.6746" x2="115.692" y2="88.6731" gradientUnits="userSpaceOnUse">
<stop stop-color="#A3D6D9"/>
<stop offset="0.52" stop-color="#34A4DD"/>
<stop offset="0.56" stop-color="#349DD8"/>
<stop offset="0.74" stop-color="#367EC2"/>
<stop offset="0.89" stop-color="#386BB4"/>
<stop offset="1" stop-color="#3864AF"/>
</linearGradient>
</defs>
</svg>
