<svg width="200" height="140" viewBox="0 0 200 140" fill="none" xmlns="http://www.w3.org/2000/svg">
<rect x="52" y="22" width="96" height="96" rx="48" fill="url(#paint0_linear_155_292)"/>
<path d="M121.431 63.0358L100.858 51.579C100.499 51.3732 99.8669 51.0825 99.4458 51.2763C99.2671 51.346 99.1155 51.4688 99.0122 51.6275C98.935 51.8158 98.9012 52.0184 98.9131 52.2209V65.3731C98.9131 65.6274 98.9131 65.6517 99.4334 65.9544L108.488 70.9925V80.4146L100.028 85.162L91.5557 80.4388V47.74C91.5557 47.1465 91.5557 46.7105 90.9116 46.3472L79.9126 40.195C79.7176 40.0713 79.4909 40.0038 79.2585 40.0002C79.0261 39.9965 78.7973 40.0569 78.5983 40.1744C78.3993 40.2919 78.2382 40.4617 78.1333 40.6645C78.0284 40.8674 77.984 41.095 78.0051 41.3213V87.1724C77.996 87.4138 78.0561 87.6529 78.1785 87.8627C78.3063 88.0653 78.4855 88.2322 78.6988 88.3471L99.3095 99.8159C99.5064 99.9362 99.7338 100 99.966 100C100.198 100 100.426 99.9362 100.622 99.8159L121.382 88.2623C121.594 88.142 121.766 87.9627 121.874 87.747C121.982 87.5314 122.022 87.2892 121.989 87.0513V64.162C122.008 63.9136 121.966 63.6642 121.865 63.4354C121.758 63.2677 121.609 63.13 121.431 63.0358ZM89.2147 48.0548V68.2434L80.6186 63.4596V43.2711L89.2147 48.0548ZM80.6186 66.2209L89.2147 71.0046V80.4267L80.6186 85.1741V66.2209ZM98.9131 96.7519L81.8573 87.2571L90.4533 82.4129L98.9131 87.1724V96.7519ZM101.39 64.2105V54.6309L118.434 64.162L109.85 69.0063L101.39 64.2105ZM101.39 96.7277V87.1724L109.863 82.4492L118.446 87.2329L101.39 96.7277ZM119.685 85.1741L111.089 80.4025V70.9804L119.685 66.1966V85.1741Z" fill="white"/>
<defs>
<linearGradient id="paint0_linear_155_292" x1="76.7657" y1="17.9328" x2="96.4919" y2="118.774" gradientUnits="userSpaceOnUse">
<stop stop-color="#D715FF"/>
<stop offset="1" stop-color="#1A26FF"/>
</linearGradient>
</defs>
</svg>
