<svg width="200" height="140" viewBox="0 0 200 140" fill="none" xmlns="http://www.w3.org/2000/svg">
<path fill-rule="evenodd" clip-rule="evenodd" d="M35.8611 70.0007V103.447H42.829H49.797V70.0007V36.5547H42.829H35.8611V70.0007ZM59.0875 59.3166V82.0785H65.8232H72.5589V59.3166V36.5547H65.8232H59.0875V59.3166ZM81.8494 70.0007V103.447H88.8173H95.7853V70.0007V36.5547H88.8173H81.8494V70.0007ZM104.611 43.0581V49.5615H111.579H118.547V43.0581V36.5547H111.579H104.611V43.0581ZM128.302 43.0581V49.5615H146.651H165V43.0581V36.5547H146.651H128.302V43.0581ZM128.302 80.6849V103.447H135.038H141.774V80.6849V57.923H135.038H128.302V80.6849Z" fill="#A31F34"/>
<path fill-rule="evenodd" clip-rule="evenodd" d="M104.611 80.6838V103.446H111.347H118.083V80.6838V57.9219H111.347H104.611V80.6838Z" fill="#8A8B8C"/>
</svg>
