<svg width="24" height="24" viewBox="0 0 24 24" fill="none" xmlns="http://www.w3.org/2000/svg">
<path d="M13.3672 18.5078C13.6172 18.5078 13.8594 18.4063 14.0703 18.1953L19.1953 13.0859C19.3906 12.8906 19.5078 12.6172 19.5078 12.3438C19.5078 12.0703 19.3906 11.7891 19.1953 11.6016L14.0859 6.49219C13.8672 6.27344 13.6172 6.17188 13.3672 6.17188C12.7891 6.17188 12.3828 6.58594 12.3828 7.125C12.3828 7.42188 12.5078 7.65625 12.6875 7.84375L14.4609 9.625L16.4375 11.4375L14.6797 11.3438H5.53125C4.91406 11.3438 4.5 11.75 4.5 12.3438C4.5 12.9375 4.91406 13.3438 5.53125 13.3438H14.6797L16.4375 13.2422L14.4609 15.0625L12.6875 16.8359C12.5078 17.0234 12.3828 17.2578 12.3828 17.5547C12.3828 18.1016 12.7891 18.5078 13.3672 18.5078Z" fill="white"/>
</svg>
