<svg width="19" height="18" viewBox="0 0 19 18" fill="none" xmlns="http://www.w3.org/2000/svg">
<path d="M8.51667 17.3542C8.30278 17.1403 8.19078 16.8681 8.18067 16.5375C8.17133 16.2069 8.27361 15.9347 8.4875 15.7208L14.2042 10.0042H1.16667C0.836111 10.0042 0.558834 9.89217 0.334834 9.66817C0.111611 9.44494 0 9.16806 0 8.8375C0 8.50694 0.111611 8.22967 0.334834 8.00567C0.558834 7.78244 0.836111 7.67083 1.16667 7.67083H14.2042L8.4875 1.95417C8.27361 1.74028 8.17133 1.46806 8.18067 1.1375C8.19078 0.806944 8.30278 0.534722 8.51667 0.320833C8.73056 0.106944 9.00278 0 9.33333 0C9.66389 0 9.93611 0.106944 10.15 0.320833L17.85 8.02083C17.9667 8.11806 18.0495 8.23939 18.0985 8.38483C18.1467 8.53106 18.1708 8.68194 18.1708 8.8375C18.1708 8.99306 18.1467 9.13889 18.0985 9.275C18.0495 9.41111 17.9667 9.5375 17.85 9.65417L10.15 17.3542C9.93611 17.5681 9.66389 17.675 9.33333 17.675C9.00278 17.675 8.73056 17.5681 8.51667 17.3542Z" fill="white"/>
</svg>
