<svg width="36" height="36" viewBox="0 0 36 36" fill="none" xmlns="http://www.w3.org/2000/svg">
<path d="M10.5 21H19.5375C19.9625 21 20.3125 20.856 20.5875 20.568C20.8625 20.281 21 19.925 21 19.5C21 19.075 20.8565 18.7185 20.5695 18.4305C20.2815 18.1435 19.925 18 19.5 18H10.4625C10.0375 18 9.6875 18.1435 9.4125 18.4305C9.1375 18.7185 9 19.075 9 19.5C9 19.925 9.1435 20.281 9.4305 20.568C9.7185 20.856 10.075 21 10.5 21ZM10.5 16.5H25.5375C25.9625 16.5 26.3125 16.356 26.5875 16.068C26.8625 15.781 27 15.425 27 15C27 14.575 26.856 14.2185 26.568 13.9305C26.281 13.6435 25.925 13.5 25.5 13.5H10.4625C10.0375 13.5 9.6875 13.6435 9.4125 13.9305C9.1375 14.2185 9 14.575 9 15C9 15.425 9.1435 15.781 9.4305 16.068C9.7185 16.356 10.075 16.5 10.5 16.5ZM10.5 12H25.5375C25.9625 12 26.3125 11.8565 26.5875 11.5695C26.8625 11.2815 27 10.925 27 10.5C27 10.075 26.856 9.7185 26.568 9.4305C26.281 9.1435 25.925 9 25.5 9H10.4625C10.0375 9 9.6875 9.1435 9.4125 9.4305C9.1375 9.7185 9 10.075 9 10.5C9 10.925 9.1435 11.2815 9.4305 11.5695C9.7185 11.8565 10.075 12 10.5 12ZM3 29.3625V6C3 5.175 3.294 4.4685 3.882 3.8805C4.469 3.2935 5.175 3 6 3H30C30.825 3 31.5315 3.2935 32.1195 3.8805C32.7065 4.4685 33 5.175 33 6V24C33 24.825 32.7065 25.5315 32.1195 26.1195C31.5315 26.7065 30.825 27 30 27H9L5.55 30.45C5.075 30.925 4.531 31.031 3.918 30.768C3.306 30.506 3 30.0375 3 29.3625ZM6 25.7625L7.7625 24H30V6H6V25.7625Z" fill="#EFEFEF"/>
</svg>
