<svg width="36" height="36" viewBox="0 0 36 36" fill="none" xmlns="http://www.w3.org/2000/svg">
<g clip-path="url(#clip0_1269_151)">
<path d="M18 9.75C23.685 9.75 28.755 12.945 31.23 18C28.755 23.055 23.7 26.25 18 26.25C12.3 26.25 7.245 23.055 4.77 18C7.245 12.945 12.315 9.75 18 9.75ZM18 6.75C10.5 6.75 4.095 11.415 1.5 18C4.095 24.585 10.5 29.25 18 29.25C25.5 29.25 31.905 24.585 34.5 18C31.905 11.415 25.5 6.75 18 6.75ZM18 14.25C20.07 14.25 21.75 15.93 21.75 18C21.75 20.07 20.07 21.75 18 21.75C15.93 21.75 14.25 20.07 14.25 18C14.25 15.93 15.93 14.25 18 14.25ZM18 11.25C14.28 11.25 11.25 14.28 11.25 18C11.25 21.72 14.28 24.75 18 24.75C21.72 24.75 24.75 21.72 24.75 18C24.75 14.28 21.72 11.25 18 11.25Z" fill="#EFEFEF"/>
</g>
<defs>
<clipPath id="clip0_1269_151">
<rect width="36" height="36" fill="white"/>
</clipPath>
</defs>
</svg>
