<svg width="36" height="36" viewBox="0 0 36 36" fill="none" xmlns="http://www.w3.org/2000/svg">
<path d="M23.025 30.4501C22.525 30.6501 22.0625 30.5876 21.6375 30.2626C21.2125 29.9376 21 29.4876 21 28.9126C21 28.6376 21.0815 28.3941 21.2445 28.1821C21.4065 27.9691 21.6125 27.8126 21.8625 27.7126C23.8625 26.9126 25.469 25.6376 26.682 23.8876C27.894 22.1376 28.5 20.1626 28.5 17.9626C28.5 15.7626 27.894 13.7876 26.682 12.0376C25.469 10.2876 23.8625 9.01263 21.8625 8.21263C21.5875 8.11263 21.375 7.95013 21.225 7.72513C21.075 7.50013 21 7.25013 21 6.97513C21 6.42513 21.2125 5.98763 21.6375 5.66263C22.0625 5.33763 22.525 5.27513 23.025 5.47513C25.575 6.50013 27.625 8.13763 29.175 10.3876C30.725 12.6376 31.5 15.1626 31.5 17.9626C31.5 20.7626 30.725 23.2876 29.175 25.5376C27.625 27.7876 25.575 29.4251 23.025 30.4501ZM6 22.5001C5.575 22.5001 5.219 22.3561 4.932 22.0681C4.644 21.7811 4.5 21.4251 4.5 21.0001V15.0001C4.5 14.5751 4.644 14.2186 4.932 13.9306C5.219 13.6436 5.575 13.5001 6 13.5001H10.5L15.45 8.55013C15.925 8.07513 16.4685 7.96863 17.0805 8.23063C17.6935 8.49363 18 8.96263 18 9.63763V26.3626C18 27.0376 17.6935 27.5061 17.0805 27.7681C16.4685 28.0311 15.925 27.9251 15.45 27.4501L10.5 22.5001H6ZM21 24.0001V11.9251C22.125 12.4501 23.031 13.2626 23.718 14.3626C24.406 15.4626 24.75 16.6751 24.75 18.0001C24.75 19.3251 24.406 20.5251 23.718 21.6001C23.031 22.6751 22.125 23.4751 21 24.0001ZM15 13.2751L11.775 16.5001H7.5V19.5001H11.775L15 22.7251V13.2751Z" fill="#EFEFEF"/>
</svg>
