<svg width="96" height="96" viewBox="0 0 96 96" fill="none" xmlns="http://www.w3.org/2000/svg">
<path fill-rule="evenodd" clip-rule="evenodd" d="M0 13.44V26.88H13.44H26.88V13.44V0H13.44H0V13.44ZM30.72 1.92V3.84H32.64H34.56V5.76V7.68H36.48H38.4V9.6V11.52H40.32H42.24V7.68V3.84H46.08H49.92V1.92V0H46.08H42.24V1.92V3.84H38.4H34.56V1.92V0H32.64H30.72V1.92ZM53.76 1.92V3.84H55.68H57.6V1.92V0H55.68H53.76V1.92ZM61.44 3.84V7.68H59.52H57.6V11.52V15.36H55.68H53.76V11.52V7.68H49.92H46.08V11.52V15.36H44.16H42.24V17.28V19.2H40.32H38.4V17.28V15.36H36.48H34.56V17.28V19.2H36.48H38.4V24.96V30.72H36.48H34.56V26.88V23.04H32.64H30.72V26.88V30.72H32.64H34.56V34.56V38.4H36.48H38.4V40.32V42.24H36.48H34.56V44.16V46.08H32.64H30.72V51.84V57.6H28.8H26.88V55.68V53.76H24.96H23.04V51.84V49.92H24.96H26.88V48V46.08H24.96H23.04V44.16V42.24H24.96H26.88V40.32V38.4H28.8H30.72V36.48V34.56H28.8H26.88V32.64V30.72H24.96H23.04V32.64V34.56H21.12H19.2V32.64V30.72H15.36H11.52V32.64V34.56H15.36H19.2V36.48V38.4H21.12H23.04V40.32V42.24H21.12H19.2V44.16V46.08H17.28H15.36V48V49.92H11.52H7.68V46.08V42.24H11.52H15.36V40.32V38.4H11.52H7.68V34.56V30.72H3.84H0V34.56V38.4H3.84H7.68V40.32V42.24H5.76H3.84V46.08V49.92H1.92H0V57.6V65.28H1.92H3.84V61.44V57.6H7.68H11.52V59.52V61.44H9.6H7.68V63.36V65.28H9.6H11.52V63.36V61.44H13.44H15.36V63.36V65.28H23.04H30.72V67.2V69.12H32.64H34.56V67.2V65.28H36.48H38.4V63.36V61.44H42.24H46.08V59.52V57.6H48H49.92V55.68V53.76H44.16H38.4V49.92V46.08H40.32H42.24V48V49.92H46.08H49.92V46.08V42.24H51.84H53.76V49.92V57.6H55.68H57.6V59.52V61.44H55.68H53.76V63.36V65.28H48H42.24V69.12V72.96H44.16H46.08V76.8V80.64H49.92H53.76V86.4V92.16H51.84H49.92V94.08V96H53.76H57.6V92.16V88.32H61.44H65.28V90.24V92.16H63.36H61.44V94.08V96H65.28H69.12V94.08V92.16H74.88H80.64V94.08V96H82.56H84.48V94.08V92.16H88.32H92.16V94.08V96H94.08H96V82.56V69.12H94.08H92.16V65.28V61.44H94.08H96V57.6V53.76H94.08H92.16V51.84V49.92H94.08H96V44.16V38.4H94.08H92.16V36.48V34.56H94.08H96V32.64V30.72H94.08H92.16V32.64V34.56H82.56H72.96V32.64V30.72H71.04H69.12V32.64V34.56H71.04H72.96V36.48V38.4H76.8H80.64V42.24V46.08H86.4H92.16V48V49.92H90.24H88.32V51.84V53.76H84.48H80.64V51.84V49.92H78.72H76.8V53.76V57.6H74.88H72.96V59.52V61.44H71.04H69.12V57.6V53.76H67.2H65.28V46.08V38.4H63.36H61.44V34.56V30.72H63.36H65.28V26.88V23.04H63.36H61.44V26.88V30.72H57.6H53.76V28.8V26.88H55.68H57.6V24.96V23.04H55.68H53.76V24.96V26.88H51.84H49.92V23.04V19.2H53.76H57.6V17.28V15.36H59.52H61.44V17.28V19.2H63.36H65.28V15.36V11.52H63.36H61.44V9.6V7.68H63.36H65.28V3.84V0H63.36H61.44V3.84ZM69.12 13.44V26.88H82.56H96V13.44V0H82.56H69.12V13.44ZM23.04 13.44V23.04H13.44H3.84V13.44V3.84H13.44H23.04V13.44ZM92.16 13.44V23.04H82.56H72.96V13.44V3.84H82.56H92.16V13.44ZM7.68 13.44V19.2H13.44H19.2V13.44V7.68H13.44H7.68V13.44ZM76.8 13.44V19.2H82.56H88.32V13.44V7.68H82.56H76.8V13.44ZM49.92 17.28V19.2H48H46.08V23.04V26.88H48H49.92V28.8V30.72H51.84H53.76V32.64V34.56H49.92H46.08V36.48V38.4H48H49.92V40.32V42.24H48H46.08V40.32V38.4H42.24H38.4V36.48V34.56H42.24H46.08V30.72V26.88H44.16H42.24V23.04V19.2H44.16H46.08V17.28V15.36H48H49.92V17.28ZM26.88 36.48V38.4H24.96H23.04V36.48V34.56H24.96H26.88V36.48ZM57.6 40.32V42.24H59.52H61.44V46.08V49.92H59.52H57.6V46.08V42.24H55.68H53.76V40.32V38.4H55.68H57.6V40.32ZM92.16 40.32V42.24H88.32H84.48V40.32V38.4H88.32H92.16V40.32ZM23.04 48V49.92H21.12H19.2V48V46.08H21.12H23.04V48ZM69.12 48V49.92H71.04H72.96V48V46.08H71.04H69.12V48ZM23.04 55.68V57.6H24.96H26.88V59.52V61.44H24.96H23.04V59.52V57.6H17.28H11.52V55.68V53.76H17.28H23.04V55.68ZM38.4 59.52V61.44H36.48H34.56V63.36V65.28H32.64H30.72V63.36V61.44H32.64H34.56V59.52V57.6H36.48H38.4V59.52ZM65.28 59.52V61.44H63.36H61.44V67.2V72.96H57.6H53.76V74.88V76.8H51.84H49.92V74.88V72.96H48H46.08V71.04V69.12H49.92H53.76V67.2V65.28H55.68H57.6V63.36V61.44H59.52H61.44V59.52V57.6H63.36H65.28V59.52ZM80.64 59.52V61.44H82.56H84.48V65.28V69.12H88.32H92.16V71.04V72.96H90.24H88.32V78.72V84.48H82.56H76.8V86.4V88.32H72.96H69.12V86.4V84.48H71.04H72.96V82.56V80.64H76.8H80.64V71.04V61.44H78.72H76.8V59.52V57.6H78.72H80.64V59.52ZM92.16 59.52V61.44H90.24H88.32V59.52V57.6H90.24H92.16V59.52ZM76.8 71.04V76.8H71.04H65.28V71.04V65.28H71.04H76.8V71.04ZM0 82.56V96H13.44H26.88V82.56V69.12H13.44H0V82.56ZM69.12 71.04V72.96H71.04H72.96V71.04V69.12H71.04H69.12V71.04ZM23.04 82.56V92.16H13.44H3.84V82.56V72.96H13.44H23.04V82.56ZM7.68 82.56V88.32H13.44H19.2V82.56V76.8H13.44H7.68V82.56ZM30.72 80.64V84.48H32.64H34.56V82.56V80.64H36.48H38.4V84.48V88.32H40.32H42.24V84.48V80.64H40.32H38.4V78.72V76.8H34.56H30.72V80.64ZM46.08 86.4V88.32H48H49.92V86.4V84.48H48H46.08V86.4ZM30.72 92.16V96H36.48H42.24V94.08V92.16H38.4H34.56V90.24V88.32H32.64H30.72V92.16ZM84.48 90.24V92.16H82.56H80.64V90.24V88.32H82.56H84.48V90.24Z" fill="white"/>
</svg>
