<svg width="80" height="80" viewBox="0 0 80 80" fill="none" xmlns="http://www.w3.org/2000/svg">
<path d="M40 80C62.0914 80 80 62.0914 80 40C80 17.9086 62.0914 0 40 0C17.9086 0 0 17.9086 0 40C0 62.0914 17.9086 80 40 80Z" fill="#1769FF"/>
<path d="M28.2592 21.875C29.984 21.875 31.5584 22.0286 32.9824 22.3326C34.4064 22.6366 35.6224 23.1358 36.6368 23.8302C37.6512 24.5246 38.4384 25.4462 38.9984 26.5982C39.5584 27.7502 39.8368 29.171 39.8368 30.8638C39.8368 32.691 39.4208 34.2142 38.592 35.4334C37.7632 36.6526 36.5344 37.651 34.912 38.4286C37.1456 39.0718 38.8128 40.1982 39.9136 41.8046C41.0144 43.411 41.5648 45.3502 41.5648 47.619C41.5648 49.4462 41.2096 51.0302 40.4992 52.3678C39.7888 53.7054 38.832 54.7966 37.6288 55.6414C36.4256 56.4894 35.056 57.1134 33.5168 57.5198C31.968 57.9262 30.3712 58.131 28.7712 58.1278H11.2V21.875H28.2592ZM27.2448 36.547C28.6656 36.547 29.8336 36.2078 30.7488 35.5326C31.664 34.8542 32.1216 33.7566 32.1184 32.2334C32.1184 31.3886 31.9648 30.6942 31.6608 30.1534C31.3568 29.6126 30.9504 29.187 30.4416 28.883C29.9328 28.579 29.3504 28.3678 28.6912 28.2494C28.0128 28.131 27.3248 28.0702 26.6336 28.0734H19.1744V36.5534L27.2448 36.547ZM27.7024 51.9294C28.4544 51.9326 29.2032 51.8558 29.936 51.7022C30.6464 51.5486 31.2736 51.2958 31.8144 50.9406C32.3552 50.5854 32.7872 50.1022 33.1104 49.4942C33.4304 48.8862 33.5936 48.1054 33.5936 47.1582C33.5936 45.299 33.0688 43.9678 32.0192 43.1742C30.9696 42.3774 29.5808 41.9806 27.856 41.9806H19.1744V51.9326L27.7024 51.9294ZM51.5936 51.1678C52.6752 52.2174 54.2336 52.7422 56.2656 52.7422C57.7216 52.7422 58.9728 52.3774 60.0224 51.651C61.072 50.9246 61.7152 50.1534 61.952 49.3406H68.2976C67.2832 52.4894 65.7248 54.739 63.6256 56.0926C61.5264 57.4462 58.9888 58.1246 56.0096 58.1246C53.9456 58.1246 52.0832 57.795 50.4256 57.1358C48.768 56.4766 47.3632 55.5358 46.2112 54.3166C45.0592 53.0974 44.1696 51.6446 43.5456 49.9518C42.9216 48.259 42.608 46.3966 42.608 44.3678C42.608 42.4062 42.928 40.579 43.5712 38.8862C44.2144 37.1934 45.1296 35.731 46.3136 34.4958C47.4976 33.2606 48.912 32.2878 50.5536 31.5774C52.1952 30.867 54.016 30.5118 56.0128 30.5118C58.2464 30.5118 60.192 30.9438 61.8528 31.8078C63.5104 32.6718 64.8736 33.8302 65.9392 35.2862C67.0048 36.7422 67.776 38.3998 68.2496 40.2622C68.7232 42.1246 68.8928 44.0702 68.7584 46.1022H49.8208C49.92 48.4286 50.512 50.1214 51.5936 51.1678ZM59.744 37.3598C58.88 36.4126 57.568 35.939 55.808 35.939C54.656 35.939 53.6992 36.1342 52.9408 36.5214C52.1792 36.9118 51.5712 37.3918 51.1136 37.9678C50.656 38.5438 50.336 39.1518 50.1504 39.795C49.9648 40.4382 49.8528 41.0142 49.8208 41.5198H61.5488C61.2064 39.6958 60.6048 38.307 59.744 37.3598ZM48.5856 23.715H63.2384V27.779H48.5856V23.715Z" fill="white"/>
</svg>
