<svg width="80" height="80" viewBox="0 0 80 80" fill="none" xmlns="http://www.w3.org/2000/svg">
<path fill-rule="evenodd" clip-rule="evenodd" d="M36.7577 0.502241C30.8373 1.64454 26.3067 3.50251 21.4028 6.79851C10.4548 14.1576 4.46529 26.827 5.03757 41.4164C5.30962 48.3586 6.36832 52.6594 9.27062 58.6157C13.1449 66.5666 18.2645 71.7465 26.2543 75.7993C32.5066 78.9707 36.9941 79.9905 44.7431 79.9999C51.9617 80.0089 56.1199 79.11 62.0253 76.2639C66.5185 74.099 69.084 72.3393 72.4177 69.1376L75 66.6569L68.6874 60.5558L62.3744 54.4548L60.6835 55.8651C55.0326 60.5773 51.8745 61.9666 46.0637 62.2972C38.9869 62.7001 33.6921 60.7989 28.9083 56.1372C24.5239 51.8646 22.4148 46.5757 22.4148 39.8528C22.4148 33.5807 24.2025 28.697 28.0376 24.4932C32.0985 20.0419 37.6439 17.7395 44.3029 17.7395C50.3029 17.7395 55.8535 19.8021 60.1275 23.6198C61.1827 24.5625 62.2168 25.334 62.425 25.334C62.6332 25.334 65.5298 22.562 68.8617 19.1744L74.9199 13.0144L71.937 10.3916C66.5163 5.62405 61.4741 2.88333 54.9313 1.14777C50.3835 -0.0588572 41.3306 -0.380506 36.7577 0.502241ZM39.502 27.409C37.9476 27.8937 36.6419 28.793 34.8402 30.6215C31.6887 33.8197 30.6674 36.5546 30.9782 40.9634C31.4937 48.2751 36.9276 53.2473 44.3575 53.2062C51.1754 53.1682 56.9699 47.1158 56.9162 40.0878C56.8449 30.7091 48.4734 24.6143 39.502 27.409Z" fill="#FF3D2E"/>
<path fill-rule="evenodd" clip-rule="evenodd" d="M36.7577 0.502241C30.8373 1.64454 26.3067 3.50251 21.4028 6.79851C10.4548 14.1576 4.46529 26.827 5.03757 41.4164C5.30962 48.3586 6.36832 52.6594 9.27062 58.6157C13.1449 66.5666 18.2645 71.7465 26.2543 75.7993C32.5066 78.9707 36.9941 79.9905 44.7431 79.9999C51.9617 80.0089 56.1199 79.11 62.0253 76.2639C66.5185 74.099 69.084 72.3393 72.4177 69.1376L75 66.6569L68.6874 60.5558L62.3744 54.4548L60.6835 55.8651C55.0326 60.5773 51.8745 61.9666 46.0637 62.2972C38.9869 62.7001 33.6921 60.7989 28.9083 56.1372C24.5239 51.8646 22.4148 46.5757 22.4148 39.8528C22.4148 33.5807 24.2025 28.697 28.0376 24.4932C32.0985 20.0419 37.6439 17.7395 44.3029 17.7395C50.3029 17.7395 55.8535 19.8021 60.1275 23.6198C61.1827 24.5625 62.2168 25.334 62.425 25.334C62.6332 25.334 65.5298 22.562 68.8617 19.1744L74.9199 13.0144L71.937 10.3916C66.5163 5.62405 61.4741 2.88333 54.9313 1.14777C50.3835 -0.0588572 41.3306 -0.380506 36.7577 0.502241Z" fill="white"/>
</svg>
