<svg width="80" height="80" viewBox="0 0 80 80" fill="none" xmlns="http://www.w3.org/2000/svg">
<path d="M40 2.65625C60.625 2.65625 77.3125 19.3438 77.3125 39.9375C77.3125 60.5312 60.625 77.25 40 77.25C19.375 77.25 2.6875 60.5625 2.6875 39.9688C2.6875 19.375 19.375 2.65625 40 2.65625Z" fill="#E74D89"/>
<path d="M40 79.9062C17.9375 79.9062 0 62 0 39.9688C0 17.9062 17.9375 0 40 0C62.0625 0 80 17.9062 80 39.9375C80 61.9688 62.0625 79.9062 40 79.9062ZM73.7188 45.4062C72.5625 45.0312 63.1562 42.25 52.4375 43.9375C56.9062 56.1875 58.7188 66.1875 59.0625 68.25C66.75 63.0938 72.2188 54.9062 73.7188 45.4062ZM53.3438 71.4062C52.8438 68.4062 50.8438 57.9688 46.0625 45.5312C46 45.5625 45.9062 45.5938 45.8438 45.5938C26.5625 52.3125 19.6562 65.6562 19.0312 66.9062C24.8125 71.4062 32.0938 74.0938 40 74.0938C44.7188 74.125 49.25 73.1562 53.3438 71.4062ZM14.625 62.8125C15.4062 61.5 24.7812 46 42.4062 40.2812C42.8438 40.125 43.3125 40 43.75 39.875C42.9062 37.9375 41.9688 36 40.9688 34.0938C23.9063 39.1875 7.34375 38.9688 5.84375 38.9375C5.84375 39.2812 5.8125 39.625 5.8125 39.9688C5.84375 48.75 9.15625 56.75 14.625 62.8125ZM6.5625 33C8.09375 33.0312 22.1562 33.0938 38.1562 28.8438C32.5 18.7812 26.375 10.3438 25.5 9.125C15.9062 13.625 8.78125 22.4375 6.5625 33ZM32 6.8125C32.9375 8.0625 39.1562 16.5 44.75 26.7812C56.9062 22.2187 62.0312 15.3438 62.6562 14.4688C56.625 9.125 48.6875 5.875 40 5.875C37.25 5.875 34.5625 6.21875 32 6.8125ZM66.4375 18.4062C65.7188 19.375 60 26.7188 47.375 31.875C48.1562 33.5 48.9375 35.1562 49.6562 36.8125C49.9062 37.4062 50.1562 38 50.4062 38.5625C61.7812 37.125 73.0625 39.4375 74.1875 39.6562C74.0938 31.625 71.2188 24.2188 66.4375 18.4062Z" fill="#B2215A"/>
</svg>
