<svg width="24" height="24" viewBox="0 0 24 24" fill="none" xmlns="http://www.w3.org/2000/svg">
<g id="external">
<path id="shape" fill-rule="evenodd" clip-rule="evenodd" d="M7.04526 19.8212H16.9546C18.7757 19.8212 19.7355 18.8696 19.7355 17.0731V7.10635C19.7355 5.30986 18.7757 4.3501 16.9546 4.3501H7.04526C5.23237 4.3501 4.2644 5.30986 4.2644 7.10635V17.0731C4.2644 18.8696 5.23237 19.8212 7.04526 19.8212ZM7.20117 18C6.4793 18 6.09375 17.6309 6.09375 16.8762V7.29492C6.09375 6.54023 6.4793 6.1793 7.20117 6.1793H16.807C17.5125 6.1793 17.9145 6.54023 17.9145 7.29492V16.8762C17.9145 17.6309 17.5125 18 16.807 18H7.20117ZM15.2812 13.4883C15.2812 13.9641 14.9941 14.2922 14.5512 14.2922C14.1082 14.2922 13.8211 13.9805 13.8211 13.4883V12.266L13.9441 11.1586L12.8941 12.3152L10.1379 15.0633C9.96562 15.2355 9.76875 15.3176 9.52266 15.3176C9.07148 15.3176 8.72695 15.0059 8.72695 14.5219C8.72695 14.3086 8.82539 14.0953 8.98125 13.9395L11.7457 11.1668L12.9187 10.1168L11.8605 10.2398H10.5563C10.0723 10.2398 9.75234 9.96094 9.75234 9.51797C9.75234 9.0668 10.0641 8.78789 10.5563 8.78789H14.3461C14.9285 8.78789 15.2812 9.09141 15.2812 9.70664V13.4883Z" fill="#FF005B"/>
</g>
</svg>
