<svg width="80" height="80" viewBox="0 0 80 80" fill="none" xmlns="http://www.w3.org/2000/svg">
<g clip-path="url(#clip0_38_1649)">
<path d="M0 40C0 62.0914 17.9086 80 40 80C62.0914 80 80 62.0914 80 40C80 17.9086 62.0914 0 40 0C17.9086 0 0 17.9086 0 40Z" fill="#1DBF73"/>
<path d="M64.7089 36.2188C63.2892 36.2188 62.3214 37.1525 61.9398 38.2388V36.2489H57.7109V49.1565H61.9398V46.3894V42.1063C61.9398 40.8191 62.982 39.777 64.2692 39.777H66.3696V36.2509L64.7089 36.2188Z" fill="white"/>
<path d="M56.5021 36.2188C55.0825 36.2188 54.1146 37.1525 53.7331 38.2388V36.2489H49.5042V49.1565H53.7331V46.3894V42.1063C53.7331 40.8191 54.7752 39.777 56.0624 39.777H58.1628V36.2509L56.5021 36.2188Z" fill="white"/>
<path d="M23.2953 36.249H19.0664V49.1566H23.2953V36.249Z" fill="white"/>
<path d="M32.3114 36.249L30.0424 43.7088L27.7753 36.249H23.5464L28.1387 49.1566H28.3857H31.701H31.948L36.5403 36.249H32.3114Z" fill="white"/>
<path d="M8.33301 36.2492V39.6709H23.2948V36.2492H8.33301Z" fill="white"/>
<path d="M15.0343 35.3875C15.0343 34.6345 15.6448 34.0221 16.3998 34.0221H19.0685V30.4819H15.4018C12.8636 30.4819 10.8054 32.5402 10.8054 35.0783V49.1566H15.0343V35.3875Z" fill="white"/>
<path d="M42.5364 45.9798C40.7814 45.9798 39.8496 45.018 39.7271 43.9276V43.9216C39.7191 43.8433 39.7131 43.763 39.7131 43.6826H44.4842H48.6769V42.3473C48.6769 38.8835 45.8677 36.0742 42.4038 36.0742H41.8898C38.4259 36.0742 35.6167 38.8835 35.6167 42.3473V43.0561C35.6167 46.52 38.4259 49.3292 41.8898 49.3292H43.0344C45.4058 49.3292 47.436 47.8654 48.2713 45.7911L44.5404 44.7027C44.5384 44.7027 44.0926 45.9798 42.5364 45.9798ZM41.8958 39.1063H42.2994C43.4721 39.1063 44.4259 40.032 44.4781 41.1927H39.7171C39.7673 40.032 40.7231 39.1063 41.8958 39.1063Z" fill="white"/>
<path d="M69.0382 44.2612C67.5864 44.2612 66.4097 45.4379 66.4097 46.8897C66.4097 48.3415 67.5864 49.5182 69.0382 49.5182C70.49 49.5182 71.6667 48.3415 71.6667 46.8897C71.6667 45.4379 70.49 44.2612 69.0382 44.2612Z" fill="#003912"/>
</g>
<defs>
<clipPath id="clip0_38_1649">
<rect width="80" height="80" fill="white"/>
</clipPath>
</defs>
</svg>
