<svg width="80" height="80" viewBox="0 0 80 80" fill="none" xmlns="http://www.w3.org/2000/svg">
<g clip-path="url(#clip0_1_145)">
<g clip-path="url(#clip1_1_145)">
<path d="M40 80C62.0914 80 80 62.0914 80 40C80 17.9086 62.0914 0 40 0C17.9086 0 0 17.9086 0 40C0 62.0914 17.9086 80 40 80Z" fill="#3A7AF3"/>
<mask id="mask0_1_145" style="mask-type:alpha" maskUnits="userSpaceOnUse" x="13" y="13" width="54" height="54">
<rect x="13" y="13" width="54" height="54" fill="#D9D9D9"/>
</mask>
<g mask="url(#mask0_1_145)">
<path d="M35.688 32.8402C35.688 32.8402 33.013 32.5721 33.013 34.9318V45.4972H50.561V48.6615C50.561 48.6615 50.6145 50.2168 48.956 50.2168H33.013V63.9464H52.166C52.166 63.9464 63.7755 62.1765 63.8825 50.2168V32.8402H35.688ZM63.3475 16H28.7865C16.2675 18.9497 16 29.2469 16 29.2469V64H29.268V32.3575C29.268 29.676 31.943 29.1933 31.943 29.1933H63.294L63.3475 16ZM108.983 54.0246C108.074 54.6145 107.378 55.0972 106.897 55.3654C105.185 56.438 103.58 57.2425 102.082 57.886C99.888 58.7978 97.962 59.2268 96.1965 59.2268C90.2045 59.2268 85.229 57.4034 81.27 53.7028C77.2575 50.0022 75.278 45.3363 75.278 39.7587C75.278 34.3419 77.0435 29.676 80.6815 25.6536C84.266 21.6849 88.653 19.7006 93.789 19.7006C95.929 19.7006 98.2295 20.076 100.584 20.8268C103.687 21.7922 106.148 23.2939 108.181 25.1709L104.757 28.9788C103.312 27.5307 101.386 26.5117 99.1925 25.8682C97.534 25.3855 95.715 25.1173 93.682 25.1173C90.0975 25.1173 87.048 26.5654 84.587 29.4614C82.1795 32.4112 80.949 35.8436 80.949 39.9196C80.949 43.9419 82.34 47.267 85.122 49.895C87.904 52.5229 91.435 53.8637 95.715 53.8637C97.4805 53.8637 99.2995 53.2737 101.172 52.2011C102.724 51.0212 103.526 50.4313 103.526 50.4313V42.0648H91.9165L93.575 36.8626H108.983V54.0246ZM143.919 43.8346C143.919 47.857 142.474 51.343 139.639 54.2927C136.803 57.2425 133.272 58.7441 129.045 58.7441C125.14 58.7441 121.77 57.2961 118.827 54.4C115.885 51.5039 114.44 48.0179 114.44 43.8883C114.44 39.8123 115.831 36.3263 118.613 33.3229C121.395 30.3196 124.819 28.8715 128.778 28.8715C133.218 28.8715 136.803 30.3195 139.639 33.162C142.474 35.9508 143.919 39.5441 143.919 43.8346ZM138.515 43.9419C138.515 41.2067 137.606 38.9006 135.787 37.0235C133.968 35.0927 131.721 34.181 128.992 34.181C126.478 34.181 124.338 35.1464 122.519 37.1307C120.753 39.0615 119.844 41.314 119.844 43.8346C119.844 46.4626 120.753 48.7151 122.519 50.5922C124.284 52.4693 126.531 53.4346 129.206 53.4346C131.721 53.4346 133.861 52.5229 135.68 50.6458C137.606 48.7151 138.515 46.4626 138.515 43.9419ZM178.426 43.8346C178.426 47.857 176.982 51.343 174.146 54.2927C171.311 57.2425 167.78 58.7441 163.553 58.7441C159.648 58.7441 156.277 57.2961 153.335 54.4C150.392 51.5039 148.948 48.0179 148.948 43.8883C148.948 39.8123 150.339 36.3263 153.121 33.3229C155.903 30.3196 159.327 28.8715 163.286 28.8715C167.726 28.8715 171.311 30.3195 174.146 33.162C176.982 35.9508 178.426 39.5441 178.426 43.8346ZM172.969 43.9419C172.969 41.2067 172.06 38.9006 170.241 37.0235C168.422 35.0927 166.175 34.181 163.446 34.181C160.932 34.181 158.792 35.1464 156.973 37.1307C155.207 39.0615 154.298 41.314 154.298 43.8346C154.298 46.4626 155.207 48.7151 156.973 50.5922C158.738 52.4693 160.985 53.4346 163.66 53.4346C166.175 53.4346 168.315 52.5229 170.134 50.6458C172.06 48.7151 172.969 46.4626 172.969 43.9419ZM210.312 57.9397L205.337 58.6905V53.8637L204.267 55.0972C203.304 56.009 202.234 56.7061 201.11 57.2961C199.398 58.1006 197.579 58.476 195.707 58.476C191.801 58.476 188.484 57.0279 185.809 54.1855C183.134 51.343 181.743 47.857 181.743 43.8883C181.743 39.7587 183.081 36.219 185.756 33.3229C188.431 30.3732 191.641 28.9251 195.546 28.9251C197.793 28.9251 199.719 29.3006 201.324 29.9978C202.501 30.5341 203.464 31.2313 204.32 32.0894C204.588 32.4648 204.855 32.8402 205.176 33.2156V20.505L210.473 19.7542L210.312 57.9397ZM205.658 44.2101C205.658 41.3676 204.695 38.9542 202.769 37.0235C200.843 35.0391 198.649 34.0737 196.135 34.0737C193.353 34.0737 191.159 34.9855 189.447 36.8626C187.842 38.6324 187.04 40.8313 187.04 43.4056C187.04 46.3017 187.896 48.7151 189.554 50.5922C191.213 52.4693 193.299 53.381 195.921 53.381C198.435 53.381 200.682 52.5229 202.662 50.7531C204.641 48.9832 205.658 46.7844 205.658 44.2101ZM238.346 25.7609H223.473V35.8972H235.029V41.0994H223.473V57.886L217.695 58.7441V20.505H237.223L238.346 25.7609ZM250.277 22.8112L246.692 27.3162L243.268 22.8112L246.853 18.3598L250.277 22.8112ZM249.207 57.9397L243.91 58.6905V30.3732L249.207 29.5687V57.9397ZM273.175 29.2469L270.66 35.0391C270.339 34.9855 270.018 34.9855 269.644 34.9855C269.109 34.9855 268.627 35.0391 268.092 35.0927C267.557 35.1464 267.022 35.3609 266.434 35.6827C265.31 36.1654 264.347 37.238 263.545 38.7933C262.635 40.6168 262.154 42.6011 262.154 44.6391V57.886L256.857 58.7441V30.3732L261.779 29.4614V35.3609C262.421 34.3419 263.063 33.3229 263.705 32.2503C264.615 31.1777 265.685 30.4268 266.862 29.9441C267.504 29.676 268.627 29.5151 270.393 29.3542C272.105 29.2469 273.068 29.1933 273.175 29.2469ZM312.765 57.9397L307.468 58.6905V39.276C307.468 37.5062 307.094 36.1654 306.291 35.3609C305.489 34.5564 304.312 34.1274 302.76 34.1274C300.888 34.1274 299.497 34.8782 298.534 36.4335C297.892 37.5061 297.517 38.6324 297.517 39.7587V57.8324L292.221 58.7978V39.3296C292.221 37.6134 291.846 36.3263 291.044 35.4145C290.241 34.5028 289.225 34.0737 287.887 34.0737H287.352C285.48 34.0737 284.142 34.8246 283.286 36.4335C282.644 37.6134 282.323 39.1151 282.323 40.9385V57.7788L276.813 58.7441V30.2659L281.788 29.4078V33.0548C282.323 32.1967 282.912 31.4994 283.393 31.0168C284.838 29.676 286.496 29.0324 288.369 29.0324C290.455 29.0324 292.006 29.3542 293.076 30.0514C293.986 30.6413 294.842 31.7676 295.751 33.3765C297.57 30.4805 300.139 29.0324 303.563 29.0324C306.826 29.0324 309.234 30.0514 310.839 32.143C312.123 33.8592 312.765 36.3799 312.765 39.6514V57.9397ZM337 49.3587C337 51.9866 336.09 54.1318 334.271 55.7944C332.452 57.5106 330.152 58.3151 327.37 58.3151C325.284 58.3151 323.411 57.8324 321.699 56.867C319.987 55.9017 318.703 54.7754 317.901 53.4883L321.646 50.1631C321.913 50.5922 322.181 50.914 322.395 51.1285C323.786 52.5765 325.444 53.2737 327.37 53.2737C328.708 53.2737 329.777 52.8983 330.526 52.2011C331.329 51.5039 331.704 50.5385 331.704 49.2514C331.704 47.8033 330.794 46.838 328.975 46.3017C325.391 45.229 323.411 44.5855 323.144 44.4782C321.485 43.6201 320.308 42.7084 319.559 41.6894C318.703 40.5095 318.275 38.9542 318.275 36.9698C318.275 34.5028 319.185 32.5184 320.95 30.8559C322.716 29.2469 324.855 28.4425 327.316 28.4425C329.189 28.4425 330.901 28.8715 332.506 29.7296C334.111 30.5877 335.235 31.4994 335.93 32.5184L332.774 35.9508C332.292 35.4682 331.757 35.0391 331.222 34.6637C329.938 33.752 328.707 33.3229 327.584 33.3229C326.46 33.3229 325.551 33.5911 324.856 34.0737C324 34.6637 323.571 35.5754 323.571 36.7553C323.571 37.8816 323.946 38.7397 324.802 39.276C325.498 39.705 326.996 40.1877 329.403 40.724C331.757 41.314 333.63 42.2793 334.914 43.6737C336.412 45.1754 337 46.9989 337 49.3587Z" fill="white"/>
</g>
</g>
</g>
<defs>
<clipPath id="clip0_1_145">
<rect width="80" height="80" fill="white"/>
</clipPath>
<clipPath id="clip1_1_145">
<rect width="80" height="80" fill="white"/>
</clipPath>
</defs>
</svg>
