<svg width="80" height="80" viewBox="0 0 80 80" fill="none" xmlns="http://www.w3.org/2000/svg">
<g clip-path="url(#clip0_1_112)">
<g clip-path="url(#clip1_1_112)">
<circle cx="40" cy="40" r="40" fill="url(#paint0_radial_1_112)"/>
<mask id="mask0_1_112" style="mask-type:alpha" maskUnits="userSpaceOnUse" x="0" y="0" width="80" height="80">
<circle cx="40" cy="40" r="40" fill="url(#paint1_radial_1_112)"/>
</mask>
<g mask="url(#mask0_1_112)">
<path d="M38.0194 -1.39395C21.5702 -1.39395 16.7594 -1.37698 15.8243 -1.29941C12.4487 -1.0188 10.3481 -0.487285 8.05969 0.652109C6.29611 1.52787 4.90525 2.54302 3.53256 3.96605C1.03264 6.5612 -0.48247 9.75393 -1.03094 13.5491C-1.2976 15.3915 -1.37517 15.7673 -1.39093 25.1782C-1.39699 28.3151 -1.39093 32.4436 -1.39093 37.9812C-1.39093 54.4176 -1.37275 59.2236 -1.29396 60.157C-1.02124 63.4418 -0.506106 65.5085 0.58477 67.7691C2.66956 72.0964 6.65125 75.3448 11.342 76.557C12.9662 76.9751 14.7601 77.2054 17.0631 77.3145C18.0388 77.357 27.9839 77.3873 37.9351 77.3873C47.8864 77.3873 57.8376 77.3751 58.7891 77.3267C61.4556 77.2012 63.0041 76.9933 64.7162 76.5509C69.4372 75.3327 73.3462 72.1327 75.4734 67.7448C76.5431 65.5388 77.0855 63.3933 77.3309 60.28C77.3843 59.6012 77.4067 48.7788 77.4067 37.9709C77.4067 27.1612 77.3824 16.3588 77.3291 15.68C77.0806 12.5164 76.5382 10.3891 75.434 8.14059C74.528 6.29999 73.5219 4.92544 72.0614 3.51999C69.4548 1.03029 66.267 -0.48486 62.4683 -1.03274C60.6278 -1.2988 60.2611 -1.37759 50.8432 -1.39395H38.0194Z" fill="url(#paint2_radial_1_112)"/>
</g>
<path d="M39.5021 17C33.3914 17 32.6245 17.0267 30.2245 17.1359C27.8292 17.2456 26.1942 17.6248 24.7635 18.1813C23.2837 18.7559 22.0283 19.5247 20.7777 20.7758C19.5261 22.0264 18.7574 23.2817 18.1808 24.7611C17.623 26.1922 17.2433 27.8277 17.1355 30.222C17.0281 32.622 17 33.3894 17 39.5C17 45.6106 17.0272 46.3752 17.1359 48.7752C17.2461 51.1705 17.6253 52.8055 18.1813 54.2361C18.7564 55.7159 19.5252 56.9713 20.7763 58.2219C22.0265 59.4734 23.2818 60.2441 24.7607 60.8188C26.1923 61.3752 27.8278 61.7544 30.2226 61.8641C32.6227 61.9733 33.3891 62 39.4993 62C45.6105 62 46.375 61.9733 48.775 61.8641C51.1704 61.7544 52.8072 61.3752 54.2388 60.8188C55.7182 60.2441 56.9717 59.4734 58.2218 58.2219C59.4734 56.9713 60.2422 55.7159 60.8187 54.2366C61.3719 52.8055 61.7516 51.17 61.8641 48.7756C61.9719 46.3756 62 45.6106 62 39.5C62 33.3894 61.9719 32.6225 61.8641 30.2225C61.7516 27.8272 61.3719 26.1922 60.8187 24.7616C60.2422 23.2817 59.4734 22.0264 58.2218 20.7758C56.9703 19.5242 55.7187 18.7555 54.2374 18.1813C52.803 17.6248 51.1671 17.2456 48.7717 17.1359C46.3717 17.0267 45.6076 17 39.4951 17H39.5021ZM37.4837 21.0547C38.0827 21.0537 38.7512 21.0547 39.5021 21.0547C45.5097 21.0547 46.2217 21.0763 48.5941 21.1841C50.7879 21.2844 51.9785 21.6509 52.7716 21.9589C53.8216 22.3667 54.5702 22.8542 55.3573 23.6417C56.1448 24.4292 56.6323 25.1792 57.041 26.2292C57.349 27.0214 57.716 28.212 57.8159 30.4058C57.9237 32.7777 57.9471 33.4902 57.9471 39.4948C57.9471 45.4995 57.9237 46.212 57.8159 48.5839C57.7156 50.7777 57.349 51.9683 57.041 52.7605C56.6332 53.8105 56.1448 54.5581 55.3573 55.3452C54.5698 56.1327 53.8221 56.6202 52.7716 57.028C51.9794 57.3373 50.7879 57.703 48.5941 57.8033C46.2222 57.9111 45.5097 57.9345 39.5021 57.9345C33.4941 57.9345 32.782 57.9111 30.4101 57.8033C28.2164 57.702 27.0257 57.3355 26.2321 57.0275C25.1821 56.6197 24.4321 56.1322 23.6446 55.3447C22.8571 54.5572 22.3696 53.8091 21.9608 52.7586C21.6529 51.9664 21.2858 50.7758 21.186 48.582C21.0782 46.2102 21.0566 45.4977 21.0566 39.4892C21.0566 33.4808 21.0782 32.772 21.186 30.4002C21.2863 28.2064 21.6529 27.0158 21.9608 26.2227C22.3686 25.1727 22.8571 24.4227 23.6446 23.6352C24.4321 22.8477 25.1821 22.3602 26.2321 21.9514C27.0253 21.642 28.2164 21.2764 30.4101 21.1756C32.4858 21.0819 33.2902 21.0538 37.4837 21.0491V21.0547ZM51.5125 24.7906C50.0219 24.7906 48.8125 25.9986 48.8125 27.4897C48.8125 28.9803 50.0219 30.1897 51.5125 30.1897C53.0032 30.1897 54.2126 28.9803 54.2126 27.4897C54.2126 25.9991 53.0032 24.7897 51.5125 24.7897V24.7906ZM39.5021 27.9453C33.1209 27.9453 27.9473 33.1189 27.9473 39.5C27.9473 45.8811 33.1209 51.0523 39.5021 51.0523C45.8833 51.0523 51.055 45.8811 51.055 39.5C51.055 33.1189 45.8833 27.9453 39.5021 27.9453ZM39.5021 32C43.644 32 47.0022 35.3577 47.0022 39.5C47.0022 43.6419 43.644 47 39.5021 47C35.3597 47 32.002 43.6419 32.002 39.5C32.002 35.3577 35.3597 32 39.5021 32Z" fill="white"/>
</g>
</g>
<defs>
<radialGradient id="paint0_radial_1_112" cx="0" cy="0" r="1" gradientUnits="userSpaceOnUse" gradientTransform="translate(21.2501 86.1617) rotate(-90) scale(79.2859 73.7421)">
<stop stop-color="#FFDD55"/>
<stop offset="0.1" stop-color="#FFDD55"/>
<stop offset="0.5" stop-color="#FF543E"/>
<stop offset="1" stop-color="#C837AB"/>
</radialGradient>
<radialGradient id="paint1_radial_1_112" cx="0" cy="0" r="1" gradientUnits="userSpaceOnUse" gradientTransform="translate(21.2501 86.1617) rotate(-90) scale(79.2859 73.7421)">
<stop stop-color="#FFDD55"/>
<stop offset="0.1" stop-color="#FFDD55"/>
<stop offset="0.5" stop-color="#FF543E"/>
<stop offset="1" stop-color="#C837AB"/>
</radialGradient>
<radialGradient id="paint2_radial_1_112" cx="0" cy="0" r="1" gradientUnits="userSpaceOnUse" gradientTransform="translate(-14.5931 4.28131) rotate(78.678) scale(34.9015 143.898)">
<stop stop-color="#3771C8"/>
<stop offset="0.128" stop-color="#3771C8"/>
<stop offset="1" stop-color="#6600FF" stop-opacity="0"/>
</radialGradient>
<clipPath id="clip0_1_112">
<rect width="80" height="80" fill="white"/>
</clipPath>
<clipPath id="clip1_1_112">
<rect width="80" height="80" fill="white"/>
</clipPath>
</defs>
</svg>
