<svg width="152" height="152" viewBox="0 0 152 152" fill="none" xmlns="http://www.w3.org/2000/svg">
<rect width="152" height="152" rx="76" fill="#4579F5"/>
<path fill-rule="evenodd" clip-rule="evenodd" d="M113.996 114.031H97.9645V88.9111C97.9645 82.9209 97.8427 75.212 89.6106 75.212C81.2522 75.212 79.9757 81.73 79.9757 88.4691V114.031H63.9446V62.3745H79.3442V69.4157H79.5517C81.7033 65.3561 86.9357 61.0709 94.7528 61.0709C110.996 61.0709 114 71.7613 114 85.6769V114.031H113.996ZM45.8385 55.3058C40.6782 55.3058 36.5328 51.1289 36.5328 45.9912C36.5328 40.858 40.6827 36.6855 45.8385 36.6855C50.9807 36.6855 55.1486 40.858 55.1486 45.9912C55.1486 51.1289 50.9762 55.3058 45.8385 55.3058ZM53.8768 114.031H37.8005V62.3744H53.8768V114.031Z" fill="white"/>
</svg>
