<svg width="80" height="80" viewBox="0 0 80 80" fill="none" xmlns="http://www.w3.org/2000/svg">
<path d="M78.8223 39.8887C78.8223 61.3998 61.3778 78.8442 39.8667 78.8442C18.3556 78.8442 0.911133 61.3998 0.911133 39.8887C0.911133 18.3776 18.3556 0.933105 39.8667 0.933105C61.3778 0.933105 78.8223 18.3776 78.8223 39.8887Z" fill="#CA2127"/>
<path d="M36.6 13.9777C25.6222 15.1555 14.6889 23.5999 14.2444 35.6888C13.9555 43.0666 17.0444 48.5999 24.4222 50.1555C25.2666 46.6666 25.4222 44.7777 25.4222 44.7777C25.4222 44.7777 22.1777 41.6666 21.8444 39.6888C19.1333 23.7777 41.1111 12.9111 52.6444 24.0222C60.6 31.7333 55.3555 55.4444 42.5111 52.9777C30.2 50.6222 48.5333 31.7555 38.7111 28.0444C30.7333 25.0222 26.4889 37.2666 30.2666 43.3333C28.0444 53.7777 23.2666 63.6222 25.2 76.7111C31.4889 72.3777 33.6 64.0666 35.3333 55.3999C38.4889 57.2222 40.1777 59.1333 44.2 59.4222C59.0444 60.511 67.3333 45.3111 65.3111 31.2666C63.4889 18.8222 50.4666 12.4888 36.6 13.9777Z" fill="white"/>
</svg>
