<svg width="80" height="80" viewBox="0 0 80 80" fill="none" xmlns="http://www.w3.org/2000/svg">
<g clip-path="url(#clip0_1_128)">
<g clip-path="url(#clip1_1_128)">
<path d="M40 80C62.0914 80 80 62.0914 80 40C80 17.9086 62.0914 0 40 0C17.9086 0 0 17.9086 0 40C0 62.0914 17.9086 80 40 80Z" fill="url(#paint0_linear_1_128)"/>
<path fill-rule="evenodd" clip-rule="evenodd" d="M18.1063 39.5778C29.7671 34.4974 37.5428 31.148 41.4334 29.5298C52.5418 24.9094 54.85 24.1068 56.3545 24.0803C56.6854 24.0745 57.4253 24.1565 57.9045 24.5454C58.3092 24.8737 58.4205 25.3173 58.4738 25.6286C58.5271 25.9399 58.5934 26.6491 58.5407 27.2033C57.9387 33.5282 55.334 48.8772 54.0089 55.9612C53.4482 58.9588 52.3441 59.9638 51.2753 60.0622C48.9524 60.2759 47.1885 58.5271 44.9387 57.0523C41.4182 54.7445 39.4293 53.308 36.012 51.056C32.0628 48.4535 34.6229 47.0231 36.8736 44.6855C37.4626 44.0737 47.6972 34.7645 47.8953 33.92C47.9201 33.8144 47.9431 33.4207 47.7092 33.2129C47.4753 33.005 47.1301 33.0761 46.881 33.1326C46.5279 33.2127 40.9038 36.93 30.0088 44.2845C28.4124 45.3807 26.9664 45.9148 25.6709 45.8868C24.2427 45.856 21.4954 45.0793 19.4531 44.4154C16.9481 43.6011 14.9572 43.1706 15.1305 41.7877C15.2208 41.0674 16.2127 40.3308 18.1063 39.5778Z" fill="white"/>
</g>
</g>
<defs>
<linearGradient id="paint0_linear_1_128" x1="4000" y1="0" x2="4000" y2="7940.67" gradientUnits="userSpaceOnUse">
<stop stop-color="#2AABEE"/>
<stop offset="1" stop-color="#229ED9"/>
</linearGradient>
<clipPath id="clip0_1_128">
<rect width="80" height="80" fill="white"/>
</clipPath>
<clipPath id="clip1_1_128">
<rect width="80" height="80" fill="white"/>
</clipPath>
</defs>
</svg>
