<svg width="80" height="80" viewBox="0 0 80 80" fill="none" xmlns="http://www.w3.org/2000/svg">
<g clip-path="url(#clip0_38_1261)">
<rect width="80" height="80" rx="40" fill="#6FDA44"/>
<path d="M54.5751 46.0638C52.1214 46.0638 49.8248 44.9654 47.7351 43.1768L48.2438 40.6532L48.2663 40.561C48.7201 37.8742 50.1564 33.3618 54.5751 33.3618C57.8891 33.3618 60.5847 36.2146 60.5847 39.7181C60.5747 43.211 57.8791 46.0638 54.5751 46.0638ZM54.5751 26.9212C48.9296 26.9212 44.5533 30.8014 42.7753 37.1814C40.0573 32.8692 38.0026 27.6931 36.7982 23.3335H30.7237V40.0553C30.7237 43.3506 28.1828 46.0375 25.0657 46.0375C21.9487 46.0375 19.4102 43.3506 19.4102 40.0553V23.3335H13.3333V40.0553C13.3109 46.9041 18.5824 52.5255 25.0558 52.5255C31.5292 52.5255 36.8007 46.9041 36.8007 40.0553V37.2499C37.9826 39.8551 39.4289 42.484 41.1869 44.8231L37.464 63.3335H43.6855L46.3811 49.9071C48.745 51.5087 51.4631 52.5123 54.5801 52.5123C61.243 52.5123 66.6666 46.7382 66.6666 39.6917C66.6616 32.6585 61.238 26.9212 54.5751 26.9212Z" fill="white"/>
</g>
<defs>
<clipPath id="clip0_38_1261">
<rect width="80" height="80" fill="white"/>
</clipPath>
</defs>
</svg>
