<svg width="16" height="16" viewBox="0 0 16 16" fill="none" xmlns="http://www.w3.org/2000/svg">
<path d="M8 0C12.4195 0 15.9997 3.58624 16 8.00098C16 12.4163 12.4193 16 8 16H7.35156V15.9707C3.23862 15.6402 0.000243525 12.1959 0 7.99902C0 3.58375 3.58068 0 8 0ZM10.6338 8.61035C8.27275 9.48896 6.2124 11.4544 5.45117 14.1963C6.23714 14.52 7.09767 14.6992 8 14.6992H8.19922C8.73969 14.6834 9.26363 14.6023 9.76465 14.4658C10.7462 12.702 11.0416 10.5865 10.6338 8.61035ZM14.6963 8.21094C13.7796 8.04506 12.8248 8.06465 11.8877 8.25391C12.277 10.0519 12.1586 11.9566 11.5371 13.6924C13.3816 12.5437 14.6251 10.525 14.6963 8.21094ZM1.71973 5.6543C1.44702 6.38407 1.29785 7.17444 1.29785 7.99902C1.29801 10.3219 2.48287 12.3691 4.28027 13.5713C5.2265 10.5192 7.58087 8.33373 10.2764 7.3623C10.0961 6.8719 9.8704 6.3993 9.60059 5.95117C8.9972 6.19808 8.36916 6.38654 7.72461 6.50293C6.59139 6.70725 5.42656 6.71422 4.29004 6.50586C3.3978 6.34683 2.53113 6.05859 1.71973 5.6543ZM13.0303 3.5752C12.3723 4.2854 11.6076 4.894 10.7695 5.37793C11.0722 5.89409 11.3261 6.4376 11.5273 7.00195C12.5476 6.78394 13.5918 6.7403 14.6074 6.88281C14.3963 5.62754 13.8364 4.49105 13.0303 3.5752ZM4.75391 2.13477C3.74398 2.69495 2.89434 3.50857 2.29004 4.48926C2.99246 4.84025 3.74462 5.09056 4.51953 5.22852H4.52148L4.52246 5.22949C5.49974 5.40884 6.50779 5.40341 7.49414 5.22559C7.94589 5.144 8.38883 5.0207 8.81934 4.86328C8.41457 4.38481 7.96108 3.94961 7.46387 3.56934C7.42974 3.54569 7.39125 3.51824 7.36035 3.49512C7.33696 3.47762 7.30934 3.45699 7.28223 3.43652C7.26401 3.42278 7.24598 3.40888 7.22949 3.39648C7.18501 3.36304 7.14481 3.33256 7.11133 3.30859C7.08349 3.28865 7.07085 3.28041 7.06934 3.2793L7.0498 3.26855L7.02734 3.25293C6.99427 3.23048 6.9645 3.2101 6.9375 3.19141C6.87819 3.15037 6.83045 3.11749 6.78223 3.08887L6.75098 3.07031L6.72168 3.04785C6.7234 3.04915 6.72306 3.04943 6.7207 3.04785C6.71588 3.04465 6.70272 3.03505 6.67773 3.01953C6.64478 2.99911 6.60372 2.9755 6.56055 2.9502C6.49939 2.9144 6.44348 2.88256 6.39941 2.85742C6.37897 2.84575 6.36149 2.83471 6.34668 2.82617H6.34473C6.34245 2.82492 6.33903 2.82308 6.33398 2.82031C6.33245 2.81947 6.33088 2.81837 6.3291 2.81738C6.31908 2.81188 6.30562 2.80445 6.29199 2.79688C6.27607 2.78801 6.25706 2.77662 6.23828 2.76562C6.22801 2.75962 6.20892 2.74827 6.1875 2.73438C6.1611 2.71864 6.13234 2.70365 6.09863 2.68555L6.09668 2.68457C6.05637 2.6655 6.00629 2.64158 5.95312 2.61621C5.85279 2.56837 5.74134 2.51543 5.66406 2.47949L5.62109 2.45801C5.4986 2.40122 5.35175 2.34548 5.1875 2.2832C5.15184 2.26969 5.11538 2.25544 5.07812 2.24121C4.97685 2.20486 4.87092 2.17237 4.76074 2.1377C4.75839 2.13696 4.75626 2.13551 4.75391 2.13477ZM8 1.29785C7.49882 1.29785 7.01076 1.3537 6.54102 1.45801C6.59188 1.48226 6.63656 1.50419 6.66699 1.51855L6.68262 1.52637L6.69727 1.53418C6.70076 1.53606 6.70533 1.53854 6.70996 1.54102C6.74515 1.55986 6.81055 1.59463 6.87305 1.63281L6.88965 1.64355L6.89453 1.64648C6.90161 1.6506 6.91183 1.65641 6.92383 1.66309C6.93416 1.66884 6.94416 1.67422 6.9541 1.67969C6.95606 1.68076 6.95801 1.68252 6.95996 1.68359C6.96551 1.68665 6.97287 1.6902 6.97852 1.69336C6.98161 1.69508 6.98892 1.69934 6.99707 1.7041C7.00473 1.70851 7.01668 1.71531 7.03125 1.72363C7.07636 1.74938 7.14927 1.79053 7.2168 1.83008C7.28651 1.8709 7.39292 1.93406 7.47168 1.98926C7.55608 2.04109 7.64916 2.10565 7.71094 2.14844C7.72197 2.15608 7.7324 2.16287 7.74121 2.16895C7.78862 2.19782 7.83488 2.23075 7.86719 2.25391C7.91348 2.28708 7.96382 2.32483 8.00977 2.35938C8.03082 2.37519 8.05018 2.38959 8.06836 2.40332C8.09268 2.42167 8.11535 2.43933 8.1377 2.45605C8.1562 2.46991 8.17212 2.48119 8.18457 2.49023C8.19071 2.4947 8.19562 2.49844 8.19922 2.50098C8.20214 2.50304 8.20403 2.50386 8.2041 2.50391L8.2373 2.52734C8.91086 3.04046 9.51376 3.63914 10.0361 4.30273C10.7968 3.87519 11.4907 3.32914 12.084 2.6875C10.9533 1.81652 9.5374 1.29785 8 1.29785Z" fill="#F3B0E4"/>
</svg>
