<svg width="20" height="21" viewBox="0 0 20 21" fill="none" xmlns="http://www.w3.org/2000/svg">
<g filter="url(#filter0_d_1213_45)">
<path d="M10.0007 2C7.82806 2 7.55539 2.0095 6.70205 2.04833C5.85037 2.08733 5.26903 2.22217 4.76036 2.42C4.23419 2.62433 3.78785 2.89767 3.34318 3.3425C2.89818 3.78717 2.62484 4.2335 2.41984 4.7595C2.2215 5.26833 2.0865 5.84983 2.04817 6.70117C2.01 7.5545 2 7.82733 2 10C2 12.1727 2.00967 12.4445 2.04833 13.2978C2.0875 14.1495 2.22234 14.7308 2.42 15.2395C2.62451 15.7657 2.89784 16.212 3.34268 16.6567C3.78719 17.1017 4.23352 17.3757 4.75936 17.58C5.26837 17.7778 5.84987 17.9127 6.70138 17.9517C7.55472 17.9905 7.82723 18 9.99975 18C12.1726 18 12.4444 17.9905 13.2978 17.9517C14.1495 17.9127 14.7315 17.7778 15.2405 17.58C15.7665 17.3757 16.2121 17.1017 16.6567 16.6567C17.1017 16.212 17.375 15.7657 17.58 15.2397C17.7767 14.7308 17.9117 14.1493 17.9517 13.298C17.99 12.4447 18 12.1727 18 10C18 7.82733 17.99 7.55467 17.9517 6.70133C17.9117 5.84967 17.7767 5.26833 17.58 4.75967C17.375 4.2335 17.1017 3.78717 16.6567 3.3425C16.2116 2.8975 15.7666 2.62417 15.24 2.42C14.73 2.22217 14.1483 2.08733 13.2966 2.04833C12.4433 2.0095 12.1716 2 9.99825 2H10.0007ZM9.28308 3.44167C9.49608 3.44133 9.73375 3.44167 10.0007 3.44167C12.1368 3.44167 12.3899 3.44933 13.2335 3.48767C14.0135 3.52333 14.4368 3.65367 14.7188 3.76317C15.0921 3.90817 15.3583 4.0815 15.6381 4.3615C15.9181 4.6415 16.0915 4.90817 16.2368 5.2815C16.3463 5.56317 16.4768 5.9865 16.5123 6.7665C16.5507 7.60983 16.559 7.86317 16.559 9.99817C16.559 12.1332 16.5507 12.3865 16.5123 13.2298C16.4767 14.0098 16.3463 14.4332 16.2368 14.7148C16.0918 15.0882 15.9181 15.354 15.6381 15.6338C15.3581 15.9138 15.0923 16.0872 14.7188 16.2322C14.4371 16.3422 14.0135 16.4722 13.2335 16.5078C12.3901 16.5462 12.1368 16.5545 10.0007 16.5545C7.86456 16.5545 7.61139 16.5462 6.76805 16.5078C5.98804 16.4718 5.5647 16.3415 5.28253 16.232C4.9092 16.087 4.64253 15.9137 4.36252 15.6337C4.08252 15.3537 3.90919 15.0877 3.76385 14.7142C3.65435 14.4325 3.52385 14.0092 3.48835 13.2292C3.45002 12.3858 3.44235 12.1325 3.44235 9.99617C3.44235 7.85983 3.45002 7.60783 3.48835 6.7645C3.52402 5.9845 3.65435 5.56117 3.76385 5.27917C3.90885 4.90583 4.08252 4.63917 4.36252 4.35917C4.64253 4.07917 4.9092 3.90583 5.28253 3.7605C5.56454 3.6505 5.98804 3.5205 6.76805 3.48467C7.50606 3.45133 7.79206 3.44133 9.28308 3.43967V3.44167ZM14.2711 4.77C13.7411 4.77 13.3111 5.1995 13.3111 5.72967C13.3111 6.25967 13.7411 6.68967 14.2711 6.68967C14.8011 6.68967 15.2311 6.25967 15.2311 5.72967C15.2311 5.19967 14.8011 4.76967 14.2711 4.76967V4.77ZM10.0007 5.89167C7.73189 5.89167 5.89237 7.73117 5.89237 10C5.89237 12.2688 7.73189 14.1075 10.0007 14.1075C12.2696 14.1075 14.1085 12.2688 14.1085 10C14.1085 7.73117 12.2696 5.89167 10.0007 5.89167ZM10.0007 7.33333C11.4734 7.33333 12.6674 8.52717 12.6674 10C12.6674 11.4727 11.4734 12.6667 10.0007 12.6667C8.5279 12.6667 7.33406 11.4727 7.33406 10C7.33406 8.52717 8.5279 7.33333 10.0007 7.33333Z" fill="#A331C0"/>
</g>
<defs>
<filter id="filter0_d_1213_45" x="-1" y="0" width="22" height="23" filterUnits="userSpaceOnUse" color-interpolation-filters="sRGB">
<feFlood flood-opacity="0" result="BackgroundImageFix"/>
<feColorMatrix in="SourceAlpha" type="matrix" values="0 0 0 0 0 0 0 0 0 0 0 0 0 0 0 0 0 0 127 0" result="hardAlpha"/>
<feOffset dy="2"/>
<feGaussianBlur stdDeviation="0.5"/>
<feComposite in2="hardAlpha" operator="out"/>
<feColorMatrix type="matrix" values="0 0 0 0 0 0 0 0 0 0 0 0 0 0 0 0 0 0 0.12 0"/>
<feBlend mode="normal" in2="BackgroundImageFix" result="effect1_dropShadow_1213_45"/>
<feBlend mode="normal" in="SourceGraphic" in2="effect1_dropShadow_1213_45" result="shape"/>
</filter>
</defs>
</svg>
