<svg width="28" height="28" viewBox="0 0 28 28" fill="none" xmlns="http://www.w3.org/2000/svg">
<rect width="28" height="28" rx="14" fill="white"/>
<path fill-rule="evenodd" clip-rule="evenodd" d="M10.5988 25.3889C5.68073 23.901 2.1001 19.3336 2.1001 13.93C2.1001 7.31911 7.45925 1.95996 14.0701 1.95996C18.4511 1.95996 22.2824 4.31353 24.3686 7.82526H14.4292C12.3137 7.82526 10.5988 9.54019 10.5988 11.6557V25.3889ZM14.4291 9.62076C13.3053 9.62076 12.3942 10.5318 12.3942 11.6557V25.7836C12.9418 25.8603 13.5013 25.9 14.07 25.9C20.6809 25.9 26.04 20.5408 26.04 13.93C26.04 12.4109 25.7571 10.9578 25.2409 9.62076H14.4291ZM24.484 13.93C24.484 19.6814 19.8216 24.3439 14.0701 24.3439C14.0302 24.3439 13.9903 24.3436 13.9504 24.3432V11.6557C13.9504 11.3912 14.1648 11.1769 14.4292 11.1769H24.1167C24.3593 12.0647 24.484 12.9881 24.484 13.93ZM14.4292 6.26917C11.4543 6.26917 9.0427 8.68078 9.0427 11.6557V23.054C5.78899 21.2597 3.6562 17.8024 3.6562 13.93C3.6562 8.17853 8.31866 3.51607 14.0701 3.51607C16.744 3.51607 19.2409 4.53141 21.1263 6.26917H14.4292Z" fill="black"/>
</svg>
