<svg width="20" height="21" viewBox="0 0 20 21" fill="none" xmlns="http://www.w3.org/2000/svg">
<g filter="url(#filter0_d_1227_81)">
<path d="M17.0363 3.00244C17.1714 3.00826 17.3262 3.02684 17.4866 3.06429C17.6668 3.10637 17.9283 3.18915 18.1847 3.36295L18.2943 3.4427L18.3864 3.52164C18.7079 3.81371 18.8456 4.15202 18.9079 4.38019L18.9514 4.57794L18.9749 4.74314C18.9971 4.9359 19.0117 5.20172 18.9874 5.45196C18.7675 7.71141 17.8317 13.0933 17.3619 15.5487C17.1408 16.7037 16.5498 17.8709 15.2458 17.9884C14.4519 18.0598 13.81 17.7882 13.3382 17.5172C13.106 17.3838 12.8872 17.234 12.7021 17.1055C12.5043 16.9681 12.3426 16.8538 12.1689 16.7425C11.5337 16.3355 11.0365 16.0046 10.5509 15.6813C10.0655 15.3582 9.59306 15.0433 8.99566 14.6584C8.57752 14.389 8.15689 14.0454 7.90835 13.5801C7.74202 13.2687 7.6804 12.9522 7.69407 12.65C7.16858 12.9142 6.60127 13.0841 6.00492 13.0715C5.59447 13.0628 5.10205 12.9601 4.69662 12.8607C4.26103 12.7539 3.80552 12.6195 3.42516 12.4986C3.08059 12.3891 2.52378 12.2354 2.13779 12.0526C1.92865 11.9536 1.62277 11.7837 1.37859 11.4903C1.09402 11.1483 0.953718 10.7109 1.01365 10.2436L1.0329 10.128C1.14925 9.56148 1.55352 9.20255 1.80883 9.01718C2.10348 8.80331 2.46198 8.63129 2.83086 8.48577L8.01298 6.28853C9.39732 5.70558 10.4385 5.2722 11.1351 4.98891C13.1029 4.18876 14.3219 3.70693 15.1195 3.42399C15.8947 3.14898 16.4088 3.0086 16.9082 3L17.0363 3.00244ZM16.9308 4.24998C16.3965 4.25924 15.5764 4.53795 11.6315 6.14205C10.2497 6.70393 7.48796 7.86677 3.34648 9.63078C2.67413 9.89217 2.32151 10.1481 2.28929 10.3982C2.22772 10.8784 2.93558 11.0277 3.82526 11.3104C4.55061 11.5409 5.52618 11.8108 6.03338 11.8215C6.49336 11.8312 7.00677 11.6461 7.57353 11.2657C11.44 8.71413 13.4376 7.42268 13.5659 7.39285C13.6544 7.37322 13.7775 7.34915 13.8605 7.42133C13.9432 7.49333 13.9354 7.62914 13.9267 7.66629C13.8563 7.95951 10.221 11.1924 10.0118 11.4048C9.21253 12.2164 8.30381 12.7132 9.70631 13.6167C10.9197 14.3985 11.6261 14.8973 12.8762 15.6984C13.6752 16.2105 14.302 16.8175 15.127 16.7433C15.5066 16.7092 15.8988 16.3606 16.098 15.32C16.5686 12.8604 17.4937 7.5311 17.7076 5.33477C17.7263 5.14245 17.7022 4.89608 17.6833 4.7879C17.6644 4.67987 17.6251 4.52592 17.4816 4.41193C17.3114 4.2769 17.0483 4.24796 16.9308 4.24998Z" fill="#2AABEE"/>
</g>
<defs>
<filter id="filter0_d_1227_81" x="-1" y="0" width="22" height="23" filterUnits="userSpaceOnUse" color-interpolation-filters="sRGB">
<feFlood flood-opacity="0" result="BackgroundImageFix"/>
<feColorMatrix in="SourceAlpha" type="matrix" values="0 0 0 0 0 0 0 0 0 0 0 0 0 0 0 0 0 0 127 0" result="hardAlpha"/>
<feOffset dy="2"/>
<feGaussianBlur stdDeviation="0.5"/>
<feComposite in2="hardAlpha" operator="out"/>
<feColorMatrix type="matrix" values="0 0 0 0 0 0 0 0 0 0 0 0 0 0 0 0 0 0 0.12 0"/>
<feBlend mode="normal" in2="BackgroundImageFix" result="effect1_dropShadow_1227_81"/>
<feBlend mode="normal" in="SourceGraphic" in2="effect1_dropShadow_1227_81" result="shape"/>
</filter>
</defs>
</svg>
