<svg width="223" height="72" viewBox="0 0 223 72" fill="none" xmlns="http://www.w3.org/2000/svg">
<g clip-path="url(#clip0_301_57)">
<path d="M30.6936 35.2423C31.2716 32.211 33.9305 30.1123 37.6298 30.1123C41.9071 30.1123 45.2596 31.9778 45.2596 37.8074V48.6504H41.5603L41.0979 46.3186C39.8262 47.9509 38.0922 49.0002 35.5489 49.0002C32.4277 49.0002 30 47.0181 30 43.4038C30 39.7894 33.2369 37.4576 37.7454 37.4576H40.7511V36.6415C40.7511 34.5428 39.2482 33.9598 37.5142 33.9598C36.2426 33.9598 34.9709 34.4262 34.3929 36.0585L30.6936 35.2423ZM36.5894 45.1527C38.6702 45.1527 40.7511 43.7536 40.7511 41.4217V41.0719H37.861C35.8957 40.9554 34.7397 41.7715 34.7397 43.4038C34.7397 44.2199 35.4333 45.1527 36.5894 45.1527Z" fill="#090D14"/>
<path d="M117.858 35.2423C118.436 32.211 121.095 30.1123 124.794 30.1123C129.072 30.1123 132.424 31.9778 132.424 37.8074V48.6504H128.725L128.262 46.3186C126.991 47.9509 125.257 49.0002 122.713 49.0002C119.592 49.0002 117.165 47.0181 117.165 43.4038C117.165 39.7894 120.401 37.4576 124.91 37.4576H127.916V36.6415C127.916 34.5428 126.413 33.9598 124.679 33.9598C123.407 33.9598 122.135 34.4262 121.557 36.0585L117.858 35.2423ZM123.754 45.1527C125.835 45.1527 127.916 43.7536 127.916 41.4217V41.0719H124.91C122.945 41.0719 121.789 41.7715 121.789 43.4038C121.904 44.2199 122.598 45.1527 123.754 45.1527Z" fill="#090D14"/>
<path d="M136.47 48.767V30.3455H140.979V33.3769C142.25 31.1616 144.331 30.1123 146.296 30.1123C147.106 30.1123 147.799 30.2289 148.493 30.4621L147.684 34.6594C147.106 34.3096 146.528 34.0764 145.834 34.0764C143.175 34.0764 140.979 36.2917 140.979 42.1213V48.6504L136.47 48.767Z" fill="#090D14"/>
<path d="M158.088 30.1121C159.938 30.1121 161.672 31.0448 162.481 32.0942V23H166.989V48.7668H162.481V46.9013C161.903 47.8341 160.284 49.1166 158.088 49.1166C152.655 49.1166 149.88 45.2691 149.88 39.6726C149.88 34.0762 152.655 30.1121 158.088 30.1121ZM158.782 45.1525C161.094 45.1525 162.943 43.1704 162.943 39.5561C162.943 35.9417 161.094 33.9596 158.782 33.9596C156.469 33.9596 154.62 35.9417 154.62 39.5561C154.62 43.1704 156.469 45.1525 158.782 45.1525Z" fill="#090D14"/>
<path d="M183.174 33.0269L180.515 35.4753C179.706 34.3094 178.434 33.843 177.509 33.843C176.584 33.843 175.775 34.426 175.775 35.3587C175.775 36.1749 176.469 36.7578 177.509 37.1076C180.052 38.0403 184.099 38.8565 184.099 42.704C184.099 46.0852 181.555 48.7668 177.625 48.7668C173.81 48.7668 171.267 46.0852 170.457 43.8699L174.041 41.8879C174.735 43.6368 175.891 44.9193 177.74 44.9193C179.128 44.9193 180.052 44.2197 180.052 42.9372C180.052 41.4215 177.74 41.0717 175.544 40.139C173.579 39.3229 171.845 38.0403 171.845 35.2421C171.845 32.4439 174.157 29.8789 177.625 29.8789C179.937 29.9955 182.133 31.278 183.174 33.0269Z" fill="#090D14"/>
<path d="M89.9979 30.3452L86.761 43.0537L83.6397 30.3452H79.478L76.4723 43.0537L73.9291 35.7084L73.5823 36.5246L72.195 41.3049L74.5071 48.7667H78.4376L81.5589 36.8744L84.6801 48.7667H88.7262L94.5064 30.3452H89.9979Z" fill="#090D14"/>
<path d="M111.616 30.3452L108.379 43.0537L105.257 30.3452H101.096L98.0901 43.0537L95.5468 35.7084L95.2 36.5246L93.6972 41.3049L96.1248 48.7667H100.055L103.177 36.8744L106.298 48.7667H110.228L116.124 30.3452H111.616Z" fill="#090D14"/>
<path d="M72.8887 30.3452L67.1085 48.6501H63.178L60.0567 36.8744L56.9355 48.7667H53.005L47.2248 30.4618H51.7333L54.9702 43.0537L58.0915 30.4618H62.2532L65.3745 43.0537L68.6114 30.4618L72.8887 30.3452Z" fill="#090D14"/>
<path d="M189.994 42.8208C191.728 42.8208 193 44.1033 193 45.8522C193 47.6011 191.728 48.8836 189.994 48.8836C188.26 48.8836 186.989 47.6011 186.989 45.8522C186.989 44.1033 188.26 42.8208 189.994 42.8208Z" fill="#090D14"/>
</g>
<defs>
<clipPath id="clip0_301_57">
<rect width="163" height="26" fill="white" transform="translate(30 23)"/>
</clipPath>
</defs>
</svg>
