<svg width="222" height="72" viewBox="0 0 222 72" fill="none" xmlns="http://www.w3.org/2000/svg">
<path d="M25.967 41.1722L15.4835 30.5861L25.967 20H15.4835L5 30.5861L10.2418 35.9386L15.4835 41.1722L20.7253 46.4058L25.967 41.1722Z" fill="#090D14"/>
<path d="M33.422 35.9386L28.1802 30.5861L22.9385 25.3525L17.8132 30.5861L28.1802 41.1722L17.6967 51.7583H28.1802L33.422 46.5248L38.6637 41.1722L33.422 35.9386Z" fill="#090D14"/>
<path d="M51.7099 30.5858C50.1956 30.5858 48.9143 31.0616 47.9824 32.1321C47.0506 33.2026 46.5846 34.63 46.5846 36.5331C46.5846 38.4362 47.0506 39.8636 47.8659 40.9341C48.7978 42.0046 49.9626 42.4803 51.5934 42.4803C52.6418 42.4803 53.6901 42.2425 54.9714 41.8856V43.4319C53.9231 43.7887 52.7582 44.0266 51.3604 44.0266C49.2637 44.0266 47.633 43.4319 46.4681 42.1235C45.3033 40.8151 44.7209 38.912 44.7209 36.5331C44.7209 34.9868 44.9538 33.6784 45.5363 32.6079C46.1187 31.5374 46.9341 30.5858 47.8659 29.9911C48.7978 29.3964 50.0791 29.0396 51.5934 29.0396C53.1077 29.0396 54.389 29.2774 55.5538 29.8722L54.8549 31.2995C53.9231 30.9427 52.8747 30.5858 51.7099 30.5858Z" fill="#090D14"/>
<path d="M66.2703 39.9828C66.2703 41.2912 65.8044 42.2427 64.8725 42.9564C63.9407 43.6701 62.7758 44.0269 61.1451 44.0269C59.3978 44.0269 58.1165 43.789 57.1846 43.3133V41.648C57.767 41.8859 58.4659 42.1238 59.0484 42.2427C59.6308 42.3617 60.4462 42.4806 61.1451 42.4806C62.3099 42.4806 63.1253 42.2427 63.5912 41.8859C64.1736 41.4101 64.4066 40.8154 64.4066 40.1017C64.4066 39.626 64.2901 39.1502 64.0571 38.9123C63.8242 38.5554 63.4747 38.3176 63.0088 37.9607C62.5429 37.7228 61.844 37.366 60.9121 37.0092C59.6308 36.5334 58.5824 35.9387 58.1165 35.225C57.5341 34.5113 57.3011 33.6787 57.3011 32.6082C57.3011 31.5377 57.767 30.5861 58.5824 29.8725C59.3978 29.1588 60.5626 28.9209 61.844 28.9209C63.2418 28.9209 64.5231 29.1588 65.8044 29.7535L65.3385 31.1809C64.1736 30.7051 63.0088 30.4672 61.844 30.4672C60.9121 30.4672 60.3297 30.7051 59.7473 31.0619C59.2813 31.4187 59.0484 32.0135 59.0484 32.7271C59.0484 33.2029 59.1648 33.6787 59.2813 33.9166C59.5143 34.2734 59.7473 34.5113 60.2132 34.7492C60.6791 34.9871 61.2615 35.3439 62.1934 35.7008C63.7077 36.2955 64.756 36.8902 65.3385 37.4849C66.0374 38.1986 66.2703 39.0312 66.2703 39.9828Z" fill="#090D14"/>
<path d="M77.3363 39.9828C77.3363 41.2912 76.8703 42.2427 75.9385 42.9564C75.0066 43.6701 73.8418 44.0269 72.211 44.0269C70.4637 44.0269 69.1824 43.789 68.2505 43.3133V41.648C68.833 41.8859 69.5319 42.1238 70.1143 42.2427C70.6967 42.3617 71.5121 42.4806 72.211 42.4806C73.3758 42.4806 74.1912 42.2427 74.6571 41.8859C75.2396 41.4101 75.4725 40.8154 75.4725 40.1017C75.4725 39.626 75.356 39.1502 75.1231 38.9123C74.8901 38.5554 74.5407 38.3176 74.0747 37.9607C73.6088 37.7228 72.9099 37.366 71.978 37.0092C70.6967 36.5334 69.6484 35.9387 69.1824 35.225C68.6 34.5113 68.367 33.6787 68.367 32.6082C68.367 31.5377 68.833 30.5861 69.6484 29.8725C70.4637 29.1588 71.6286 28.9209 72.9099 28.9209C74.3077 28.9209 75.589 29.1588 76.8703 29.7535L76.4044 31.1809C75.2396 30.7051 74.0747 30.4672 72.9099 30.4672C71.978 30.4672 71.3956 30.7051 70.8132 31.0619C70.3473 31.4187 70.1143 32.0135 70.1143 32.7271C70.1143 33.2029 70.2308 33.6787 70.3473 33.9166C70.5802 34.2734 70.8132 34.5113 71.2791 34.7492C71.7451 34.9871 72.3275 35.3439 73.2593 35.7008C74.7736 36.2955 75.822 36.8902 76.4044 37.4849C76.9868 38.1986 77.3363 39.0312 77.3363 39.9828Z" fill="#090D14"/>
<path d="M91.8967 36.2956C91.8967 38.6745 91.1978 40.5776 89.9165 41.886C88.6352 43.1944 86.7714 43.9081 84.3253 43.9081H79.6659V29.2778H84.5582C86.8879 29.2778 88.6352 29.8726 89.9165 31.062C91.1978 32.2515 91.8967 34.0356 91.8967 36.2956ZM87.9363 36.4145C87.9363 35.1061 87.7033 34.0356 87.1209 33.4409C86.6549 32.8462 85.8396 32.4893 84.7912 32.4893H83.6264V40.6966H84.4418C85.6066 40.6966 86.422 40.3397 87.0044 39.6261C87.7033 38.9124 87.9363 37.8419 87.9363 36.4145Z" fill="#090D14"/>
<path d="M99.5846 44.1457C97.7209 44.1457 96.3231 43.6699 95.2747 42.5994C94.2264 41.6478 93.7604 40.2205 93.7604 38.3174C93.7604 36.4142 94.2264 34.9869 95.1582 33.9164C96.0901 32.8459 97.4879 32.3701 99.2352 32.3701C100.866 32.3701 102.147 32.8459 103.079 33.6785C104.011 34.5111 104.477 35.8195 104.477 37.4848V39.2689H97.6044C97.6044 39.8637 97.8374 40.3394 98.3033 40.8152C98.7692 41.1721 99.3516 41.4099 100.051 41.4099C100.749 41.4099 101.332 41.291 101.914 41.1721C102.497 41.0531 103.079 40.8152 103.778 40.4584V43.3131C103.196 43.6699 102.613 43.7888 101.914 43.9078C101.215 44.0267 100.516 44.1457 99.5846 44.1457ZM99.3517 35.1059C98.8857 35.1059 98.5363 35.2248 98.1868 35.5816C97.8374 35.8195 97.7209 36.2953 97.6044 36.89H100.866C100.866 36.2953 100.749 35.9385 100.4 35.5816C100.284 35.2248 99.9341 35.1059 99.3517 35.1059Z" fill="#090D14"/>
<path d="M115.193 40.4583C115.193 41.6477 114.844 42.5993 114.029 43.194C113.213 43.7887 112.048 44.1456 110.534 44.1456C109.719 44.1456 109.02 44.1456 108.437 44.0266C107.855 43.9077 107.156 43.7887 106.574 43.5509V40.4583C107.156 40.6962 107.855 40.9341 108.554 41.172C109.253 41.2909 109.835 41.4098 110.418 41.4098C111.233 41.4098 111.699 41.172 111.699 40.8151C111.699 40.5772 111.582 40.4583 111.349 40.3393C111.116 40.2204 110.418 39.8636 109.369 39.3878C108.321 38.912 107.622 38.4362 107.273 37.9604C106.923 37.3657 106.69 36.771 106.69 35.9384C106.69 34.8679 107.04 34.0353 107.855 33.4405C108.67 32.8458 109.719 32.6079 111.233 32.6079C111.932 32.6079 112.631 32.7269 113.33 32.8458C114.029 32.9647 114.611 33.2026 115.31 33.5595L114.262 36.0573C113.796 35.8194 113.213 35.5815 112.631 35.4626C112.048 35.3436 111.582 35.2247 111.233 35.2247C110.651 35.2247 110.301 35.3436 110.301 35.7005C110.301 35.9384 110.418 36.0573 110.651 36.1763C110.884 36.2952 111.466 36.5331 112.514 37.0089C113.33 37.3657 113.912 37.6036 114.262 37.9604C114.611 38.3173 114.96 38.6741 115.077 39.0309C115.077 39.2688 115.193 39.8636 115.193 40.4583Z" fill="#090D14"/>
<path d="M117.29 29.7534C117.29 29.1587 117.407 28.6829 117.756 28.445C118.105 28.2071 118.571 27.9692 119.27 27.9692C119.969 27.9692 120.552 28.0882 120.785 28.445C121.134 28.6829 121.251 29.1587 121.251 29.7534C121.251 30.9429 120.552 31.4186 119.154 31.4186C117.873 31.5376 117.29 30.9429 117.29 29.7534ZM121.134 43.9079H117.29V32.6081H121.134V43.9079Z" fill="#090D14"/>
<path d="M134.297 32.608V34.5111L132.782 35.1059C133.015 35.4627 133.132 35.9385 133.132 36.4142C133.132 37.6037 132.666 38.5553 131.851 39.2689C131.035 39.9826 129.754 40.2205 128.123 40.2205C127.657 40.2205 127.424 40.2205 127.191 40.1015C127.075 40.2205 127.075 40.4584 127.075 40.5773C127.075 40.8152 127.191 40.9342 127.541 41.0531C127.89 41.1721 128.24 41.1721 128.705 41.1721H130.569C133.015 41.1721 134.297 42.2426 134.297 44.3836C134.297 45.8109 133.714 46.8814 132.549 47.5951C131.385 48.3088 129.754 48.7845 127.657 48.7845C126.143 48.7845 124.862 48.5466 124.046 47.9519C123.231 47.4761 122.765 46.6435 122.765 45.692C122.765 44.3836 123.58 43.432 125.211 43.0752C124.862 42.9562 124.629 42.7183 124.279 42.3615C124.046 42.0047 123.93 41.7668 123.93 41.4099C123.93 41.0531 124.046 40.6963 124.163 40.4584C124.396 40.2205 124.745 39.8637 125.327 39.5068C124.745 39.2689 124.279 38.7931 123.93 38.3174C123.58 37.7226 123.464 37.1279 123.464 36.2953C123.464 35.1059 123.93 34.1543 124.745 33.4406C125.56 32.727 126.725 32.3701 128.24 32.3701C128.473 32.3701 128.822 32.3701 129.288 32.4891C129.754 32.4891 130.103 32.608 130.336 32.608H134.297ZM125.91 45.3351C125.91 45.692 126.026 45.9299 126.376 46.1677C126.725 46.4056 127.191 46.4056 127.774 46.4056C128.705 46.4056 129.404 46.2867 129.987 46.0488C130.569 45.8109 130.802 45.4541 130.802 45.0972C130.802 44.7404 130.686 44.6215 130.336 44.5025C129.987 44.3836 129.521 44.2646 128.822 44.2646H127.308C126.842 44.2646 126.609 44.3836 126.259 44.5025C126.026 44.7404 125.91 44.9783 125.91 45.3351ZM127.075 36.2953C127.075 37.4848 127.424 38.0795 128.24 38.0795C128.589 38.0795 128.938 37.9605 129.055 37.6037C129.288 37.3658 129.404 36.89 129.404 36.2953C129.404 35.1059 129.055 34.5111 128.24 34.5111C127.541 34.5111 127.075 35.1059 127.075 36.2953Z" fill="#090D14"/>
<path d="M142.916 43.9077V37.7225C142.916 37.0089 142.8 36.4142 142.567 36.0573C142.334 35.7005 141.985 35.4626 141.519 35.4626C140.82 35.4626 140.354 35.7005 140.121 36.2952C139.888 36.771 139.655 37.7225 139.655 39.0309V44.0266H135.811V32.7269H138.723L139.189 34.1542H139.422C139.771 33.6784 140.237 33.2026 140.82 32.9647C141.402 32.7269 142.101 32.6079 142.8 32.6079C144.081 32.6079 145.013 32.9647 145.712 33.6784C146.411 34.3921 146.76 35.4626 146.76 36.771V44.1456H142.916V43.9077Z" fill="#090D14"/>
<path d="M158.991 43.9081L157.244 39.2692H151.536L149.789 43.9081H148.158L153.866 29.2778H155.264L160.855 43.9081H158.991ZM156.662 37.7229L155.031 33.203C154.798 32.6083 154.565 31.8946 154.332 31.062C154.215 31.6567 153.982 32.3704 153.749 33.203L152.119 37.7229H156.662Z" fill="#090D14"/>
<path d="M171.222 43.908L169.242 37.485C169.125 37.1281 168.892 36.1766 168.543 34.8682H168.426C168.193 36.0576 167.96 36.8902 167.727 37.6039L165.747 44.0269H163.884L160.971 33.084H162.719C163.418 35.8197 163.884 37.9607 164.349 39.3881C164.699 40.8154 164.932 41.767 164.932 42.2428H165.048C165.165 41.8859 165.281 41.4101 165.398 40.8154C165.514 40.2207 165.747 39.7449 165.864 39.3881L167.844 33.084H169.591L171.455 39.3881C171.804 40.5775 172.037 41.5291 172.154 42.2428H172.27C172.27 42.0049 172.387 41.648 172.503 41.1722C172.62 40.6965 173.319 37.9607 174.484 33.084H176.114L173.202 44.0269H171.222V43.908Z" fill="#090D14"/>
<path d="M184.618 43.9079L184.268 42.3616H184.152C183.569 43.0753 183.103 43.5511 182.521 43.7889C181.938 44.0268 181.356 44.1458 180.541 44.1458C179.492 44.1458 178.677 43.9079 178.095 43.3132C177.512 42.7184 177.163 42.0048 177.163 40.9343C177.163 38.6743 178.91 37.6038 182.404 37.4849L184.268 37.3659V36.6522C184.268 35.8196 184.035 35.106 183.686 34.7491C183.336 34.3923 182.754 34.1544 181.938 34.1544C181.007 34.1544 180.075 34.3923 178.91 34.987L178.444 33.6786C179.026 33.4407 179.492 33.2028 180.191 32.9649C180.774 32.846 181.473 32.7271 182.055 32.7271C183.336 32.7271 184.268 32.9649 184.851 33.5597C185.433 34.1544 185.782 35.106 185.782 36.2954V43.7889H184.618V43.9079ZM180.89 42.7184C181.938 42.7184 182.637 42.4805 183.22 41.8858C183.802 41.2911 184.035 40.5774 184.035 39.5069V38.5554L182.404 38.6743C181.123 38.6743 180.191 38.9122 179.609 39.269C179.026 39.6259 178.793 40.2206 178.793 40.9343C178.793 41.529 179.026 42.0048 179.376 42.2427C179.842 42.5995 180.308 42.7184 180.89 42.7184Z" fill="#090D14"/>
<path d="M194.053 32.7271C194.519 32.7271 194.985 32.7271 195.334 32.846L195.101 34.3923C194.635 34.2733 194.286 34.2733 193.936 34.2733C193.121 34.2733 192.306 34.6302 191.723 35.3438C191.141 36.0575 190.791 37.0091 190.791 38.0796V43.9079H189.16V32.9649H190.442L190.675 34.987H190.791C191.141 34.2733 191.723 33.6786 192.189 33.3218C192.771 32.9649 193.354 32.7271 194.053 32.7271Z" fill="#090D14"/>
<path d="M204.653 42.4806C203.837 43.5511 202.673 44.1459 201.158 44.1459C199.76 44.1459 198.712 43.6701 197.897 42.7185C197.081 41.767 196.732 40.3396 196.732 38.5554C196.732 36.7713 197.081 35.3439 197.897 34.3924C198.712 33.4408 199.76 32.8461 201.158 32.8461C202.556 32.8461 203.721 33.4408 204.536 34.5113H204.653L204.536 33.6787V32.965V28.3262H206.167V43.908H204.886L204.653 42.4806ZM201.391 42.7185C202.556 42.7185 203.255 42.3617 203.837 41.767C204.303 41.1722 204.536 40.1017 204.536 38.7933V38.4365C204.536 36.8902 204.303 35.8197 203.721 35.106C203.255 34.3924 202.44 34.1545 201.275 34.1545C200.343 34.1545 199.644 34.5113 199.062 35.3439C198.596 36.0576 198.246 37.1281 198.246 38.5554C198.246 39.9828 198.479 41.0533 198.945 41.767C199.644 42.3617 200.343 42.7185 201.391 42.7185Z" fill="#090D14"/>
<path d="M216.534 40.9343C216.534 42.0048 216.185 42.7184 215.369 43.3132C214.67 43.9079 213.622 44.1458 212.224 44.1458C210.826 44.1458 209.662 43.9079 208.846 43.4321V41.8858C209.312 42.1237 209.895 42.3616 210.477 42.4805C211.059 42.5995 211.642 42.7184 212.224 42.7184C213.04 42.7184 213.738 42.5995 214.204 42.3616C214.67 42.1237 214.903 41.6479 214.903 41.0532C214.903 40.5774 214.67 40.2206 214.321 39.9827C213.971 39.6259 213.273 39.269 212.224 38.9122C211.176 38.5554 210.477 38.1985 210.127 37.9606C209.662 37.7227 209.429 37.3659 209.196 37.0091C208.963 36.6522 208.846 36.1765 208.846 35.7007C208.846 34.8681 209.196 34.1544 209.895 33.5597C210.593 32.9649 211.525 32.7271 212.807 32.7271C213.971 32.7271 215.136 32.9649 216.185 33.4407L215.602 34.7491C214.554 34.2733 213.505 34.0354 212.69 34.0354C211.875 34.0354 211.292 34.1544 210.943 34.3923C210.593 34.6302 210.36 34.987 210.36 35.4628C210.36 35.7007 210.477 36.0575 210.593 36.1765C210.71 36.4143 210.943 36.5333 211.292 36.7712C211.642 37.0091 212.224 37.247 213.156 37.6038C214.437 38.0796 215.253 38.5554 215.719 39.0311C216.301 39.6259 216.534 40.2206 216.534 40.9343Z" fill="#090D14"/>
</svg>
