<svg width="223" height="72" viewBox="0 0 223 72" fill="none" xmlns="http://www.w3.org/2000/svg">
<path d="M119 56.9998C115.8 56.1998 52.6667 41.6665 21.5 34.4998L77 34.4995C81 34.4995 82.5 32.9995 80.5 29.9995C78.5 26.9995 72 19.5001 70.5 17.5001C69 15.5001 68.5 13.5001 72.5 14.0001C76.5 14.5001 121.5 24.0001 128.5 25.0001C135.5 26.0001 131.5 21.4998 130 18.9998C128.5 16.4998 129.5 14.9998 134 15.9998C138.5 16.9998 188.5 30.4998 194 31.4998C199.5 32.4998 203.5 33.9998 199.5 35.4998C195.5 36.9998 170.5 42.9998 165 44.4998C159.5 45.9998 152.5 47.9998 149 44.9998C145.5 41.9998 149 39.9998 155 38.9998C159.8 38.1998 169.667 35.3332 174 33.9998H118C113.5 33.9998 110.5 34.9998 113.5 38.9998C116.5 42.9998 119.5 46.9998 123.5 52.4998C127.5 57.9998 123 57.9998 119 56.9998Z" fill="#FAFF00"/>
<path fill-rule="evenodd" clip-rule="evenodd" d="M170.669 34.9998C165.777 36.4375 158.8 38.3664 155 38.9998C149 39.9998 145.5 41.9998 149 44.9998C152.423 47.9342 159.196 46.0849 164.637 44.5988C164.759 44.5656 164.88 44.5326 165 44.4998C166.833 43.9998 170.833 42.9998 175.5 41.8332C184.833 39.4998 196.833 36.4998 199.5 35.4998C203.5 33.9998 199.5 32.4998 194 31.4998C190.658 30.8921 170.88 25.6679 154.868 21.4383C144.532 18.708 135.765 16.3921 134 15.9998C129.5 14.9998 128.5 16.4998 130 18.9998C130.206 19.3436 130.46 19.7251 130.725 20.125C132.392 22.6334 134.538 25.8626 128.5 25.0001C124.738 24.4627 110.002 21.4704 96.5518 18.7394C84.9744 16.3886 74.3504 14.2314 72.5 14.0001C68.5 13.5001 69 15.5001 70.5 17.5001C71.045 18.2267 72.2499 19.6792 73.6592 21.378C76.129 24.3553 79.2266 28.0894 80.5 29.9995C82.5 32.9995 81 34.4995 77 34.4995L21.5 34.4998C22.8887 34.8191 24.3408 35.1531 25.8483 35.4998C58.1737 42.9343 115.943 56.2355 119 56.9998C123 57.9998 127.5 57.9998 123.5 52.4998C119.5 46.9998 116.5 42.9998 113.5 38.9998C110.5 34.9998 113.5 33.9998 118 33.9998H174C173.098 34.2775 171.955 34.6217 170.669 34.9998ZM30.3094 35.4998C63.1862 43.0624 116.303 55.2949 119.243 56.0297C120.206 56.2706 121.173 56.444 122.012 56.4938C122.885 56.5456 123.481 56.4539 123.803 56.2929C123.943 56.2229 123.992 56.1594 124.013 56.1207C124.034 56.0826 124.075 55.9852 124.052 55.7664C124.002 55.2795 123.664 54.4259 122.691 53.088C118.696 47.5944 115.7 43.5994 112.7 39.5998C111.909 38.5448 111.409 37.558 111.31 36.6376C111.202 35.6286 111.588 34.7988 112.313 34.219C112.974 33.6902 113.871 33.4017 114.799 33.2344C115.748 33.0634 116.845 32.9998 118 32.9998H174L174.294 34.9556C169.973 36.2851 160.042 39.1733 155.164 39.9862C153.698 40.2306 152.409 40.5323 151.357 40.8853C150.291 41.2433 149.536 41.6319 149.082 42.0147C148.642 42.3846 148.591 42.6458 148.611 42.8255C148.639 43.0775 148.849 43.5531 149.651 44.2406C151.069 45.4561 153.324 45.7494 156.142 45.4432C158.81 45.1532 161.719 44.359 164.401 43.6266C164.514 43.596 164.625 43.5655 164.737 43.5351C166.581 43.0322 170.601 42.0272 175.277 40.858C177.607 40.2755 180.1 39.6523 182.568 39.0302C190.046 37.1451 197.217 35.288 199.149 34.5635C199.481 34.4389 199.723 34.3249 199.894 34.2272C199.869 34.2114 199.841 34.1949 199.811 34.1778C199.328 33.8981 198.535 33.5968 197.472 33.2986C196.425 33.0049 195.177 32.7301 193.821 32.4837C191.021 31.9745 177.085 28.3326 163.37 24.7168C160.395 23.9323 157.428 23.1486 154.582 22.397C144.256 19.6692 135.527 17.3636 133.783 16.976C132.708 16.7371 131.9 16.6615 131.321 16.6936C130.727 16.7266 130.491 16.8658 130.419 16.9306L130.418 16.9318C130.39 16.9564 130.332 17.0087 130.355 17.2379C130.381 17.5076 130.52 17.9235 130.857 18.4853C131.031 18.7753 131.246 19.1007 131.486 19.4633C131.51 19.4994 131.535 19.5359 131.559 19.5726C131.775 19.8983 132.008 20.2482 132.229 20.6003C132.706 21.3585 133.212 22.2478 133.41 23.0808C133.512 23.5075 133.555 24.0061 133.401 24.4991C133.236 25.0256 132.878 25.4399 132.378 25.7134C131.481 26.2041 130.123 26.2421 128.359 25.99C124.821 25.4846 111.776 22.8501 99.1761 20.2926C98.2666 20.108 97.3596 19.9238 96.4586 19.7409C84.8127 17.3763 74.1859 15.2186 72.376 14.9923C71.4306 14.8742 70.874 14.9228 70.5778 15.0122C70.472 15.0441 70.4202 15.0751 70.3998 15.0896C70.3938 15.1403 70.3945 15.3105 70.5379 15.649C70.6898 16.0073 70.9511 16.4349 71.3 16.9001C71.8291 17.6056 73.0061 19.0244 74.4052 20.711C74.9402 21.3559 75.5077 22.04 76.0839 22.7384C78.1349 25.2244 80.2975 27.893 81.3321 29.4448C82.3796 31.0161 82.8533 32.7126 81.7682 34.0147C81.2786 34.6022 80.5659 34.9634 79.7844 35.1815C78.9957 35.4016 78.0543 35.4995 77 35.4995L30.3094 35.4998Z" fill="#090D14"/>
</svg>
