<svg width="223" height="72" viewBox="0 0 223 72" fill="none" xmlns="http://www.w3.org/2000/svg">
<g clip-path="url(#clip0_301_51)">
<path fill-rule="evenodd" clip-rule="evenodd" d="M52.7697 25.1377H56.8571C57.2792 25.1377 57.6318 25.2364 57.9149 25.4339C58.1979 25.6315 58.3826 25.8931 58.469 26.219L61.3474 37.4766C61.4337 37.842 61.5201 38.2321 61.6064 38.6468C61.6928 39.0616 61.7791 39.4961 61.8655 39.9503C62.0382 39.0221 62.2493 38.1975 62.4987 37.4766L65.8953 26.219C65.9816 25.9425 66.1663 25.6932 66.4493 25.471C66.7324 25.2488 67.0754 25.1377 67.4784 25.1377H68.9176C69.3397 25.1377 69.6804 25.2389 69.9394 25.4414C70.1985 25.6438 70.3952 25.903 70.5295 26.219L73.8972 37.4766C74.1467 38.1679 74.3578 38.953 74.5305 39.8318C74.6072 39.3973 74.6864 38.9826 74.7679 38.5876C74.8495 38.1926 74.9334 37.8223 75.0198 37.4766L77.8982 26.219C77.975 25.9326 78.1573 25.6808 78.4451 25.4636C78.7329 25.2463 79.0783 25.1377 79.4813 25.1377H83.3096L76.8332 46.7197H72.4292L68.4858 33.3439C68.3419 32.9193 68.2028 32.4305 68.0684 31.8774C67.9341 32.4305 67.795 32.9193 67.6511 33.3439L63.6501 46.7197H59.2461L52.7697 25.1377ZM102.71 46.7197H98.9393C98.5172 46.7197 98.1766 46.6185 97.9175 46.4161C97.6585 46.2136 97.4618 45.9544 97.3274 45.6384L96.0897 41.876H88.1165L86.8788 45.6384C86.7733 45.9149 86.5838 46.1642 86.3103 46.3864C86.0369 46.6086 85.6987 46.7197 85.2957 46.7197H81.4962L89.6133 25.1377H94.593L102.71 46.7197ZM89.2391 38.4691H94.9671L93.0386 32.5588C92.8947 32.1836 92.7412 31.7417 92.5781 31.2331C92.415 30.7245 92.2518 30.174 92.0887 29.5815C91.9352 30.1839 91.7793 30.7418 91.621 31.2553C91.4627 31.7688 91.3116 32.2132 91.1677 32.5885L89.2391 38.4691ZM123.391 35.9213C123.391 37.4816 123.13 38.9209 122.607 40.2392C122.084 41.5575 121.348 42.6981 120.398 43.6609C119.448 44.6237 118.304 45.3742 116.965 45.9124C115.627 46.4506 114.142 46.7197 112.511 46.7197H104.365V25.1377H112.511C114.142 25.1377 115.627 25.4093 116.965 25.9524C118.304 26.4955 119.448 27.246 120.398 28.2039C121.348 29.1618 122.084 30.2999 122.607 31.6182C123.13 32.9366 123.391 34.3709 123.391 35.9213ZM118.412 35.9213C118.412 34.8548 118.277 33.892 118.009 33.0328C117.74 32.1737 117.354 31.4454 116.85 30.848C116.346 30.2505 115.73 29.7913 115.001 29.4704C114.272 29.1495 113.442 28.989 112.511 28.989H109.258V42.8684H112.511C113.442 42.8684 114.272 42.708 115.001 42.387C115.73 42.0661 116.346 41.6069 116.85 41.0094C117.354 40.412 117.74 39.6837 118.009 38.8246C118.277 37.9654 118.412 36.9977 118.412 35.9213ZM131.134 42.7203H138.906V46.7197H126.27V25.1377H131.134V42.7203ZM146.275 46.7197H141.381V25.1377H146.275V46.7197ZM152.895 25.1377C153.106 25.1377 153.284 25.1476 153.428 25.1673C153.571 25.1871 153.701 25.2241 153.816 25.2784C153.931 25.3327 154.042 25.4093 154.147 25.508C154.253 25.6068 154.373 25.7401 154.507 25.908L164.466 38.869C164.428 38.4543 164.399 38.0519 164.38 37.6618C164.361 37.2717 164.351 36.9039 164.351 36.5582V25.1377H168.64V46.7197H166.107C165.733 46.7197 165.419 46.658 165.164 46.5346C164.91 46.4111 164.658 46.1963 164.409 45.8902L154.521 33.0328C154.55 33.4081 154.574 33.7759 154.593 34.1364C154.613 34.4968 154.622 34.835 154.622 35.151V46.7197H150.333V25.1377H152.895ZM43.7228 25.1561H48.862L42.6547 45.7574C42.4813 46.3329 41.9639 46.7252 41.3784 46.7252H37.336H36.2672L42.3656 26.1303C42.5369 25.5515 43.0558 25.1561 43.6438 25.1561H43.7228ZM186.198 25.1377V28.989H177.592V34.0253H184.183V37.7284H177.592V42.8684H186.198V46.7197H172.698V25.1377H186.198Z" fill="#090D14"/>
</g>
<defs>
<clipPath id="clip0_301_51">
<rect width="151" height="22" fill="white" transform="translate(36 25)"/>
</clipPath>
</defs>
</svg>
