<svg width="75" height="78" viewBox="0 0 75 78" fill="none" xmlns="http://www.w3.org/2000/svg">
<path fill-rule="evenodd" clip-rule="evenodd" d="M29.3478 2.21271L45.6522 0V6.6383H29.3478V2.21271ZM75 58.0851L0 64.7234V78H52.1739V71.3617C52.1739 69.5285 53.6338 68.0426 55.4348 68.0426C57.2358 68.0426 58.6957 69.5285 58.6957 71.3617V78H75V58.0851ZM8.15217 42.0425L66.8478 36.5106V53.1064H24.4565V47.2979C24.4565 45.9231 23.3615 44.8085 22.0109 44.8085C20.6602 44.8085 19.5652 45.9231 19.5652 47.2979V53.1064H8.15217V42.0425ZM60.3261 19.9149L14.6739 24.3405V33.1915H47.2826V27.383C47.2826 26.0082 48.3776 24.8936 49.7283 24.8936C51.0789 24.8936 52.1739 26.0082 52.1739 27.383V33.1915H60.3261V19.9149ZM22.8261 11.617L52.1739 8.29787V18.2553H34.2391V14.9362C34.2391 14.0196 33.5092 13.2766 32.6087 13.2766C31.7082 13.2766 30.9783 14.0196 30.9783 14.9362V18.2553H22.8261V11.617Z" fill="white"/>
</svg>
