<svg width="96" height="96" viewBox="0 0 96 96" fill="none" xmlns="http://www.w3.org/2000/svg">
<path fill-rule="evenodd" clip-rule="evenodd" d="M48 0C21.4903 0 0 21.4903 0 48C0 74.5097 21.4903 96 48 96C74.5097 96 96 74.5097 96 48C96 21.4903 74.5097 0 48 0ZM48.8578 29.579L69.4314 41.0358C69.6089 41.13 69.7583 41.2677 69.8649 41.4354C69.9658 41.6642 70.0083 41.9136 69.9887 42.162V65.0513C70.0218 65.2892 69.9817 65.5314 69.8736 65.747C69.7656 65.9627 69.5944 66.142 69.3818 66.2623L48.6224 77.8159C48.4256 77.9362 48.1981 78 47.966 78C47.7338 78 47.5064 77.9362 47.3095 77.8159L26.6988 66.3471C26.4855 66.2322 26.3063 66.0653 26.1785 65.8627C26.0561 65.6529 25.996 65.4138 26.0051 65.1724V19.3213C25.984 19.095 26.0284 18.8674 26.1333 18.6645C26.2382 18.4617 26.3993 18.2919 26.5983 18.1744C26.7973 18.0569 27.0261 17.9965 27.2585 18.0002C27.4909 18.0038 27.7176 18.0713 27.9126 18.195L38.9116 24.3472C39.5557 24.7105 39.5557 25.1465 39.5557 25.74V58.4388L48.0279 63.162L56.4877 58.4146V48.9925L47.4334 43.9544C46.9131 43.6517 46.9131 43.6274 46.9131 43.3731V30.2209C46.9012 30.0184 46.935 29.8158 47.0122 29.6275C47.1155 29.4688 47.2671 29.346 47.4458 29.2763C47.8669 29.0825 48.4986 29.3732 48.8578 29.579ZM37.2147 46.2434V26.0548L28.6186 21.2711V41.4596L37.2147 46.2434ZM37.2147 49.0046L28.6186 44.2209V63.1741L37.2147 58.4267V49.0046ZM29.8573 65.2571L46.9131 74.7519V65.1724L38.4533 60.4129L29.8573 65.2571ZM49.3904 32.6309V42.2105L57.8502 47.0063L66.4339 42.162L49.3904 32.6309ZM49.3904 65.1724V74.7277L66.4463 65.2329L57.8626 60.4492L49.3904 65.1724ZM59.0888 58.4025L67.6849 63.1741V44.1966L59.0888 48.9804V58.4025Z" fill="white"/>
</svg>
