<svg width="96" height="75" viewBox="0 0 96 75" fill="none" xmlns="http://www.w3.org/2000/svg">
<path d="M0.0318999 46.7921C-0.720893 62.1027 11.9499 74.6877 27.4529 74.1073C40.7498 73.6078 51.751 63.2048 52.7647 50.1275C53.1373 45.3448 52.1908 40.8192 50.2603 36.8446H69.3708L79.8056 22.0482H26.9088C13.0679 22.0409 0.702705 33.1639 0.0318999 46.7921ZM27.9076 59.2302C20.4467 60.1558 14.171 53.9699 15.1101 46.6158C15.7511 41.6053 19.8579 37.5572 24.9411 36.9254C32.402 35.9997 38.6777 42.1857 37.7386 49.5398C37.0976 54.5576 32.9908 58.5983 27.9076 59.2302Z" fill="white"/>
<path d="M14.7595 0L4.30981 14.7964H84.8736L95.3083 0H14.7595Z" fill="white"/>
</svg>
