<svg width="128" height="53" viewBox="0 0 128 53" fill="none" xmlns="http://www.w3.org/2000/svg">
<path fill-rule="evenodd" clip-rule="evenodd" d="M37.5483 52.6193H23.5374V32.5007H14.4425V52.6193H0V0.766846H14.4425V20.0555H23.5374V0.766846H37.5483V52.6193Z" fill="white"/>
<path fill-rule="evenodd" clip-rule="evenodd" d="M101.737 36.6871C107.422 36.6871 112.031 32.051 112.031 26.3305C112.031 20.6116 107.422 15.9748 101.737 15.9748C96.051 15.9748 91.4425 20.6116 91.4425 26.3305C91.4425 32.051 96.051 36.6871 101.737 36.6871ZM88.6417 26.3305C88.6417 19.0555 94.5044 13.1571 101.737 13.1571C108.97 13.1571 114.833 19.0555 114.833 26.3305C114.833 33.6069 108.97 39.505 101.737 39.505C94.5044 39.505 88.6417 33.6069 88.6417 26.3305ZM70.4071 26.3305C72.0274 26.1241 74.7286 24.2604 75.6802 23.0707C75.3457 24.5458 75.3202 28.8151 75.7111 30.2902C74.625 28.6082 72.0535 26.5377 70.4071 26.3305ZM60.9925 12.3839C63.0505 12.3839 64.6711 14.4276 64.6711 16.7567C64.6711 19.0858 63.0505 21.1308 60.9925 21.1308H53.9192V12.3839H60.9925ZM60.9667 31.8165C63.0244 31.8165 64.6453 33.8612 64.6453 36.1896C64.6453 38.519 63.0244 40.5629 60.9667 40.5629H53.8933V31.8165H60.9667ZM101.728 52.8741C116.141 52.8685 127.871 40.8216 127.867 26.3204C127.864 11.5133 116.141 0.0109741 101.728 7.66448e-06C87.3322 -0.0104337 79.9764 10.6501 78.1589 14.9531C78.1758 8.49355 71.8471 0.869069 64.4441 0.860913H40.5928V52.6165L62.8303 52.6208C71.7959 52.6208 78.1756 44.8057 78.1865 38.1043C80.233 42.3219 87.3322 52.8792 101.728 52.8741Z" fill="white"/>
</svg>
