<svg width="130" height="67" viewBox="0 0 130 67" fill="none" xmlns="http://www.w3.org/2000/svg">
<path fill-rule="evenodd" clip-rule="evenodd" d="M0 33.446V66.8921H6.96793H13.9359V33.446V0H6.96793H0V33.446ZM23.2264 22.7619V45.5238H29.9621H36.6977V22.7619V0H29.9621H23.2264V22.7619ZM45.9883 33.446V66.8921H52.9562H59.9242V33.446V0H52.9562H45.9883V33.446ZM68.7502 6.5034V13.0068H75.7181H82.686V6.5034V0H75.7181H68.7502V6.5034ZM92.4411 6.5034V13.0068H110.79H129.139V6.5034V0H110.79H92.4411V6.5034ZM92.4411 44.1302V66.8921H99.1768H105.912V44.1302V21.3683H99.1768H92.4411V44.1302Z" fill="white"/>
<path fill-rule="evenodd" clip-rule="evenodd" d="M68.7502 44.1299V66.8918H75.4859H82.2216V44.1299V21.368H75.4859H68.7502V44.1299Z" fill="white"/>
</svg>
