<svg width="134" height="101" viewBox="0 0 134 101" fill="none" xmlns="http://www.w3.org/2000/svg">
<g clip-path="url(#clip0_2002_37)">
<path d="M53.6954 66.1907C47.999 71.2399 40.5113 74.2996 32.3265 74.2996C14.4732 74.2996 0 59.7471 0 41.796C0 23.8448 14.4732 9.28491 32.3265 9.28491C37.2885 9.28491 41.9803 10.4078 46.1851 12.42V41.796C46.1851 34.1016 39.979 27.8617 32.3265 27.8617C24.6741 27.8617 18.4756 34.1016 18.4756 41.796C18.4756 49.4906 24.6741 55.7228 32.3265 55.7228C39.979 55.7228 46.1851 49.4906 46.1851 41.796V47.599C46.1851 54.826 49.0408 61.3825 53.6954 66.1907Z" fill="white"/>
<path d="M64.6607 41.7959C64.6607 51.5177 60.4184 60.237 53.6954 66.1906C49.0408 61.3825 46.1851 54.826 46.1851 47.5989V12.4199C57.1131 17.635 64.6607 28.8337 64.6607 41.7959Z" fill="white"/>
<path d="M99.2959 32.5039V47.5989C99.2959 55.6927 95.7207 62.9424 90.0618 67.8334C88.6827 66.6504 87.4236 65.309 86.3069 63.8543C85.6023 62.9349 84.9577 61.9627 84.3807 60.9529C82.117 57.019 80.8203 52.4596 80.8203 47.5989V32.5039C80.8203 32.2325 80.8354 31.9612 80.8578 31.6975C80.8652 31.6146 80.8729 31.5316 80.8803 31.4562C80.888 31.3809 80.8954 31.3055 80.9104 31.2228C80.9403 31.0041 80.9778 30.793 81.0228 30.5745C81.0677 30.3635 81.1203 30.1602 81.18 29.9491C81.2102 29.8436 81.24 29.7381 81.2701 29.64C81.3077 29.5271 81.3449 29.4215 81.3825 29.316C81.4499 29.135 81.5249 28.9543 81.6 28.781C81.6074 28.7584 81.6148 28.7358 81.6299 28.7132C81.7049 28.5397 81.7874 28.3664 81.8772 28.2008C81.9148 28.1101 81.9671 28.0198 82.0197 27.9368C82.072 27.8465 82.117 27.7635 82.1696 27.6732C82.2745 27.5073 82.3868 27.3415 82.4994 27.1756C82.5142 27.153 82.5293 27.123 82.5517 27.1004C82.6641 26.9497 82.7767 26.799 82.8966 26.6483C83.024 26.4899 83.1588 26.3317 83.3013 26.181C83.4438 26.0302 83.5862 25.887 83.7361 25.7439C83.8785 25.6082 84.0358 25.4725 84.1856 25.3369C84.1856 25.3369 84.1856 25.3369 84.1933 25.3369C84.3355 25.2238 84.478 25.1108 84.6204 25.0053C84.6355 24.9902 84.6503 24.9752 84.6653 24.9676C84.8078 24.8621 84.9577 24.7566 85.1152 24.6662C85.1451 24.6436 85.1675 24.6285 85.1976 24.6134C85.3475 24.523 85.4974 24.4326 85.6549 24.3421C86.1645 24.0633 86.6965 23.8372 87.2513 23.6563C87.3488 23.6262 87.446 23.596 87.5436 23.5734C87.8359 23.483 88.1433 23.4152 88.4504 23.3624C88.6002 23.3323 88.7504 23.3097 88.9076 23.2946C89.1325 23.2644 89.3575 23.2418 89.5898 23.2343C89.747 23.2268 89.9046 23.2192 90.0618 23.2192C90.2193 23.2192 90.3766 23.2268 90.5341 23.2343C90.6092 23.2343 90.684 23.2418 90.759 23.2494C91.0662 23.272 91.3735 23.3097 91.6733 23.3624C91.7557 23.3775 91.8382 23.3926 91.9132 23.4076C91.9806 23.4227 92.048 23.4378 92.1157 23.4529C92.1982 23.4679 92.288 23.4905 92.3705 23.5131C92.4754 23.5433 92.5877 23.5659 92.6927 23.6036C92.8052 23.6337 92.9102 23.6714 93.0151 23.7091C93.2474 23.7844 93.4723 23.8673 93.697 23.9729C93.817 24.0256 93.937 24.0708 94.0493 24.1311C94.1693 24.1839 94.2816 24.2441 94.3942 24.3045C94.9038 24.5757 95.3909 24.8998 95.8407 25.2691C95.9531 25.3595 96.0657 25.45 96.178 25.5554C96.2829 25.6459 96.3878 25.7439 96.4854 25.8418C96.5752 25.9247 96.6577 26.0076 96.7325 26.0905C96.8974 26.2563 97.0475 26.4297 97.1897 26.6106C97.2574 26.6935 97.3248 26.7764 97.3922 26.8593C97.4371 26.9194 97.4897 26.9874 97.5346 27.0552C97.5946 27.1381 97.6546 27.2285 97.7144 27.3114C97.8869 27.56 98.0442 27.8239 98.1867 28.0953C98.2541 28.2234 98.3215 28.3515 98.3814 28.4796C98.4491 28.6151 98.5088 28.7507 98.5688 28.894C98.6214 29.0146 98.6738 29.1427 98.719 29.2708C98.7488 29.3538 98.7713 29.4367 98.8012 29.5196C98.8463 29.6326 98.8836 29.753 98.9137 29.8662C98.9436 29.9566 98.9661 30.0469 98.9885 30.1376C99.0337 30.2883 99.071 30.4464 99.1011 30.6046C99.1236 30.7252 99.1461 30.8459 99.1611 30.9663C99.1836 31.0718 99.1984 31.1773 99.2135 31.2829C99.2661 31.6823 99.2959 32.0893 99.2959 32.5039Z" fill="white"/>
<path d="M133.938 71.9784H133.841C133.901 72.7471 133.938 73.5157 133.938 74.2996C133.938 89.048 122.044 101 107.383 101C102.279 101 98.1417 96.8404 98.1417 91.7157C98.1417 86.5836 102.279 82.4311 107.383 82.4311C111.843 82.4311 115.463 78.7911 115.463 74.2996C115.463 73.8849 115.433 73.4706 115.373 73.0711C112.847 73.8701 110.164 74.2996 107.383 74.2996C104.595 74.2996 101.912 73.8701 99.3934 73.0711C95.9231 71.9707 92.76 70.1697 90.0618 67.8334C95.7207 62.9424 99.2959 55.6927 99.2959 47.5989C99.2959 48.0133 99.3257 48.4279 99.3934 48.8271C99.978 52.731 103.336 55.7227 107.383 55.7227C111.431 55.7227 114.781 52.731 115.373 48.8271C115.433 48.4279 115.463 48.0133 115.463 47.5989V32.5039C115.463 28.9543 117.449 25.8644 120.365 24.3045C121.661 23.6111 123.138 23.2192 124.697 23.2192C129.801 23.2192 133.938 27.3792 133.938 32.5039V71.9784Z" fill="white"/>
<path d="M64.6607 9.28458V41.7957C64.6607 28.8334 57.1131 17.6347 46.1851 12.4197V9.28458C46.1851 4.15998 50.3224 0 55.4192 0C60.5233 0 64.6607 4.15998 64.6607 9.28458ZM86.3068 63.8541C85.6022 62.9347 84.9576 61.9624 84.3806 60.9527C82.1169 57.0188 80.8202 52.4594 80.8202 47.5986C80.8202 52.0902 77.2075 55.7225 72.7406 55.7225C68.2808 55.7225 64.6607 52.0902 64.6607 47.5986V41.7957C64.6607 51.5174 60.4184 60.2367 53.6954 66.1904C56.686 69.3027 60.4485 71.6917 64.6607 73.0408C67.2091 73.8621 69.9224 74.2993 72.7406 74.2993C75.5588 74.2993 78.2795 73.8621 80.8202 73.0408C84.2606 71.9404 87.3937 70.1469 90.0618 67.8332C88.6826 66.6502 87.4235 65.3087 86.3068 63.8541Z" fill="white"/>
</g>
<defs>
<clipPath id="clip0_2002_37">
<rect width="134" height="101" fill="white"/>
</clipPath>
</defs>
</svg>
