<svg width="96" height="96" viewBox="0 0 96 96" fill="none" xmlns="http://www.w3.org/2000/svg">
<path fill-rule="evenodd" clip-rule="evenodd" d="M48 0C21.4903 0 0 21.4903 0 48C0 74.5097 21.4903 96 48 96C74.5097 96 96 74.5097 96 48C96 21.4903 74.5097 0 48 0ZM74.2919 29.2214C77.3906 29.2214 79.9026 26.7094 79.9026 23.6107C79.9026 20.512 77.3906 18 74.2919 18C71.1931 18 68.6812 20.512 68.6812 23.6107C68.6812 26.7094 71.1931 29.2214 74.2919 29.2214ZM76.7384 33.3137C75.0829 34.0087 73.5043 34.8594 72.0222 35.8511C70.6453 32.8731 68.7462 30.1453 66.3978 27.8045C55.4489 16.8617 37.7128 17.105 26.77 28.0478C26.2431 28.5747 25.7442 29.1185 25.2729 29.6775C22.6933 32.5054 20.9088 35.9367 20.062 39.6222C19.383 41.8005 18.9716 44.0552 18.8382 46.3367C18.8293 46.5787 18.8185 46.8201 18.8077 47.0626L18.7956 47.3343C18.5022 59.898 26.5641 70.8853 38.1449 74.6407C41.91 75.927 45.878 76.3029 49.7867 75.8014C49.9442 75.7847 50.1017 75.7662 50.2591 75.7455C53.3459 75.3409 56.3563 74.3029 57.2124 74.0077L57.2125 74.0077L57.3345 73.9657C57.9947 73.6981 58.6468 73.4045 59.2907 73.0849C60.7165 72.31 62.8382 70.9158 64.1411 70.0071C64.6837 69.6299 65.59 68.8355 66.6228 67.8027C68.5985 65.8135 70.2727 63.5463 71.5924 61.0728C71.7228 60.778 71.8263 60.4733 71.9021 60.1624C72.2619 59.2287 72.5884 57.9379 72.6508 56.4986C72.6991 55.3903 72.7138 54.7522 72.7256 54.2393V54.239C72.737 53.7426 72.7457 53.3634 72.7797 52.7887C74.3918 49.0226 77.4174 45.9114 81.3783 44.2492V44.237C83.4299 43.476 84.8969 41.6487 85.1967 39.4812C85.4964 37.3136 84.5803 35.1568 82.8122 33.8676C81.0442 32.5784 78.7105 32.3656 76.7384 33.3137ZM30.5472 49.223C30.7019 50.8405 31.0917 52.383 31.6808 53.8182C32.4682 55.7123 33.6322 57.4867 35.1727 59.0273C36.1871 60.0417 37.303 60.8929 38.4877 61.5807C38.8393 61.7791 39.2354 61.9902 39.6701 62.2028C45.6611 65.0424 53.0397 63.9839 57.9962 59.0273C58.6043 58.4192 59.1589 57.7676 59.6569 57.0798C59.6531 56.9565 59.6591 56.833 59.6751 56.7103C59.6797 56.6614 59.6831 56.6258 59.6862 56.5901C59.6944 56.4945 59.7004 56.3988 59.7225 56.0464L59.7225 56.0461C59.7289 55.9424 59.7351 55.8377 59.7413 55.7313C59.7987 54.7477 59.8641 53.6288 60.2396 52.0315L60.2414 52.0235C60.3273 51.6461 60.4207 51.2353 60.5814 50.6385C60.9305 49.3542 61.3221 48.256 61.8073 46.8952L61.8074 46.8949L61.8077 46.894C61.8079 46.8939 61.8099 46.8884 61.8137 46.8777L61.8308 46.8294L61.8309 46.8293L61.8309 46.8291L61.831 46.8289L61.8311 46.8287C61.9047 46.6199 62.1484 45.9286 62.5131 45.0193C62.3151 43.8045 61.9793 42.6201 61.515 41.4887C58.6265 34.5251 51.2009 30.3999 43.6257 31.8266C35.4237 33.3713 29.7525 40.9148 30.5472 49.223Z" fill="white"/>
</svg>
