<svg width="96" height="69" viewBox="0 0 96 69" fill="none" xmlns="http://www.w3.org/2000/svg">
<path fill-rule="evenodd" clip-rule="evenodd" d="M79.1839 42.7722C67.4299 52.7265 52.1329 61.556 37.6233 66.73C41.2226 67.7423 45.0468 68.0798 48.8148 67.7986C59.1628 67.0675 68.7234 61.556 74.5161 52.9515C76.6531 49.8583 78.2278 46.3715 79.1839 42.7722ZM55.5635 49.8583C44.8219 56.1008 34.0802 60.0938 25.5319 61.6123C20.0767 62.5121 12.5969 63.0745 8.43521 59.1377C5.79198 56.7195 5.45454 53.5701 6.41061 50.027C7.14171 47.4963 8.43521 44.9655 10.5723 42.0411C10.4598 41.5912 10.3473 41.1413 10.2911 40.6914C6.18565 45.1905 3.14874 49.5209 1.46157 53.4576C-0.338074 57.788 -1.06918 62.737 2.81131 65.8864C6.35437 68.8109 12.9906 69.4857 21.3139 68.1922C25.4756 67.5174 29.6373 66.4488 33.6303 65.1553C49.6022 60.0376 66.98 50.027 79.4651 38.8355C82.727 35.911 85.8763 32.7617 88.5758 29.3311C94.9871 21.4014 97.6303 14.2028 94.9308 9.59118C93.4124 6.94794 90.1505 5.37325 85.7639 4.81086C81.4897 4.30471 76.2032 4.75462 70.2981 6.04812C70.6356 6.32931 70.9168 6.61051 71.2542 6.94794C74.8535 6.61051 77.9466 6.72299 80.4774 7.45409C83.2331 8.1852 85.5951 9.70366 86.7762 12.3469C89.2507 18.0833 84.4704 25.2256 80.7586 29.6685C75.1909 36.3609 66.3614 43.6158 55.5635 49.8583ZM55.1698 1.15532C47.2401 -0.981758 38.5231 -0.194411 30.7059 3.8548C29.8623 4.30471 29.0187 4.81086 28.1751 5.31701C20.7516 10.0411 15.7463 17.1834 13.6092 25.1694C11.3596 33.549 12.3157 42.8284 16.9835 50.9269C18.727 53.9638 20.9765 56.7195 23.5635 59.0815C24.0697 59.0253 24.5196 58.969 25.0257 58.8566C33.3491 57.4506 43.6971 53.5138 54.2138 47.44C64.6742 41.4225 73.2788 34.3926 78.6215 27.9251C78.9589 27.5314 79.2964 27.1378 79.5776 26.7441C79.2401 25.1694 78.7902 23.5947 78.1716 22.0762C77.553 20.3328 76.7656 18.6457 75.8096 16.9585C71.3104 9.1975 63.8869 3.51736 55.1698 1.15532Z" fill="white"/>
</svg>
