<svg width="98" height="100" viewBox="0 0 98 100" fill="none" xmlns="http://www.w3.org/2000/svg">
<path fill-rule="evenodd" clip-rule="evenodd" d="M70.1886 5.11145C70.5839 5.24367 70.9396 5.47261 71.2238 5.77745C71.6106 6.16215 71.8609 6.66287 71.9364 7.20315C72.0119 7.74342 71.9086 8.29358 71.6419 8.76962C71.5775 8.86042 71.5426 8.96913 71.5426 9.08063C71.5426 9.1921 71.5775 9.30081 71.6419 9.39164L79.235 17.8641C79.3132 17.9499 79.4166 18.0086 79.5304 18.0317C79.6441 18.0549 79.7622 18.0412 79.8678 17.9928C80.3667 17.7664 80.9266 17.7103 81.4606 17.8332C81.9947 17.9562 82.4735 18.2513 82.8234 18.6731C83.1733 19.0949 83.3748 19.62 83.3968 20.1676C83.4189 20.7152 83.2604 21.2548 82.9458 21.7035C82.9039 21.755 82.8811 21.8194 82.8811 21.8858C82.8811 21.9522 82.9039 22.0165 82.9458 22.0681L89.7773 29.8971C89.8044 29.9269 89.8375 29.951 89.8744 29.9673C89.9115 29.9836 89.9514 29.9922 89.9918 29.9922C90.0322 29.9922 90.0721 29.9836 90.1092 29.9673C90.1461 29.951 90.1792 29.9269 90.2063 29.8971C90.2998 29.7933 90.4042 29.6999 90.5173 29.6182C91.034 29.3234 91.638 29.2191 92.2237 29.3237C92.8094 29.4283 93.34 29.7351 93.723 30.1906C94.1058 30.6461 94.3165 31.2215 94.3187 31.8167C94.321 32.4117 94.1143 32.9886 93.7348 33.4469C93.3813 33.8573 92.9027 34.14 92.3727 34.2514C92.1851 34.29 92.0188 34.3971 91.9059 34.5519C91.7928 34.7064 91.7414 34.8973 91.7614 35.0876L92.6838 43.3028C92.688 43.3697 92.7063 43.435 92.7379 43.4941C92.7693 43.5531 92.8129 43.605 92.8659 43.6459C93.294 44.0081 93.6289 44.4679 93.8419 44.9866C93.9472 45.2319 94.0122 45.4928 94.035 45.7587C94.0423 46.4452 93.7804 47.1074 93.3056 47.6033C93.2617 47.6522 93.2291 47.7104 93.2105 47.7734C93.192 47.8366 93.188 47.9031 93.1985 47.9681L94.1208 56.2045C94.1394 56.3495 94.2111 56.4824 94.322 56.5775C94.4328 56.6725 94.5753 56.7232 94.7213 56.7192C95.0925 56.7044 95.4623 56.7724 95.8037 56.9184C96.1453 57.0641 96.4498 57.2843 96.6956 57.563C96.9415 57.8414 97.1218 58.171 97.2241 58.5282C97.3262 58.8852 97.3478 59.2607 97.2866 59.6269C97.2256 59.9931 97.0837 60.3413 96.8712 60.646C96.6585 60.9506 96.3808 61.2039 96.0583 61.3878C95.7354 61.5714 95.3757 61.681 95.0052 61.7081C94.635 61.7354 94.2633 61.6797 93.9169 61.5453C93.7867 61.4914 93.641 61.4878 93.508 61.5355C93.3753 61.5832 93.265 61.6782 93.1985 61.8026L88.3403 70.5112C88.2889 70.6062 88.2726 70.7163 88.2941 70.8222C88.3157 70.9278 88.3739 71.0229 88.4582 71.0903C88.6217 71.2183 88.776 71.3582 88.9192 71.5085C89.5787 72.196 90.0043 73.0742 90.1355 74.0178C90.2667 74.9615 90.0966 75.9224 89.6499 76.7637C89.2032 77.6053 88.5021 78.284 87.647 78.7039C86.7916 79.1236 85.8259 79.2628 84.8868 79.1015C84.7044 79.0684 84.5161 79.0995 84.3538 79.1896C84.1917 79.2794 84.0656 79.4226 83.9968 79.5949L81.1117 86.6196L81.2299 86.7159C81.4631 86.9186 81.6156 87.1982 81.6598 87.504C81.7037 87.8098 81.6365 88.1213 81.4699 88.3814C81.3034 88.6415 81.0488 88.8332 80.7528 88.9212C80.4565 89.0093 80.1387 88.988 79.857 88.8608C79.6892 88.7951 79.5362 88.6967 79.4065 88.5713L78.9347 88.4855L68.2102 93.1829C68.055 93.2544 67.9245 93.3701 67.8347 93.5153C67.7364 93.661 67.6253 93.7975 67.5024 93.9229C67.2393 94.1828 66.9222 94.3817 66.5738 94.5058C66.2256 94.63 65.8541 94.6762 65.4862 94.6415C65.1842 94.6049 64.8779 94.6456 64.5959 94.7594L57.0887 98.0519C57.0042 98.0868 56.9324 98.1462 56.8825 98.223C56.8326 98.2995 56.8072 98.3895 56.81 98.4808C56.818 98.6903 56.7731 98.8985 56.6796 99.0858C56.5858 99.2735 56.446 99.4343 56.2737 99.5534C56.0608 99.6999 55.8082 99.7784 55.5498 99.7784C55.2912 99.7784 55.0389 99.6999 54.8259 99.5534C54.6741 99.4541 54.5457 99.3231 54.4494 99.1694C54.3531 99.0159 54.2914 98.843 54.268 98.6632C54.2547 98.5568 54.2063 98.4583 54.1306 98.3825C54.0548 98.3067 53.9563 98.2583 53.8499 98.245L41.3129 96.7543C41.208 96.7393 41.1012 96.7558 41.0059 96.8017C40.9103 96.8476 40.8305 96.9206 40.7766 97.0117C40.6025 97.2954 40.3735 97.5415 40.1033 97.7358C39.833 97.9302 39.5267 98.069 39.2024 98.1437C38.878 98.2187 38.5419 98.2282 38.2138 98.1718C37.8857 98.1156 37.5719 97.9947 37.2912 97.8159C37.0203 97.6465 36.7868 97.4241 36.6047 97.1617C36.458 96.9603 36.2457 96.816 36.0042 96.7543L24.5288 94.191C24.443 94.1712 24.3533 94.1757 24.2699 94.2041C24.1865 94.2324 24.1128 94.2836 24.057 94.3518C24.0004 94.4206 23.9356 94.4818 23.8639 94.5342C23.6589 94.6899 23.4118 94.7808 23.1547 94.7945C22.8976 94.8083 22.6422 94.7446 22.4216 94.6119C22.2011 94.479 22.0254 94.2831 21.9173 94.0496C21.8093 93.8158 21.7738 93.5549 21.8155 93.3008C21.833 93.2075 21.8306 93.1114 21.8084 93.0191C21.7862 92.9266 21.7448 92.84 21.6868 92.7648L5.59993 73.1708C5.50843 73.0624 5.39294 72.9771 5.26261 72.9212C5.1323 72.8652 4.99075 72.8407 4.8492 72.8492C4.61776 72.8637 4.38699 72.8116 4.18429 72.6989C4.00524 72.6099 3.85208 72.4762 3.73943 72.3109C3.62676 72.1458 3.55838 71.9545 3.5408 71.7553C3.51511 71.5654 3.5285 71.3723 3.58015 71.1879C3.63177 71.0035 3.72059 70.8315 3.8411 70.6827C3.88386 70.6288 3.91539 70.5668 3.93383 70.5006C3.95224 70.4341 3.95718 70.3649 3.94835 70.2967L2.73647 59.2933C2.72596 59.2098 2.68522 59.1332 2.62196 59.0778C2.5587 59.0224 2.47733 58.9923 2.39328 58.9928C1.93926 58.9737 1.49907 58.831 1.12008 58.5804C0.741086 58.3296 0.437643 57.9802 0.2424 57.57C0.0471566 57.1597 -0.0324945 56.7037 0.0120181 56.2516C0.0565308 55.7994 0.223522 55.3677 0.495022 55.0032C0.825967 54.5753 1.29012 54.2695 1.81415 54.1346C1.96217 54.0935 2.09172 54.0029 2.1814 53.8782C2.27109 53.7533 2.31556 53.6018 2.30748 53.4483L1.56748 42.5091C1.56217 42.4361 1.53615 42.3659 1.49247 42.3072C1.44879 42.2482 1.38925 42.2031 1.32082 42.1768C1.10957 42.09 0.924703 41.9495 0.784586 41.7691C0.599128 41.5401 0.497944 41.2542 0.497944 40.9595C0.497944 40.6647 0.599128 40.3788 0.784586 40.1498C0.915395 39.9962 1.08097 39.8763 1.26752 39.7998C1.45406 39.7233 1.65618 39.6927 1.85705 39.71C1.94937 39.7148 2.04133 39.6955 2.12401 39.6541C2.20669 39.6127 2.27728 39.5508 2.32893 39.474L7.21935 32.1922C7.26608 32.1233 7.28437 32.0392 7.27037 31.9572C7.25637 31.8752 7.2112 31.8017 7.14428 31.7525C6.92397 31.5965 6.73175 31.4044 6.57586 31.1841C6.25564 30.7417 6.08919 30.2064 6.10198 29.6603C6.11477 29.1142 6.30611 28.5875 6.64669 28.1606C6.9873 27.7336 7.4584 27.4301 7.98791 27.2962C8.51742 27.1625 9.07621 27.2059 9.57876 27.4196C9.62649 27.4432 9.67844 27.4567 9.73152 27.4595C9.7846 27.4625 9.83772 27.4547 9.88774 27.4367C9.93776 27.4186 9.98363 27.3908 10.0227 27.3546C10.0617 27.3188 10.0931 27.2751 10.115 27.2267L14.5871 17.6174C14.6212 17.5607 14.6391 17.4958 14.6391 17.4297C14.6391 17.3636 14.6212 17.2987 14.5871 17.242C14.446 17.0611 14.3537 16.8469 14.319 16.62C14.2984 16.428 14.3172 16.2338 14.3744 16.0494C14.4316 15.865 14.5259 15.6942 14.6515 15.5475C14.8792 15.3556 15.1624 15.2417 15.4597 15.2223C15.7569 15.203 16.0524 15.2794 16.3031 15.4403C16.3585 15.4723 16.4214 15.4892 16.4854 15.4892C16.5494 15.4892 16.6123 15.4723 16.6677 15.4403L25.6979 10.3354C25.7794 10.2939 25.8436 10.2248 25.879 10.1403C25.9143 10.0558 25.9186 9.96151 25.8908 9.87424C25.7322 9.39279 25.7242 8.87434 25.8682 8.38827C26.0124 7.90223 26.3014 7.47174 26.6967 7.15448C27.0923 6.83723 27.5751 6.64832 28.0808 6.61306C28.5865 6.57779 29.0909 6.69784 29.5266 6.95715C29.8178 7.12341 30.0702 7.35014 30.2666 7.62207C30.3476 7.73274 30.4642 7.81225 30.5969 7.84739C30.7296 7.88251 30.8703 7.87112 30.9958 7.81511L42.396 3.0105L42.6641 2.61368C42.633 1.99929 42.8307 1.39518 43.219 0.917963C43.6073 0.440748 44.1584 0.124273 44.7664 0.0296291C45.3742 -0.0650149 45.9955 0.0688834 46.5104 0.405476C47.0254 0.74207 47.3974 1.25749 47.5547 1.85224C47.6726 1.97021 47.7584 2.056 48.4554 2.3134L66.6872 6.69974C66.7669 6.71999 66.8515 6.71178 66.9257 6.67654C67.0002 6.64132 67.0599 6.58125 67.0948 6.5067C67.2573 6.123 67.5132 5.78603 67.839 5.52644C68.1651 5.26685 68.5509 5.09289 68.9612 5.02043C69.3716 4.94793 69.7935 4.97924 70.1886 5.11145ZM74.8026 25.137L78.4308 21.5962C78.4729 21.5322 78.4945 21.4568 78.4927 21.3801C78.4907 21.3033 78.4654 21.2291 78.42 21.1672C78.2856 20.8074 78.2339 20.4218 78.2692 20.0393C78.3046 19.6568 78.4258 19.2872 78.6237 18.958C78.6959 18.8642 78.735 18.7492 78.735 18.6309C78.735 18.5125 78.6959 18.3975 78.6237 18.3038L71.0522 9.8528C70.9767 9.76641 70.8751 9.70706 70.7627 9.68384C70.6504 9.66058 70.5337 9.67473 70.4301 9.72409C70.1196 9.87299 69.7815 9.95604 69.4371 9.96806C69.0929 9.98007 68.7498 9.92075 68.4295 9.79385C68.1094 9.66698 67.8187 9.47522 67.5761 9.23068C67.3336 8.98614 67.1442 8.69404 67.0198 8.37279C66.9704 8.24705 66.8828 8.14002 66.7692 8.06687C66.6556 7.99373 66.5219 7.95819 66.3869 7.96526L58.4615 8.44787C58.3832 8.45008 58.3085 8.4807 58.2513 8.53401C58.1941 8.58728 58.1582 8.6596 58.1505 8.73743C58.0943 9.31599 57.8404 9.85751 57.4318 10.271C57.3533 10.3449 57.3004 10.4421 57.2811 10.5483C57.2618 10.6545 57.2771 10.7641 57.3247 10.8609L59.915 15.8926C59.6064 15.7931 59.2964 15.6978 58.9851 15.6066L56.6705 11.1397C56.6226 11.0431 56.5439 10.9653 56.4468 10.9186C56.3495 10.872 56.2396 10.8592 56.1343 10.8824C55.5205 11.0035 54.8836 10.8901 54.3496 10.5644C53.8153 10.2388 53.4227 9.7246 53.2494 9.12352C53.2318 9.04985 53.1889 8.98473 53.128 8.93961C53.0673 8.89448 52.9925 8.87228 52.9168 8.87685L30.835 9.65976C30.7916 9.66304 30.7502 9.67764 30.7143 9.70212C30.6785 9.7266 30.6499 9.76007 30.631 9.79917C30.5272 10.205 30.316 10.5754 30.0198 10.8716L29.8161 11.0432C29.783 11.0739 29.7591 11.1134 29.7476 11.1571C29.7363 11.2008 29.7378 11.2469 29.7516 11.2899L32.3764 18.0669C32.1736 18.1697 31.9718 18.2744 31.771 18.3811L29.1619 11.6438C29.1388 11.5982 29.1002 11.5623 29.053 11.5427C29.0059 11.523 28.9532 11.5208 28.9045 11.5366C28.5694 11.6292 28.2188 11.6504 27.8751 11.5986C27.5315 11.5469 27.2026 11.4234 26.9096 11.2363C26.8718 11.2058 26.8244 11.1892 26.7757 11.1892C26.727 11.1892 26.6796 11.2058 26.6415 11.2363L10.9515 28.503C10.9153 28.5406 10.8909 28.5882 10.8814 28.6397C10.8718 28.6911 10.8776 28.7443 10.8979 28.7924C10.9217 28.8526 10.9658 28.9028 11.0225 28.9341C11.0793 28.9655 11.1452 28.976 11.2089 28.964L21.0526 27.0827C20.8341 27.3472 20.6196 27.6145 20.4091 27.8844L11.5306 29.554C11.4134 29.5768 11.3061 29.6357 11.2235 29.722C11.141 29.8086 11.0872 29.9182 11.0695 30.0366C11.0105 30.4775 10.8367 30.8954 10.5654 31.2484C10.5084 31.3261 10.4716 31.4169 10.4585 31.5122C10.4454 31.6078 10.4563 31.7051 10.4903 31.7954L13.85 41.2928C13.7485 41.6941 13.6538 42.0974 13.566 42.5024L9.98629 32.4388C9.93991 32.3081 9.84475 32.2005 9.72078 32.1386C9.59682 32.0766 9.45367 32.0651 9.32135 32.1062C9.23913 32.1318 9.16461 32.1777 9.10466 32.2397C9.04471 32.3014 9.00121 32.3774 8.97818 32.4601L3.39067 53.7165C3.35866 53.8399 3.36752 53.9703 3.41585 54.0882C3.46417 54.2061 3.5494 54.3052 3.65879 54.3706C3.85216 54.4813 4.02905 54.6185 4.18429 54.7782C4.28733 54.8851 4.37733 55.004 4.45241 55.1322C4.51439 55.2205 4.59862 55.2907 4.69657 55.3358C4.79452 55.381 4.90268 55.3996 5.01007 55.3895L12.9841 54.3678C13.009 54.5821 13.0357 54.7959 13.0644 55.0094L5.25674 56.0329C5.15254 56.0505 5.05782 56.1042 4.98922 56.1847C4.92059 56.2649 4.88242 56.367 4.88139 56.4726C4.89546 56.9886 4.74523 57.4955 4.45241 57.9205C4.398 57.9945 4.3669 58.0827 4.36309 58.1746C4.35925 58.2664 4.3829 58.3569 4.43096 58.4352L15.5095 77.3427C15.5327 77.381 15.566 77.4121 15.6057 77.433C15.6454 77.4538 15.69 77.4633 15.7347 77.4606C15.7983 77.4608 15.8594 77.4362 15.9054 77.3923C15.9514 77.3482 15.9786 77.2882 15.9813 77.2248L16.757 66.775C16.9479 67.1463 17.1453 67.5145 17.3491 67.8793L16.6355 77.3534C16.6291 77.4069 16.6402 77.4608 16.6674 77.5075C16.6945 77.5539 16.736 77.5902 16.7857 77.6108C17.3036 77.8182 17.7351 78.1968 18.0083 78.6834C18.0324 78.7207 18.0658 78.7514 18.1053 78.7719C18.1448 78.7927 18.189 78.8028 18.2335 78.8013L26.78 78.8476C27.0858 79.0849 27.3951 79.3171 27.7077 79.544L18.566 79.4554L18.5981 79.4768C18.5382 79.4755 18.4797 79.4953 18.4328 79.5325C18.3857 79.5696 18.3532 79.622 18.3407 79.6807C18.3622 80.0728 18.2963 80.4648 18.1477 80.8283C18.1223 80.8817 18.117 80.9427 18.1327 80.9996C18.1485 81.0568 18.1843 81.1062 18.2335 81.1393L36.1971 94.0087C36.2799 94.0827 36.3867 94.1233 36.4976 94.1233C36.6082 94.1233 36.7153 94.0827 36.7978 94.0087L36.8944 93.9121C37.2275 93.573 37.6524 93.3382 38.117 93.2366C38.2507 93.214 38.3733 93.1483 38.4661 93.0495C38.5592 92.9509 38.6171 92.8245 38.6317 92.6895L39.4556 85.1803C39.6797 85.2416 39.9044 85.3007 40.1297 85.3576L39.3074 92.7003C39.2954 92.8513 39.3328 93.0018 39.4141 93.1295C39.4953 93.2572 39.616 93.355 39.7577 93.4082C40.0233 93.5301 40.2636 93.7009 40.4656 93.9121L40.5513 93.9874C40.6156 94.0616 40.6971 94.119 40.7889 94.1547C40.8804 94.19 40.9793 94.2026 41.0768 94.191L63.0408 92.5824C63.0809 92.5812 63.1203 92.5716 63.1564 92.5543C63.1925 92.5373 63.2246 92.5127 63.2507 92.4826C63.2771 92.4522 63.2966 92.4171 63.3084 92.3787C63.3204 92.3406 63.3242 92.3002 63.3197 92.2606C63.3144 92.164 63.3144 92.0675 63.3197 91.9711C63.3202 91.9215 63.3061 91.8728 63.2796 91.8309C63.253 91.789 63.2146 91.7557 63.1697 91.7351L52.6063 86.2855C52.9887 86.2475 53.3701 86.2035 53.7503 86.1535L63.0623 90.9415C63.1582 90.9921 63.2695 91.0034 63.3736 90.9736C63.4777 90.9435 63.566 90.8745 63.6199 90.7807C63.723 90.5943 63.8532 90.4245 64.006 90.2765C64.2944 89.987 64.6504 89.7738 65.0414 89.6559C65.4327 89.538 65.8471 89.519 66.2474 89.601C66.3721 89.6208 66.4995 89.5932 66.6046 89.5237C66.71 89.4543 66.7852 89.3479 66.8158 89.2255L68.9048 80.5265C69.1761 80.3487 69.4452 80.1671 69.712 79.9818L67.3629 89.826C67.3433 89.9123 67.3504 90.0026 67.3827 90.0849C67.4153 90.1671 67.472 90.2376 67.5453 90.2873C67.5663 90.3104 67.5919 90.3289 67.6205 90.3415C67.6491 90.354 67.6802 90.3605 67.7113 90.3605C67.7427 90.3605 67.7735 90.354 67.8024 90.3415C67.831 90.3289 67.8566 90.3104 67.8776 90.2873L81.2083 76.7101C81.3084 76.6047 81.3789 76.475 81.4127 76.3338C81.4468 76.1926 81.4428 76.0448 81.4014 75.9056C81.0518 74.7917 81.1438 73.5859 81.6588 72.5382C81.7544 72.3616 81.7842 72.1569 81.7428 71.9605C81.7017 71.7641 81.5921 71.5887 81.4335 71.4656L79.4151 69.8728C79.5403 69.6756 79.6636 69.4773 79.7848 69.2779L82.4738 71.3798C83.1994 70.6564 84.1478 70.1991 85.1657 70.0822C85.2613 70.0692 85.3503 70.0273 85.4213 69.9621C85.4923 69.8969 85.5415 69.8116 85.5625 69.7175L89.7023 49.523C89.7201 49.4282 89.7081 49.3301 89.6675 49.2425C89.6268 49.155 89.5596 49.0825 89.4756 49.0351C89.3916 48.9877 89.2947 48.9679 89.1987 48.9787C89.1028 48.9892 89.0125 49.0296 88.9408 49.0941L84.9981 52.6706C85.021 52.3022 85.0382 51.9329 85.0498 51.5629L89.2089 47.7749V47.7857C89.289 47.7122 89.3411 47.6134 89.3567 47.506C89.3722 47.3987 89.3504 47.289 89.2947 47.1957C88.9641 46.6248 88.8716 45.9468 89.0374 45.3082C89.0762 45.1617 89.067 45.0064 89.011 44.8655C88.9548 44.7245 88.8553 44.6053 88.7263 44.5253L83.9852 41.6285C83.9017 41.2943 83.8135 40.9615 83.7205 40.6301L89.6379 44.2467L89.7023 44.1822C90.124 43.7528 90.6889 43.4934 91.2894 43.453C91.3844 43.4462 91.4772 43.4207 91.562 43.3773C91.6468 43.3339 91.7221 43.2739 91.7833 43.2007C91.8442 43.1277 91.8899 43.0429 91.9175 42.9518C91.9451 42.8605 91.9541 42.7647 91.9436 42.6702L91.0215 34.5621C91.0072 34.438 90.9625 34.3193 90.8913 34.2165C90.8203 34.1134 90.725 34.0296 90.6139 33.9724C90.4119 33.8558 90.2246 33.7153 90.0563 33.554C89.8067 33.2962 89.613 32.9894 89.4876 32.6533C89.4377 32.5233 89.3494 32.4117 89.2345 32.3332C89.1196 32.2547 88.9834 32.2131 88.8442 32.2136H80.166C80.0428 32.0014 79.9175 31.7905 79.7901 31.5807H88.9837C89.078 31.581 89.1696 31.5494 89.2433 31.4909C89.3173 31.4325 89.3695 31.3507 89.3913 31.2591C89.4149 31.1611 89.4435 31.0645 89.4771 30.9694C89.5077 30.8984 89.517 30.8199 89.5037 30.7439C89.4901 30.6677 89.455 30.5969 89.4018 30.5405L82.4095 22.5293C82.3636 22.4809 82.3034 22.4485 82.2377 22.4369C82.1722 22.4253 82.1045 22.4351 82.0448 22.4649C81.6493 22.6753 81.2058 22.7788 80.758 22.7652C80.1686 22.7396 79.6069 22.5081 79.1707 22.111C79.1294 22.0741 79.0759 22.0536 79.0205 22.0536C78.9651 22.0536 78.9116 22.0741 78.8705 22.111L75.2656 25.6222C75.1129 25.4592 74.9585 25.2974 74.8026 25.137ZM75.2656 25.6222L72.264 28.5458C72.133 28.6715 72.0505 28.8391 72.031 29.0197C72.0114 29.2 72.0558 29.3816 72.1569 29.5324C72.4642 29.9746 72.6894 30.4688 72.8216 30.991C72.8622 31.1575 72.9568 31.3058 73.0907 31.4126C73.2247 31.5193 73.3905 31.5785 73.5618 31.5807H79.7901C78.4997 29.4577 76.9865 27.4593 75.2656 25.6222ZM80.166 32.2136H73.6797C73.4989 32.2131 73.3233 32.2763 73.1843 32.3919C73.0451 32.5075 72.9508 32.6683 72.9182 32.8464C72.8974 32.9846 72.8652 33.1208 72.8216 33.2538C72.7674 33.4201 72.7697 33.5994 72.8279 33.7642C72.8861 33.929 72.9969 34.0703 73.1434 34.1656L83.7205 40.6301C82.8951 37.6866 81.7008 34.8583 80.166 32.2136ZM83.9852 41.6285L72.929 34.8732C72.7672 34.7774 72.576 34.7432 72.3909 34.7766C72.2058 34.8102 72.039 34.909 71.9208 35.0555L71.6419 35.3558C70.9328 36.0579 70.0142 36.5096 69.0252 36.6428C68.9219 36.6571 68.8225 36.692 68.7327 36.7454C68.6432 36.7988 68.5652 36.8693 68.5032 36.9534C68.4413 37.0374 68.3966 37.1327 68.372 37.234C68.3477 37.3354 68.3437 37.4407 68.3602 37.5438L72.339 61.4274C72.3603 61.5799 72.4253 61.7229 72.5261 61.839C72.6269 61.9551 72.7596 62.0394 72.9074 62.0816C73.0441 62.1245 73.1896 62.1302 73.329 62.0984C73.4685 62.0663 73.5969 61.9975 73.701 61.8992L85.0498 51.5629C85.0638 51.1186 85.0696 50.6733 85.0671 50.2272C85.0512 47.304 84.6826 44.4188 83.9852 41.6285ZM84.9981 52.6706L73.9263 62.7144C74.2045 62.9911 74.4134 63.3297 74.5363 63.7022C74.6595 64.075 74.6928 64.4713 74.6341 64.8593C74.6186 64.9654 74.6311 65.0738 74.6705 65.1736C74.7101 65.2735 74.7754 65.361 74.8594 65.4277L79.7848 69.2779C82.8294 64.2718 84.6321 58.5751 84.9981 52.6706ZM79.4151 69.8728L74.7199 66.1677C74.5985 66.0751 74.447 66.0305 74.2948 66.0423C74.1425 66.0543 74 66.1218 73.8942 66.2319C73.6268 66.5008 73.2997 66.703 72.9397 66.8219C72.9116 66.8331 72.8866 66.8507 72.8662 66.873C72.8459 66.8951 72.8306 66.9217 72.8216 66.9505L69.712 79.9818C71.4015 78.8084 72.9986 77.4859 74.4828 76.0231L74.4834 76.0237L74.7192 75.7984C76.5001 73.9783 78.0705 71.9905 79.4151 69.8728ZM68.9048 80.5265L72.1032 67.2079V67.1758C72.113 67.1474 72.1152 67.1168 72.1097 67.0875C72.1042 67.0579 72.0909 67.0306 72.0714 67.0077C72.0518 66.9849 72.0267 66.9676 71.9984 66.9576C71.97 66.9475 71.9397 66.945 71.9101 66.9505C71.3271 66.8994 70.7805 66.645 70.3657 66.2319C70.2014 66.0663 70.0606 65.8787 69.9475 65.6743C69.9372 65.6535 69.9229 65.6352 69.9054 65.6201C69.8881 65.6048 69.8675 65.5935 69.8454 65.5865C69.8236 65.5795 69.8003 65.577 69.7772 65.5792C69.7541 65.5815 69.7318 65.5882 69.7115 65.5993L43.9725 78.1471C43.894 78.1895 43.8293 78.2534 43.7856 78.3312C43.742 78.409 43.7212 78.4975 43.7259 78.5868C43.7575 79.0576 43.6612 79.5282 43.447 79.9488L43.2646 80.2491C43.23 80.2937 43.2057 80.3457 43.1934 80.4008C43.1811 80.4563 43.1811 80.5135 43.1934 80.5686C43.2057 80.6241 43.23 80.676 43.2646 80.7207C43.299 80.7656 43.3431 80.8022 43.3933 80.8283L53.7503 86.1535C59.1709 85.4403 64.3508 83.5115 68.9048 80.5265ZM52.6063 86.2855L42.5891 81.1177C42.4098 81.0483 42.2109 81.0483 42.0313 81.1177C41.805 81.2028 41.5652 81.2464 41.3237 81.2464C41.1227 81.2499 40.9301 81.3254 40.7804 81.4594C40.6306 81.5933 40.5343 81.7767 40.5085 81.9756L40.1297 85.3576C43.0104 86.0858 45.9929 86.463 49.0143 86.4633C50.2191 86.4635 51.4178 86.4036 52.6063 86.2855ZM39.4556 85.1803L39.8543 81.5467C39.8784 81.3733 39.8598 81.1968 39.8001 81.0322C39.7401 80.8677 39.6411 80.7204 39.5111 80.603L39.4467 80.5493C39.2819 80.3735 39.1379 80.1791 39.0177 79.9702C38.9691 79.8748 38.8956 79.7948 38.805 79.7381C38.7142 79.6814 38.6099 79.6503 38.503 79.6486L27.7077 79.544C31.2594 82.1223 35.2421 84.0287 39.4556 85.1803ZM26.78 78.8476L37.9883 78.9084C38.1664 78.9089 38.339 78.8469 38.4762 78.7333C38.6134 78.6197 38.7064 78.4616 38.7391 78.2866C38.7802 78.0397 38.8597 77.8007 38.9748 77.5787C39.0265 77.4781 39.0448 77.3637 39.0275 77.2519C39.0102 77.1402 38.958 77.0369 38.8783 76.9566L18.6303 56.5797C18.6011 56.5476 18.5639 56.5238 18.5225 56.5105C18.481 56.4975 18.4368 56.4955 18.3944 56.5047L18.4266 56.5263C18.3527 56.5394 18.2864 56.5797 18.2407 56.6392C18.1951 56.6986 18.1734 56.7731 18.1799 56.8479L17.3491 67.8793C18.9642 70.7707 20.9815 73.4519 23.3648 75.8357C24.4448 76.9159 25.5859 77.921 26.78 78.8476ZM16.757 66.775L17.5042 56.7087C17.5102 56.6442 17.4945 56.5795 17.4595 56.5251C17.4245 56.4706 17.3723 56.4295 17.3112 56.4082C16.9462 56.294 16.6119 56.0986 16.3333 55.8368C16.0547 55.5749 15.839 55.2533 15.7025 54.8961C15.6812 54.8349 15.6401 54.7828 15.5856 54.7479C15.5312 54.7128 15.4666 54.697 15.4022 54.703L13.0644 55.0094C13.6166 59.1281 14.8708 63.1063 16.757 66.775ZM12.9841 54.3678L15.3057 54.0704C15.3682 54.0578 15.4254 54.0265 15.4696 53.9806C15.5137 53.9344 15.5426 53.876 15.5524 53.813C15.6058 53.2366 15.8602 52.6976 16.2709 52.2899C16.3977 52.161 16.5379 52.0461 16.6892 51.9468C16.7457 51.9149 16.7888 51.8638 16.8105 51.8028C16.8322 51.7416 16.831 51.6746 16.8071 51.6144L13.566 42.5024C13.0229 45.0073 12.7429 47.5812 12.7426 50.184C12.7425 51.5891 12.8239 52.9858 12.9841 54.3678ZM13.85 41.2928L17.4292 51.4105C17.4525 51.4725 17.4956 51.5252 17.5518 51.56C17.6081 51.5949 17.6743 51.6102 17.7402 51.6037C18.1398 51.5512 18.5462 51.6029 18.9199 51.7539C18.9845 51.778 19.0557 51.7785 19.1206 51.7549C19.1855 51.7313 19.2398 51.6852 19.2738 51.625L33.2157 27.3662C33.2769 27.2571 33.2942 27.1286 33.2643 27.0072C33.2345 26.8858 33.1597 26.7802 33.0549 26.7117C32.8931 26.6056 32.7421 26.4835 32.6044 26.3473C32.4769 26.2326 32.3683 26.0987 32.2828 25.9505C32.2289 25.8697 32.1521 25.8072 32.0621 25.7709C31.9723 25.7345 31.8734 25.726 31.7786 25.7465L20.4091 27.8844C17.3074 31.8628 15.0794 36.4329 13.85 41.2928ZM21.0526 27.0827L31.4676 25.0923C31.584 25.0698 31.6886 25.0068 31.7633 24.9146C31.8378 24.8224 31.8774 24.7069 31.8752 24.5884C31.8679 24.2559 31.9289 23.9254 32.0543 23.6174C32.1797 23.3093 32.3671 23.0303 32.6044 22.7974C32.7125 22.6894 32.8311 22.5924 32.9583 22.5078C33.0514 22.4449 33.1201 22.3522 33.1532 22.2449C33.1863 22.1377 33.182 22.0224 33.1407 21.918L31.771 18.3811C28.7336 19.9938 25.9148 22.044 23.4128 24.492L23.3711 24.5357L23.3701 24.5347C22.5543 25.3503 21.7813 26.2009 21.0526 27.0827ZM32.3764 18.0669L33.8056 21.7571C33.8415 21.8519 33.9065 21.9331 33.9912 21.9889C34.076 22.0447 34.1761 22.0725 34.2774 22.0681C34.6201 22.0577 34.961 22.117 35.28 22.2424C35.5988 22.3677 35.8891 22.5565 36.1329 22.7974C36.5891 23.2532 36.8508 23.8684 36.8621 24.5133C36.8603 24.6277 36.8992 24.7391 36.9719 24.8275C37.0447 24.9159 37.1462 24.9756 37.2589 24.9959L63.7702 30.1116C63.927 30.1397 64.0885 30.1198 64.2337 30.0546C64.3792 29.9897 64.5016 29.8826 64.5852 29.7468C64.7698 29.4373 64.9933 29.1524 65.2501 28.8998C65.37 28.7796 65.4485 28.6241 65.4736 28.456C65.4987 28.2882 65.4691 28.1167 65.3896 27.9667L58.9851 15.6066C55.7639 14.663 52.4 14.1629 48.9842 14.1443C43.1622 14.1125 37.4758 15.4809 32.3764 18.0669ZM74.8026 25.137L71.7493 28.1167C71.6251 28.2383 71.4643 28.3156 71.292 28.3369C71.1194 28.3582 70.9448 28.3224 70.7948 28.2348C70.2081 27.8869 69.5507 27.6754 68.8712 27.616C68.1919 27.5566 67.5076 27.6506 66.8695 27.8917C66.6919 27.9604 66.4953 27.9614 66.3172 27.8942C66.1388 27.8267 65.9918 27.696 65.9043 27.527L59.915 15.8926C65.3436 17.6422 70.3343 20.6635 74.441 24.7703C74.5625 24.8917 74.683 25.014 74.8026 25.137ZM65.6898 7.1502L47.8655 2.86035C47.789 2.95281 47.6889 3.02315 47.576 3.06411C47.5025 3.36007 47.3753 3.63998 47.2007 3.88991L47.3186 4.29744L53.5175 7.19309C53.7618 6.75927 54.1374 6.41392 54.5899 6.20643C55.0311 5.9947 55.5242 5.91543 56.0096 5.97824C56.4952 6.04105 56.9517 6.24325 57.3247 6.56033C57.5941 6.80236 57.8096 7.09832 57.9573 7.42902C57.9929 7.51142 58.0536 7.58055 58.1304 7.62673C58.2074 7.67291 58.297 7.69378 58.3865 7.68643L65.6898 7.28961C65.7039 7.28404 65.7157 7.27441 65.7242 7.26199C65.7325 7.24958 65.737 7.2349 65.737 7.2199C65.737 7.2049 65.7325 7.19023 65.7242 7.17781C65.7157 7.16537 65.7039 7.15576 65.6898 7.1502ZM44.4551 45.7374L35.4466 27.2696C35.3904 27.1798 35.3069 27.1106 35.2085 27.0719C35.11 27.0333 35.0016 27.0275 34.8995 27.0551C34.7463 27.0709 34.5917 27.0709 34.4385 27.0551C34.3522 27.0579 34.2679 27.0817 34.1929 27.1246C34.1182 27.1678 34.0552 27.2285 34.0093 27.3017L19.7242 52.215L19.81 52.2899C19.9769 52.4537 20.1179 52.6416 20.2283 52.8478C20.2549 52.8942 20.2943 52.9321 20.3418 52.9569C20.3894 52.9815 20.443 52.992 20.4964 52.987L41.1305 51.2068C41.4039 51.175 41.6585 51.0516 41.8532 50.8569C42.0478 50.6623 42.171 50.4077 42.2031 50.1343C42.2921 49.5275 42.5059 48.9453 42.8307 48.4251C43.1555 47.9046 43.5844 47.4568 44.0906 47.1099C44.3084 46.965 44.4654 46.7455 44.5326 46.4926C44.5998 46.2398 44.5722 45.9711 44.4551 45.7374ZM43.8654 77.4606L69.6044 64.9235C69.6287 64.8985 69.6448 64.8666 69.6505 64.8322C69.6563 64.7976 69.6515 64.7622 69.6365 64.7306C69.5969 64.3589 69.641 63.9829 69.7652 63.6305C69.8896 63.2778 70.091 62.9575 70.3551 62.6929L70.4409 62.6179C70.4652 62.601 70.4851 62.5787 70.4989 62.5524C70.5127 62.5263 70.5197 62.4972 70.5197 62.4676C70.5197 62.438 70.5127 62.4089 70.4989 62.3828C70.4851 62.3567 70.4652 62.3342 70.4409 62.3176L51.4584 53.963C51.1404 53.8218 50.79 53.7691 50.4445 53.8108C50.0991 53.8524 49.7713 53.9864 49.4956 54.1991C48.9962 54.5926 48.4484 54.9207 47.8655 55.1751C47.3104 55.3554 46.8014 55.6557 46.3747 56.0542C45.9701 56.4741 45.6977 57.0039 45.5919 57.5773L42.1278 76.0235C42.1075 76.1299 42.1228 76.2402 42.1712 76.3371C42.2197 76.4339 42.2987 76.5121 42.396 76.5598C42.6232 76.6805 42.8327 76.832 43.0181 77.0103C43.1099 77.1049 43.1959 77.2052 43.2754 77.3106C43.3401 77.4011 43.435 77.4658 43.5428 77.4934C43.6509 77.5208 43.765 77.5092 43.8654 77.4606ZM20.3726 54.92C20.247 55.2413 20.0554 55.5328 19.81 55.7756C19.7206 55.8794 19.6199 55.973 19.5097 56.0542C19.4782 56.0806 19.4529 56.1132 19.4355 56.1503C19.4181 56.1874 19.4091 56.2278 19.4091 56.269C19.4091 56.3098 19.4181 56.3502 19.4355 56.3873C19.4529 56.4245 19.4782 56.4571 19.5097 56.4834L39.2322 76.3667C39.3471 76.4873 39.4968 76.5688 39.6604 76.5997C39.8239 76.6303 39.9932 76.609 40.144 76.5382C40.3853 76.4243 40.6416 76.3448 40.9053 76.3024C41.0472 76.2844 41.1799 76.2217 41.284 76.1233C41.3881 76.025 41.4584 75.8961 41.4845 75.7554L45.1416 56.2366C45.1946 55.9351 45.1542 55.6246 45.0257 55.3466C44.8973 55.0687 44.6871 54.8367 44.423 54.6817C44.0766 54.487 43.759 54.2452 43.4791 53.963C43.0755 53.5589 42.7517 53.0823 42.5247 52.5581C42.4203 52.3108 42.241 52.1023 42.0122 51.9621C41.7834 51.8216 41.5163 51.7564 41.2484 51.7752L20.7967 53.5983C20.759 53.6011 20.7223 53.6113 20.6887 53.6287C20.6552 53.6457 20.6254 53.6698 20.6014 53.6989C20.5773 53.728 20.5594 53.7616 20.5487 53.7977C20.538 53.8338 20.5348 53.872 20.5393 53.9093C20.5551 54.2542 20.4983 54.5984 20.3726 54.92ZM71.508 62.0078C71.5283 62.0078 71.5484 62.0038 71.5669 61.9958V62.0387C71.5933 62.0409 71.6198 62.0369 71.6444 62.0269C71.669 62.0171 71.6911 62.0018 71.7086 61.982C71.7264 61.9624 71.7392 61.9388 71.7463 61.9133C71.7533 61.8877 71.7543 61.8608 71.7493 61.835L67.5666 37.0181C67.5463 36.8769 67.4861 36.7444 67.393 36.6361C67.2999 36.5277 67.1778 36.4482 67.0411 36.4068C66.6611 36.2728 66.3004 36.089 65.9688 35.86C65.8363 35.7687 65.6791 35.7197 65.5183 35.7197C65.3575 35.7197 65.2002 35.7687 65.0678 35.86L50.654 46.5844C50.4139 46.7623 50.2537 47.0272 50.2075 47.3222C50.1614 47.6171 50.2331 47.9186 50.4074 48.1609C50.5198 48.3252 50.6201 48.4973 50.7077 48.6759C51.1185 49.5895 51.2706 50.5986 51.1474 51.5929C51.0772 51.9754 51.1374 52.3702 51.3182 52.7144C51.4991 53.0585 51.79 53.3319 52.1447 53.4912L71.449 61.9958C71.4676 62.0038 71.4877 62.0078 71.508 62.0078ZM49.8711 46.3379L64.4028 35.5274C64.5586 35.4115 64.6649 35.2412 64.7008 35.0505C64.7364 34.8596 64.699 34.6625 64.5959 34.4979C64.0592 33.6338 63.8321 32.6126 63.9526 31.6023C63.9756 31.4061 63.9245 31.2082 63.8096 31.0477C63.6944 30.8869 63.5236 30.775 63.3305 30.7336L37.0123 25.6502C36.9137 25.6309 36.8116 25.6419 36.7196 25.6823C36.6278 25.7224 36.5503 25.7899 36.4976 25.8755C36.3942 26.0425 36.2718 26.1973 36.1329 26.3365C36.0544 26.406 36.0014 26.4995 35.9819 26.6024C35.9626 26.7052 35.9779 26.8116 36.0255 26.9049L45.1093 45.5442C45.2229 45.7855 45.4063 45.9872 45.6358 46.1229C45.865 46.2589 46.1302 46.3223 46.3963 46.3058C47.0269 46.2614 47.6595 46.3527 48.2517 46.5739C48.5199 46.6725 48.8086 46.7026 49.0913 46.6614C49.374 46.6201 49.6421 46.5089 49.8711 46.3379ZM43.0181 3.80412L42.5783 3.66468L30.8992 8.61946C30.857 8.63582 30.8214 8.66579 30.7981 8.70462C30.7748 8.74348 30.7652 8.78898 30.7705 8.83395C30.7783 8.88796 30.8054 8.93727 30.847 8.97279C30.8884 9.00828 30.9413 9.02755 30.9958 9.027L52.9384 8.19049C52.9918 8.18707 53.0425 8.16641 53.0831 8.13159C53.1237 8.09677 53.1521 8.04969 53.1636 7.99744C53.1729 7.94785 53.1651 7.89658 53.1418 7.85186C53.1185 7.80713 53.0808 7.77151 53.0349 7.75077L46.6 4.74787H46.2568C45.789 4.98119 45.2595 5.06116 44.7436 4.97645C44.2276 4.89175 43.7515 4.64668 43.3828 4.276C43.2406 4.13583 43.1179 3.9771 43.0181 3.80412ZM15.3704 17.8407C15.2821 17.9046 15.2118 17.9902 15.1663 18.0893L10.7692 27.4196C10.7647 27.4374 10.766 27.456 10.7729 27.473C10.7798 27.4898 10.7919 27.5041 10.8074 27.5137C10.823 27.5234 10.8412 27.5277 10.8594 27.5262C10.8776 27.5247 10.8948 27.5174 10.9086 27.5054L25.6334 11.3435C25.6427 11.3365 25.6502 11.3277 25.656 11.3177C25.6617 11.3077 25.6655 11.2966 25.667 11.2852C25.6685 11.2737 25.6678 11.2621 25.6647 11.2509C25.6617 11.2398 25.6567 11.2293 25.6494 11.2202C25.6424 11.211 25.6336 11.2033 25.6239 11.1976C25.6138 11.1918 25.6028 11.1881 25.5913 11.1866C25.5797 11.1851 25.5682 11.1859 25.5569 11.1889C25.5459 11.1919 25.5353 11.1971 25.5263 11.2041L17.161 15.9336C17.0654 15.99 16.9857 16.0698 16.9294 16.1655C16.8731 16.2612 16.8421 16.3696 16.8393 16.4806C16.8384 16.6448 16.8048 16.8071 16.7403 16.9581C16.6759 17.1092 16.5819 17.2458 16.4639 17.36C16.2539 17.576 15.971 17.706 15.6703 17.7246C15.562 17.7369 15.4587 17.7768 15.3704 17.8407ZM2.20736 42.2442C2.17136 42.3087 2.15404 42.3819 2.15733 42.4557L2.83299 52.3757C2.83956 52.3948 2.85188 52.4111 2.86823 52.4229C2.88456 52.4344 2.9041 52.4407 2.92414 52.4407C2.94418 52.4407 2.96372 52.4344 2.98005 52.4229C2.99641 52.4111 3.00872 52.3948 3.0153 52.3757L8.2918 32.3851C8.29817 32.3633 8.29982 32.3402 8.29664 32.3177C8.29345 32.2951 8.28553 32.2735 8.27336 32.2542C8.2612 32.2351 8.24507 32.2186 8.22608 32.206C8.20707 32.1935 8.18559 32.185 8.16312 32.1815C8.13156 32.1697 8.0968 32.1697 8.06524 32.1815C8.03371 32.1932 8.00753 32.2161 7.99152 32.2457L2.83299 39.9137C2.79403 39.9767 2.77341 40.0492 2.77341 40.1229C2.77341 40.1969 2.79403 40.2694 2.83299 40.3321C2.97333 40.5779 3.02939 40.8631 2.99259 41.1438C2.95582 41.4248 2.8282 41.6856 2.62921 41.887C2.55005 41.9676 2.45976 42.0363 2.3611 42.091C2.29659 42.1268 2.24335 42.1798 2.20736 42.2442ZM3.73855 58.7485C3.6691 58.7286 3.59475 58.7354 3.53009 58.7678C3.48584 58.7866 3.44804 58.8179 3.42135 58.8578C3.39468 58.898 3.38029 58.9449 3.37994 58.9928L4.54893 69.5459C4.56852 69.7208 4.63888 69.8861 4.75133 70.0213C4.86375 70.1567 5.01338 70.2561 5.18166 70.3075C5.37109 70.3714 5.54347 70.4778 5.68572 70.6183C5.80855 70.7424 5.90507 70.8899 5.96959 71.0519C6.03408 71.2142 6.06521 71.3876 6.06109 71.5621C6.05755 71.7127 6.09092 71.8616 6.15822 71.9961C6.22551 72.1308 6.32472 72.2469 6.44718 72.3342L14.0295 77.9432C14.0732 77.9748 14.1257 77.9916 14.1796 77.9916C14.2335 77.9916 14.286 77.9748 14.3298 77.9432C14.4284 77.8679 14.5323 77.7999 14.6408 77.7395C14.6715 77.7237 14.6986 77.7019 14.7207 77.6755C14.7428 77.6489 14.7593 77.6183 14.7694 77.5852C14.7794 77.5524 14.7826 77.5175 14.779 77.4834C14.7753 77.449 14.7648 77.4157 14.748 77.3856L3.90544 58.8749C3.86753 58.8134 3.80799 58.7683 3.73855 58.7485ZM13.5683 78.4473L6.60804 73.2994L20.2497 89.8797C20.3248 89.987 20.4857 89.8797 20.432 89.7618L16.7535 82.469C16.7281 82.4171 16.6851 82.3757 16.6321 82.3521C16.5792 82.3285 16.5196 82.3243 16.4639 82.3403C15.9972 82.4582 15.5064 82.4389 15.0504 82.2844C14.5945 82.1301 14.1928 81.8472 13.8937 81.4699C13.5947 81.0929 13.411 80.6371 13.3646 80.158C13.3183 79.6789 13.4114 79.1966 13.6327 78.7692C13.6632 78.717 13.6736 78.6553 13.6617 78.5958C13.6499 78.5366 13.6166 78.4837 13.5683 78.4473ZM24.4527 93.3733C24.5062 93.4247 24.5737 93.4594 24.6468 93.4724L35.8111 95.9607C35.8592 95.9722 35.9091 95.9725 35.9573 95.9614C36.0054 95.9506 36.0506 95.9288 36.089 95.8977C36.1274 95.8666 36.158 95.827 36.1785 95.7821C36.1993 95.7372 36.2094 95.6883 36.2079 95.6389C36.1973 95.4961 36.1973 95.3527 36.2079 95.2099C36.2237 95.1322 36.2167 95.0514 36.1883 94.9774C36.1597 94.9034 36.1108 94.8389 36.0471 94.7915L17.6973 81.7182H17.6437C17.5882 81.7809 17.5272 81.8384 17.4613 81.8898C17.4139 81.9244 17.3803 81.9746 17.3665 82.0315C17.3528 82.0885 17.3598 82.1487 17.3863 82.2008L22.266 91.853C22.3261 91.9764 22.4241 92.0772 22.5457 92.141C22.6672 92.2047 22.806 92.2277 22.9416 92.2069C23.1363 92.1828 23.334 92.2029 23.5197 92.2661C23.7055 92.3293 23.8745 92.4337 24.0141 92.5716C24.1794 92.7407 24.2945 92.9522 24.3465 93.1829C24.3623 93.2554 24.3993 93.3216 24.4527 93.3733ZM56.515 97.4459C56.592 97.4459 56.668 97.4256 56.7348 97.3869L64.0489 94.1481C64.078 94.1311 64.1018 94.1068 64.1186 94.0777C64.1352 94.0486 64.1439 94.0154 64.1439 93.9818C64.1439 93.9482 64.1352 93.9154 64.1186 93.8863C64.1018 93.8569 64.078 93.8328 64.0489 93.8158C63.9157 93.6821 63.797 93.5346 63.6952 93.3761C63.6631 93.3289 63.6199 93.2905 63.5693 93.2642C63.5186 93.2381 63.4624 93.2248 63.4055 93.2258L41.4416 94.8452C41.3972 94.849 41.354 94.862 41.3149 94.8833C41.2758 94.9047 41.2414 94.934 41.2143 94.9694C41.187 95.0045 41.1674 95.0451 41.1566 95.0883C41.1461 95.1317 41.1443 95.1766 41.1521 95.2205C41.1679 95.3597 41.1679 95.4999 41.1521 95.6389C41.1564 95.7402 41.1962 95.8368 41.265 95.9113C41.3337 95.986 41.4268 96.0337 41.5273 96.0465L54.3112 97.623C54.3985 97.6363 54.4878 97.6287 54.5718 97.6006C54.6556 97.5728 54.7318 97.5251 54.7935 97.4619C54.9363 97.3134 55.1189 97.2093 55.3193 97.1617C55.4879 97.117 55.6649 97.1143 55.835 97.1534C56.0051 97.1928 56.1631 97.2728 56.295 97.3869C56.362 97.4256 56.4378 97.4459 56.515 97.4459ZM80.3504 86.2762L80.6291 86.0833L83.4284 79.2623C83.4992 79.0922 83.51 78.9029 83.4593 78.7258C83.4086 78.5484 83.2995 78.3937 83.1495 78.2866C82.9215 78.1328 82.7095 77.957 82.5166 77.761C82.4748 77.7244 82.4354 77.6851 82.3988 77.6429C82.3235 77.5634 82.2329 77.5002 82.1324 77.4568C82.032 77.4136 81.9237 77.3913 81.8143 77.3913C81.7049 77.3913 81.5966 77.4136 81.496 77.4568C81.3957 77.5002 81.3049 77.5634 81.2299 77.6429L68.2637 90.8557C68.2047 90.9151 68.1636 90.9896 68.1448 91.0711C68.1257 91.1524 68.1297 91.2377 68.1566 91.317C68.2102 91.4983 68.2426 91.6854 68.2531 91.8746C68.2571 91.9257 68.2737 91.9749 68.3008 92.0185C68.3279 92.0619 68.365 92.0986 68.4091 92.1247C68.4533 92.151 68.503 92.1663 68.5541 92.1693C68.6053 92.1726 68.6565 92.1633 68.7034 92.1427L78.8918 87.6919L79.1063 87.4024C79.1381 87.12 79.2626 86.8559 79.4602 86.6517C79.6983 86.4176 80.0166 86.2832 80.3504 86.2762ZM93.4541 57.0112C93.4935 56.9191 93.5088 56.8188 93.4987 56.7192L92.6301 48.783C92.6213 48.7188 92.5992 48.6571 92.5651 48.6019C92.531 48.5467 92.4859 48.4996 92.4322 48.463C92.3785 48.4266 92.3178 48.402 92.2538 48.3905C92.1901 48.3792 92.1247 48.3814 92.0617 48.397C91.7075 48.4667 91.3433 48.4667 90.9891 48.397C90.9307 48.3862 90.8707 48.3869 90.8125 48.3995C90.7543 48.412 90.6994 48.4359 90.6505 48.4697C90.6016 48.5038 90.5599 48.547 90.5278 48.5971C90.4957 48.6471 90.4739 48.703 90.4636 48.7617L86.3025 69.6102C86.29 69.6688 86.2892 69.729 86.3003 69.788C86.3115 69.8467 86.3341 69.9026 86.367 69.9525C86.4001 70.0025 86.4425 70.0453 86.4921 70.0787C86.5418 70.1118 86.5977 70.1349 86.6564 70.1464C86.8717 70.1908 87.0834 70.2518 87.2893 70.3288C87.3911 70.3622 87.5015 70.3591 87.6013 70.32C87.7012 70.2809 87.7842 70.2081 87.8361 70.1143L92.7267 61.2021C92.7849 61.1108 92.8157 61.0047 92.8157 60.8966C92.8157 60.7883 92.7849 60.6822 92.7267 60.5909C92.4068 60.112 92.2631 59.5371 92.3198 58.9639C92.3765 58.391 92.6301 57.8555 93.0377 57.4486C93.1107 57.3746 93.1897 57.3064 93.2735 57.2447C93.3525 57.1835 93.4147 57.103 93.4541 57.0112Z" fill="white"/>
<path fill-rule="evenodd" clip-rule="evenodd" d="M66.1581 67.3321L70.9279 72.1028L68.9049 80.527C64.3508 83.512 59.171 85.4408 53.7503 86.154L43.3933 80.8288C43.3432 80.8027 43.299 80.7661 43.2647 80.7212C43.23 80.6765 43.2057 80.6246 43.1934 80.5692C43.1811 80.514 43.1811 80.4568 43.1934 80.4013C43.2057 80.3462 43.23 80.2942 43.2647 80.2496L43.447 79.9493C43.6612 79.5287 43.7576 79.0581 43.7259 78.5873C43.7212 78.498 43.742 78.4095 43.7856 78.3317C43.8293 78.2539 43.894 78.19 43.9725 78.1476L66.1581 67.3321ZM65.6677 66.8415L43.8654 77.4611C43.7651 77.5097 43.6509 77.5213 43.5428 77.4939C43.435 77.4663 43.3402 77.4016 43.2754 77.3111C43.1959 77.2057 43.1099 77.1054 43.0181 77.0108C42.8327 76.8325 42.6233 76.681 42.396 76.5603C42.2987 76.5126 42.2197 76.4344 42.1713 76.3376C42.1229 76.2407 42.1076 76.1304 42.1279 76.024L45.5919 57.5778C45.6978 57.0044 45.9702 56.4746 46.3748 56.0547C46.8014 55.6562 47.3104 55.3559 47.8655 55.1756C48.4484 54.9212 48.9963 54.5931 49.4957 54.1996C49.7713 53.9869 50.0992 53.8529 50.4446 53.8113C50.79 53.7696 51.1404 53.8223 51.4585 53.9635L53.8406 55.012L65.6677 66.8415ZM51.1753 52.3461L52.4591 53.6302L52.1447 53.4917C51.7901 53.3324 51.4991 53.059 51.3182 52.7149C51.2563 52.597 51.2085 52.4733 51.1753 52.3461ZM31.1399 32.3065L44.3471 45.5165L44.4551 45.7379C44.5723 45.9716 44.5999 46.2403 44.5326 46.4931C44.4654 46.746 44.3084 46.9655 44.0907 47.1104C43.5845 47.4573 43.1555 47.9051 42.8307 48.4256C42.5059 48.9458 42.2922 49.528 42.2031 50.1348C42.171 50.4082 42.0479 50.6628 41.8532 50.8574C41.6586 51.0521 41.404 51.1755 41.1305 51.2073L20.4964 52.9875C20.4431 52.9925 20.3894 52.982 20.3418 52.9574C20.2943 52.9326 20.2549 52.8947 20.2283 52.8483C20.1179 52.6421 19.9769 52.4542 19.81 52.2905L19.7243 52.2155L31.1399 32.3065ZM25.7207 26.8862L30.6553 31.8218L19.2738 51.6255C19.2399 51.6857 19.1855 51.7318 19.1207 51.7554C19.0557 51.779 18.9845 51.7785 18.9199 51.7544C18.5462 51.6034 18.1398 51.5517 17.7402 51.6042C17.6743 51.6107 17.6081 51.5954 17.5519 51.5605C17.4956 51.5257 17.4525 51.473 17.4292 51.411L13.85 41.2933C15.0794 36.4334 17.3075 31.8633 20.4092 27.8849L25.7207 26.8862ZM21.0527 27.0832C21.7813 26.2014 22.5543 25.3508 23.3702 24.5352L25.1373 26.3026L21.0527 27.0832ZM12.9842 54.3683C12.8239 52.9863 12.7425 51.5896 12.7427 50.1845C12.7429 47.5817 13.0229 45.0078 13.566 42.503L16.8072 51.6149C16.831 51.6751 16.8323 51.7421 16.8106 51.8033C16.7889 51.8643 16.7457 51.9154 16.6892 51.9473C16.5379 52.0466 16.3978 52.1615 16.2709 52.2905C15.8602 52.6981 15.6058 53.2371 15.5524 53.8135C15.5426 53.8765 15.5137 53.9349 15.4696 53.9811C15.4255 54.027 15.3682 54.0583 15.3057 54.0709L12.9842 54.3683ZM17.3491 67.8798L18.1799 56.8484C18.1734 56.7736 18.1951 56.6991 18.2407 56.6397C18.2864 56.5802 18.3527 56.5399 18.4266 56.5268L18.3944 56.5052C18.4368 56.496 18.481 56.498 18.5225 56.511C18.5639 56.5243 18.6011 56.5481 18.6303 56.5802L38.8783 76.9571C38.9581 77.0374 39.0102 77.1407 39.0275 77.2524C39.0449 77.3642 39.0265 77.4786 38.9749 77.5792C38.8597 77.8012 38.7802 78.0402 38.7391 78.2871C38.7065 78.4621 38.6134 78.6202 38.4762 78.7338C38.339 78.8474 38.1664 78.9094 37.9883 78.9089L26.78 78.8481C25.5859 77.9215 24.4448 76.9164 23.3648 75.8362C20.9815 73.4524 18.9643 70.7712 17.3491 67.8798ZM39.4556 85.1808C35.2421 84.0292 31.2595 82.1228 27.7078 79.5445L38.503 79.6491C38.6099 79.6508 38.7142 79.6819 38.8051 79.7386C38.8956 79.7953 38.9691 79.8753 39.0178 79.9707C39.1379 80.1796 39.2819 80.374 39.4467 80.5498L39.5112 80.6035C39.6411 80.7209 39.7402 80.8682 39.8001 81.0327C39.8598 81.1973 39.8784 81.3738 39.8543 81.5472L39.4556 85.1808ZM52.6064 86.286C51.4178 86.4041 50.2192 86.464 49.0143 86.4638C45.9929 86.4635 43.0105 86.0863 40.1297 85.3581L40.5085 81.9761C40.5343 81.7772 40.6306 81.5938 40.7804 81.4599C40.9301 81.3259 41.1228 81.2504 41.3237 81.2469C41.5652 81.2469 41.805 81.2033 42.0313 81.1182C42.2109 81.0488 42.4098 81.0488 42.5892 81.1182L52.6064 86.286ZM16.757 66.7755C14.8709 63.1068 13.6167 59.1286 13.0644 55.0099L15.4022 54.7035C15.4667 54.6975 15.5312 54.7133 15.5857 54.7484C15.6401 54.7833 15.6812 54.8354 15.7025 54.8966C15.839 55.2538 16.0547 55.5754 16.3333 55.8373C16.6119 56.0991 16.9463 56.2945 17.3112 56.4087C17.3723 56.43 17.4245 56.4711 17.4595 56.5256C17.4945 56.58 17.5103 56.6447 17.5043 56.7092L16.757 66.7755ZM71.4643 72.6393L74.666 75.8417C73.1304 77.377 71.4713 78.7604 69.712 79.9823L71.4643 72.6393ZM20.3727 54.9205C20.2471 55.2418 20.0554 55.5333 19.81 55.7761C19.7207 55.8799 19.62 55.9735 19.5098 56.0547C19.4783 56.0811 19.4529 56.1137 19.4355 56.1508C19.4181 56.1879 19.4091 56.2283 19.4091 56.2695C19.4091 56.3103 19.4181 56.3507 19.4355 56.3878C19.4529 56.425 19.4783 56.4576 19.5098 56.4839L39.2322 76.3672C39.3471 76.4878 39.4969 76.5693 39.6604 76.6002C39.8239 76.6308 39.9933 76.6095 40.144 76.5387C40.3853 76.4249 40.6417 76.3453 40.9053 76.3029C41.0473 76.2849 41.18 76.2222 41.2841 76.1238C41.3882 76.0255 41.4584 75.8966 41.4845 75.7559L45.1417 56.2371C45.1946 55.9356 45.1542 55.6251 45.0258 55.3471C44.8973 55.0692 44.6871 54.8372 44.423 54.6822C44.0766 54.4875 43.7591 54.2457 43.4791 53.9635C43.0755 53.5594 42.7517 53.0828 42.5247 52.5586C42.4203 52.3113 42.241 52.1028 42.0122 51.9626C41.7835 51.8221 41.5163 51.7569 41.2484 51.7757L20.7967 53.5988C20.7591 53.6016 20.7223 53.6119 20.6887 53.6292C20.6552 53.6462 20.6255 53.6703 20.6014 53.6994C20.5773 53.7285 20.5594 53.7621 20.5488 53.7982C20.5381 53.8343 20.5349 53.8725 20.5393 53.9098C20.5551 54.2547 20.4983 54.5989 20.3727 54.9205Z" fill="white"/>
<path fill-rule="evenodd" clip-rule="evenodd" d="M32.3762 18.0669C37.4757 15.4809 43.1621 14.1125 48.9841 14.1442C52.3998 14.1628 55.7637 14.6629 58.9849 15.6065L65.3895 27.9668C65.469 28.1168 65.4986 28.2884 65.4735 28.4562C65.4484 28.6242 65.3699 28.7797 65.25 28.8999C64.9932 29.1525 64.7697 29.4374 64.5851 29.747C64.5015 29.8827 64.3791 29.9898 64.2336 30.0547C64.0884 30.12 63.9269 30.1398 63.7701 30.1117L37.2588 24.996C37.1462 24.9757 37.0446 24.916 36.9718 24.8276C36.8991 24.7392 36.8602 24.6279 36.862 24.5134C36.8507 23.8686 36.589 23.2533 36.1328 22.7975C35.889 22.5567 35.5987 22.3679 35.2799 22.2425C34.9609 22.1172 34.62 22.0579 34.2773 22.0682C34.176 22.0726 34.0759 22.0449 33.9911 21.989C33.9064 21.9332 33.8414 21.8521 33.8055 21.7572L32.3762 18.0669ZM24.8221 26.3625L23.1875 24.7279L23.4127 24.492C25.9147 22.044 28.7334 19.9938 31.7708 18.381L33.1406 21.9181C33.1819 22.0225 33.1862 22.1378 33.1531 22.2451C33.12 22.3523 33.0513 22.445 32.9582 22.5079C32.831 22.5926 32.7124 22.6895 32.6043 22.7975C32.367 23.0304 32.1796 23.3095 32.0542 23.6175C31.9288 23.9255 31.8678 24.256 31.8751 24.5885C31.8773 24.707 31.8377 24.8225 31.7632 24.9147C31.6885 25.0069 31.5839 25.0699 31.4675 25.0925L24.8221 26.3625ZM30.5186 32.059L25.4047 26.9452L31.7785 25.7466C31.8733 25.7261 31.9722 25.7346 32.062 25.771C32.152 25.8073 32.2288 25.8698 32.2827 25.9506C32.3682 26.0988 32.4768 26.2328 32.6043 26.3474C32.742 26.4836 32.893 26.6058 33.0548 26.7119C33.1596 26.7803 33.2344 26.8859 33.2642 27.0073C33.2941 27.1287 33.2768 27.2572 33.2156 27.3663L30.5186 32.059ZM44.5623 46.1027L31.0035 32.5439L34.0092 27.3018C34.0551 27.2286 34.1181 27.1679 34.1928 27.1247C34.2678 27.0818 34.3521 27.058 34.4384 27.0553C34.5916 27.0711 34.7462 27.0711 34.8994 27.0553C35.0015 27.0277 35.1099 27.0334 35.2084 27.0721C35.3068 27.1107 35.3903 27.1799 35.4465 27.2697L44.455 45.7375C44.5128 45.8528 44.5488 45.9766 44.5623 46.1027ZM65.4209 66.9613L53.1809 54.7213L70.4408 62.3177C70.4652 62.3343 70.485 62.3569 70.4988 62.3829C70.5126 62.409 70.5196 62.4381 70.5196 62.4677C70.5196 62.4973 70.5126 62.5264 70.4988 62.5525C70.485 62.5788 70.4652 62.6012 70.4408 62.618L70.355 62.693C70.0909 62.9576 69.8895 63.2779 69.7651 63.6306C69.6409 63.983 69.5968 64.359 69.6364 64.7308C69.6514 64.7624 69.6562 64.7977 69.6504 64.8324C69.6447 64.8667 69.6286 64.8986 69.6043 64.9237L65.4209 66.9613ZM70.8569 72.3973L65.9115 67.4519L69.7114 65.5994C69.7317 65.5884 69.754 65.5816 69.7771 65.5793C69.8002 65.5771 69.8235 65.5796 69.8453 65.5866C69.8674 65.5936 69.888 65.6049 69.9053 65.6202C69.9228 65.6353 69.9371 65.6536 69.9474 65.6744C70.0606 65.8788 70.2013 66.0665 70.3656 66.232C70.7805 66.6451 71.327 66.8995 71.91 66.9507C71.9396 66.9451 71.9699 66.9477 71.9983 66.9577C72.0266 66.9677 72.0517 66.985 72.0713 67.0079C72.0908 67.0307 72.1041 67.058 72.1096 67.0876C72.1152 67.117 72.1129 67.1476 72.1031 67.1759V67.208L70.8569 72.3973ZM79.415 69.8729C78.0704 71.9905 76.5 73.9783 74.7191 75.7984L74.4833 76.0236L71.3937 72.9341L72.8215 66.9507C72.8305 66.9218 72.8458 66.8952 72.8662 66.8732C72.8865 66.8508 72.9115 66.8333 72.9396 66.822C73.2996 66.7031 73.6267 66.5009 73.8941 66.232C73.9999 66.1219 74.1424 66.0544 74.2947 66.0424C74.4469 66.0306 74.5984 66.0752 74.7198 66.1678L79.415 69.8729ZM84.998 52.6707C84.632 58.5752 82.8292 64.2719 79.7847 69.278L74.8593 65.4278C74.7753 65.3611 74.71 65.2736 74.6704 65.1737C74.631 65.0739 74.6185 64.9655 74.634 64.8594C74.6927 64.4714 74.6594 64.0751 74.5362 63.7023C74.4133 63.3298 74.2044 62.9912 73.9262 62.7145L84.998 52.6707ZM83.9852 41.6287C84.6826 44.4189 85.0511 47.304 85.067 50.2272C85.0695 50.6734 85.0637 51.1187 85.0497 51.5631L73.7009 61.8993C73.5968 61.9977 73.4684 62.0664 73.3289 62.0985C73.1895 62.1304 73.044 62.1246 72.9073 62.0817C72.7595 62.0396 72.6269 61.9553 72.526 61.8391C72.4252 61.723 72.3602 61.58 72.3389 61.4275L68.3601 37.5439C68.3436 37.4409 68.3476 37.3355 68.3719 37.2342C68.3965 37.1328 68.4412 37.0375 68.5031 36.9535C68.5651 36.8694 68.6431 36.799 68.7326 36.7455C68.8224 36.6921 68.9218 36.6572 69.0251 36.6429C70.0142 36.5098 70.9327 36.058 71.6418 35.3559L71.9208 35.0557C72.0389 34.9092 72.2057 34.8103 72.3908 34.7767C72.5759 34.7434 72.7671 34.7775 72.9289 34.8733L83.9852 41.6287ZM80.166 32.2137C81.7007 34.8584 82.8951 37.6868 83.7205 40.6303L73.1433 34.1657C72.9968 34.0704 72.886 33.9292 72.8278 33.7644C72.7696 33.5996 72.7673 33.4202 72.8215 33.2539C72.8652 33.121 72.8973 32.9848 72.9181 32.8465C72.9507 32.6685 73.045 32.5077 73.1842 32.392C73.3232 32.2764 73.4988 32.2132 73.6796 32.2137H80.166ZM75.2656 25.6223C76.9865 27.4593 78.4997 29.4577 79.7901 31.5808H73.5617C73.3904 31.5786 73.2246 31.5194 73.0907 31.4128C72.9567 31.3059 72.8621 31.1577 72.8215 30.9911C72.6893 30.4689 72.4641 29.9747 72.1568 29.5325C72.0557 29.3818 72.0113 29.2001 72.0309 29.0198C72.0504 28.8392 72.133 28.6716 72.2639 28.546L75.2656 25.6223ZM74.8025 25.137L71.7492 28.1168C71.625 28.2384 71.4642 28.3157 71.2919 28.337C71.1193 28.3583 70.9448 28.3225 70.7948 28.2349C70.208 27.887 69.5506 27.6756 68.8711 27.6161C68.1918 27.5567 67.5076 27.6507 66.8694 27.8918C66.6918 27.9605 66.4952 27.9615 66.3171 27.8943C66.1387 27.8268 65.9917 27.6961 65.9042 27.5271L59.9148 15.8925C65.3434 17.6421 70.3342 20.6634 74.4409 24.7702C74.5624 24.8917 74.6829 25.014 74.8025 25.137ZM71.5079 62.0079C71.5282 62.0079 71.5483 62.0039 71.5668 61.9959V62.0388C71.5932 62.0411 71.6197 62.037 71.6443 62.027C71.6689 62.0172 71.691 62.0019 71.7085 61.9821C71.7264 61.9625 71.7391 61.939 71.7462 61.9134C71.7532 61.8878 71.7542 61.861 71.7492 61.8351L67.5665 37.0182C67.5462 36.877 67.486 36.7445 67.3929 36.6362C67.2999 36.5278 67.1777 36.4483 67.041 36.4069C66.661 36.273 66.3003 36.0891 65.9687 35.8601C65.8362 35.7688 65.679 35.7199 65.5182 35.7199C65.3574 35.7199 65.2001 35.7688 65.0677 35.8601L50.6539 46.5846C50.4139 46.7624 50.2536 47.0273 50.2074 47.3223C50.1613 47.6173 50.233 47.9188 50.4073 48.1611C50.5197 48.3254 50.62 48.4974 50.7076 48.676C51.1185 49.5896 51.2705 50.5987 51.1473 51.593C51.0771 51.9755 51.1373 52.3703 51.3181 52.7145C51.499 53.0586 51.7899 53.332 52.1446 53.4913L71.4489 61.9959C71.4675 62.0039 71.4876 62.0079 71.5079 62.0079ZM49.871 46.338L64.4027 35.5275C64.5585 35.4116 64.6648 35.2413 64.7007 35.0506C64.7363 34.8598 64.6989 34.6626 64.5959 34.498C64.0591 33.6339 63.8321 32.6128 63.9525 31.6024C63.9755 31.4062 63.9244 31.2083 63.8095 31.0478C63.6943 30.887 63.5235 30.7751 63.3304 30.7338L37.0122 25.6503C36.9136 25.631 36.8115 25.642 36.7195 25.6824C36.6277 25.7226 36.5502 25.79 36.4975 25.8756C36.3941 26.0426 36.2717 26.1974 36.1328 26.3366C36.0543 26.4061 36.0013 26.4997 35.9818 26.6025C35.9625 26.7053 35.9778 26.8117 36.0254 26.905L45.1092 45.5443C45.2228 45.7857 45.4062 45.9873 45.6357 46.123C45.865 46.259 46.1301 46.3224 46.3962 46.3059C47.0268 46.2615 47.6594 46.3528 48.2517 46.574C48.5198 46.6726 48.8085 46.7027 49.0912 46.6616C49.3739 46.6202 49.642 46.5091 49.871 46.338Z" fill="white"/>
</svg>
