<svg width="140" height="140" viewBox="0 0 140 140" fill="none" xmlns="http://www.w3.org/2000/svg">
<path d="M119.502 32.0775L78.4813 103.286C77.2442 105.035 76.0396 105.521 74.0537 105.521C72.5886 105.521 71.0585 104.582 70.212 103.092L30.2327 32.0775H19.7495L60.3148 104.031C61.2915 106.006 63.2775 107.01 65.7192 107.01H73.077C77.0163 107.01 77.993 106.524 79.9464 103.027L120.967 32.0452H119.502V32.0775Z" fill="white"/>
<path d="M119.503 32.0775L78.4814 103.286C77.2768 105.002 76.0722 105.488 74.1514 105.521V105.488C72.5236 105.391 71.4492 104.808 70.3423 103.286L30.2653 32.0775H28.8003L68.9098 103.06C70.5702 106.006 71.5469 106.816 74.184 106.978V107.01C77.2443 106.913 78.221 106.201 79.979 103.06L121 32.0775H119.503Z" fill="white"/>
<path d="M116.963 32.1097L83.3324 90.4626C82.0953 92.2113 80.8907 92.697 78.9047 92.697C77.4397 92.697 75.9095 91.7579 75.0631 90.2683L42.3113 32.1097H31.8281L65.1659 91.2074C66.1426 93.1827 68.1286 94.1866 70.5703 94.1866H77.9281C81.8674 94.1866 82.8441 93.7009 84.7975 90.2036L118.396 32.1097H116.963Z" fill="white"/>
<path d="M116.963 32.1097L83.332 90.4626C82.1274 92.1789 80.9228 92.6646 79.002 92.697C77.3742 92.5999 76.2998 92.017 75.1929 90.495L42.3435 32.1097H40.8784L73.7279 90.236C75.3882 93.1827 76.3649 93.9923 79.002 94.1542V94.1866C82.0623 94.0895 83.039 93.377 84.7971 90.236L118.395 32.1097H116.963Z" fill="white"/>
<path d="M114.424 32.1097L88.0854 77.8659C86.8482 79.6146 85.6436 80.1003 83.6577 80.1003C82.1927 80.1003 80.6625 79.1612 79.816 77.6716L54.1616 32.1097H43.7109L69.9189 78.6107C70.8956 80.586 72.8815 81.5899 75.3232 81.5899H82.681C86.6203 81.5899 87.597 81.1041 89.5504 77.6069L115.856 32.1097H114.424Z" fill="white"/>
<path d="M114.424 32.1097L88.0855 77.8659C86.8809 79.5822 85.6763 80.0679 83.7554 80.1003V80.0679C82.1276 79.9708 81.0533 79.3879 79.9463 77.8659L54.1942 32.1097H52.7617L78.4813 77.6069C80.1417 80.5536 81.1184 81.3632 83.7554 81.5251V81.5575C86.8158 81.4604 87.7924 80.7479 89.5505 77.6069L115.856 32.1097H114.424Z" fill="white"/>
<path d="M111.917 32.1097L92.9037 65.1397C91.6666 66.8883 90.462 67.3741 88.4761 67.3741C87.011 67.3741 85.4809 66.435 84.6344 64.9454L66.1098 32.1097H55.6592L74.7047 65.8845C75.6814 67.8598 77.6673 68.8636 80.1091 68.8636H87.4668C91.4062 68.8636 92.3828 68.3779 94.3362 64.8806L113.317 32.1097H111.917Z" fill="white"/>
<path d="M111.917 32.1097L92.9038 65.1397C91.6992 66.8559 90.4946 67.3417 88.5737 67.3741V67.3417C86.9459 67.2445 85.8716 66.6616 84.7646 65.1397L66.1749 32.1097H64.7424L83.267 64.8806C84.9274 67.8274 85.9041 68.637 88.5412 68.7989V68.8313C91.6015 68.7341 92.5782 68.0217 94.3362 64.8806L113.317 32.1097H111.917Z" fill="white"/>
<path d="M109.377 32.1099L97.6242 52.5107C96.3871 54.2594 95.1825 54.7451 93.1966 54.7451C91.7315 54.7451 90.2014 53.806 89.3549 52.3164L77.9601 32.1099H67.5095L79.4252 53.2555C80.4019 55.2309 82.3878 56.2347 84.8295 56.2347H92.1873C96.1266 56.2347 97.1033 55.749 99.0567 52.2517L110.712 32.0775H109.377V32.1099Z" fill="white"/>
<path d="M109.378 32.1097L97.6246 52.5106C96.42 54.2269 95.2155 54.7126 93.2946 54.745V54.7126C91.6668 54.6154 90.5924 54.0326 89.4855 52.5106L77.9931 32.1097H76.6257L88.0205 52.2839C89.6809 55.2307 90.6576 56.0403 93.2946 56.2022V56.2346C96.3549 56.1374 97.3316 55.425 99.0897 52.2839L110.745 32.1097H109.378Z" fill="white"/>
<path d="M106.74 32.1097L102.345 39.7196C101.108 41.4682 99.9031 41.954 97.9172 41.954C96.4521 41.954 94.922 41.0149 94.0755 39.5253L89.9408 32.1097H79.4902L84.2109 40.4644C85.1876 42.4397 87.1736 43.4435 89.6153 43.4435H96.973C100.912 43.4435 101.889 42.9578 103.842 39.4605L108.107 32.1097H106.74Z" fill="white"/>
<path d="M106.74 32.1097L102.345 39.7196C101.141 41.4358 99.9361 41.9216 98.0153 41.954V41.9216C96.3874 41.8244 95.3131 41.2415 94.2062 39.7196L89.9413 32.1097H88.6064L92.7737 39.4605C94.434 42.4073 95.4107 43.2169 98.0478 43.3788V43.4112C101.108 43.314 102.085 42.6016 103.843 39.4605L108.108 32.1097H106.74Z" fill="white"/>
</svg>
