<svg width="299" height="98" viewBox="0 0 299 98" fill="none" xmlns="http://www.w3.org/2000/svg">
<path d="M88.832 61.352V39.304H96.84V29.112H88.832V6.95999H35.896V17.048H52.224V29.112H30.072V39.304H52.224C52.12 43.464 51.912 47.416 51.6 51.16H34.336V61.352H50.04C49.208 64.888 48.064 67.904 46.712 70.504C42.552 78.2 36.416 83.92 28.2 87.664L34.024 96.92C44.216 92.344 51.6 85.376 56.28 76.224C58.256 71.96 59.816 66.968 60.96 61.352H88.832ZM63.04 17.048H78.016V29.112H63.04V17.048ZM63.04 39.304H78.016V51.16H62.416C62.728 47.416 62.936 43.464 63.04 39.304ZM12.704 42.008V97.024H23.728V24.016C26.848 17.88 29.344 11.432 31.32 4.776L21.128 -0.00800228C16.552 15.8 9.584 29.632 0.12 41.28L3.656 52.928C6.88 49.392 9.896 45.752 12.704 42.008ZM103.565 4.88V15.28H195.501V4.88H103.565ZM134.765 96.608C141.213 96.608 144.541 92.864 144.541 85.48V22.976H107.621V96.92H117.501V46.272C120.725 52.928 123.741 60.624 126.549 69.464L134.557 66.032V83.296C134.557 85.896 133.517 87.248 131.541 87.248L124.469 86.832L127.173 96.608H134.765ZM117.501 45.024V33.168H134.557V63.952C131.853 56.256 128.733 48.872 125.093 41.904L117.501 45.024ZM181.045 96.608C187.909 96.608 191.341 92.968 191.341 85.688V22.976H154.317V96.92H164.301V46.376C167.629 53.032 170.645 60.832 173.453 69.776L181.461 66.344V83.504C181.461 86 180.213 87.248 177.821 87.248L171.581 86.832L174.285 96.608H181.045ZM164.301 44.92V33.168H181.461V64.264C178.653 56.36 175.429 48.872 171.789 41.8L164.301 44.92ZM204.515 7.272V17.152H226.979V24.224H237.587V17.152H262.131V24.224H272.739V17.152H295.307V7.272H272.739V0.615996H262.131V7.272H237.587V0.615996H226.979V7.272H204.515ZM214.083 22.56L206.699 29.632C214.291 34.208 220.219 38.368 224.379 42.32L231.763 34.936C226.979 30.776 221.051 26.72 214.083 22.56ZM209.195 40.344L201.811 47.416C209.507 52.512 215.539 57.296 219.803 61.664L227.187 54.28C222.299 49.6 216.267 44.92 209.195 40.344ZM217.307 64.68C213.667 74.352 209.403 83.816 204.619 93.072L214.811 97.544C219.179 88.496 223.235 78.824 226.771 68.424L217.307 64.68ZM240.499 32.336C238.003 43.36 233.843 53.032 228.019 61.248L236.131 68.84C242.475 61.04 247.363 49.808 250.691 35.04L240.499 32.336ZM257.555 26.616V68.632H268.163V26.616H257.555ZM232.491 97.648C245.803 95.36 257.347 91.408 267.019 85.896C276.587 80.176 283.971 72.584 289.171 63.016L279.915 57.192C277.211 63.744 272.115 69.672 264.627 75.08C256.931 80.384 244.555 84.44 227.291 87.352L232.491 97.648ZM281.683 29.008L272.739 33.272C278.563 40.76 283.971 49.184 288.963 58.544L298.531 53.76C293.123 44.712 287.507 36.496 281.683 29.008Z" fill="#212429"/>
</svg>
