<svg width="68" height="68" viewBox="0 0 68 68" fill="none" xmlns="http://www.w3.org/2000/svg">
<path fill-rule="evenodd" clip-rule="evenodd" d="M45.2725 47.7544C45.2725 48.875 44.5005 49.647 43.355 49.647H24.6533C23.5327 49.647 22.7358 48.875 22.7358 47.7544V44.0688C22.7358 41.5192 21.1446 39.3841 19.3085 36.9206C16.8047 33.5612 13.8457 29.591 13.8457 23.126C13.8457 11.2476 21.9639 3.229 34.0166 3.229C46.0444 3.229 54.1626 11.2476 54.1626 23.126C54.1626 29.591 51.2036 33.5612 48.6998 36.9206C46.8637 39.3841 45.2725 41.5192 45.2725 44.0688V47.7544ZM27.5669 44.8906H40.4165V43.8945C40.4165 40.1908 42.4254 37.4265 44.5278 34.5333C46.8359 31.3572 49.2568 28.0258 49.2568 23.126C49.2568 14.1113 43.1558 8.13477 33.9917 8.13477C24.8276 8.13477 18.7266 14.1113 18.7266 23.126C18.7266 28.0258 21.1475 31.3572 23.4556 34.5333C25.558 37.4265 27.5669 40.1908 27.5669 43.8945V44.8906ZM42.7905 56.769C44.21 56.769 45.3555 55.5986 45.3555 54.2041C45.3555 52.8096 44.21 51.6392 42.7905 51.6392H25.2095C23.79 51.6392 22.6445 52.8096 22.6445 54.2041C22.6445 55.5986 23.79 56.769 25.2095 56.769H42.7905ZM40.8398 58.7612C40.5659 61.4258 37.8267 63.2188 34.0166 63.2188C30.1567 63.2188 27.4424 61.4258 27.1934 58.7612H40.8398Z" fill="white"/>
</svg>
