<svg width="54" height="53" viewBox="0 0 54 53" fill="none" xmlns="http://www.w3.org/2000/svg">
<path fill-rule="evenodd" clip-rule="evenodd" d="M49.6269 48.5814C46.7708 51.4375 42.861 52.1029 37.5093 52.1029H16.4906C11.1389 52.1029 7.25684 51.4375 4.37301 48.5814C1.48919 45.7253 0.87915 41.8432 0.87915 36.4637V15.556C0.87915 10.2598 1.51692 6.37769 4.37301 3.52159C7.22911 0.665498 11.1666 0 16.4352 0H37.5093C42.861 0 46.7431 0.665498 49.6269 3.52159C52.483 6.37769 53.1207 10.232 53.1207 15.6115V36.4637C53.1207 41.8432 52.483 45.6975 49.6269 48.5814ZM15.7558 45.7529H38.2718C41.1834 45.7529 43.5681 45.337 45.01 43.9228C46.3964 42.5086 46.7846 40.1517 46.7846 37.2401V14.8627C46.7846 11.9235 46.3964 9.59421 45.01 8.18003C43.5681 6.76584 41.1834 6.34991 38.2718 6.34991H15.7835C12.8442 6.34991 10.4318 6.73812 9.01764 8.1523C7.63118 9.59421 7.24297 11.9512 7.24297 14.8905V37.2401C7.24297 40.1517 7.63118 42.5086 9.01764 43.9228C10.4595 45.337 12.8442 45.7529 15.7558 45.7529Z" fill="white"/>
</svg>
