<svg width="68" height="68" viewBox="0 0 68 68" fill="none" xmlns="http://www.w3.org/2000/svg">
<path fill-rule="evenodd" clip-rule="evenodd" d="M31.8844 26.0534C31.8844 30.7455 29.6813 32.9485 25.075 32.9485H8.28054C3.67422 32.9485 1.47119 30.7455 1.47119 26.0534V14.8666C1.47119 10.203 3.67422 8 8.28054 8H25.075C29.6813 8 31.8844 10.203 31.8844 14.8666V26.0534ZM66.5176 26.0534C66.5176 30.7455 64.286 32.9485 59.7083 32.9485H42.8852C38.3075 32.9485 36.1044 30.7455 36.1044 26.0534V14.8666C36.1044 10.203 38.3075 8 42.8852 8H59.7083C64.286 8 66.5176 10.203 66.5176 14.8666V26.0534ZM25.0464 27.5983H8.28054C7.27916 27.5983 6.79278 27.1119 6.79278 26.082V14.838C6.79278 13.808 7.27916 13.3216 8.28054 13.3216H25.0464C26.0764 13.3216 26.5628 13.808 26.5628 14.838V26.082C26.5628 27.1119 26.0764 27.5983 25.0464 27.5983ZM42.9138 27.5983H59.7083C60.7096 27.5983 61.1674 27.1119 61.1674 26.082V14.838C61.1674 13.808 60.7096 13.3216 59.7083 13.3216H42.9138C41.8838 13.3216 41.426 13.808 41.426 14.838V26.082C41.426 27.1119 41.8838 27.5983 42.9138 27.5983ZM25.075 62.1032C29.6813 62.1032 31.8844 59.9002 31.8844 55.208V44.0499C31.8844 39.3577 29.6813 37.1547 25.075 37.1547H8.28054C3.67422 37.1547 1.47119 39.3577 1.47119 44.0499V55.208C1.47119 59.9002 3.67422 62.1032 8.28054 62.1032H25.075ZM66.5176 55.208C66.5176 59.9002 64.286 62.1032 59.7083 62.1032H42.8852C38.3075 62.1032 36.1044 59.9002 36.1044 55.208V44.0499C36.1044 39.3577 38.3075 37.1547 42.8852 37.1547H59.7083C64.286 37.1547 66.5176 39.3577 66.5176 44.0499V55.208ZM25.0464 56.753H8.28054C7.27916 56.753 6.79278 56.2666 6.79278 55.2366V44.0212C6.79278 42.9913 7.27916 42.4763 8.28054 42.4763H25.0464C26.0764 42.4763 26.5628 42.9913 26.5628 44.0212V55.2366C26.5628 56.2666 26.0764 56.753 25.0464 56.753ZM42.9138 56.753H59.7083C60.7096 56.753 61.1674 56.2666 61.1674 55.2366V44.0212C61.1674 42.9913 60.7096 42.4763 59.7083 42.4763H42.9138C41.8838 42.4763 41.426 42.9913 41.426 44.0212V55.2366C41.426 56.2666 41.8838 56.753 42.9138 56.753Z" fill="white"/>
</svg>
