<svg width="68" height="68" viewBox="0 0 68 68" fill="none" xmlns="http://www.w3.org/2000/svg">
<path fill-rule="evenodd" clip-rule="evenodd" d="M44.9681 8.85419C47.1816 8.85419 48.4434 10.0052 48.6204 12.0638H19.4238C19.5788 10.0052 20.8405 8.85419 23.0762 8.85419H44.9681ZM49.0299 15.2735C51.5312 15.2735 52.6823 16.5794 52.9922 18.7709H15.0742C15.362 16.5794 16.513 15.2735 19.0143 15.2735H49.0299ZM50.6237 61.1159C55.5378 61.1159 58.1719 58.5039 58.1719 53.612V29.9492C58.1719 25.0794 55.5378 22.4675 50.6237 22.4675H17.3763C12.4622 22.4675 9.82812 25.0794 9.82812 29.9492V53.612C9.82812 58.5039 12.4622 61.1159 17.3763 61.1159H50.6237ZM17.8522 56.0469H50.1699C52.0736 56.0469 53.1139 55.0729 53.1139 53.0586V30.5026C53.1139 28.4883 52.0736 27.5365 50.1699 27.5365H17.8522C15.9264 27.5365 14.9082 28.4883 14.9082 30.5026V53.0586C14.9082 55.0729 15.9264 56.0469 17.8522 56.0469Z" fill="white"/>
</svg>
