<svg width="68" height="68" viewBox="0 0 68 68" fill="none" xmlns="http://www.w3.org/2000/svg">
<path fill-rule="evenodd" clip-rule="evenodd" d="M64.4971 49.2236C64.4971 54.7021 61.5586 57.6655 56.0054 57.6655H13.771C8.24268 57.6655 5.2793 54.7271 5.2793 49.2236V18.9922C5.2793 13.5137 8.24268 10.5752 13.771 10.5752H56.0054C61.5586 10.5752 64.4971 13.5137 64.4971 18.9922V49.2236ZM14.3022 51.9629H55.4907C57.6323 51.9629 58.8027 50.8672 58.8027 48.6011V19.6147C58.8027 17.3486 57.6323 16.2778 55.4907 16.2778H14.3022C12.1357 16.2778 10.9902 17.3486 10.9902 19.6147V48.6011C10.9902 50.8672 12.1357 51.9629 14.3022 51.9629ZM39.2046 24.5952C40.1509 24.5952 40.8232 23.8979 40.8232 22.9766C40.8232 22.0801 40.1509 21.3828 39.2046 21.3828H19.6064C18.6602 21.3828 17.9629 22.0801 17.9629 22.9766C17.9629 23.8979 18.6602 24.5952 19.6064 24.5952H39.2046ZM40.8232 45.2393C40.8232 46.1357 40.1509 46.8081 39.2046 46.8081H19.6064C18.6602 46.8081 17.9629 46.1357 17.9629 45.2393C17.9629 44.293 18.6602 43.5957 19.6064 43.5957H39.2046C40.1509 43.5957 40.8232 44.293 40.8232 45.2393Z" fill="white"/>
<path d="M52.4526 39.9102C54.5942 39.9102 55.8643 38.5903 55.8643 36.4487V31.7173C55.8643 29.5757 54.5942 28.2559 52.4526 28.2559H17.3901C15.2485 28.2559 13.9785 29.5757 13.9785 31.7173V36.4487C13.9785 38.5903 15.2485 39.9102 17.3901 39.9102H52.4526Z" fill="white"/>
<path d="M31.2192 35.7266H19.6396C18.6934 35.7266 17.9961 35.0044 17.9961 34.083C17.9961 33.1865 18.6934 32.5142 19.6396 32.5142H31.2192C32.1655 32.5142 32.8379 33.1865 32.8379 34.083C32.8379 35.0044 32.1655 35.7266 31.2192 35.7266Z" fill="white"/>
</svg>
