<svg width="68" height="68" viewBox="0 0 68 68" fill="none" xmlns="http://www.w3.org/2000/svg">
<path fill-rule="evenodd" clip-rule="evenodd" d="M40.1979 56.2903C39.7552 58.1497 38.2057 59.3672 36.2357 59.3672H31.7422C29.7943 59.3672 28.2448 58.1497 27.8021 56.2903L26.9388 52.5937L26.474 52.4166L23.2422 54.4088C21.6042 55.4271 19.6341 55.1614 18.2839 53.7669L15.1628 50.6679C13.7682 49.2513 13.5247 47.3255 14.543 45.7096L16.5352 42.5L16.3802 42.0573L12.6836 41.1719C10.8464 40.7291 9.62891 39.1797 9.62891 37.2318V32.8932C9.62891 30.9674 10.8242 29.4179 12.6836 28.9531L16.3359 28.0456L16.5352 27.5807L14.5208 24.3711C13.5026 22.7773 13.7461 20.8515 15.1406 19.4127L18.2617 16.2916C19.612 14.9193 21.5599 14.6536 23.2201 15.6719L26.4297 17.6419L26.9388 17.4427L27.8021 13.7461C28.2448 11.8867 29.7943 10.6693 31.7422 10.6693H36.2357C38.2057 10.6693 39.7552 11.8867 40.1979 13.7461L41.0391 17.4427L41.5482 17.6419L44.7799 15.6719C46.418 14.6536 48.3659 14.9193 49.7383 16.2916L52.8372 19.4127C54.2318 20.8515 54.4974 22.7773 53.457 24.3711L51.4648 27.5807L51.6419 28.0456L55.2943 28.9531C57.1536 29.3958 58.3711 30.9674 58.3711 32.8932V37.2318C58.3711 39.1797 57.1536 40.707 55.2943 41.1719L51.6198 42.0573L51.4427 42.5L53.457 45.7096C54.4753 47.3255 54.2318 49.2513 52.8372 50.6679L49.7161 53.7669C48.3438 55.1614 46.3958 55.4271 44.7578 54.4088L41.526 52.4166L41.0391 52.5937L40.1979 56.2903ZM32.4727 54.8294H35.5273C35.9036 54.8294 36.0586 54.6744 36.125 54.3424L37.431 48.9413C38.9805 48.5872 40.2643 48.0338 41.4818 47.2591L46.2188 50.1588C46.4844 50.3359 46.75 50.3137 47.0156 50.0703L49.1185 47.9453C49.3841 47.7018 49.3841 47.4361 49.207 47.1705L46.2852 42.4335C46.9935 41.2825 47.5911 39.8658 47.901 38.427L53.3464 37.1432C53.6784 37.0768 53.8333 36.8997 53.8333 36.5455V33.5794C53.8333 33.1809 53.6784 33.026 53.3464 32.9596L47.9232 31.6536C47.5911 30.1705 46.9492 28.7317 46.3294 27.6249L49.2292 22.9101C49.4062 22.6223 49.4062 22.3567 49.1628 22.1132L47.0378 20.0104C46.75 19.7669 46.5286 19.7447 46.2188 19.9218L41.5039 22.7994C40.3086 22.0911 38.9362 21.4713 37.431 21.1393L36.125 15.6939C36.0586 15.3619 35.9036 15.207 35.5273 15.207H32.4727C32.0964 15.207 31.9193 15.3619 31.875 15.6939L30.569 21.095C29.0859 21.4713 27.5143 22.1132 26.474 22.7994L21.7591 19.8997C21.4492 19.7226 21.2057 19.7447 20.9401 20.0104L18.8151 22.0911C18.5495 22.3346 18.5716 22.6002 18.7487 22.9101L21.6706 27.6249C21.0286 28.7317 20.3867 30.1705 20.0547 31.6757L14.6536 32.9596C14.2995 33.026 14.1445 33.1809 14.1445 33.5794V36.5455C14.1445 36.8997 14.3216 37.0768 14.6536 37.1432L20.0768 38.427C20.3867 39.8658 21.0065 41.2604 21.6927 42.4335L18.7708 47.1705C18.5938 47.4583 18.5938 47.7239 18.8372 47.9674L20.9622 50.0924C21.2279 50.3359 21.4935 50.358 21.7591 50.1809L26.4961 47.2591C27.6914 48.0338 29.1081 48.6093 30.569 48.9413L31.875 54.3424C31.9193 54.6744 32.0964 54.8294 32.4727 54.8294ZM33.9889 43.4075C38.571 43.4075 42.334 39.6223 42.334 35.0182C42.334 30.4361 38.571 26.6953 33.9889 26.6953C29.3848 26.6953 25.5996 30.4361 25.5996 35.0182C25.5996 39.6223 29.3848 43.4075 33.9889 43.4075ZM29.7832 35.0182C29.7832 37.3645 31.6868 39.2682 34.0111 39.2682C36.291 39.2682 38.1947 37.3424 38.1947 35.0182C38.1947 32.7382 36.291 30.8124 34.0111 30.8124C31.709 30.8124 29.7832 32.7161 29.7832 35.0182Z" fill="white"/>
</svg>
