<svg width="68" height="68" viewBox="0 0 68 68" fill="none" xmlns="http://www.w3.org/2000/svg">
<path fill-rule="evenodd" clip-rule="evenodd" d="M23.424 0.985535C17.1204 0.985535 12.0044 5.98929 12.0044 12.1546C12.0044 18.32 17.1204 23.3237 23.424 23.3237H34.8433H34.8436H46.2629C52.5665 23.3237 57.6824 18.32 57.6824 12.1546C57.6824 5.98929 52.5665 0.985535 46.2629 0.985535H34.8436H34.8433H23.424ZM12.0044 34.4929C12.0044 28.3276 17.1204 23.3238 23.424 23.3238H34.8436V34.4092C34.8896 28.2823 39.9878 23.3238 46.2629 23.3238C52.5665 23.3238 57.6824 28.3276 57.6824 34.4929C57.6824 40.6583 52.5665 45.662 46.2629 45.662C39.9878 45.662 34.8896 40.7035 34.8436 34.5766V45.6618V45.662V56.8309C34.8436 62.9963 29.7276 68 23.424 68C17.1204 68 12.0044 62.9963 12.0044 56.8309C12.0044 50.6797 17.097 45.6847 23.3807 45.6619C17.097 45.6391 12.0044 40.6441 12.0044 34.4929Z" fill="white"/>
</svg>
