<svg width="68" height="68" viewBox="0 0 68 68" fill="none" xmlns="http://www.w3.org/2000/svg">
<path fill-rule="evenodd" clip-rule="evenodd" d="M52.7598 55.9804C57.696 55.9804 60.3079 53.3463 60.3079 48.4765V21.6041C60.3079 16.7344 57.696 14.1224 52.7598 14.1224H15.2181C10.304 14.1224 7.66992 16.7344 7.66992 21.6041V48.4765C7.66992 53.3685 10.304 55.9804 15.2181 55.9804H52.7598ZM12.75 45.1119V22.1575C12.75 20.1432 13.7682 19.1913 15.694 19.1913H52.306C54.2096 19.1913 55.25 20.1432 55.25 22.1575V44.5585L44.9128 34.8854C43.9388 33.9999 42.7878 33.5572 41.6146 33.5572C40.3971 33.5572 39.3125 33.9557 38.2943 34.8632L28.3112 43.7838L24.2383 40.1093C23.3086 39.2903 22.2904 38.8476 21.25 38.8476C20.2096 38.8476 19.3242 39.2682 18.4167 40.0872L12.75 45.1119ZM30.8346 30.2148C30.8346 33.2031 28.3997 35.6158 25.4557 35.6158C22.4896 35.6158 20.0547 33.2031 20.0547 30.2148C20.0547 27.2708 22.4896 24.8137 25.4557 24.8137C28.3997 24.8137 30.8346 27.2708 30.8346 30.2148Z" fill="white"/>
</svg>
