<svg width="68" height="68" viewBox="0 0 68 68" fill="none" xmlns="http://www.w3.org/2000/svg">
<path fill-rule="evenodd" clip-rule="evenodd" d="M50.8255 60.6862C57.0386 60.6862 60.3542 57.3707 60.3542 51.2411V17.4172C60.3542 11.2877 57.0386 8 50.8255 8H17.1688C10.9835 8 7.66797 11.2877 7.66797 17.4172V51.2411C7.66797 57.3985 10.9835 60.6862 17.1688 60.6862H50.8255ZM50.2404 54.3058H17.726C15.302 54.3058 14.0204 53.0799 14.0204 50.5445V18.1137C14.0204 15.5783 15.302 14.3802 17.726 14.3802H50.2404C52.6087 14.3802 53.946 15.5783 53.946 18.1137V50.5445C53.946 53.0799 52.6087 54.3058 50.2404 54.3058ZM26.7755 31.3864C26.5643 31.5074 26.3563 31.6265 26.168 31.6265C25.9451 31.6265 25.6665 31.4872 25.4158 31.3201C23.3819 29.9549 19.2027 26.9179 19.2027 23.1288C19.2027 20.7605 20.8465 19.061 22.964 19.061C24.4406 19.061 25.5272 19.9247 26.1402 21.0392C26.7531 19.9247 27.8676 19.061 29.2885 19.061C31.4617 19.061 33.1056 20.7605 33.1056 23.1288C33.1056 26.9179 28.9263 30.122 26.8924 31.3201C26.8535 31.3417 26.8146 31.364 26.7758 31.3862L26.7757 31.3863L26.7755 31.3864ZM46.9528 39.5672C47.9836 39.5672 48.7638 38.7592 48.7638 37.7283C48.7638 36.7532 47.9836 35.9731 46.9528 35.9731H21.0415C19.9549 35.9731 19.2027 36.7532 19.2027 37.7283C19.2027 38.7592 19.9549 39.5672 21.0415 39.5672H46.9528ZM42.1606 46.6439C42.1606 47.6469 41.3804 48.4271 40.3496 48.4271H21.0415C19.9549 48.4271 19.2027 47.6469 19.2027 46.6439C19.2027 45.613 19.9549 44.8051 21.0415 44.8051H40.3496C41.3804 44.8051 42.1606 45.613 42.1606 46.6439Z" fill="white"/>
</svg>
