<svg width="68" height="68" viewBox="0 0 68 68" fill="none" xmlns="http://www.w3.org/2000/svg">
<path fill-rule="evenodd" clip-rule="evenodd" d="M67.2695 50.9114C67.2695 52.6159 65.875 54.0104 64.1927 54.0104H3.9401C2.25781 54.0104 0.863281 52.6159 0.863281 50.9114C0.863281 49.207 2.25781 47.8125 3.9401 47.8125H8.47786V21.8698C8.47786 18.1068 10.6914 16.0482 14.3438 16.0482H53.8112C57.5521 16.0482 59.6549 18.1068 59.6549 21.8698V47.8125H64.1927C65.875 47.8125 67.2695 49.207 67.2695 50.9114ZM13.5469 47.8124H54.5859V23.1536C54.5859 21.7591 53.9219 21.1171 52.5716 21.1171H15.5833C14.2331 21.1171 13.5469 21.7591 13.5469 23.1536V47.8124Z" fill="white"/>
</svg>
