<svg width="68" height="68" viewBox="0 0 68 68" fill="none" xmlns="http://www.w3.org/2000/svg">
<path d="M2.82227 45.2608C2.82227 50.5948 6.31208 53.8334 11.2105 53.8334C14.2377 53.8334 16.8236 52.5422 18.7997 50.3408L22.4577 46.1709C23.0043 45.5783 23.4669 45.3031 24.1396 45.3031H43.8382C44.5107 45.3031 44.9735 45.5783 45.5199 46.1709L49.1779 50.3408C51.1752 52.5422 53.74 53.8334 56.7672 53.8334C61.6866 53.8334 65.1556 50.5948 65.1556 45.2608C65.1556 42.9747 64.6721 40.3712 63.8308 37.5349C62.5275 33.1322 60.2783 27.2055 58.1337 22.6758C56.3048 18.8022 55.2327 16.7914 50.5022 15.7118C46.3608 14.7594 40.7478 14.1667 33.9993 14.1667C27.23 14.1667 21.6168 14.7594 17.4963 15.7118C12.7451 16.7914 11.673 18.8022 9.84393 22.6758C7.69962 27.2055 5.45016 33.1322 4.14671 37.5349C3.3058 40.3712 2.82227 42.9747 2.82227 45.2608ZM7.32121 45.1126C7.32121 43.8637 7.61549 42.3609 8.2462 40.1596C9.67576 35.2277 12.0934 28.92 14.2167 24.3056C15.2048 22.1042 15.7724 20.9401 18.0639 20.3897C21.9742 19.4584 27.3981 18.8869 33.9993 18.8869C40.5795 18.8869 46.0034 19.4584 49.9137 20.3897C52.2055 20.9401 52.7519 22.1042 53.7611 24.3056C55.9052 28.92 58.2599 35.2489 59.7315 40.1596C60.3834 42.3609 60.6563 43.8637 60.6563 45.1126C60.6563 47.6526 58.8696 49.219 56.536 49.219C55.1065 49.219 53.656 48.457 52.4574 47.1446L48.0429 42.2762C47.0126 41.1121 46.1717 40.5829 44.4478 40.5829H23.5299C21.8271 40.5829 20.9651 41.1121 19.935 42.2762L15.5201 47.1446C14.3428 48.4781 12.8713 49.219 11.4417 49.219C9.10812 49.219 7.32121 47.6526 7.32121 45.1126ZM16.7185 29.9783C16.7185 31.2271 17.4963 32.0103 18.7577 32.0103H22.1003V35.2489C22.1003 36.5189 22.8782 37.3444 24.1185 37.3444C25.3379 37.3444 26.1157 36.5189 26.1157 35.2489V32.0103H29.2692C30.6357 32.0103 31.4556 31.2271 31.4556 29.9783C31.4556 28.7506 30.6357 27.9675 29.2692 27.9675H26.1157V24.7289C26.1157 23.4589 25.3379 22.6334 24.1185 22.6334C22.8782 22.6334 22.1003 23.4589 22.1003 24.7289V27.9675H18.7577C17.4963 27.9675 16.7185 28.7506 16.7185 29.9783ZM47.181 29.8301C48.9677 29.8301 50.3554 28.4543 50.3554 26.6339C50.3554 24.8347 48.9677 23.4166 47.181 23.4166C45.3937 23.4166 43.9854 24.8347 43.9854 26.6339C43.9854 28.4543 45.3937 29.8301 47.181 29.8301ZM40.8739 36.2648C42.661 36.2648 44.0483 34.889 44.0483 33.0898C44.0483 31.2695 42.661 29.8725 40.8739 29.8725C39.0869 29.8725 37.6784 31.2695 37.6784 33.0898C37.6784 34.889 39.0869 36.2648 40.8739 36.2648Z" fill="white"/>
</svg>
