<svg width="68" height="68" viewBox="0 0 68 68" fill="none" xmlns="http://www.w3.org/2000/svg">
<path fill-rule="evenodd" clip-rule="evenodd" d="M33.9889 63.0538C49.348 63.0538 61.9999 50.3751 61.9999 35.0159C61.9999 19.6567 49.3212 7.00482 33.9889 7.00482C18.6297 7.00482 5.97778 19.6567 5.97778 35.0159C5.97778 50.3751 18.6297 63.0538 33.9889 63.0538ZM34.0157 56.7546C21.9803 56.7546 12.3305 47.0512 12.3305 35.0158C12.3305 22.9805 21.9535 13.3039 34.0157 13.3039C46.051 13.3039 55.7276 22.9805 55.7544 35.0158C55.7544 47.0512 46.051 56.7546 34.0157 56.7546ZM29.164 29.1725C29.164 31.156 27.8237 32.5499 26.2423 32.5499C24.6608 32.5499 23.3473 31.156 23.3473 29.1725C23.3473 27.2157 24.6608 25.7951 26.2423 25.7951C27.8237 25.7951 29.164 27.2157 29.164 29.1725ZM41.8427 32.5499C43.4242 32.5499 44.7644 31.156 44.7644 29.1725C44.7644 27.2157 43.4242 25.7951 41.8427 25.7951C40.2612 25.7951 38.9478 27.2157 38.9478 29.1725C38.9478 31.156 40.2612 32.5499 41.8427 32.5499ZM43.3974 42.4409C43.3974 44.2368 39.6179 47.9627 33.9889 47.9627C28.333 47.9627 24.5535 44.2368 24.5535 42.4409C24.5535 41.7708 25.2237 41.4491 25.8402 41.744C27.7969 42.7626 30.0753 43.942 33.9889 43.942C37.2776 43.942 39.4149 43.0783 41.1801 42.2118L42.1107 41.744C42.754 41.4491 43.3974 41.7708 43.3974 42.4409Z" fill="white"/>
</svg>
