<svg width="55" height="55" viewBox="0 0 55 55" fill="none" xmlns="http://www.w3.org/2000/svg">
<path fill-rule="evenodd" clip-rule="evenodd" d="M27.4538 54.9519C42.5123 54.9519 54.9166 42.5214 54.9166 27.4628C54.9166 12.4043 42.4861 0 27.4538 0C12.3952 0 -0.0090332 12.4043 -0.0090332 27.4628C-0.0090332 42.5214 12.3952 54.9519 27.4538 54.9519ZM27.48 48.776C15.6802 48.776 6.21936 39.2625 6.21936 27.4627C6.21936 15.6629 15.654 6.17575 27.48 6.17575C39.2799 6.17575 48.767 15.6629 48.7933 27.4627C48.7933 39.2625 39.2799 48.776 27.48 48.776ZM29.819 41.5756C29.819 42.2589 29.3459 42.7319 28.6627 42.7319C27.9794 42.7319 27.48 42.2589 27.48 41.5756V39.4994H25.7981V41.5756C25.7981 42.2589 25.2988 42.7319 24.6155 42.7319C23.9585 42.7319 23.4592 42.2589 23.4592 41.5756V39.4994H22.1189C20.5683 39.4994 19.6223 38.5534 19.6223 36.9765V18.5541C19.6223 16.9773 20.5946 15.9787 22.1189 15.9787H23.4592V13.9288C23.4592 13.2455 23.9585 12.7462 24.6155 12.7462C25.2988 12.7462 25.7981 13.2455 25.7981 13.9288V15.9787H27.48V13.9288C27.48 13.2455 27.9794 12.7462 28.6627 12.7462C29.3197 12.7462 29.819 13.2455 29.819 13.9288V16.0575C33.6559 16.4254 35.9948 18.7118 35.9948 22.0231C35.9948 24.1518 34.6545 26.1491 32.7361 27.0163C35.3378 27.8048 37.0723 29.986 37.0723 32.7191C37.0723 36.6086 34.3392 39.1315 29.819 39.4469V41.5756ZM27.2961 25.6757L24.1162 25.6495V19.6313H27.8217C30.1607 19.6313 31.501 20.6825 31.501 22.5221C31.501 24.5457 30.003 25.6757 27.2961 25.6757ZM24.1162 35.8199H28.1108C31.0016 35.7936 32.5522 34.6636 32.5522 32.456C32.5522 30.2485 30.9491 29.1184 27.9006 29.1184H24.1162V35.8199Z" fill="white"/>
</svg>
