<svg width="24" height="24" viewBox="0 0 24 24" fill="none" xmlns="http://www.w3.org/2000/svg">
<path d="M5.74219 18.1445C5.74219 18.6914 6.15625 19.1133 6.70312 19.1133L16.8203 19.1133C17.375 19.1133 17.7891 18.6914 17.7891 18.1445C17.7891 17.5898 17.375 17.168 16.8203 17.168L11.9687 17.168C12.1719 17.1289 12.3594 17.0195 12.5078 16.8711L17.3359 12.1523C17.5547 11.9414 17.6562 11.6914 17.6562 11.4336C17.6562 10.8555 17.25 10.4492 16.7031 10.4492C16.4062 10.4492 16.1641 10.5742 15.9766 10.7617L14.5 12.2148L12.6719 14.2305L12.7734 12.6133L12.7734 5.91797C12.7734 5.30078 12.3672 4.88672 11.7656 4.88672C11.1719 4.88672 10.7656 5.30078 10.7656 5.91797L10.7656 12.6133L10.8594 14.2383L9.03906 12.2148L7.5625 10.7617C7.375 10.5742 7.13281 10.4492 6.83594 10.4492C6.28906 10.4492 5.88281 10.8555 5.88281 11.4336C5.88281 11.6914 5.98437 11.9414 6.20312 12.1523L11.0234 16.8711C11.1719 17.0195 11.3594 17.1289 11.5703 17.168L6.70312 17.168C6.15625 17.168 5.74219 17.5898 5.74219 18.1445Z" fill="#090D14"/>
</svg>
