<svg width="64" height="64" viewBox="0 0 64 64" fill="none" xmlns="http://www.w3.org/2000/svg">
<rect width="64" height="64" rx="32" fill="url(#paint0_radial_2068_64)"/>
<path fill-rule="evenodd" clip-rule="evenodd" d="M31.9933 12.3086C26.649 12.3086 25.9778 12.332 23.8781 12.4276C21.7821 12.5236 20.3514 12.8555 19.0995 13.3425C17.8046 13.8455 16.7061 14.5184 15.6118 15.6135C14.5166 16.7081 13.8439 17.8069 13.3394 19.1018C12.8513 20.3544 12.519 21.7859 12.4247 23.8817C12.3308 25.9824 12.3062 26.654 12.3062 32.0026C12.3062 37.3511 12.3299 38.0203 12.4251 40.121C12.5215 42.2176 12.8533 43.6487 13.3398 44.9009C13.8431 46.1962 14.5158 47.2949 15.6106 48.3896C16.7045 49.4851 17.803 50.1596 19.0971 50.6626C20.3498 51.1496 21.7809 51.4816 23.8765 51.5776C25.9766 51.6732 26.6473 51.6965 31.9939 51.6965C37.3414 51.6965 38.0104 51.6732 40.1106 51.5776C42.2066 51.4816 43.6389 51.1496 44.8916 50.6626C46.1861 50.1596 47.283 49.4851 48.3769 48.3896C49.4721 47.2949 50.1448 46.1962 50.6493 44.9013C51.1333 43.6487 51.4656 42.2172 51.564 40.1214C51.6583 38.0207 51.683 37.3511 51.683 32.0026C51.683 26.654 51.6583 25.9828 51.564 23.8821C51.4656 21.7855 51.1333 20.3544 50.6493 19.1022C50.1448 17.8069 49.4721 16.7081 48.3769 15.6135C47.2817 14.518 46.1866 13.8451 44.8904 13.3425C43.6352 12.8555 42.2037 12.5236 40.1077 12.4276C38.008 12.332 37.3392 12.3086 31.9933 12.3086ZM30.2302 15.8576C30.5731 15.8571 30.942 15.8572 31.3402 15.8574L31.9964 15.8576C37.2532 15.8576 37.8763 15.8765 39.9522 15.9708C41.8719 16.0586 42.9137 16.3795 43.6077 16.6491C44.5265 17.006 45.1816 17.4327 45.8703 18.122C46.5594 18.8113 46.986 19.4678 47.3437 20.3868C47.6131 21.0802 47.9343 22.1223 48.0217 24.0425C48.116 26.1186 48.1365 26.7422 48.1365 31.998C48.1365 37.2539 48.116 37.8775 48.0217 39.9536C47.9339 41.8738 47.6131 42.9159 47.3437 43.6093C46.9868 44.5283 46.5594 45.1828 45.8703 45.8716C45.1812 46.5609 44.527 46.9876 43.6077 47.3446C42.9145 47.6154 41.8719 47.9354 39.9522 48.0232C37.8767 48.1176 37.2532 48.1381 31.9964 48.1381C26.7391 48.1381 26.1161 48.1176 24.0406 48.0232C22.1209 47.9346 21.0791 47.6137 20.3846 47.3442C19.4658 46.9872 18.8095 46.5605 18.1204 45.8712C17.4313 45.1819 17.0047 44.5271 16.6471 43.6076C16.3776 42.9142 16.0564 41.8721 15.969 39.9519C15.8747 37.8759 15.8558 37.2522 15.8558 31.9931C15.8558 26.734 15.8747 26.1136 15.969 24.0376C16.0568 22.1174 16.3776 21.0753 16.6471 20.3811C17.0039 19.462 17.4313 18.8055 18.1204 18.1163C18.8095 17.427 19.4658 17.0003 20.3846 16.6425C21.0786 16.3717 22.1209 16.0517 24.0406 15.9635C25.8568 15.8814 26.5607 15.8568 30.2302 15.8527V15.8576ZM40.1434 21.4894C40.1434 20.1843 41.2017 19.1269 42.506 19.1269V19.1261C43.8104 19.1261 44.8687 20.1847 44.8687 21.4894C44.8687 22.7941 43.8104 23.8527 42.506 23.8527C41.2017 23.8527 40.1434 22.7941 40.1434 21.4894ZM31.996 21.8895C26.4124 21.8897 21.8855 26.418 21.8855 32.0032C21.8855 37.5885 26.4126 42.1148 31.9964 42.1148C37.5802 42.1148 42.1057 37.5885 42.1057 32.0032C42.1057 26.4179 37.5798 21.8895 31.996 21.8895ZM38.5592 32.0022C38.5592 28.3764 35.6207 25.4375 31.9964 25.4375C28.3716 25.4375 25.4335 28.3764 25.4335 32.0022C25.4335 35.6275 28.3716 38.5668 31.9964 38.5668C35.6207 38.5668 38.5592 35.6275 38.5592 32.0022Z" fill="white"/>
<defs>
<radialGradient id="paint0_radial_2068_64" cx="0" cy="0" r="1" gradientUnits="userSpaceOnUse" gradientTransform="translate(17.0001 68.9293) rotate(-90) scale(63.4287)">
<stop stop-color="#FFDD55"/>
<stop offset="0.1" stop-color="#FFDD55"/>
<stop offset="0.5" stop-color="#FF543E"/>
<stop offset="1" stop-color="#C837AB"/>
</radialGradient>
</defs>
</svg>
