<svg width="64" height="64" viewBox="0 0 64 64" fill="none" xmlns="http://www.w3.org/2000/svg">
<rect width="64" height="64" rx="32" fill="#0A66C2"/>
<path fill-rule="evenodd" clip-rule="evenodd" d="M18.9269 23.082C16.6951 23.0827 14.8853 21.2741 14.8846 19.0423C14.8839 16.8105 16.6926 15.0007 18.9244 15C21.1561 14.9993 22.9659 16.808 22.9666 19.0398C22.967 20.1115 22.5415 21.1395 21.7839 21.8976C21.0263 22.6556 19.9986 23.0817 18.9269 23.082ZM49.0779 49.8155H41.9062V38.6077C41.9062 35.9355 41.8585 32.4937 38.1763 32.4937C34.4425 32.4937 33.8698 35.4059 33.8698 38.4146V49.8155H26.6969V26.7672H33.5809V29.9169H33.6776C35.0813 27.522 37.6914 26.0922 40.4695 26.1964C47.7379 26.1964 49.0779 30.971 49.0779 37.1738V49.8155ZM15.5064 49.1938H22.345L22.3438 26.191H15.5064V49.1938Z" fill="white"/>
</svg>
