<svg width="24" height="24" fill="none" xmlns="http://www.w3.org/2000/svg"><path d="M11.996 16.75c.336 0 .625-.133.883-.39l5.851-6c.204-.204.313-.454.313-.75 0-.61-.484-1.094-1.086-1.094-.297 0-.578.117-.797.336l-5.156 5.312L6.84 8.852a1.137 1.137 0 0 0-.797-.336c-.602 0-1.086.484-1.086 1.093 0 .297.11.547.313.758l5.851 5.992c.274.266.547.391.875.391Z" fill="#fff"/></svg>.34766 8.51569 6.04297 8.51569C5.44141 8.51569 4.95703 9.00006 4.95703 9.60944C4.95703 9.90631 5.06641 10.1563 5.26953 10.3672L11.1211 16.3594C11.3945 16.6251 11.668 16.7501 11.9961 16.7501Z" fill="white"/>
</svg>
