<svg width="48" height="48" viewBox="0 0 48 48" fill="none" xmlns="http://www.w3.org/2000/svg">
<rect width="48" height="48" rx="12" fill="#E0E0FF" fill-opacity="0.04"/>
<g clip-path="url(#clip0_295_462)">
<path d="M10.8928 17.7281V30.2721C10.8928 31.0785 11.3152 31.8081 12.0192 32.2177L22.8864 38.4897C23.5776 38.8865 24.4352 38.8865 25.1264 38.4897L35.9936 32.2177C36.6848 31.8209 37.12 31.0785 37.12 30.2721V17.7281C37.12 16.9217 36.6976 16.1921 35.9936 15.7825L25.1264 9.51049C24.4352 9.11369 23.5776 9.11369 22.8864 9.51049L12.0192 15.7825C11.328 16.1793 10.9056 16.9217 10.9056 17.7281H10.8928Z" fill="#213147"/>
<path d="M26.368 26.4318L24.8192 30.6814C24.7808 30.7966 24.7808 30.9246 24.8192 31.0526L27.4816 38.3614L30.5664 36.5822L26.8672 26.4318C26.7776 26.2014 26.4576 26.2014 26.368 26.4318Z" fill="#12AAFF"/>
<path d="M29.4784 19.2895C29.3888 19.0591 29.0688 19.0591 28.9792 19.2895L27.4304 23.5391C27.392 23.6543 27.392 23.7823 27.4304 23.9103L31.7952 35.8783L34.88 34.0991L29.4784 19.3023V19.2895Z" fill="#12AAFF"/>
<path d="M24 9.984C24.0768 9.984 24.1536 10.0096 24.2176 10.048L35.968 16.832C36.1088 16.9088 36.1856 17.0624 36.1856 17.216V30.784C36.1856 30.9376 36.096 31.0912 35.968 31.168L24.2176 37.952C24.1536 37.9904 24.0768 38.016 24 38.016C23.9232 38.016 23.8464 37.9904 23.7824 37.952L12.032 31.168C11.8912 31.0912 11.8144 30.9376 11.8144 30.784V17.2032C11.8144 17.0496 11.904 16.896 12.032 16.8192L23.7824 10.0352C23.8464 9.9968 23.9232 9.9712 24 9.9712V9.984ZM24 8C23.5776 8 23.168 8.1024 22.784 8.32L11.0336 15.104C10.2784 15.5392 9.81763 16.3328 9.81763 17.2032V30.7712C9.81763 31.6416 10.2784 32.4352 11.0336 32.8704L22.784 39.6544C23.1552 39.872 23.5776 39.9744 24 39.9744C24.4224 39.9744 24.832 39.872 25.216 39.6544L36.9664 32.8704C37.7216 32.4352 38.1824 31.6416 38.1824 30.7712V17.2032C38.1824 16.3328 37.7216 15.5392 36.9664 15.104L25.2032 8.32C24.832 8.1024 24.4096 8 23.9872 8H24Z" fill="#9DCCED"/>
<path d="M16.2177 35.8912L17.3057 32.9216L19.4817 34.7264L17.4465 36.5952L16.2177 35.8912Z" fill="#213147"/>
<path d="M23.0016 16.2433H20.0192C19.8016 16.2433 19.5968 16.3841 19.52 16.5889L13.1328 34.0993L16.2176 35.8785L23.2576 16.5889C23.3216 16.4097 23.1936 16.2305 23.0144 16.2305L23.0016 16.2433Z" fill="white"/>
<path d="M28.224 16.2433H25.2416C25.024 16.2433 24.8192 16.3841 24.7424 16.5889L17.4464 36.5825L20.5312 38.3617L28.4672 16.5889C28.5312 16.4097 28.4032 16.2305 28.224 16.2305V16.2433Z" fill="white"/>
</g>
<defs>
<clipPath id="clip0_295_462">
<rect width="32" height="32" fill="white" transform="translate(8 8)"/>
</clipPath>
</defs>
</svg>
