<svg width="48" height="48" viewBox="0 0 48 48" fill="none" xmlns="http://www.w3.org/2000/svg">
<rect width="48" height="48" rx="12" fill="#E0E0FF" fill-opacity="0.04"/>
<g clip-path="url(#clip0_295_335)">
<path d="M33.8683 13.4893H14.1104V31.4467H33.8683V13.4893Z" fill="white"/>
<path fill-rule="evenodd" clip-rule="evenodd" d="M39.9893 24C39.9893 32.8249 32.8308 39.9787 24 39.9787C15.1693 39.9787 8.01064 32.8249 8.01064 24C8.01064 15.1752 15.1693 8.02124 24 8.02124C32.8308 8.02124 39.9893 15.1752 39.9893 24ZM19.4691 30.3587H16.366C15.7139 30.3587 15.3918 30.3587 15.1955 30.2332C14.9833 30.0957 14.8537 29.868 14.838 29.6168C14.8262 29.3853 14.9873 29.1026 15.3094 28.5373L22.9713 15.0411C23.2973 14.468 23.4623 14.1815 23.6704 14.0755C23.8943 13.9617 24.1614 13.9617 24.3853 14.0755C24.5935 14.1815 24.7585 14.468 25.0845 15.0411L26.6596 17.7889L26.6677 17.8029C27.0198 18.4177 27.1984 18.7295 27.2763 19.0568C27.3627 19.414 27.3627 19.7908 27.2763 20.148C27.1978 20.4777 27.021 20.7918 26.6635 21.4159L22.6389 28.5255L22.6285 28.5438C22.2741 29.1636 22.0944 29.4778 21.8455 29.7149C21.5745 29.974 21.2484 30.1623 20.891 30.2685C20.565 30.3587 20.1997 30.3587 19.4691 30.3587ZM27.3054 30.3587H31.7517C32.4077 30.3587 32.7377 30.3587 32.9342 30.2293C33.1463 30.0919 33.2798 29.8602 33.2917 29.6091C33.303 29.3851 33.1454 29.1134 32.8367 28.581C32.8261 28.5628 32.8154 28.5444 32.8046 28.5256L30.5773 24.718L30.552 24.6752C30.239 24.1463 30.0811 23.8792 29.8782 23.776C29.6544 23.6621 29.391 23.6621 29.1672 23.776C28.963 23.8819 28.798 24.1606 28.472 24.722L26.2527 28.5296L26.2451 28.5427C25.9202 29.1031 25.7578 29.3832 25.7696 29.6129C25.7853 29.8642 25.9149 30.0957 26.127 30.2332C26.3195 30.3587 26.6494 30.3587 27.3054 30.3587Z" fill="#E84142"/>
</g>
<defs>
<clipPath id="clip0_295_335">
<rect width="32" height="32" fill="white" transform="translate(8 8)"/>
</clipPath>
</defs>
</svg>
