<svg width="48" height="48" viewBox="0 0 48 48" fill="none" xmlns="http://www.w3.org/2000/svg">
<rect width="48" height="48" rx="12" fill="#E0E0FF" fill-opacity="0.04"/>
<rect x="8" y="8" width="32" height="32" rx="16" fill="#F7931A"/>
<path fill-rule="evenodd" clip-rule="evenodd" d="M31.0527 21.7207C31.3712 19.5917 29.7502 18.4472 27.5337 17.6837L28.2527 14.7997L26.4972 14.3622L25.7972 17.1702C25.3357 17.0552 24.8617 16.9467 24.3907 16.8392L25.0957 14.0127L23.3412 13.5752L22.6217 16.4582C22.2397 16.3712 21.8647 16.2852 21.5007 16.1947L21.5027 16.1857L19.0817 15.5812L18.6147 17.4562C18.6147 17.4562 19.9172 17.7547 19.8897 17.7732C20.6007 17.9507 20.7292 18.4212 20.7077 18.7942L19.8887 22.0797C19.9377 22.0922 20.0012 22.1102 20.0712 22.1382L20.0117 22.1233C19.971 22.1131 19.9288 22.1026 19.8857 22.0922L18.7377 26.6947C18.6507 26.9107 18.4302 27.2347 17.9332 27.1117C17.9507 27.1372 16.6572 26.7932 16.6572 26.7932L15.7857 28.8027L18.0702 29.3722C18.3254 29.4361 18.5775 29.5019 18.827 29.5669C18.993 29.6102 19.1579 29.6532 19.3217 29.6952L18.5952 32.6122L20.3487 33.0497L21.0682 30.1637C21.5472 30.2937 22.0122 30.4137 22.4672 30.5267L21.7502 33.3992L23.5057 33.8367L24.2322 30.9252C27.2257 31.4917 29.4767 31.2632 30.4242 28.5557C31.1877 26.3757 30.3862 25.1182 28.8112 24.2982C29.9582 24.0337 30.8222 23.2792 31.0527 21.7207ZM27.0417 27.3453C26.544 29.3454 23.4134 28.5185 21.981 28.1402C21.8521 28.1061 21.737 28.0757 21.6387 28.0513L22.6027 24.1868C22.7223 24.2167 22.8684 24.2495 23.034 24.2866L23.034 24.2866C24.5156 24.619 27.5517 25.3003 27.0417 27.3453ZM23.3317 22.4932C24.526 22.8119 27.131 23.5071 27.5847 21.6893C28.0481 19.8299 25.5162 19.2695 24.2797 18.9957C24.1406 18.9649 24.0179 18.9378 23.9177 18.9128L23.0437 22.4178C23.1263 22.4384 23.2232 22.4642 23.3317 22.4932Z" fill="white"/>
</svg>
