<svg width="48" height="48" viewBox="0 0 48 48" fill="none" xmlns="http://www.w3.org/2000/svg">
<rect width="48" height="48" rx="12" fill="#E0E0FF" fill-opacity="0.04"/>
<g clip-path="url(#clip0_295_367)">
<circle cx="24" cy="24" r="16" fill="#F3BA2F"/>
<path fill-rule="evenodd" clip-rule="evenodd" d="M19.0285 21.9573L24 16.9859L28.9742 21.9599L31.867 19.0671L24 11.2L16.1357 19.0645L19.0285 21.9573ZM14.0929 21.1068L16.9856 23.9995L14.0928 26.8924L11.2 23.9997L14.0929 21.1068ZM24.0001 31.014L19.0285 26.0426L16.1315 28.9316L16.1355 28.9356L24.0001 36.7999L31.867 28.933L31.8684 28.9314L28.974 26.0402L24.0001 31.014ZM36.8004 24.0008L33.9075 26.8937L31.0147 24.001L33.9076 21.1081L36.8004 24.0008ZM26.9355 23.9984H26.9343L26.9369 23.9998L26.9355 24.0014L24.0001 26.9369L21.0672 24.0041L21.0632 23.9998L21.0672 23.9958L21.5814 23.4816L21.8305 23.2323H21.8307L24.0001 21.0629L26.9355 23.9984Z" fill="white"/>
</g>
<defs>
<clipPath id="clip0_295_367">
<rect width="32" height="32" fill="white" transform="translate(8 8)"/>
</clipPath>
</defs>
</svg>
