<svg width="48" height="48" viewBox="0 0 48 48" fill="none" xmlns="http://www.w3.org/2000/svg">
<rect width="48" height="48" rx="12" fill="#E0E0FF" fill-opacity="0.04"/>
<g clip-path="url(#clip0_295_320)">
<path d="M24 40C32.8366 40 40 32.8366 40 24C40 15.1634 32.8366 8 24 8C15.1634 8 8 15.1634 8 24C8 32.8366 15.1634 40 24 40Z" fill="#2E3148"/>
<path d="M24 33.284C29.1274 33.284 33.284 29.1274 33.284 24C33.284 18.8726 29.1274 14.7161 24 14.7161C18.8726 14.7161 14.716 18.8726 14.716 24C14.716 29.1274 18.8726 33.284 24 33.284Z" fill="#1B1E36"/>
<path d="M24.0329 10.0413C22.3058 10.0413 20.9053 16.3056 20.9053 24.0331C20.9053 31.7606 22.3058 38.0249 24.0329 38.0249C25.76 38.0249 27.1604 31.7606 27.1604 24.0331C27.1604 16.3056 25.76 10.0413 24.0329 10.0413ZM24.2488 37.2352C24.0513 37.4987 23.8538 37.301 23.8538 37.301C23.0584 36.3794 22.6607 34.6673 22.6607 34.6673C21.2695 30.19 21.6006 20.5768 21.6006 20.5768C22.2545 12.9449 23.4438 11.1421 23.8486 10.7418C23.8899 10.701 23.9443 10.676 24.0022 10.6713C24.0602 10.6666 24.1179 10.6825 24.1652 10.7162C24.7525 11.1323 25.2451 12.8726 25.2451 12.8726C26.6995 18.2718 26.5678 23.3417 26.5678 23.3417C26.6995 27.7533 25.839 32.6915 25.839 32.6915C25.1766 36.4445 24.2488 37.2352 24.2488 37.2352Z" fill="#6F7390"/>
<path d="M36.1692 17.0699C35.3093 15.5713 29.1793 17.4741 22.4732 21.3195C15.7672 25.1649 11.0368 29.4973 11.8961 30.9953C12.7553 32.4932 18.886 30.591 25.5921 26.7457C32.2981 22.9003 37.0285 18.5679 36.1692 17.0699ZM12.6894 30.7897C12.3602 30.7482 12.4346 30.4776 12.4346 30.4776C12.8384 29.3293 14.1235 28.1323 14.1235 28.1323C17.3162 24.6973 25.82 20.2008 25.82 20.2008C32.7645 16.9698 34.9216 17.1061 35.4688 17.2568C35.525 17.2724 35.5738 17.3075 35.6066 17.3557C35.6394 17.4039 35.654 17.4622 35.648 17.5202C35.5822 18.237 34.3146 19.5298 34.3146 19.5298C30.3579 23.4797 25.8944 25.889 25.8944 25.889C22.1334 28.1994 17.4217 29.9093 17.4217 29.9093C13.8365 31.2012 12.6895 30.7897 12.6895 30.7897H12.6894Z" fill="#6F7390"/>
<path d="M36.1389 31.0454C37.0054 29.5507 32.287 25.1984 25.6045 21.3241C18.922 17.4498 12.7927 15.5234 11.9269 17.0206C11.0611 18.5179 15.7788 22.8676 22.4652 26.7419C29.1515 30.6162 35.2731 32.5427 36.1389 31.0454ZM12.5011 17.5982C12.3731 17.2947 12.6433 17.2216 12.6433 17.2216C13.8396 16.9957 15.52 17.5105 15.52 17.5105C20.0915 18.5515 28.2432 23.6577 28.2432 23.6577C34.5194 28.0495 35.482 29.984 35.6262 30.5331C35.6409 30.5894 35.6352 30.6491 35.6102 30.7016C35.5851 30.7542 35.5423 30.7962 35.4893 30.8202C34.8348 31.1198 33.082 30.6734 33.082 30.6734C27.6795 29.2248 23.3588 26.5707 23.3588 26.5707C19.4767 24.4769 15.638 21.2551 15.638 21.2551C12.7212 18.7992 12.502 17.6015 12.502 17.6015L12.5011 17.5982Z" fill="#6F7390"/>
<path d="M24 25.6462C24.9091 25.6462 25.6461 24.9092 25.6461 24.0001C25.6461 23.091 24.9091 22.354 24 22.354C23.0909 22.354 22.3539 23.091 22.3539 24.0001C22.3539 24.9092 23.0909 25.6462 24 25.6462Z" fill="#B7B9C8"/>
<path d="M30.7489 18.6667C31.2762 18.6667 31.7037 18.2245 31.7037 17.6791C31.7037 17.1336 31.2762 16.6914 30.7489 16.6914C30.2216 16.6914 29.7942 17.1336 29.7942 17.6791C29.7942 18.2245 30.2216 18.6667 30.7489 18.6667Z" fill="#B7B9C8"/>
<path d="M15.0781 22.0246C15.6054 22.0246 16.0329 21.5824 16.0329 21.037C16.0329 20.4915 15.6054 20.0493 15.0781 20.0493C14.5508 20.0493 14.1234 20.4915 14.1234 21.037C14.1234 21.5824 14.5508 22.0246 15.0781 22.0246Z" fill="#B7B9C8"/>
<path d="M22.0576 34.1398C22.5849 34.1398 23.0123 33.6977 23.0123 33.1522C23.0123 32.6067 22.5849 32.1646 22.0576 32.1646C21.5303 32.1646 21.1028 32.6067 21.1028 33.1522C21.1028 33.6977 21.5303 34.1398 22.0576 34.1398Z" fill="#B7B9C8"/>
</g>
<defs>
<clipPath id="clip0_295_320">
<rect width="32" height="32" fill="white" transform="translate(8 8)"/>
</clipPath>
</defs>
</svg>
