<svg width="48" height="48" viewBox="0 0 48 48" fill="none" xmlns="http://www.w3.org/2000/svg">
<rect width="48" height="48" rx="12" fill="#E0E0FF" fill-opacity="0.04"/>
<g clip-path="url(#clip0_6_531)">
<path d="M15.8899 15.8009L13.5623 13.4722L13.5713 30.2926L13.5994 31.0779C13.6106 31.4491 13.6809 31.8654 13.7934 32.2985L32.2294 38.801L36.8419 36.7591L36.8458 36.7524L15.8888 15.8009H15.8899Z" fill="#00C4B3"/>
<path d="M13.794 32.2986H13.7957C13.794 32.2919 13.7912 32.284 13.7878 32.2761C13.7918 32.2846 13.7918 32.293 13.7935 32.2986H13.794ZM36.8374 36.7592L32.2249 38.8011L13.7918 32.2986C14.1433 33.6509 14.9235 35.1707 15.7617 35.9999L21.7748 41.9832L35.1555 42.0001L36.8318 36.7592H36.8374Z" fill="#22D3C5"/>
<path d="M13.6253 13.4731L6.45733 24.2985C5.8622 24.9341 6.1592 26.2458 7.11714 27.2122L11.2549 31.3837L13.8559 32.3006C13.7434 31.8686 13.6725 31.4568 13.6618 31.08L13.6337 30.2947L13.6253 13.4743V13.4731Z" fill="#0075C9"/>
<path d="M32.3813 13.6894C31.9481 13.5797 31.533 13.5105 31.1589 13.4999L30.3276 13.4695L13.5623 13.4734L36.8453 36.753L38.8905 32.1405L32.3824 13.6905L32.3813 13.6894Z" fill="#0075C9"/>
<path d="M32.3599 13.6855C32.3672 13.6883 32.3751 13.69 32.3812 13.6911V13.6888C32.3739 13.6871 32.3672 13.6871 32.3599 13.6843V13.6855ZM36.0808 15.6643C35.2342 14.8121 33.7352 14.0331 32.3812 13.6911L38.8894 32.1394L36.8419 36.7519L41.838 35.1555L41.8492 21.4575L36.0802 15.6638L36.0808 15.6643Z" fill="#00A8E1"/>
<path d="M31.469 11.1046L27.3065 6.96464C26.3356 6.01008 25.0238 5.71195 24.3938 6.30595L13.5691 13.4722L30.3344 13.4683L31.1658 13.4986C31.5398 13.5099 31.9555 13.5785 32.3881 13.6882L31.4701 11.1035L31.469 11.1046Z" fill="#00C4B3"/>
</g>
<defs>
<clipPath id="clip0_6_531">
<rect width="36" height="36" fill="white" transform="translate(6 6)"/>
</clipPath>
</defs>
</svg>
