<svg width="48" height="48" viewBox="0 0 48 48" fill="none" xmlns="http://www.w3.org/2000/svg">
<rect width="48" height="48" rx="12" fill="#E0E0FF" fill-opacity="0.04"/>
<g clip-path="url(#clip0_102_5459)">
<path fill-rule="evenodd" clip-rule="evenodd" d="M24 8C32.8372 8 40 15.1628 40 24C40 32.8372 32.8372 40 24 40C15.1628 40 8 32.8372 8 24C8 15.1628 15.1628 8 24 8Z" fill="white"/>
<path fill-rule="evenodd" clip-rule="evenodd" d="M24.0002 13C24.1179 13 24.2285 13.0565 24.2974 13.152L29.0641 19.752C29.0938 19.7932 29.1147 19.8401 29.1254 19.8898L31.3254 30.1565C31.3576 30.3068 31.2926 30.4613 31.1626 30.5433L24.196 34.9433C24.0764 35.0189 23.924 35.0189 23.8044 34.9433L16.8377 30.5433C16.7077 30.4613 16.6428 30.3068 16.675 30.1565L18.875 19.8898C18.8856 19.8401 18.9065 19.7932 18.9362 19.752L23.7029 13.152C23.7718 13.0565 23.8824 13 24.0002 13ZM19.5759 20.1189L17.4456 30.06L24.0002 34.1997L30.5547 30.06L28.4245 20.1189L24.0002 13.9929L19.5759 20.1189Z" fill="black"/>
<path fill-rule="evenodd" clip-rule="evenodd" d="M24 18.1333C24.1294 18.1333 24.2492 18.2015 24.3153 18.3128L31.282 30.0461C31.3853 30.2202 31.328 30.4452 31.1539 30.5486C30.9798 30.652 30.7548 30.5946 30.6514 30.4205L24 19.2182L17.3486 30.4205C17.2452 30.5946 17.0203 30.652 16.8462 30.5486C16.672 30.4452 16.6147 30.2202 16.7181 30.0461L23.6847 18.3128C23.7508 18.2015 23.8706 18.1333 24 18.1333Z" fill="black"/>
<path fill-rule="evenodd" clip-rule="evenodd" d="M24 13C24.2025 13 24.3666 13.1642 24.3666 13.3667V18.5C24.3666 18.7025 24.2025 18.8667 24 18.8667C23.7975 18.8667 23.6333 18.7025 23.6333 18.5V13.3667C23.6333 13.1642 23.7975 13 24 13Z" fill="black"/>
<path fill-rule="evenodd" clip-rule="evenodd" d="M16.6666 30.2334C16.6666 30.0309 16.8308 29.8667 17.0333 29.8667H30.9666C31.1691 29.8667 31.3333 30.0309 31.3333 30.2334C31.3333 30.4359 31.1691 30.6 30.9666 30.6H17.0333C16.8308 30.6 16.6666 30.4359 16.6666 30.2334Z" fill="black"/>
<path fill-rule="evenodd" clip-rule="evenodd" d="M19.1201 19.6179C19.3127 19.5553 19.5195 19.6607 19.5821 19.8533L24.0001 33.447L28.418 19.8533C28.4806 19.6607 28.6875 19.5553 28.8801 19.6179C29.0727 19.6805 29.178 19.8874 29.1154 20.08L24.3488 34.7466C24.2997 34.8977 24.1589 35 24.0001 35C23.8412 35 23.7005 34.8977 23.6514 34.7466L18.8847 20.08C18.8221 19.8874 18.9275 19.6805 19.1201 19.6179Z" fill="black"/>
</g>
<defs>
<clipPath id="clip0_102_5459">
<rect width="32" height="32" fill="white" transform="translate(8 8)"/>
</clipPath>
</defs>
</svg>
