<svg width="48" height="48" viewBox="0 0 48 48" fill="none" xmlns="http://www.w3.org/2000/svg">
<rect width="48" height="48" rx="12" fill="#E0E0FF" fill-opacity="0.04"/>
<g clip-path="url(#clip0_298_213)">
<path d="M40 31.3423C23.2701 33.5288 11.3292 36.1548 11.1525 25.3758C11.1525 25.3758 11.5176 21.1992 16.6402 20.9362C16.6402 20.9362 16.8129 17.2267 20.7265 16.8067C22.8305 16.5791 25.221 18.7459 25.4801 21.0265C25.4801 21.0265 30.6576 20.0687 30.8814 25.1167C30.9599 26.8753 30.5634 29.8664 25.5704 29.7369C25.5704 29.7369 22.6813 29.3443 22.2888 24.8773C21.4762 33.5248 33.9785 33.0224 34.1591 25.1677C34.2376 21.7723 32.0629 18.2787 27.1641 18.9343C24.4791 12.1787 17.3311 12.5673 14.6697 18.8322C10.866 18.8322 7.9573 21.7605 8.00047 25.5838C8.14571 37.8898 25.2721 34.1804 40 31.3423Z" fill="white"/>
</g>
<defs>
<clipPath id="clip0_298_213">
<rect width="32" height="20.25" fill="white" transform="translate(8 14)"/>
</clipPath>
</defs>
</svg>
