<svg width="48" height="48" viewBox="0 0 48 48" fill="none" xmlns="http://www.w3.org/2000/svg">
<rect width="48" height="48" rx="12" fill="#E0E0FF" fill-opacity="0.04"/>
<path d="M40 32.7949C38.836 33.0909 38.116 32.8079 37.47 31.8379L32.876 25.4819L32.212 24.6019L26.847 31.8589C26.234 32.7319 25.591 33.1119 24.447 32.8029L31.317 23.5809L24.921 15.2509C26.021 15.0369 26.781 15.1459 27.456 16.1309L32.221 22.5659L37.021 16.1659C37.636 15.2929 38.297 14.9609 39.401 15.2829L36.921 18.5709L33.561 22.9459C33.161 23.4459 33.216 23.7879 33.584 24.2709L40 32.7949ZM8.008 23.4269L8.57 20.6629C10.1 15.1929 16.37 12.9199 20.694 16.2999C23.221 18.2879 23.849 21.0999 23.724 24.2499H9.48C9.266 29.9199 13.347 33.3419 18.55 31.5959C20.375 30.9829 21.45 29.5539 21.988 27.7659C22.261 26.8699 22.713 26.7299 23.555 26.9859C23.125 29.2219 22.155 31.0899 20.105 32.2589C17.042 34.0089 12.67 33.4429 10.37 31.0109C9 29.5999 8.434 27.8119 8.18 25.8999C8.14 25.5839 8.06 25.2829 8 24.9799C8.00533 24.4626 8.008 23.9452 8.008 23.4279V23.4269ZM9.506 23.0469H22.378C22.294 18.9469 19.741 16.0349 16.252 16.0099C12.422 15.9799 9.672 18.8229 9.506 23.0469Z" fill="white"/>
</svg>
