<svg width="48" height="48" viewBox="0 0 48 48" fill="none" xmlns="http://www.w3.org/2000/svg">
<rect width="48" height="48" rx="12" fill="#E0E0FF" fill-opacity="0.04"/>
<g clip-path="url(#clip0_298_383)">
<path d="M13.6667 8H34.3333C37.4667 8 40 10.5983 40 13.812V34.188C40 37.4017 37.4667 40 34.3333 40H13.6667C10.5333 40 8 37.4017 8 34.188V13.812C8 10.5983 10.5333 8 13.6667 8Z" fill="black"/>
<g clip-path="url(#clip1_298_383)">
<path d="M20.2506 33.9999C22.0443 33.9999 23.5 32.5066 23.5 30.6666V27.3333H20.2506C18.457 27.3333 17.0013 28.8266 17.0013 30.6666C17.0013 32.5066 18.457 33.9999 20.2506 33.9999Z" fill="#0ACF83"/>
<path d="M17.0013 24.0001C17.0013 22.1601 18.457 20.6667 20.2506 20.6667H23.5V27.3334H20.2506C18.457 27.3334 17.0013 25.8401 17.0013 24.0001Z" fill="#A259FF"/>
<path d="M17.0015 17.3333C17.0015 15.4933 18.4572 14 20.2508 14H23.5002V20.6667H20.2508C18.4572 20.6667 17.0015 19.1733 17.0015 17.3333Z" fill="#F24E1E"/>
<path d="M23.5 14H26.7494C28.543 14 29.9987 15.4933 29.9987 17.3333C29.9987 19.1733 28.543 20.6667 26.7494 20.6667H23.5V14Z" fill="#FF7262"/>
<path d="M29.9987 24.0001C29.9987 25.8401 28.543 27.3334 26.7494 27.3334C24.9557 27.3334 23.5 25.8401 23.5 24.0001C23.5 22.1601 24.9557 20.6667 26.7494 20.6667C28.543 20.6667 29.9987 22.1601 29.9987 24.0001Z" fill="#1ABCFE"/>
</g>
</g>
<defs>
<clipPath id="clip0_298_383">
<rect width="32" height="32" fill="white" transform="translate(8 8)"/>
</clipPath>
<clipPath id="clip1_298_383">
<rect width="13" height="20" fill="white" transform="translate(17 14)"/>
</clipPath>
</defs>
</svg>
