<svg width="48" height="48" viewBox="0 0 48 48" fill="none" xmlns="http://www.w3.org/2000/svg">
<rect width="48" height="48" rx="12" fill="#E0E0FF" fill-opacity="0.04"/>
<mask id="mask0_6_889" style="mask-type:luminance" maskUnits="userSpaceOnUse" x="11" y="8" width="26" height="32">
<path d="M36.8413 22.766L28.2276 31.3829L36.8413 39.9998H26.9983L18.3815 31.3829L26.9983 22.766H36.8413ZM26.9983 8L11 23.9983L15.923 28.9214L36.8413 8H26.9983Z" fill="white"/>
</mask>
<g mask="url(#mask0_6_889)">
<path d="M18.3845 31.383L23.3045 36.306L36.8413 22.7661H26.9983L18.3845 31.383Z" fill="#39CEFD"/>
</g>
<mask id="mask1_6_889" style="mask-type:luminance" maskUnits="userSpaceOnUse" x="11" y="8" width="26" height="32">
<path d="M36.8413 22.766L28.2276 31.3829L36.8413 39.9998H26.9983L18.3815 31.3829L26.9983 22.766H36.8413ZM26.9983 8L11 23.9983L15.923 28.9214L36.8413 8H26.9983Z" fill="white"/>
</mask>
<g mask="url(#mask1_6_889)">
<path d="M26.9983 8H36.8413L15.923 28.9214L11 23.9983L26.9983 8Z" fill="#39CEFD"/>
</g>
<mask id="mask2_6_889" style="mask-type:luminance" maskUnits="userSpaceOnUse" x="11" y="8" width="26" height="32">
<path d="M36.8413 22.766L28.2276 31.3829L36.8413 39.9998H26.9983L18.3815 31.3829L26.9983 22.766H36.8413ZM26.9983 8L11 23.9983L15.923 28.9214L36.8413 8H26.9983Z" fill="white"/>
</mask>
<g mask="url(#mask2_6_889)">
<path d="M23.3046 36.3059L26.9984 39.9966H36.8414L28.2276 31.3828L23.3046 36.3059Z" fill="#03569B"/>
</g>
<mask id="mask3_6_889" style="mask-type:luminance" maskUnits="userSpaceOnUse" x="11" y="8" width="26" height="32">
<path d="M36.8413 22.766L28.2276 31.3829L36.8413 39.9998H26.9983L18.3815 31.3829L26.9983 22.766H36.8413ZM26.9983 8L11 23.9983L15.923 28.9214L36.8413 8H26.9983Z" fill="white"/>
</mask>
<g mask="url(#mask3_6_889)">
<path d="M30.6059 33.7766L28.2276 31.3828L23.3046 36.3059L30.6059 33.7766Z" fill="url(#paint0_linear_6_889)"/>
</g>
<mask id="mask4_6_889" style="mask-type:luminance" maskUnits="userSpaceOnUse" x="11" y="8" width="26" height="32">
<path d="M36.8413 22.766L28.2276 31.3829L36.8413 39.9998H26.9983L18.3815 31.3829L26.9983 22.766H36.8413ZM26.9983 8L11 23.9983L15.923 28.9214L36.8413 8H26.9983Z" fill="white"/>
</mask>
<g mask="url(#mask4_6_889)">
<path d="M18.384 31.3812L23.3072 26.458L28.2307 31.3812L23.3072 36.3044L18.384 31.3812Z" fill="#16B9FD"/>
</g>
<path d="M36.8413 22.766L28.2276 31.3829L36.8413 39.9998H26.9983L18.3815 31.3829L26.9983 22.766H36.8413ZM26.9983 8L11 23.9983L15.923 28.9214L36.8413 8H26.9983Z" fill="url(#paint1_radial_6_889)"/>
<defs>
<linearGradient id="paint0_linear_6_889" x1="24.7413" y1="37.2559" x2="28.4078" y2="33.5894" gradientUnits="userSpaceOnUse">
<stop stop-color="#1A237E" stop-opacity="0.4"/>
<stop offset="1" stop-color="#1A237E" stop-opacity="0"/>
</linearGradient>
<radialGradient id="paint1_radial_6_889" cx="0" cy="0" r="1" gradientUnits="userSpaceOnUse" gradientTransform="translate(11.726 10.181) scale(39.1478)">
<stop stop-color="white" stop-opacity="0.1"/>
<stop offset="1" stop-color="white" stop-opacity="0"/>
</radialGradient>
</defs>
</svg>
