<svg width="48" height="48" viewBox="0 0 48 48" fill="none" xmlns="http://www.w3.org/2000/svg">
<rect width="48" height="48" rx="12" fill="#E0E0FF" fill-opacity="0.04"/>
<g clip-path="url(#clip0_6_580)">
<path d="M7.86788 21.2493C7.79366 21.2493 7.7754 21.2128 7.81237 21.1584L8.20083 20.6677C8.23794 20.6132 8.33026 20.5768 8.40419 20.5768H15.0092C15.0834 20.5768 15.1017 20.6314 15.0647 20.6859L14.75 21.1584C14.7129 21.213 14.6206 21.2675 14.5651 21.2675L7.86758 21.2493H7.86788ZM5.07429 22.9215C5.00007 22.9215 4.98181 22.8851 5.01877 22.8307L5.40723 22.34C5.44434 22.2854 5.53667 22.2491 5.61059 22.2491H14.0473C14.1216 22.2491 14.1584 22.3037 14.1398 22.3582L13.9918 22.7942C13.9733 22.8672 13.8993 22.9033 13.8253 22.9033L5.07429 22.9215ZM9.55161 24.5938C9.47739 24.5938 9.45913 24.5393 9.49609 24.4847L9.75512 24.0303C9.79222 23.9758 9.86615 23.9212 9.94007 23.9212H13.6403C13.7145 23.9212 13.7513 23.9758 13.7513 24.0484L13.7142 24.4844C13.7142 24.5574 13.64 24.6116 13.5848 24.6116L9.55146 24.5934L9.55161 24.5938ZM28.7565 20.922L25.6477 21.7218C25.3701 21.7947 25.3517 21.8126 25.1111 21.5401C24.8335 21.2309 24.6302 21.0297 24.2416 20.8494C23.076 20.2859 21.9473 20.4495 20.8928 21.1221C19.6347 21.9219 18.9872 23.1034 19.0056 24.5757C19.0241 26.0297 20.0417 27.2296 21.5033 27.4297C22.7615 27.5933 23.816 27.157 24.6487 26.2301C24.8153 26.0303 24.9634 25.812 25.1482 25.5575H21.5776C21.1891 25.5575 21.0966 25.3212 21.2261 25.0121C21.4665 24.4486 21.9107 23.5034 22.1697 23.0308C22.2252 22.9217 22.3546 22.74 22.6322 22.74H29.3668C29.3297 23.2307 29.3297 23.7214 29.2558 24.2123C29.0524 25.521 28.5528 26.7207 27.7388 27.775C26.4067 29.5017 24.6676 30.5743 22.4658 30.8652C20.6527 31.1015 18.9691 30.7562 17.4887 29.6656C16.118 28.6474 15.3425 27.3022 15.1389 25.6301C14.8985 23.6488 15.4904 21.8676 16.7116 20.3043C18.0253 18.6138 19.7644 17.5413 21.8921 17.1597C23.6312 16.8505 25.2964 17.0506 26.795 18.0503C27.7756 18.6864 28.4786 19.5589 28.9414 20.6133C29.0524 20.7769 28.9785 20.8678 28.7565 20.9225V20.922Z" fill="#00ACD7"/>
<path d="M34.88 30.974C33.1964 30.9375 31.6607 30.4636 30.3656 29.3742C29.274 28.4471 28.5894 27.2654 28.3676 25.866C28.0345 23.812 28.6081 21.9942 29.8662 20.3766C31.217 18.6315 32.8449 17.7227 35.0467 17.341C36.9339 17.0138 38.7102 17.1957 40.3197 18.2681C41.7813 19.2496 42.6878 20.5767 42.9284 22.3215C43.2431 24.7755 42.5214 26.7749 40.8007 28.4836C39.5797 29.7013 38.0811 30.4649 36.3604 30.8102C35.8609 30.9011 35.3614 30.9193 34.8805 30.9738L34.88 30.974ZM39.2834 23.6305C39.2649 23.3943 39.2649 23.2124 39.2279 23.0307C38.8948 21.2312 37.2112 20.2132 35.4536 20.6133C33.7329 20.9949 32.6229 22.0672 32.2159 23.7761C31.8828 25.1939 32.5859 26.63 33.918 27.2115C34.9355 27.6475 35.9531 27.5931 36.9338 27.1024C38.3955 26.3587 39.1908 25.1939 39.2834 23.6305Z" fill="#00ACD7"/>
</g>
<defs>
<clipPath id="clip0_6_580">
<rect width="38" height="14" fill="white" transform="translate(5 17)"/>
</clipPath>
</defs>
</svg>
