<svg width="48" height="48" viewBox="0 0 48 48" fill="none" xmlns="http://www.w3.org/2000/svg">
<rect width="48" height="48" rx="12" fill="#E0E0FF" fill-opacity="0.04"/>
<g clip-path="url(#clip0_6_926)">
<path d="M11.126 10.2809C11.2595 10.0809 11.511 9.98093 11.7445 9.96093C11.9405 9.93743 12.1325 10.0029 12.3135 10.0709C12.4935 10.1629 12.645 10.3009 12.8075 10.4199C12.9515 10.5174 13.0595 10.6599 13.15 10.8069C13.28 11.1089 13.363 11.4384 13.327 11.7694C13.271 11.8344 13.2245 11.9094 13.1595 11.9654C13.0485 12.0474 12.921 12.1024 12.7935 12.1524L13.211 12.6124C13.361 12.7639 13.452 12.9664 13.5695 13.1454C13.6725 13.0179 13.838 12.9794 13.9635 12.8804C14.1465 12.7464 14.3145 12.5869 14.5215 12.4884C14.5855 12.4664 14.6555 12.4774 14.7215 12.4719L14.7815 12.5149C14.788 12.7399 14.9015 12.9399 14.9715 13.1484L15.3495 14.2159C15.3885 14.2174 15.4275 14.2149 15.4665 14.2134C15.5165 13.9859 15.635 13.7884 15.7415 13.5869C15.849 13.4104 15.9235 13.2144 16.055 13.0529C16.219 12.8419 16.362 12.6104 16.564 12.4329L16.686 12.4359C16.698 12.7049 16.6735 12.9759 16.726 13.2419C16.772 13.4449 16.741 13.6544 16.7725 13.8589C16.811 14.1589 16.7485 14.4589 16.8425 14.7459C16.98 14.9859 17.2175 15.1459 17.3715 15.3674L18.0695 16.1459C18.2015 16.2994 18.297 16.4819 18.4345 16.6309C18.5435 16.7524 18.6285 16.8944 18.7425 17.0124C18.7925 17.0689 18.8425 17.1349 18.8835 17.2024C18.951 17.3154 19.057 17.3984 19.1265 17.5104C19.1955 17.6104 19.2565 17.7134 19.3495 17.7854C19.4395 17.7524 19.5155 17.6774 19.6195 17.7029L19.6795 17.7689C19.741 17.7789 19.822 17.7684 19.853 17.8369C19.923 17.9769 20.034 18.0939 20.09 18.2369C20.205 18.1619 20.332 18.1059 20.4485 18.0369C20.6185 17.9339 20.821 17.9659 21.0095 17.9589C21.1705 17.9499 21.3275 18.0264 21.488 17.9839C21.663 17.9379 21.808 18.0949 21.988 18.0739C22.0965 18.0414 22.188 17.9739 22.2955 17.9314L22.9455 17.7014C23.182 17.5829 23.4375 17.5144 23.6885 17.4384L24.465 17.3314C24.5985 17.3144 24.73 17.2629 24.866 17.2884C25.201 17.3344 25.5385 17.3884 25.8775 17.3784C26.1175 17.3644 26.3585 17.3934 26.5945 17.4369C26.7855 17.4719 26.9445 17.5829 27.137 17.6284C27.302 17.6784 27.453 17.7684 27.6185 17.8194C27.9305 17.9564 28.1785 18.2059 28.492 18.3419L29.117 18.7019C29.277 18.8379 29.465 18.9384 29.609 19.0944C29.696 19.1819 29.761 19.2924 29.866 19.3604C29.9575 19.4229 30.065 19.4704 30.1235 19.5704C30.3755 19.7374 30.546 19.9969 30.7545 20.2119C30.8575 20.3159 30.9295 20.4559 31.061 20.5269L31.131 20.4204C31.2045 20.3824 31.2785 20.3419 31.361 20.3244C31.6071 20.2788 31.8574 20.26 32.1075 20.2684C32.326 20.2584 32.524 20.3684 32.7375 20.3954C32.9175 20.4094 33.0725 20.5139 33.2435 20.5604C33.3445 20.5954 33.4555 20.5934 33.5535 20.6404L33.9635 20.8219L34.552 21.2244L34.902 21.5124C34.972 21.3824 35.134 21.3804 35.252 21.3194C35.498 21.2034 35.748 21.0894 35.972 20.9334C36.1424 20.8237 36.3225 20.7298 36.51 20.6529C36.9165 20.4529 37.311 20.2119 37.746 20.0719C37.866 20.0149 38.008 20.0039 38.109 19.9104C38.012 19.7504 38.089 19.5704 38.114 19.4024C38.1375 19.2399 38.243 19.1059 38.3555 18.9939C38.5772 18.8302 38.8476 18.746 39.123 18.7549C39.3715 18.7314 39.608 18.8649 39.766 19.0549C39.8575 19.1829 39.9345 19.3249 39.991 19.4719C39.937 19.5979 39.919 19.7334 39.882 19.8639C39.832 20.0159 39.6995 20.1069 39.594 20.2139C39.421 20.3454 39.252 20.4999 39.029 20.5324L38.469 20.4424C38.372 20.5274 38.3105 20.6489 38.2 20.7194C38.128 20.7654 38.085 20.8409 38.0215 20.8959L37.5215 21.3109L36.8215 21.7599C36.683 21.8629 36.559 21.9879 36.4015 22.0624C36.0935 22.2124 35.8515 22.4624 35.5805 22.6654C35.6525 22.8229 35.6825 22.9939 35.7155 23.1629C35.7405 23.3829 35.684 23.6014 35.6855 23.8214C35.6765 23.9544 35.7005 24.0934 35.6505 24.2204C35.614 24.3329 35.5365 24.4274 35.5135 24.5454C35.4695 24.7374 35.3835 24.9154 35.326 25.1034C35.2945 25.2119 35.222 25.2999 35.173 25.4004C35.0815 25.5764 35.0245 25.7694 34.9195 25.9389L34.768 26.1739C34.668 26.3504 34.539 26.4989 34.4365 26.6699C34.2995 26.8199 34.1425 26.9459 34.035 27.1169C33.885 27.2419 33.774 27.4019 33.595 27.4789L33.5915 27.6869C33.5395 27.7754 33.4995 27.8779 33.4145 27.9399C33.3495 27.9809 33.2745 27.9414 33.2145 27.9229C33.1863 27.7681 33.1708 27.6113 33.168 27.4539L33.1545 27.5149L33.127 27.3289L33.1 27.0669L33 27.0634C32.9275 26.9884 32.85 26.9134 32.806 26.8209C32.667 26.6939 32.577 26.5209 32.446 26.3919C32.361 26.2919 32.2375 26.2144 32.174 26.0934C32.055 25.9649 31.9565 25.8164 31.8175 25.7084C31.5175 25.4209 31.1665 25.1949 30.83 24.9584C30.624 24.8449 30.42 24.7259 30.198 24.6454C29.879 24.4454 29.495 24.4454 29.15 24.3174C28.9935 24.2514 28.8215 24.2824 28.658 24.2614C28.3765 24.2114 28.0895 24.2464 27.806 24.2464C27.505 24.2354 27.206 24.3294 26.9495 24.4854C26.8525 24.5489 26.727 24.5219 26.628 24.5829C26.36 24.7319 26.076 24.8489 25.7895 24.9554L25.103 25.3184C24.8805 25.4619 24.631 25.5554 24.4145 25.7094L23.398 26.2974C23.076 26.5174 22.698 26.6544 22.4015 26.9054C22.168 27.0364 21.9715 27.2204 21.7715 27.3944C21.6865 27.4714 21.6185 27.5664 21.523 27.6304C21.398 27.7124 21.3295 27.8554 21.207 27.9414L21.196 28.0144L21.082 28.0844C21.074 28.1479 21.0945 28.2114 21.0985 28.2744C21.1155 28.4004 21.0895 28.5304 21.126 28.6544C21.1835 28.8654 21.2203 29.0814 21.236 29.2994C21.296 29.8584 21.4185 30.4154 21.653 30.9274C21.7455 31.0924 21.7805 31.2809 21.8645 31.4489C21.937 31.5954 21.9895 31.7524 22.0755 31.8924C22.1605 32.0074 22.2155 32.1409 22.299 32.2564C22.436 32.4589 22.523 32.6904 22.649 32.8964C22.699 32.9964 22.781 33.0989 22.7975 33.2199C22.839 33.4549 22.894 33.6899 22.9815 33.9124C22.9635 33.9799 22.9605 34.0624 22.9105 34.1114C22.817 34.2184 22.7105 34.3199 22.5775 34.3744C22.359 34.4744 22.1125 34.4809 21.8775 34.4979C21.716 34.5214 21.5495 34.5389 21.3905 34.4929C21.3405 34.4679 21.2935 34.5149 21.253 34.5439C21.053 34.5714 20.8845 34.6689 20.692 34.7039C20.557 34.7539 20.432 34.8279 20.292 34.8659C20.01 34.9944 19.6955 35.0274 19.389 35.0274L18.633 35.1159C18.3595 35.1124 18.092 35.1949 17.818 35.1874C17.642 35.1834 17.4645 35.1949 17.2905 35.1649C16.944 35.1139 16.6195 34.9774 16.2925 34.8579C16.1275 34.7979 15.9735 34.7079 15.8015 34.6689C15.5155 34.5989 15.2485 34.4689 15.0015 34.3189C14.923 34.2689 14.864 34.1859 14.8015 34.1189C14.5185 34.2289 14.273 34.4199 13.9815 34.5089C13.6405 34.6059 13.3585 34.8324 13.0315 34.9739L11.9565 35.5199C11.59 35.7199 11.2035 35.8869 10.8215 36.0599C10.7065 36.1099 10.5725 36.1399 10.4715 36.2299C10.4772 36.4858 10.4283 36.74 10.328 36.9754C10.258 37.0764 10.202 37.1854 10.1555 37.2989C9.91553 37.6269 9.56153 37.8469 9.19653 38.0089C9.06553 38.0779 8.91253 38.0489 8.77153 38.0389C8.62953 38.0124 8.47153 38.0039 8.35153 37.9239C8.17654 37.7982 8.05547 37.6111 8.01253 37.3999C8.00853 37.2589 7.99753 37.1169 8.01203 36.9764C8.04703 36.8329 8.12503 36.7064 8.17853 36.5694C8.24753 36.3904 8.39753 36.2694 8.52753 36.1319C8.67103 35.9999 8.81253 35.8559 8.99403 35.7819C9.20653 35.7079 9.43053 35.6519 9.65703 35.6799C9.79303 35.7009 9.95703 35.6734 10.06 35.7859C10.1875 35.6984 10.2615 35.5624 10.358 35.4459C10.68 35.2159 10.9595 34.9284 11.283 34.6959L11.805 34.1959C11.98 34.0319 12.115 33.8259 12.307 33.6799C12.4895 33.5299 12.628 33.3409 12.817 33.2049C12.982 33.0899 13.1145 32.9349 13.2705 32.8049L13.819 32.3419L13.7615 32.2779C13.7015 32.0539 13.6795 31.8279 13.688 31.5914C13.703 31.3384 13.624 31.0914 13.672 30.8344C13.698 30.6214 13.8185 30.4374 13.878 30.2344C13.9419 30.0803 14.0147 29.9301 14.096 29.7844C14.2885 29.5434 14.396 29.2494 14.585 29.0024L15.103 28.2989C15.1975 28.1686 15.3253 28.0662 15.473 28.0024C15.438 27.8614 15.456 27.7139 15.423 27.5734C15.351 27.2824 15.321 26.9834 15.269 26.6884C15.189 26.4404 15.0875 26.1919 15.089 25.9259C15.008 25.5659 14.9025 25.1919 14.989 24.8219C15.049 24.5619 15.049 24.2929 15.1205 24.0369C15.1595 23.8854 15.1705 23.7239 15.2395 23.5839C15.332 23.3989 15.363 23.1899 15.4495 23.0024L15.8995 22.2654L16.2355 21.8724L17.0835 21.0839C17.3425 20.8629 17.5335 20.5649 17.8135 20.3729L18.162 20.0994C18.287 19.9529 18.302 19.7474 18.2995 19.5614C18.2885 19.3679 18.4405 19.2054 18.613 19.1449C18.763 19.0949 18.892 19.0184 19.021 18.9349C18.896 18.8069 18.823 18.6414 18.721 18.4999C18.698 18.4609 18.6595 18.4249 18.663 18.3749C18.683 18.3249 18.7105 18.2749 18.736 18.2339L18.877 18.1174C18.306 17.5449 17.792 16.9174 17.3005 16.2759L16.648 15.5844C16.492 15.4504 16.363 15.2844 16.2545 15.1109C16.2045 14.7594 16.238 14.4019 16.177 14.0509L15.906 14.5239C15.775 14.7714 15.6645 15.0339 15.486 15.2514C15.4325 15.3164 15.3675 15.3764 15.3385 15.4514C15.282 15.6174 15.32 15.8014 15.26 15.9664C15.217 15.9779 15.1725 15.9839 15.1285 15.9914C15.05 15.8874 15.081 15.7524 15.046 15.6339L14.7285 14.3839C14.6635 14.2339 14.6305 14.0824 14.5815 13.9319L14.4315 13.4654C14.36 13.5094 14.2975 13.5644 14.23 13.6139C14.056 13.7169 13.85 13.7639 13.7 13.9054C13.615 13.9914 13.45 14.0134 13.37 13.9089C13.2765 13.7919 13.204 13.6599 13.118 13.5374C12.968 13.3164 12.886 13.0534 12.768 12.8149C12.702 12.6209 12.602 12.4424 12.5165 12.2569C12.3 12.2999 12.1 12.2579 11.9235 12.1699C11.782 12.0969 11.6085 12.0599 11.5235 11.9139C11.3835 11.7664 11.29 11.5839 11.1865 11.4104C11.08 11.1434 10.9985 10.8624 10.984 10.5734C10.9705 10.4534 11.07 10.3699 11.131 10.2809H11.126ZM11.185 10.6429C11.167 10.7254 11.203 10.8079 11.215 10.8889C11.288 11.1189 11.332 11.3774 11.5085 11.5529C11.6085 11.7119 11.7085 11.9069 11.907 11.9699C12.0635 12.0199 12.22 12.0859 12.387 12.1009C12.3885 12.0209 12.3695 11.9184 12.4545 11.8739C12.5445 11.8659 12.612 11.9314 12.6765 11.9839C12.7765 11.9554 12.8825 11.9379 12.9765 11.8824C13.0565 11.7844 13.1245 11.6594 13.1015 11.5324C13.0805 11.3754 13.074 11.2134 13.0135 11.0654L13.0185 11.1034C12.925 10.7769 12.6525 10.5534 12.387 10.3684C12.1705 10.2584 11.928 10.1554 11.681 10.2024C11.5676 10.228 11.4627 10.2825 11.3765 10.3605C11.2903 10.4386 11.2257 10.5376 11.189 10.6479L11.185 10.6429ZM12.822 12.5269C12.919 12.7044 12.999 12.8899 13.0835 13.0734C13.1635 13.2574 13.2955 13.4124 13.381 13.5934L13.4775 13.7734C13.7275 13.5884 14.0345 13.5294 14.2775 13.3414L14.3875 13.2014L14.491 13.1979C14.541 13.2819 14.591 13.3704 14.592 13.4729C14.586 13.7219 14.742 13.9289 14.792 14.1729C14.814 14.3029 14.864 14.4259 14.9085 14.5499C14.9595 14.8349 15.056 15.1084 15.111 15.3924C15.18 15.3224 15.244 15.2424 15.3045 15.1704C15.6295 14.6539 15.9045 14.1054 16.1665 13.5564C16.1935 13.5124 16.2415 13.4884 16.2795 13.4554L16.3795 13.5084L16.366 14.2084C16.3695 14.3834 16.328 14.5574 16.36 14.7304C16.375 14.8204 16.37 14.9104 16.381 15.0004C16.452 15.1154 16.566 15.1939 16.6445 15.3024C16.7545 15.4539 16.9085 15.5624 17.0345 15.6984C17.1695 15.8284 17.273 15.9849 17.3995 16.1219C17.552 16.2719 17.648 16.4584 17.7805 16.6204L18.807 17.8304C18.879 17.9054 18.9255 18.0004 18.9635 18.0964C19.0525 18.0464 19.166 17.9994 19.207 17.8964C19.078 17.6774 18.8955 17.4979 18.7135 17.3249C18.5635 17.1369 18.3995 16.9589 18.2765 16.7514C18.0795 16.5414 17.9265 16.2974 17.7335 16.0794C17.626 15.9294 17.4685 15.8174 17.3535 15.6694C17.142 15.4019 16.8885 15.1694 16.67 14.9129C16.609 14.7279 16.647 14.5304 16.616 14.3399C16.562 13.9664 16.6435 13.5859 16.577 13.2149L16.5605 12.8149C16.392 12.9799 16.254 13.1729 16.1265 13.3714C16.0405 13.5399 15.9255 13.6914 15.8415 13.8614C15.7575 14.0314 15.6355 14.1774 15.5385 14.3394C15.476 14.4594 15.326 14.4694 15.2075 14.4634L15.0865 14.2454C15.0365 14.1124 15.03 13.9704 14.9865 13.8354C14.88 13.5114 14.8295 13.1684 14.674 12.8624L14.62 12.7024C14.45 12.7834 14.32 12.9299 14.171 13.0364C14.021 13.1164 13.8625 13.1614 13.7295 13.2639L13.496 13.2719C13.436 13.1609 13.366 13.0544 13.2625 12.9804C13.0975 12.8614 13.02 12.6554 12.8555 12.5384L12.8675 12.5119C12.8595 12.4089 12.7265 12.5114 12.8275 12.5394L12.822 12.5269ZM23.915 17.6239C23.6665 17.6304 23.445 17.7549 23.2035 17.7989C23.0075 17.8409 22.8425 17.9674 22.6435 17.9969C22.447 18.0819 22.2435 18.1469 22.0565 18.2579C21.9575 18.3239 21.829 18.3504 21.7565 18.4579C21.4265 18.6239 21.0665 18.7254 20.7525 18.9244L18.3825 20.1929L18.3325 20.3719C18.265 20.3754 18.1885 20.3494 18.13 20.3949C17.93 20.5229 17.755 20.6949 17.573 20.8534C17.3245 21.1524 17.0265 21.4019 16.741 21.6634L16.278 22.1194C16.082 22.3494 15.898 22.5894 15.757 22.8594C15.739 22.8784 15.7245 22.9014 15.7085 22.9224C15.8835 22.8694 16.05 22.7844 16.2355 22.7724C16.3755 22.7694 16.5155 22.7404 16.6555 22.7374C16.9055 22.7509 17.1515 22.6834 17.402 22.6999C17.602 22.6809 17.802 22.7364 17.9945 22.7499C18.3795 22.8764 18.772 22.9884 19.1245 23.1934C19.4745 23.3464 19.8245 23.5314 20.0905 23.8059C20.3755 24.0459 20.6655 24.2819 20.8925 24.5799L21.2515 25.1299C21.4915 24.8639 21.829 24.7079 22.0515 24.4219C22.134 24.3019 22.274 24.2519 22.3825 24.1619C22.5535 24.0079 22.759 23.9019 22.9495 23.7769L23.5995 23.4519C23.7315 23.3799 23.8845 23.3634 24.0195 23.2984C24.1545 23.2334 24.3165 23.2209 24.4165 23.0959C24.663 23.0359 24.8795 22.8949 25.1165 22.7984L25.539 22.6334C25.7115 22.5564 25.905 22.5084 26.039 22.3659C26.387 22.2629 26.706 22.0869 27.051 21.9759C27.1775 21.9249 27.295 21.8509 27.43 21.8239C27.5725 21.7959 27.706 21.7239 27.8525 21.7224C28.0725 21.7274 28.2825 21.6439 28.5045 21.6524C28.716 21.6614 28.9145 21.5294 29.126 21.5844C29.27 21.6094 29.366 21.7419 29.502 21.7844C29.7535 21.8719 30.0055 21.9614 30.24 22.0844C30.381 22.1594 30.54 22.2159 30.66 22.3174C30.858 22.5189 31.1115 22.6524 31.31 22.8474C31.4885 23.0399 31.693 23.2084 31.849 23.4209L32.0325 23.6889C32.1575 23.8919 32.33 24.0614 32.4435 24.2724C32.5835 24.4739 32.651 24.7124 32.7285 24.9424C32.8155 25.2074 32.922 25.4704 32.9605 25.7494C33.0105 25.9584 33.1135 26.1494 33.1265 26.3734C33.2265 26.5574 33.194 26.7734 33.2445 26.9699C33.2825 27.1279 33.307 27.2899 33.3235 27.4519L33.3735 27.4534L33.411 27.0334C33.419 26.8134 33.3785 26.5954 33.361 26.3774C33.362 26.1614 33.36 25.9439 33.326 25.7304L33.243 25.3624C33.0445 24.7394 32.928 24.0824 32.6245 23.4974C32.4615 23.0584 32.3485 22.5939 32.0995 22.1934C31.903 21.9399 31.7895 21.6334 31.5925 21.3814C31.4925 21.2514 31.3435 21.1749 31.2365 21.0514C31.0775 20.9039 30.954 20.7214 30.7845 20.5844L30.1755 19.8969C30.0925 19.7669 29.9555 19.6909 29.852 19.5799C29.772 19.4964 29.676 19.4319 29.5885 19.3569C29.342 19.1091 29.0667 18.8917 28.7685 18.7094C28.5765 18.6369 28.4195 18.5029 28.2385 18.4094L27.5505 17.9944C27.3705 17.9044 27.1785 17.8454 26.998 17.7569C26.808 17.7129 26.6095 17.6869 26.414 17.7044C26.474 17.7679 26.562 17.7859 26.638 17.8234C26.7395 17.8694 26.8205 17.9534 26.926 17.9909C27.1235 18.1719 27.385 18.2624 27.573 18.4559C27.876 18.7219 28.123 19.0394 28.4195 19.3169C28.771 19.7184 29.1095 20.1369 29.3615 20.6169L29.7095 21.3529C29.7935 21.4899 29.7595 21.6569 29.768 21.8099L29.681 21.8329C29.5535 21.4554 29.361 21.1064 29.1835 20.7514C28.9915 20.4014 28.776 20.0749 28.526 19.7699C28.365 19.5614 28.2175 19.3399 28.0195 19.1634C27.8855 19.0434 27.7775 18.8984 27.6515 18.7724C27.424 18.6094 27.224 18.4049 26.9735 18.2764L26.5815 18.0439C26.3981 17.9438 26.201 17.871 25.9965 17.8279L25.3875 17.6579L25.0015 17.5564C24.8355 17.4999 24.663 17.5729 24.4935 17.5514L23.9075 17.6114L23.915 17.6239ZM19.519 17.9299C19.308 18.0799 19.0975 18.2424 18.86 18.3519C18.88 18.3949 18.901 18.4439 18.9535 18.4529L18.9255 18.4669C19.0355 18.5739 19.129 18.6959 19.177 18.8444C19.377 18.7254 19.566 18.6029 19.741 18.4554C19.7925 18.4054 19.8525 18.3754 19.916 18.3494C19.831 18.2504 19.791 18.1194 19.698 18.0274L19.639 17.8994C19.5965 17.8964 19.552 17.8984 19.52 17.9294L19.519 17.9299ZM20.209 18.4084C20.0965 18.5164 19.95 18.5769 19.829 18.6734C19.6705 18.8059 19.4855 18.8984 19.314 19.0134C19.1205 19.1134 18.964 19.2634 18.7575 19.3384C18.6775 19.3784 18.5855 19.4134 18.5395 19.4964C18.4685 19.6214 18.491 19.7694 18.4735 19.9064L19.2775 19.4964C19.4625 19.4389 19.5905 19.2814 19.7645 19.2039C19.8985 19.1439 20.0145 19.0574 20.1545 19.0014C20.248 18.9614 20.3045 18.8764 20.387 18.8134C20.5716 18.6992 20.761 18.5928 20.9545 18.4944L20.9685 18.5034C21.0484 18.4725 21.1302 18.4472 21.2135 18.4274L21.6635 18.2364C21.7 18.2879 21.7635 18.1929 21.7035 18.1864C21.5615 18.2254 21.4125 18.2234 21.267 18.2289C21.0495 18.2004 20.832 18.1624 20.617 18.1789C20.4921 18.2767 20.3548 18.3574 20.2085 18.4189L20.209 18.4084ZM38.734 19.0384C38.624 19.0884 38.5 19.1294 38.433 19.2369C38.333 19.3619 38.313 19.5289 38.318 19.6849L38.2865 19.8534C38.3655 19.8574 38.46 19.8219 38.525 19.8859L38.6 19.8959L38.728 19.9959L38.667 20.1994L38.647 20.1514L38.627 20.2384C38.7505 20.2919 38.892 20.3034 39.025 20.3124C39.218 20.2299 39.426 20.1439 39.555 19.9624C39.68 19.8354 39.709 19.6554 39.757 19.4914L39.719 19.4314C39.704 19.3884 39.6875 19.3449 39.6555 19.3124C39.5735 19.1494 39.424 19.0354 39.2555 18.9639C39.0755 18.9199 38.904 19.0049 38.7285 19.0289L38.734 19.0384ZM38.248 20.0724C38.02 20.1809 37.7795 20.2549 37.551 20.3609V20.3634C37.434 20.3834 37.351 20.4674 37.239 20.5134L36.3875 20.9309C36.151 21.0474 35.9475 21.2234 35.7025 21.3244C35.5 21.4494 35.279 21.5344 35.0695 21.6444L34.9995 21.6284C35.053 21.7409 35.1495 21.8244 35.213 21.9304C35.29 22.0624 35.366 22.1954 35.416 22.3419C35.426 22.3919 35.441 22.4304 35.457 22.4739C35.7035 22.2889 35.931 22.0729 36.207 21.9239C36.496 21.7669 36.717 21.5099 37.011 21.3609C37.3125 21.1709 37.626 20.9824 37.851 20.6959C38.0225 20.5879 38.184 20.4579 38.311 20.2974C38.371 20.2194 38.459 20.1504 38.461 20.0474C38.388 20.0444 38.311 20.0374 38.244 20.0709L38.248 20.0724ZM31.688 20.5104L31.628 20.6074L31.291 20.6804C31.266 20.6974 31.2135 20.7054 31.241 20.7444C31.3925 20.9209 31.5785 21.0619 31.7425 21.2254L31.989 21.5394L31.996 21.6874C32.1185 21.8339 32.206 22.0054 32.312 22.1639C32.4485 22.3809 32.4955 22.6389 32.601 22.8639C32.711 23.1069 32.7775 23.3669 32.875 23.6139C33.049 23.9454 33.099 24.3224 33.2365 24.6679C33.3405 24.9079 33.3645 25.1719 33.4645 25.4139C33.4845 25.6114 33.5845 25.7919 33.5795 25.9929C33.6045 26.2349 33.563 26.4799 33.6045 26.7204C33.6345 26.8839 33.6135 27.0504 33.623 27.2204C33.7345 27.1164 33.846 27.0139 33.973 26.9294C34.223 26.6394 34.489 26.3504 34.6505 25.9969C34.7155 25.8409 34.8635 25.7304 34.8915 25.5569L35.0165 25.2369L34.898 25.1739C34.888 25.1099 34.873 25.0239 34.954 25.0054C34.9878 24.5971 34.9433 24.1861 34.823 23.7944C34.7745 23.5104 34.683 23.2359 34.5705 22.9719L34.164 22.1049C33.996 21.8749 33.874 21.6119 33.677 21.4049C33.527 21.2549 33.409 21.0649 33.212 20.9699C33.127 20.8599 33.035 20.7339 32.892 20.7019L32.172 20.4899C32.0097 20.4705 31.8454 20.4768 31.685 20.5084L31.688 20.5104ZM33.4295 20.8224C33.4145 20.8624 33.43 20.8799 33.4755 20.8724C33.5364 20.9197 33.5896 20.9762 33.633 21.0399H33.6345C33.881 21.2929 34.1145 21.5649 34.288 21.8749C34.3665 22.0249 34.4805 22.1549 34.538 22.3149C34.7315 22.7469 34.941 23.1799 35.024 23.6509C35.059 23.8574 35.124 24.0584 35.162 24.2634C35.202 24.4449 35.1895 24.6314 35.194 24.8154C35.2855 24.6189 35.337 24.4064 35.4255 24.2089C35.493 24.0089 35.5285 23.7959 35.4855 23.5859C35.5355 23.3369 35.4845 23.0859 35.4055 22.8489L35.3905 22.8469C35.3795 22.7719 35.3705 22.6939 35.3375 22.6254C35.2575 22.4754 35.201 22.3134 35.104 22.1719C34.9865 21.9289 34.7925 21.7389 34.604 21.5579C34.534 21.4899 34.468 21.4039 34.364 21.3929L33.9255 21.0744L33.918 21.0604L33.88 21.0579L33.9085 21.0594L33.5095 20.8594C33.498 20.8134 33.471 20.7994 33.4295 20.8179V20.8224ZM28.7095 21.8599C28.466 21.9224 28.211 21.8729 27.967 21.9329C27.668 21.9594 27.3845 22.0644 27.105 22.1679C26.819 22.3194 26.505 22.4179 26.204 22.5149C26.064 22.5829 25.929 22.6624 25.778 22.7089C25.428 22.9089 25.038 23.0089 24.682 23.1864L24.032 23.4999C23.558 23.6699 23.117 23.9209 22.698 24.1999C22.58 24.2739 22.4755 24.3819 22.331 24.3964L22.18 24.5634C21.9465 24.8474 21.6365 25.0524 21.398 25.3314C21.3773 25.3533 21.3619 25.3796 21.353 25.4084C21.238 25.7834 21.178 26.1719 21.112 26.5584C21.025 26.9559 21.001 27.3684 21.0635 27.7719C21.1615 27.5934 21.3485 27.4999 21.4815 27.3539C21.6015 27.2229 21.7475 27.1204 21.8735 26.9964C21.9985 26.8754 22.1535 26.7949 22.2935 26.6939C22.5935 26.4729 22.9415 26.3159 23.261 26.1189L23.9935 25.6774C24.0778 25.6244 24.1659 25.5776 24.257 25.5374C24.4305 25.4604 24.582 25.3414 24.757 25.2584L25.7305 24.7219C26.0065 24.6219 26.2485 24.4569 26.5105 24.3309C26.7535 24.2694 26.959 24.0979 27.214 24.0779C27.814 24.0014 28.414 23.9849 29.011 24.0464C29.157 24.0639 29.292 24.1264 29.436 24.1554C30.1082 24.2999 30.7379 24.5976 31.276 25.0254C31.396 25.1114 31.5235 25.1889 31.626 25.2924C31.846 25.4624 32.0775 25.6324 32.232 25.8694C32.309 25.9874 32.4285 26.0729 32.482 26.2044L32.5435 26.2394C32.6295 26.3794 32.7635 26.4864 32.8265 26.6419C32.885 26.7878 32.9746 26.9192 33.089 27.0269C33.0705 26.8409 32.9865 26.6699 32.971 26.4839C32.951 26.2259 32.831 25.9939 32.7675 25.7469C32.696 25.4704 32.624 25.1969 32.505 24.9319C32.439 24.7854 32.405 24.6279 32.323 24.4819C32.224 24.2839 32.073 24.1204 31.948 23.9399L31.599 23.4339C31.537 23.3439 31.484 23.2439 31.3955 23.1759C31.2113 23.0333 31.0383 22.8766 30.878 22.7074C30.807 22.6324 30.736 22.5574 30.6405 22.5094C30.4195 22.4094 30.2595 22.2009 30.0295 22.1119C29.8445 22.0184 29.6355 21.9859 29.4555 21.8799C29.2145 21.8099 28.9535 21.7799 28.707 21.8489L28.7095 21.8599ZM17.037 22.9084L16.2985 22.9659L16.3375 22.9674C16.1615 22.9994 15.991 23.0559 15.8165 23.0934C15.738 23.1234 15.628 23.1249 15.5875 23.2119L15.3975 23.6899C15.2775 24.1199 15.25 24.5674 15.1915 25.0084C15.1715 25.3934 15.2635 25.7719 15.3065 26.1524C15.3315 26.4024 15.4665 26.6334 15.505 26.8854C15.5175 27.1854 15.6475 27.4654 15.6565 27.7674C15.7295 27.7389 15.8065 27.7249 15.8845 27.7244L16.0045 27.6824L16.0085 27.6674C16.3575 27.6244 16.71 27.5589 17.0615 27.6089C17.2875 27.6439 17.5205 27.6039 17.744 27.6619C17.9025 27.7019 18.069 27.6959 18.226 27.7399C18.5235 27.8464 18.776 28.0609 19.076 28.1649C19.443 28.3459 19.778 28.5849 20.098 28.8399L20.674 29.4089C20.866 29.5999 20.9855 29.8489 21.14 30.0699C21.136 29.9184 21.086 29.7734 21.0735 29.6229L20.915 28.5709C20.8915 28.4239 20.9165 28.2709 20.873 28.1269C20.8855 27.8859 20.837 27.6479 20.8405 27.4069C20.838 27.1409 20.8635 26.8769 20.8805 26.6069C20.917 26.3219 21.018 26.0494 21.0395 25.7569C21.0595 25.6129 21.1205 25.4749 21.1045 25.3269C21.1115 25.2309 21.0345 25.1619 20.996 25.0769C20.746 24.5969 20.32 24.2429 19.9225 23.8869C19.764 23.7084 19.5475 23.6044 19.3515 23.4769C19.1165 23.3419 18.854 23.2679 18.604 23.1669C18.413 23.0884 18.2055 23.0669 18.0155 22.9804C17.7075 22.8534 17.3675 22.8544 17.042 22.8929L17.037 22.9084ZM16.057 27.8559L16.069 27.8709C15.9486 27.8957 15.8293 27.9257 15.7115 27.9609L15.704 28.0444C15.3975 28.3094 15.146 28.6344 14.914 28.9654C14.802 29.1034 14.744 29.2804 14.6125 29.4029C14.5325 29.6239 14.356 29.7914 14.256 30.0029C14.408 29.9939 14.562 29.9539 14.7135 29.9879L14.8145 29.9989C15.0255 30.0289 15.241 30.0424 15.443 30.1139C15.639 30.1929 15.851 30.2329 16.0345 30.3429C16.3275 30.5269 16.6345 30.7049 16.851 30.9929L17.232 31.4279C17.399 31.6779 17.548 31.9499 17.682 32.2269C17.7845 32.4029 17.8285 32.6034 17.888 32.7969C17.921 32.9494 17.932 33.1069 17.988 33.2539L18.038 33.8004C17.9895 33.9219 18.012 34.0584 17.988 34.1854C17.94 34.4684 17.857 34.7444 17.763 35.0154L18.847 34.9044C19.135 34.8509 19.4285 34.8544 19.718 34.8064C19.878 34.7849 20.0315 34.7324 20.188 34.6939C20.392 34.6314 20.6045 34.5709 20.773 34.4314C20.8755 34.4194 20.986 34.4179 21.0755 34.3594C21.1405 34.2964 21.1955 34.2229 21.2605 34.1594C21.2935 33.9909 21.323 33.8214 21.3325 33.6494C21.3475 33.3404 21.44 33.0394 21.4245 32.7284C21.425 32.4519 21.4095 32.1744 21.452 31.9004C21.437 31.5729 21.402 31.2304 21.2505 30.9364L21.074 30.4689C20.954 30.2469 20.861 30.0089 20.704 29.8089C20.557 29.5674 20.317 29.4119 20.137 29.1999C19.933 28.9846 19.7039 28.7946 19.4545 28.6339C19.1655 28.4239 18.8245 28.3064 18.521 28.1199C18.3285 28.0014 18.12 27.8924 17.892 27.8729C17.6285 27.8609 17.369 27.8029 17.105 27.7929C16.899 27.7924 16.692 27.7819 16.4865 27.7989L16.0665 27.8604L16.057 27.8559ZM14.15 30.1779L14.1185 30.2529L14.0815 30.3464C14.004 30.5464 13.9185 30.7564 13.8875 30.9749C13.8815 31.1284 13.8785 31.2834 13.8925 31.4369L13.954 32.0909C13.956 32.1374 13.987 32.1849 14.0305 32.1409C14.0955 32.0899 14.138 31.9394 14.2405 31.9909C14.3555 32.0819 14.5055 32.0119 14.632 32.0669C14.906 32.1754 15.17 32.3169 15.388 32.5239C15.4964 32.6765 15.5799 32.8453 15.6355 33.0239C15.6605 33.2029 15.683 33.3889 15.6225 33.5639C15.5985 33.6724 15.4875 33.7139 15.4125 33.7869C15.2845 33.8969 15.12 33.9459 14.9725 34.0239C15.1695 34.1999 15.4185 34.2939 15.6585 34.3914C15.9995 34.4874 16.3255 34.6299 16.6455 34.7814C16.8625 34.8879 17.1045 34.9314 17.3435 34.9484C17.445 34.8654 17.5545 34.7819 17.6035 34.6549C17.712 34.3949 17.7575 34.1139 17.781 33.8349C17.7935 33.6679 17.8475 33.4949 17.7785 33.3324C17.715 33.0044 17.64 32.6784 17.5225 32.3654C17.3915 32.1094 17.2705 31.8464 17.105 31.6154L16.83 31.2984C16.727 31.1909 16.6535 31.0569 16.537 30.9634C16.3635 30.8204 16.2 30.6614 15.9985 30.5634C15.841 30.4634 15.665 30.4134 15.4965 30.3434C15.2155 30.2269 14.913 30.1659 14.61 30.1534C14.4565 30.1724 14.2975 30.1319 14.148 30.1799L14.15 30.1779ZM21.597 31.4369C21.627 31.6769 21.6685 31.9179 21.6435 32.1604L21.6015 33.2669C21.5265 33.6029 21.5365 33.9509 21.4675 34.2884C21.6525 34.3484 21.846 34.2889 22.0335 34.2764C22.295 34.2429 22.6265 34.2164 22.7535 33.9399C22.7615 33.7799 22.687 33.6309 22.6385 33.4824C22.595 33.3574 22.5885 33.2174 22.5225 33.1034L22.019 32.2269C21.9205 32.0694 21.842 31.9004 21.752 31.7389C21.696 31.6404 21.6755 31.5219 21.602 31.4374L21.597 31.4369ZM14.15 32.3429C14.05 32.4399 13.9485 32.5354 13.835 32.6159L13.8335 32.6284C13.6475 32.7244 13.492 32.8684 13.3445 33.0149L12.798 33.4849L12.188 34.0559L11.452 34.8434C11.324 34.9249 11.227 35.0449 11.102 35.1434L10.694 35.4894C10.603 35.5744 10.486 35.6294 10.409 35.7294L10.2825 35.8914L10.3755 36.0114L10.4385 35.9614L10.4635 35.9204L10.4835 35.9534C11.1085 35.7514 11.6735 35.4094 12.2795 35.1599L12.8605 34.8834C13.1995 34.7464 13.4765 34.4854 13.8285 34.3834C13.9535 34.3414 14.0685 34.2774 14.185 34.2164L14.635 33.9849C14.875 33.8529 15.135 33.7529 15.3585 33.5934C15.5205 33.4249 15.42 33.1749 15.3885 32.9749L15.372 32.9819C15.3085 32.8479 15.244 32.7044 15.1145 32.6219C14.9125 32.4849 14.6985 32.3519 14.458 32.3019C14.35 32.2869 14.223 32.2749 14.138 32.3604L14.15 32.3429ZM9.09253 36.0149C8.95753 36.0799 8.86253 36.1989 8.74553 36.2889C8.46253 36.5189 8.24953 36.8589 8.23553 37.2324C8.24703 37.3474 8.29553 37.4534 8.36553 37.5449C8.53053 37.7699 8.83753 37.8199 9.09553 37.7749C9.29553 37.7384 9.44203 37.5859 9.61253 37.4869C9.69053 37.4369 9.77653 37.3944 9.83553 37.3209C10.0465 37.0209 10.2255 36.6919 10.259 36.3244C10.2435 36.2931 10.2253 36.2631 10.2045 36.2349C10.177 36.1629 10.1245 36.1039 10.0735 36.0489L9.99353 35.8724C9.69053 35.8729 9.36953 35.8709 9.09353 36.0144L9.09253 36.0149ZM24.275 18.5839L24.7635 18.5439C24.9875 18.6024 25.2215 18.5929 25.4465 18.6439C25.713 18.6619 25.975 18.7154 26.2365 18.7689C26.5065 18.9339 26.828 19.0299 27.0335 19.2854C27.2835 19.5164 27.437 19.8494 27.4445 20.1914C27.3885 20.4034 27.2625 20.6489 27.0295 20.6944C26.6795 20.7794 26.3545 20.9404 26.0095 21.0409C25.6185 21.1679 25.266 21.3809 24.9235 21.6059L24.2575 21.9999C24.0695 22.1299 23.8675 22.2349 23.671 22.3514L23.2095 22.7134C22.9095 22.9259 22.576 23.0819 22.261 23.2699C22.11 23.3034 21.971 23.3799 21.817 23.3989C21.492 23.4349 21.1235 23.4469 20.857 23.2239C20.7105 23.1339 20.657 22.9639 20.557 22.8329C20.446 22.6929 20.444 22.5079 20.417 22.3404C20.3935 22.1969 20.4135 22.0519 20.4345 21.9094C20.4535 21.6434 20.588 21.4059 20.706 21.1734C20.821 20.9154 21.015 20.6959 21.072 20.4124C21.221 20.2444 21.3185 20.0374 21.4735 19.8734C21.6035 19.7404 21.6945 19.5734 21.8375 19.4524C22.115 19.1264 22.5375 19.0034 22.911 18.8254C23.2135 18.7254 23.535 18.6844 23.851 18.6504C23.994 18.6384 24.131 18.5854 24.2745 18.5854L24.275 18.5839ZM23.784 18.8364C23.4015 18.8939 23.014 18.9634 22.662 19.1329L22.191 19.4069C21.988 19.5644 21.843 19.7819 21.666 19.9654L21.2675 20.4569C21.1185 20.6284 21.081 20.8684 20.926 21.0354C20.839 21.2044 20.7845 21.3854 20.716 21.5684C20.666 21.7699 20.574 21.9624 20.596 22.1744C20.5835 22.4579 20.731 22.7094 20.876 22.9394C21.0125 23.1084 21.2275 23.1784 21.436 23.1984C21.566 23.1749 21.701 23.1949 21.836 23.1684C22.1045 23.1199 22.336 22.9724 22.569 22.8294C22.8505 22.6809 23.119 22.5069 23.369 22.3084C23.5275 22.2084 23.669 22.0784 23.849 21.9999C24.126 21.7989 24.4315 21.6499 24.724 21.4684C24.974 21.3414 25.192 21.1744 25.4515 21.0764C25.6515 20.9494 25.8915 20.8914 26.104 20.7799C26.2405 20.7149 26.395 20.6999 26.53 20.6299C26.683 20.5559 26.856 20.5449 27.01 20.4799C27.177 20.3809 27.24 20.1599 27.196 19.9769C27.183 19.7909 27.0585 19.6469 26.97 19.4929C26.724 19.2304 26.3985 19.0589 26.063 18.9429C25.757 18.8639 25.441 18.8409 25.1305 18.7854C24.9045 18.7434 24.6745 18.7739 24.447 18.7629C24.2245 18.7529 24.0145 18.8504 23.797 18.8419L23.784 18.8364ZM22.92 19.4649C22.955 19.4084 22.99 19.3284 23.072 19.3549C23.172 19.4374 23.272 19.5259 23.382 19.5869C23.581 19.7084 23.767 19.8544 23.9295 20.0219L23.9835 20.0199C24.0225 19.9179 24.046 19.8109 24.0755 19.7059C24.108 19.6189 24.2105 19.6549 24.2795 19.6549L24.3095 19.7279C24.31 19.9429 24.4795 20.0899 24.572 20.2679C24.76 20.1639 24.822 19.9404 24.928 19.7679C24.999 19.6529 24.959 19.4754 25.078 19.3954C25.155 19.3864 25.201 19.4614 25.241 19.5154C25.341 19.6654 25.472 19.7894 25.5785 19.9354C25.6305 19.8779 25.7 19.8254 25.7095 19.7429C25.7295 19.6744 25.7145 19.5899 25.7685 19.5364C25.856 19.5054 25.9435 19.5549 26.0255 19.5794C26.2255 19.6594 26.444 19.7209 26.6345 19.8294C26.7125 19.8819 26.8095 19.8824 26.8935 19.9194C26.925 19.9694 26.9205 20.0194 26.9305 20.0769C26.744 20.1634 26.587 19.9969 26.4205 19.9349L25.937 19.7499C25.8695 19.8919 25.757 20.0029 25.667 20.1309C25.632 20.1844 25.567 20.2229 25.507 20.2099C25.468 20.1459 25.442 20.0749 25.407 20.0119C25.3305 19.8889 25.213 19.8019 25.1105 19.7029L24.9135 20.1794C24.8555 20.3259 24.7135 20.4169 24.6625 20.5679C24.5935 20.5904 24.5205 20.6179 24.4625 20.5619C24.4324 20.3591 24.3327 20.1729 24.1805 20.0354L24.1285 20.3104C24.0785 20.3334 24.0225 20.3729 23.9665 20.3434L23.7365 20.0849C23.5945 19.9599 23.435 19.8549 23.2695 19.7649C23.337 20.0349 23.422 20.3149 23.363 20.5989C23.383 20.7559 23.4265 20.9089 23.455 21.0639C23.475 21.1524 23.366 21.1864 23.299 21.1654C23.182 21.1379 23.062 21.1474 22.949 21.1324C22.8515 21.0934 22.755 21.0489 22.6505 21.0324C22.654 21.1289 22.7255 21.1974 22.762 21.2824C22.7945 21.3759 22.796 21.4759 22.82 21.5714C22.827 21.6199 22.845 21.6734 22.8195 21.7194C22.762 21.7564 22.688 21.7769 22.6195 21.7444C22.461 21.6819 22.2915 21.6624 22.1255 21.6304C22.2115 21.7804 22.3355 21.8939 22.4255 22.0389C22.4775 22.1104 22.4025 22.2124 22.3215 22.2029C22.1045 22.1849 21.8875 22.2049 21.6705 22.1859C21.6295 22.3934 21.5305 22.5819 21.4915 22.7899C21.428 22.7779 21.3445 22.8099 21.2985 22.7499C21.2265 22.6859 21.3095 22.5929 21.3275 22.5199C21.4015 22.3714 21.404 22.1999 21.465 22.0489C21.6315 21.8679 21.89 22.0239 22.096 21.9914C22.046 21.8299 21.9025 21.7414 21.805 21.6099C21.7435 21.5249 21.8215 21.4509 21.885 21.4014C22.124 21.4454 22.377 21.4364 22.603 21.5384C22.5865 21.3284 22.453 21.1584 22.403 20.9584L22.5505 20.8469C22.6415 20.8244 22.7275 20.8669 22.8105 20.8979C22.9435 20.9509 23.0875 20.9619 23.2285 20.9699C23.1595 20.6939 23.2135 20.4089 23.1715 20.1309L22.9295 19.4649H22.92ZM32.309 20.8649C32.41 20.7149 32.666 20.7189 32.7355 20.8964C32.8355 20.8914 32.964 20.8744 33.039 20.9699C33.139 21.1699 33.319 21.3449 33.3065 21.5834C33.3155 21.6959 33.2245 21.7799 33.143 21.8409C33.018 21.9239 32.863 21.9909 32.713 21.9489C32.527 21.8859 32.413 21.7049 32.3355 21.5374C32.2846 21.4333 32.256 21.3197 32.2516 21.2039C32.2472 21.0881 32.2671 20.9726 32.31 20.8649H32.309ZM32.489 21.0519C32.439 21.2994 32.5325 21.5869 32.759 21.7134C32.8305 21.7644 32.916 21.7119 32.986 21.6859C32.842 21.4589 32.7065 21.2169 32.489 21.0519ZM32.691 21.0559L33.0795 21.4459C33.031 21.3378 32.9704 21.2355 32.899 21.1409C32.8515 21.0734 32.763 21.0709 32.691 21.0559Z" fill="#0A0203" stroke="#0A0203" stroke-width="0.025"/>
<path d="M33.282 22.4984C33.415 22.4264 33.5935 22.4449 33.679 22.5809C33.826 22.6159 33.949 22.7174 34.0255 22.8474C34.1355 23.0459 34.2495 23.2444 34.307 23.4674C34.241 23.6234 34.115 23.7394 33.986 23.8424C33.834 23.8474 33.6485 23.8574 33.5445 23.7224C33.412 23.5474 33.2725 23.3624 33.242 23.1389C33.2 22.9854 33.182 22.8274 33.2085 22.6689L33.2835 22.4989L33.282 22.4984ZM33.417 22.7304C33.3385 23.0084 33.477 23.2804 33.6285 23.5044C33.696 23.5834 33.801 23.6114 33.8935 23.6544C33.8865 23.3409 33.7155 23.0709 33.5455 22.8214L33.6455 22.8189L33.8705 23.0769C33.9705 23.1929 33.9855 23.3579 34.0905 23.4704C34.0525 23.3169 33.9485 23.1934 33.8905 23.0504C33.8045 22.8704 33.6445 22.7444 33.4755 22.6479C33.455 22.6751 33.4372 22.7042 33.4225 22.7349L33.417 22.7304ZM34.077 24.4664C34.287 24.4484 34.461 24.5929 34.6185 24.7124C34.742 24.8084 34.686 24.9754 34.7185 25.1124C34.732 25.2739 34.7415 25.4744 34.6005 25.5854C34.4805 25.6714 34.3505 25.7704 34.2005 25.7579C34.0005 25.7844 33.8605 25.5779 33.8175 25.4079C33.7175 25.1609 33.7655 24.8764 33.896 24.6514C33.9445 24.5824 33.996 24.5049 34.0825 24.4774L34.077 24.4664ZM34.3095 24.7414C34.346 24.8549 34.4095 24.9599 34.436 25.0749C34.451 25.1814 34.444 25.2899 34.4445 25.3984L34.4945 25.3749C34.5695 25.1549 34.5525 24.8424 34.3095 24.7414ZM34.132 25.5704C34.1745 25.5214 34.2385 25.4804 34.245 25.4089C34.295 25.1804 34.215 24.9464 34.081 24.7589C33.882 24.9864 33.906 25.3649 34.132 25.5659V25.5704ZM15.862 28.2604C16.0845 28.2224 16.32 28.1904 16.54 28.2599C16.702 28.3289 16.8865 28.3864 16.9965 28.5349C17.0563 28.6585 17.0855 28.7947 17.0815 28.9319C17.0845 29.0589 17.008 29.1669 16.9525 29.2749C16.9025 29.3769 16.7925 29.4174 16.7025 29.4749C16.4275 29.5319 16.1425 29.4574 15.9035 29.3169C15.7493 29.2428 15.615 29.1331 15.5115 28.9969L15.5155 28.9159L15.4475 28.8789C15.4975 28.7579 15.4545 28.6214 15.509 28.5024C15.6162 28.4078 15.7344 28.3264 15.861 28.2599L15.862 28.2604ZM16.056 28.4019C15.886 28.4669 15.706 28.5454 15.5975 28.7019L15.7085 28.8019C15.797 28.6869 15.9185 28.6044 16.0315 28.5159C16.13 28.4369 16.2615 28.4489 16.3795 28.4334C16.273 28.4164 16.163 28.3559 16.056 28.4019ZM15.856 28.9989C15.9125 29.0789 16.006 29.1154 16.09 29.1574C16.23 29.2224 16.379 29.2864 16.5365 29.2724C16.603 29.2676 16.6661 29.2414 16.7166 29.1978C16.767 29.1542 16.8021 29.0955 16.8165 29.0304C16.869 28.9164 16.865 28.7804 16.77 28.6804C16.5775 28.6529 16.3765 28.6079 16.185 28.6554C16.0625 28.7524 15.9275 28.8494 15.855 28.9924L15.856 28.9989ZM17.991 29.7789C18.3335 29.5424 18.8045 29.6159 19.137 29.8289C19.314 29.9464 19.436 30.1254 19.5595 30.2954C19.6735 30.4614 19.658 30.6739 19.6595 30.8654C19.5905 31.0414 19.5285 31.2354 19.3675 31.3489C19.3142 31.3959 19.2497 31.4286 19.1803 31.4439C19.1109 31.4592 19.0387 31.4566 18.9705 31.4364C18.8055 31.3784 18.6345 31.3214 18.497 31.2079C18.362 31.1014 18.294 30.9314 18.147 30.8329C18.1295 30.7979 18.117 30.7579 18.085 30.7339C17.9335 30.6124 17.859 30.4254 17.8025 30.2449C17.7875 30.0664 17.8385 29.8784 17.9915 29.7739L17.991 29.7789ZM18.033 30.0829C18.224 30.0214 18.423 30.0039 18.62 29.9789C18.8625 30.0324 19.11 30.1289 19.2875 30.3059C19.196 30.1919 19.1075 30.0709 18.9875 29.9909C18.779 29.8522 18.5251 29.799 18.2785 29.8424C18.1741 29.8943 18.0894 29.979 18.0375 30.0834L18.033 30.0829ZM18.151 30.2609C18.001 30.3309 18.136 30.5039 18.2095 30.5824L18.221 30.6574C18.3125 30.6894 18.396 30.7424 18.448 30.8274C18.6015 31.0464 18.8445 31.2084 19.113 31.2274C19.313 31.1659 19.404 30.9174 19.403 30.7199C19.1805 30.5039 18.956 30.2399 18.6305 30.1984C18.4705 30.1924 18.2955 30.1834 18.1505 30.2634L18.151 30.2609ZM19.515 32.8239C19.679 32.6909 19.8885 32.6039 20.101 32.6154C20.251 32.6544 20.426 32.7054 20.494 32.8634C20.7475 33.3249 20.5615 33.9884 20.094 34.2334C19.944 34.3269 19.7575 34.3484 19.586 34.3184C19.406 34.2684 19.269 34.1094 19.236 33.9284C19.21 33.7874 19.244 33.6459 19.279 33.5099C19.331 33.2749 19.329 33.0059 19.5155 32.8249L19.515 32.8239ZM19.9435 32.8299C20.1225 33.1499 20.1535 33.5224 20.1935 33.8814C20.3275 33.7314 20.405 33.5444 20.4025 33.3464C20.3945 33.1764 20.3635 32.9899 20.2275 32.8734C20.135 32.8534 20.0425 32.8334 19.9485 32.8304L19.9435 32.8299ZM19.547 33.2179C19.5035 33.3554 19.516 33.5029 19.468 33.6394C19.377 33.8319 19.543 34.1204 19.7655 34.0924C19.823 34.028 19.8845 33.9672 19.9495 33.9104C19.9715 33.5684 19.9235 33.2084 19.7395 32.9139C19.652 32.9969 19.5745 33.0969 19.548 33.2179H19.547Z" fill="#0A0203" stroke="#0A0203" stroke-width="0.025"/>
<path d="M11.185 10.6425C11.2217 10.5321 11.2862 10.4331 11.3724 10.3551C11.4586 10.277 11.5635 10.2226 11.677 10.197C11.924 10.15 12.167 10.253 12.383 10.363C12.648 10.548 12.921 10.771 13.0145 11.098L13.0195 11.1305C12.735 11.2 12.5 10.9925 12.25 10.9C12.08 10.87 11.92 10.798 11.7515 10.763C11.5695 10.783 11.4015 10.8895 11.2205 10.8895C11.209 10.8085 11.173 10.726 11.1905 10.6435L11.185 10.6425ZM38.7335 19.0425C38.9085 19.0175 39.08 18.9325 39.2605 18.9775C39.4235 19.049 39.573 19.1625 39.6605 19.326C39.5145 19.2635 39.3505 19.201 39.192 19.247C39.0335 19.293 38.86 19.326 38.742 19.4495C38.664 19.5245 38.602 19.6175 38.5135 19.6795C38.4535 19.7025 38.386 19.686 38.3235 19.6895C38.3175 19.5335 38.3335 19.3655 38.4385 19.2415C38.506 19.1335 38.6305 19.0915 38.7395 19.043L38.7335 19.0425ZM37.2335 20.5125C37.34 20.4625 37.4335 20.3835 37.5455 20.3625C37.5105 20.5255 37.4055 20.676 37.247 20.7375L36.607 21.0185C36.421 21.1085 36.283 21.2685 36.097 21.3625C35.966 21.426 35.822 21.455 35.6905 21.516C35.579 21.5635 35.477 21.633 35.3595 21.665C35.261 21.69 35.1605 21.663 35.0595 21.6425L35.6925 21.3225C35.9425 21.2215 36.1405 21.0455 36.3775 20.929C36.6695 20.808 36.94 20.64 37.229 20.5115L37.2335 20.5125ZM33.4705 20.8775L33.5055 20.8645C33.6415 20.9245 33.773 20.9945 33.9045 21.0645L33.876 21.063L33.628 21.0455C33.5845 20.9818 33.5313 20.9253 33.4705 20.878V20.8775ZM33.9205 21.0775C34.0734 21.1741 34.2199 21.2804 34.359 21.396C34.168 21.379 33.989 21.264 33.9205 21.0775ZM14.1235 30.2515L14.155 30.1765C14.2625 30.184 14.37 30.1725 14.477 30.1625C14.427 30.329 14.359 30.4895 14.292 30.6495C14.2035 30.8595 14.191 31.0895 14.127 31.3075C14.092 31.424 14.0805 31.5455 14.08 31.6665C14.0835 31.8165 14.005 31.9505 13.96 32.089C13.924 31.8725 13.924 31.6525 13.8985 31.435C13.8845 31.2815 13.8875 31.1265 13.8935 30.973C13.925 30.754 14.0105 30.5495 14.0875 30.3445L14.1245 30.251L14.1235 30.2515ZM13.34 33.015C13.487 32.868 13.643 32.725 13.829 32.6285C13.816 32.732 13.81 32.8435 13.749 32.9325C13.6725 33.0405 13.552 33.105 13.469 33.2085C13.386 33.312 13.308 33.4205 13.204 33.5085C13.084 33.6065 12.955 33.6925 12.8465 33.8085C12.703 33.9585 12.52 34.0485 12.3665 34.182C12.278 34.258 12.189 34.3345 12.0865 34.393C11.854 34.518 11.6865 34.7365 11.4465 34.8515L12.1835 34.05C12.3985 33.8735 12.5945 33.675 12.7935 33.479L13.34 33.009V33.015ZM9.09249 36.015C9.36949 35.8715 9.68999 35.8735 9.99249 35.873L10.0725 36.0495C9.95527 36.1247 9.81973 36.1666 9.68049 36.1705C9.47799 36.1815 9.30049 36.288 9.11849 36.367C9.01149 36.418 8.89249 36.459 8.81449 36.554C8.73099 36.654 8.68449 36.7905 8.59349 36.89C8.48331 37.0135 8.36342 37.128 8.23499 37.2325C8.24849 36.859 8.46099 36.5185 8.74499 36.289C8.86199 36.199 8.95799 36.08 9.09249 36.015Z" fill="#F8B059" stroke="#F8B059" stroke-width="0.025"/>
<path d="M11.2149 10.8885C11.4014 10.889 11.5639 10.782 11.7459 10.762C11.9144 10.797 12.0739 10.8695 12.2444 10.899C12.4944 10.9925 12.7354 11.199 13.0194 11.13L13.0594 11.4265C12.8724 11.568 12.7169 11.8015 12.4614 11.8065C12.2789 11.8155 12.0884 11.814 11.9114 11.74L11.5024 11.553C11.3259 11.378 11.2814 11.118 11.2089 10.889L11.2149 10.8885ZM23.7839 18.8365C24.0064 18.845 24.2164 18.7475 24.4339 18.7575C24.6614 18.7685 24.8914 18.7375 25.1174 18.78L26.0499 18.9375C26.3849 19.054 26.7109 19.225 26.9569 19.4875C27.0454 19.6415 27.1699 19.7855 27.1829 19.9715C27.2329 20.155 27.1639 20.375 26.9969 20.4745C26.8429 20.5445 26.6694 20.5545 26.5169 20.6245C26.3819 20.6945 26.2269 20.7095 26.0909 20.7745C25.8779 20.8845 25.6434 20.9445 25.4384 21.071C25.1784 21.169 24.9559 21.336 24.7109 21.463L23.8359 21.9945C23.6609 22.0735 23.5149 22.198 23.3559 22.303C23.1062 22.5011 22.8386 22.6755 22.5564 22.824C22.3284 22.967 22.0914 23.114 21.8234 23.163C21.6934 23.19 21.5584 23.1695 21.4234 23.193C21.2154 23.173 21.0004 23.103 20.8634 22.934C20.7134 22.704 20.5714 22.4525 20.5834 22.169C20.5619 21.957 20.6584 21.769 20.7034 21.563C20.7714 21.385 20.8259 21.199 20.9134 21.03C21.0634 20.863 21.1054 20.623 21.2549 20.4515L21.6534 19.96C21.8304 19.7765 21.9754 19.559 22.1784 19.4015C22.3294 19.2995 22.4934 19.2215 22.6494 19.1275C23.0009 18.9575 23.3894 18.889 23.7714 18.831L23.7839 18.8365ZM22.9189 19.465L23.1609 20.131C23.2024 20.4085 23.1494 20.694 23.2179 20.97C23.0764 20.962 22.9329 20.951 22.7999 20.898C22.7169 20.868 22.6299 20.8245 22.5399 20.847C22.4869 20.8785 22.4409 20.9205 22.3924 20.9585C22.4424 21.1585 22.5799 21.3285 22.5924 21.5385C22.3664 21.437 22.1134 21.446 21.8744 21.4015C21.8114 21.4515 21.7334 21.5255 21.7944 21.61C21.8914 21.737 22.0344 21.83 22.0854 21.9915C21.8784 22.0245 21.6204 21.8685 21.4544 22.049C21.3934 22.2005 21.3909 22.3715 21.3169 22.52C21.2989 22.593 21.2159 22.685 21.2879 22.75C21.3339 22.809 21.4179 22.7775 21.4809 22.79C21.5209 22.582 21.6184 22.393 21.6599 22.186C21.8769 22.2045 22.0939 22.1845 22.3109 22.203C22.3924 22.213 22.4674 22.1105 22.4149 22.039C22.3299 21.889 22.2059 21.7755 22.1149 21.6305C22.2809 21.6625 22.4499 21.682 22.6089 21.7445C22.6729 21.7765 22.7469 21.756 22.8089 21.7195C22.8349 21.6735 22.8164 21.6195 22.8094 21.5715C22.7854 21.4715 22.7844 21.3755 22.7514 21.2825C22.7149 21.1975 22.6439 21.1295 22.6399 21.0325C22.7399 21.0495 22.8399 21.094 22.9384 21.1325C23.0559 21.1475 23.1759 21.1375 23.2884 21.1655C23.3559 21.1855 23.4644 21.1525 23.4444 21.064L23.3524 20.599C23.4109 20.319 23.3264 20.0355 23.2589 19.765C23.4239 19.855 23.5839 19.965 23.7259 20.085L23.9559 20.3435C24.0119 20.3735 24.0679 20.3335 24.1179 20.3105L24.1699 20.0355C24.3224 20.1695 24.4199 20.3605 24.4519 20.562C24.5144 20.613 24.5869 20.591 24.6519 20.568C24.7029 20.4165 24.8449 20.326 24.9029 20.1795L25.0999 19.703C25.2024 19.802 25.3199 19.889 25.3964 20.012C25.4374 20.0745 25.4629 20.146 25.4964 20.21C25.5614 20.223 25.6214 20.185 25.6564 20.131C25.7454 20.003 25.8584 19.892 25.9264 19.75C26.0914 19.8 26.2464 19.878 26.4099 19.935C26.5759 19.9965 26.7329 20.1635 26.9199 20.077C26.9099 20.024 26.9149 19.9655 26.8829 19.9195C26.7989 19.8825 26.7029 19.8815 26.6239 19.8295C26.4339 19.7155 26.2239 19.6545 26.0149 19.5795C25.9324 19.5545 25.8449 19.5055 25.7579 19.5365C25.7079 19.59 25.7179 19.6745 25.6989 19.743C25.6889 19.8255 25.6189 19.878 25.5679 19.9355L25.2304 19.5155C25.1904 19.462 25.1444 19.387 25.0674 19.3955C24.9439 19.4755 24.9834 19.652 24.9174 19.768C24.8159 19.945 24.7494 20.168 24.5614 20.268C24.4689 20.0905 24.2989 19.943 24.2989 19.728L24.2689 19.655C24.1999 19.6545 24.0974 19.6185 24.0649 19.706L23.9729 20.02L23.9189 20.022C23.7557 19.8541 23.5717 19.7078 23.3714 19.5865C23.2564 19.5255 23.1604 19.4365 23.0614 19.3545C22.9794 19.328 22.9444 19.408 22.9094 19.4645L22.9189 19.465ZM39.1859 19.2415C39.3449 19.1955 39.5084 19.2585 39.6544 19.3205C39.6864 19.353 39.7029 19.3965 39.7179 19.4395L39.7294 19.5045C39.6224 19.6145 39.5184 19.7295 39.4564 19.873C39.3564 20.086 39.0849 20.0405 38.9064 20.148C38.8314 20.173 38.7534 20.2665 38.6739 20.2215L38.6609 20.2035C38.6769 20.1335 38.7109 20.0685 38.7219 20L38.5939 19.9L38.5189 19.89C38.4539 19.826 38.3599 19.862 38.2804 19.8575L38.3119 19.689C38.3744 19.686 38.4419 19.7025 38.5019 19.679C38.5909 19.6165 38.6519 19.529 38.7304 19.449C38.8484 19.325 39.0234 19.292 39.1804 19.2465L39.1859 19.2415ZM38.2474 20.0715C38.3144 20.038 38.3914 20.045 38.4644 20.048C38.4629 20.1555 38.3744 20.2245 38.3144 20.298C38.1879 20.458 38.0264 20.588 37.8544 20.6965C37.1954 20.9255 36.6884 21.4305 36.1044 21.794C35.8624 21.95 35.5934 22.097 35.4579 22.367L35.4209 22.337C35.3709 22.187 35.2949 22.057 35.2179 21.9255C35.1539 21.8195 35.0579 21.7365 35.0044 21.6235L35.0679 21.6375C35.1644 21.6575 35.2649 21.686 35.3679 21.66C35.4854 21.628 35.5879 21.5585 35.6989 21.511C35.8309 21.45 35.9739 21.421 36.1054 21.3575C36.2919 21.2675 36.4304 21.104 36.6154 21.0135L37.2554 20.7325C37.4139 20.6715 37.5189 20.521 37.5539 20.3575V20.35L38.2509 20.0615L38.2474 20.0715ZM33.6339 21.044L33.8804 21.061L33.9184 21.0635L33.9259 21.0775C33.9939 21.2635 34.1739 21.379 34.3644 21.396C34.4679 21.407 34.5344 21.4935 34.6044 21.561C34.7979 21.7425 34.9919 21.9325 35.1044 22.175C35.2014 22.3165 35.2574 22.478 35.3379 22.6285C35.3719 22.697 35.3804 22.7745 35.3909 22.85L35.4059 22.852C35.4844 23.089 35.5309 23.3405 35.4859 23.589C35.5279 23.799 35.4924 24.011 35.4259 24.212C35.3369 24.41 35.2859 24.622 35.1944 24.8185C35.1904 24.6345 35.2024 24.4485 35.1624 24.2665L35.0244 23.654C34.9414 23.183 34.7319 22.75 34.5384 22.319C34.4759 22.159 34.3614 22.03 34.2884 21.879C34.1144 21.569 33.8814 21.2965 33.6349 21.044H33.6339ZM14.1499 30.177C14.2999 30.129 14.4584 30.1695 14.6119 30.1505C14.9162 30.1624 15.216 30.2267 15.4984 30.3405C15.6669 30.4105 15.8484 30.4655 16.0004 30.5605C16.2019 30.664 16.3654 30.823 16.5389 30.9605C16.6559 31.0545 16.7289 31.1885 16.8319 31.2955L17.1069 31.6125C17.2719 31.8475 17.3929 32.111 17.5244 32.3625C17.6419 32.6755 17.7174 33.0015 17.7804 33.3295C17.7939 33.4495 17.7874 33.5695 17.7799 33.688C17.6584 33.681 17.5299 33.6855 17.4199 33.628C17.2814 33.557 17.1429 33.481 16.9899 33.445C16.8534 33.4125 16.7289 33.347 16.5979 33.2985C16.4669 33.25 16.3279 33.2645 16.1939 33.2375C16.1014 33.205 16.0289 33.129 15.9339 33.104L15.6369 33.021C15.5827 32.8402 15.4991 32.6696 15.3894 32.516C15.1719 32.314 14.9079 32.1675 14.6334 32.059C14.5074 32.009 14.3564 32.074 14.2419 31.983C14.1389 31.9265 14.0919 32.077 14.0319 32.133C13.9889 32.177 13.9569 32.129 13.9554 32.083C14.0054 31.944 14.0789 31.811 14.0754 31.6605C14.0759 31.5395 14.0869 31.4175 14.1224 31.3015C14.1864 31.0845 14.1994 30.8535 14.2874 30.6435L14.4724 30.1565C14.3654 30.1665 14.2574 30.178 14.1504 30.1705L14.1499 30.177ZM14.1499 32.343C14.2339 32.258 14.3614 32.27 14.4699 32.2845C14.7109 32.3355 14.9199 32.4685 15.1264 32.6045C15.2564 32.6865 15.3204 32.8295 15.3839 32.9645C15.1464 33.0385 14.9869 33.238 14.7959 33.3855C14.6124 33.5185 14.4519 33.6855 14.2709 33.8155C14.0389 34.027 13.7549 34.1645 13.4774 34.3045L12.6459 34.7795C12.4779 34.8565 12.3394 34.9795 12.1729 35.0645C11.9194 35.192 11.6639 35.3215 11.3899 35.3965C11.2299 35.4375 11.0939 35.5355 10.9409 35.593C10.7659 35.663 10.5709 35.735 10.4699 35.907L10.4449 35.948L10.3819 35.998L10.2889 35.878L10.4154 35.716C10.4919 35.616 10.6089 35.566 10.7004 35.476L11.1084 35.13C11.2284 35.0365 11.3254 34.917 11.4584 34.83C11.6984 34.715 11.8649 34.4965 12.0984 34.3715C12.2004 34.313 12.2894 34.2365 12.3784 34.1605C12.5319 34.0275 12.7149 33.9325 12.8584 33.787C12.9669 33.6755 13.0964 33.589 13.2159 33.487C13.3199 33.403 13.3979 33.2945 13.4809 33.187C13.5639 33.0795 13.6834 33.019 13.7609 32.911C13.8224 32.8225 13.8284 32.711 13.8409 32.607L13.8424 32.5945C13.9564 32.5145 14.0574 32.418 14.1574 32.3215L14.1499 32.343Z" fill="#F6941E" stroke="#F6941E" stroke-width="0.025"/>
<path d="M10.0735 36.0484C10.125 36.1034 10.1765 36.1624 10.2045 36.2344L10.2335 36.3409C10.1345 36.4519 10.091 36.5969 10.036 36.7324C9.9545 36.9339 9.749 37.0324 9.603 37.1784C9.502 37.2884 9.353 37.3199 9.2295 37.3954C9.1285 37.4554 9.022 37.5104 8.9045 37.5269C8.7255 37.5669 8.5435 37.4919 8.3645 37.5434C8.2955 37.4519 8.2465 37.3459 8.2345 37.2309C8.3645 37.1294 8.4805 37.0094 8.593 36.8884C8.6845 36.7884 8.7305 36.6584 8.814 36.5524C8.892 36.4574 9.011 36.4164 9.118 36.3654C9.3 36.2854 9.478 36.1804 9.68 36.1689C9.82 36.1674 9.9535 36.1209 10.072 36.0479L10.0735 36.0484Z" fill="#F6941E" stroke="#F6941E" stroke-width="0.025"/>
<path d="M13.015 11.0981L13.01 11.0601C13.07 11.2081 13.0775 11.3701 13.098 11.5271C13.1205 11.6591 13.048 11.7841 12.973 11.8771C12.883 11.9271 12.777 11.9501 12.673 11.9786C12.608 11.9261 12.541 11.8611 12.451 11.8686C12.366 11.9186 12.385 12.0161 12.3835 12.0956C12.2165 12.0806 12.06 12.0196 11.9035 11.9646C11.7105 11.9016 11.611 11.7066 11.505 11.5476C11.637 11.6191 11.776 11.6776 11.914 11.7346C12.0855 11.8086 12.2755 11.8096 12.464 11.8011C12.714 11.7971 12.875 11.5626 13.062 11.4211L13.022 11.1246L13.017 11.0921L13.015 11.0981ZM39.718 19.4401L39.756 19.5001C39.708 19.6641 39.6785 19.8501 39.554 19.9711C39.425 20.1476 39.217 20.2336 39.024 20.3211C38.89 20.3121 38.749 20.3011 38.626 20.2471L38.646 20.1601L38.666 20.2081L38.679 20.2261C38.759 20.2761 38.8365 20.1781 38.9115 20.1526C39.085 20.0446 39.3615 20.0906 39.4615 19.8776C39.523 19.7341 39.6275 19.6191 39.7345 19.5091L39.723 19.4441L39.718 19.4401ZM36.1 21.7986C36.684 21.4351 37.191 20.9301 37.85 20.7011C37.626 20.9871 37.312 21.1751 37.01 21.3661C36.7165 21.5161 36.495 21.7726 36.206 21.9291C35.931 22.0731 35.703 22.2891 35.456 22.4791L35.415 22.3471L35.452 22.3771C35.587 22.1071 35.852 21.9601 36.0985 21.8041L36.1 21.7986ZM15.379 32.9651L15.3955 32.9581C15.4265 33.1581 15.5265 33.4081 15.3655 33.5766C15.1415 33.7366 14.882 33.8366 14.642 33.9681C14.496 34.0566 14.342 34.1181 14.192 34.1996C14.076 34.2606 13.9605 34.3246 13.8355 34.3666C13.4835 34.4736 13.2065 34.7346 12.8675 34.8666L12.2865 35.1431C11.6865 35.3931 11.115 35.7346 10.4905 35.9366L10.4705 35.9036C10.5705 35.7316 10.767 35.6536 10.9415 35.5896C11.0945 35.5321 11.2315 35.4396 11.3905 35.3931C11.6645 35.3181 11.9205 35.1931 12.1735 35.0611C12.3395 34.9811 12.4735 34.8526 12.6465 34.7761C12.9385 34.6441 13.199 34.4561 13.478 34.3011C13.7555 34.1611 14.0395 34.0236 14.2715 33.8121L14.7965 33.3821C14.9875 33.2346 15.1465 33.0356 15.3845 32.9611L15.379 32.9651Z" fill="#7D4B0F" stroke="#7D4B0F" stroke-width="0.025"/>
<path d="M15.641 33.0325C15.7375 33.0675 15.8385 33.089 15.938 33.1155C16.038 33.1405 16.1055 33.2165 16.198 33.249C16.3315 33.276 16.473 33.262 16.602 33.31C16.731 33.358 16.852 33.424 16.994 33.4565C17.147 33.4925 17.285 33.568 17.424 33.6395C17.5355 33.6965 17.663 33.692 17.784 33.6995C17.7949 33.5802 17.795 33.4602 17.7845 33.341C17.8535 33.5035 17.7995 33.676 17.787 33.8435C17.7635 34.1225 17.718 34.4045 17.6095 34.6635C17.5595 34.7905 17.4505 34.8735 17.3495 34.957C17.1105 34.9395 16.8685 34.897 16.6515 34.79C16.3315 34.6385 16.0055 34.4965 15.6645 34.4C15.4245 34.303 15.1755 34.2085 14.9785 34.0325C15.1255 33.9545 15.2895 33.906 15.4185 33.7955C15.4935 33.7275 15.6045 33.6805 15.6285 33.5725C15.6885 33.3975 15.666 33.2115 15.6415 33.0325H15.641ZM10.2 36.235C10.2207 36.2632 10.2389 36.2931 10.2545 36.3245C10.2205 36.692 10.042 37.026 9.83096 37.321C9.77196 37.3945 9.68096 37.4375 9.60796 37.487C9.43796 37.586 9.29146 37.7385 9.09096 37.775C8.83296 37.819 8.52596 37.77 8.36096 37.545C8.53946 37.4935 8.72096 37.568 8.90096 37.5285C9.01796 37.5115 9.12446 37.4565 9.22596 37.397C9.34896 37.322 9.49846 37.2895 9.59946 37.18C9.74546 37.0335 9.95096 36.93 10.0325 36.734C10.0825 36.598 10.131 36.454 10.23 36.3425L10.201 36.236L10.2 36.235Z" fill="#7D4B0F" stroke="#7D4B0F" stroke-width="0.025"/>
<path opacity="0.8" d="M12.8221 12.527C12.7206 12.499 12.8536 12.396 12.8621 12.4995L12.8501 12.525L12.8226 12.5265L12.8221 12.527Z" fill="#0C0606" stroke="#0C0606" stroke-width="0.025"/>
<path d="M12.822 12.527L12.85 12.525L13.257 12.967C13.3605 13.041 13.431 13.147 13.4905 13.2585L13.724 13.2505C13.884 13.2505 14.0355 13.1865 14.1815 13.1255C14.354 13.053 14.5195 12.9635 14.6685 12.849C14.8185 13.155 14.8685 13.498 14.981 13.822C15.019 13.957 15.031 14.0995 15.081 14.232C15.114 14.308 15.163 14.382 15.202 14.45C15.3205 14.4565 15.47 14.4465 15.533 14.326C15.63 14.164 15.753 14.0185 15.836 13.848C15.919 13.6775 16.036 13.527 16.121 13.358C16.305 13.364 16.421 13.195 16.541 13.086L16.571 13.207C16.6375 13.5785 16.556 13.959 16.61 14.332C16.641 14.522 16.603 14.7195 16.664 14.905L17.3475 15.6615C17.4625 15.81 17.6195 15.9115 17.7275 16.0715L18.2705 16.7435C18.3935 16.9515 18.5575 17.1285 18.7075 17.317C18.8895 17.49 19.0725 17.6695 19.201 17.8885C19.16 17.987 19.051 18.0345 18.9575 18.0885C18.9195 17.992 18.8725 17.8985 18.801 17.8225L17.7745 16.6125C17.642 16.4505 17.546 16.259 17.3935 16.114L17.0285 15.6905C16.902 15.5545 16.7485 15.4405 16.6385 15.2945C16.56 15.186 16.446 15.1075 16.375 14.9925L16.354 14.7225C16.3215 14.5495 16.364 14.375 16.36 14.2005L16.3735 13.5005L16.2735 13.4475C16.2355 13.48 16.1875 13.5045 16.1605 13.5485L15.2985 15.1625C15.1385 14.9765 14.9845 14.7775 14.9025 14.5425C14.8525 14.4185 14.8025 14.296 14.786 14.1655C14.746 13.9265 14.586 13.7155 14.586 13.4655C14.5895 13.3635 14.536 13.2745 14.485 13.1905L14.3815 13.194L14.2715 13.334C14.1515 13.236 14.005 13.304 13.8755 13.338C13.692 13.384 13.5535 13.526 13.3755 13.586C13.2905 13.4045 13.158 13.25 13.078 13.066L12.8165 12.52L12.822 12.527ZM25.4 17.671C25.606 17.7145 25.8075 17.7795 26.009 17.841C26.2136 17.884 26.4107 17.9568 26.594 18.057C26.7175 18.147 26.853 18.217 26.986 18.2895C27.236 18.418 27.436 18.6225 27.664 18.7855L28.032 19.1765C28.23 19.3515 28.382 19.5745 28.5385 19.783C28.7885 20.083 29.0035 20.42 29.196 20.7645C29.3735 21.1145 29.566 21.468 29.6935 21.846L29.7805 21.823C29.7765 21.67 29.8055 21.503 29.722 21.366L29.374 20.63C29.1225 20.155 28.784 19.7365 28.432 19.33L27.5855 18.469C27.3975 18.2755 27.1355 18.185 26.9385 18.004C27.1185 18.043 27.2875 18.122 27.467 18.163C27.699 18.216 27.8705 18.3965 28.083 18.495C28.3055 18.601 28.4555 18.81 28.676 18.9175C28.7967 18.9783 28.9111 19.0509 29.0175 19.134C29.165 19.249 29.34 19.334 29.4675 19.47C29.5555 19.5565 29.6165 19.67 29.7175 19.744C29.8649 19.8233 30.0239 19.879 30.1885 19.909L30.7975 20.5965C30.9675 20.7335 31.09 20.9165 31.2495 21.0635C31.3565 21.186 31.5055 21.2635 31.6055 21.3935C31.803 21.646 31.9155 21.952 32.1125 22.2055C32.3615 22.6055 32.475 23.0705 32.6375 23.5095C32.9405 24.0945 33.0575 24.751 33.256 25.3745C33.276 25.4995 33.3095 25.6205 33.339 25.7425C33.374 25.956 33.3755 26.1735 33.374 26.3895C33.397 26.6075 33.4375 26.8245 33.424 27.0455L33.3865 27.4655L33.3365 27.464C33.32 27.302 33.2955 27.14 33.2575 26.982C33.2075 26.785 33.2395 26.5695 33.1395 26.3855C33.126 26.167 33.0235 25.9705 32.9735 25.7615C32.935 25.4825 32.8235 25.22 32.7415 24.9545C32.6635 24.7245 32.5955 24.487 32.4565 24.2845C32.343 24.0735 32.1715 23.9045 32.0455 23.701L31.862 23.433C31.7055 23.22 31.502 23.0515 31.323 22.8595C31.1195 22.6595 30.866 22.531 30.673 22.3295C30.548 22.228 30.394 22.1715 30.253 22.0965C30.018 21.9685 29.7665 21.8785 29.515 21.7965C29.3785 21.7495 29.283 21.6165 29.139 21.5965C28.9275 21.5465 28.729 21.6735 28.5175 21.6645C28.2965 21.6555 28.0855 21.7395 27.8655 21.7345C27.7195 21.741 27.5855 21.808 27.443 21.836C27.308 21.8625 27.1905 21.937 27.064 21.988C26.714 22.098 26.4 22.275 26.052 22.378C25.829 22.415 25.6435 22.553 25.425 22.603C25.2825 22.6415 25.155 22.7195 25.0175 22.769C24.8029 22.8432 24.6048 22.9583 24.434 23.108C24.334 23.233 24.1715 23.2445 24.037 23.3105C23.9025 23.3765 23.7495 23.3915 23.617 23.464L22.967 23.789C22.777 23.915 22.571 24.0205 22.4 24.174C22.2915 24.264 22.1515 24.314 22.069 24.434C21.847 24.72 21.509 24.876 21.269 25.142L20.91 24.592C20.6835 24.294 20.392 24.057 20.108 23.818C19.8365 23.543 19.492 23.358 19.142 23.2055C18.789 23.0055 18.3955 22.8885 18.012 22.762C17.814 22.749 17.62 22.6935 17.4195 22.712C17.1685 22.6955 16.923 22.763 16.673 22.7495C16.533 22.753 16.393 22.782 16.253 22.7845C16.068 22.791 15.9005 22.876 15.726 22.9345L15.7745 22.8715C15.9955 22.8115 16.2185 22.745 16.4495 22.7415C16.5585 22.74 16.683 22.719 16.7415 22.6135L17.439 21.572C17.578 21.3705 17.803 21.259 17.96 21.075C18.066 20.942 18.245 20.91 18.364 20.792C18.497 20.662 18.6925 20.629 18.824 20.4955C18.958 20.3585 19.1305 20.2755 19.285 20.1655C19.4615 20.0135 19.655 19.883 19.835 19.7435C20.1425 19.562 20.481 19.441 20.7835 19.2505L21.326 18.9405C21.596 18.7685 21.9135 18.6905 22.176 18.5185C22.368 18.3955 22.5845 18.3185 22.7845 18.2095C22.9815 18.103 23.2055 18.0765 23.421 18.033C23.6325 17.99 23.848 17.97 24.0625 17.948C24.2945 17.9265 24.5025 17.808 24.7325 17.776L25.3885 17.6785L25.4 17.671ZM24.28 18.584C24.136 18.5835 24 18.637 23.8565 18.649C23.54 18.683 23.2185 18.719 22.9165 18.824C22.544 19.002 22.1165 19.125 21.843 19.451C21.6995 19.572 21.6095 19.7395 21.479 19.872C21.329 20.035 21.2265 20.243 21.0775 20.411C21.021 20.6945 20.8275 20.9145 20.7115 21.172C20.5935 21.4045 20.459 21.642 20.44 21.908C20.419 22.0505 20.399 22.1955 20.4225 22.339C20.45 22.5075 20.4525 22.692 20.5625 22.8315C20.6625 22.9625 20.716 23.1335 20.8625 23.2225C21.1295 23.4455 21.4975 23.4335 21.8225 23.3975C21.9725 23.3795 22.1155 23.2975 22.2665 23.2685L23.215 22.712L23.6765 22.35L24.263 21.9985C24.476 21.8485 24.709 21.7425 24.929 21.61C25.2715 21.385 25.629 21.1725 26.015 21.045L27.035 20.6985C27.268 20.6485 27.3935 20.4075 27.45 20.1955C27.4425 19.8535 27.289 19.5205 27.039 19.2895C26.839 19.0395 26.511 18.938 26.242 18.773L25.452 18.648C25.227 18.5915 24.993 18.601 24.769 18.548C24.607 18.5715 24.444 18.582 24.2805 18.588L24.28 18.584Z" fill="#99987D" stroke="#99987D" stroke-width="0.025"/>
<path d="M17.0375 22.9079C17.3625 22.8694 17.7025 22.8679 18.011 22.9954C18.201 23.0774 18.4085 23.1034 18.5995 23.1819C18.8495 23.2819 19.112 23.3569 19.347 23.4919C19.543 23.6199 19.7595 23.7239 19.918 23.9019C20.3155 24.2519 20.736 24.6109 20.9915 25.0919C21.03 25.1719 21.1065 25.2404 21.1 25.3419C21.115 25.4899 21.0535 25.6279 21.035 25.7719C21.0135 26.0584 20.9125 26.3319 20.876 26.6219L20.836 27.4219C20.831 27.5694 20.807 27.7149 20.797 27.8619C20.789 27.9609 20.837 28.0509 20.8685 28.1419C20.912 28.2854 20.887 28.4389 20.9105 28.5859L21.069 29.6379C21.0815 29.7879 21.1315 29.9379 21.1355 30.0849C20.9855 29.8639 20.862 29.6149 20.6695 29.4239C20.4695 29.2489 20.2945 29.0354 20.0935 28.8549C19.7735 28.6049 19.4435 28.3614 19.0715 28.1799C18.7715 28.0759 18.524 27.8614 18.2215 27.7549C18.064 27.7109 17.898 27.7169 17.7395 27.6769C17.5165 27.6189 17.2835 27.6594 17.057 27.6239C16.7055 27.5739 16.353 27.6399 16.004 27.6824C16.0905 27.4474 16.022 27.1954 16.034 26.9524C16.055 26.7124 15.92 26.5024 15.919 26.2604C15.9165 26.0494 15.848 25.8489 15.8065 25.6444C15.7715 25.3179 15.7065 24.9919 15.73 24.6624C15.735 24.5624 15.78 24.4624 15.819 24.3664C15.883 24.2164 15.8965 24.0464 15.9805 23.9044C16.087 23.7204 16.1505 23.5144 16.263 23.3344L16.4655 22.9844L16.332 22.9764L16.293 22.9749L17.0315 22.9174L17.0375 22.9079ZM16.0565 28.4079C16.1635 28.3619 16.2735 28.4219 16.38 28.4394C16.262 28.4544 16.13 28.4429 16.032 28.5219C15.919 28.6104 15.797 28.6919 15.709 28.8079L15.598 28.7079C15.701 28.5469 15.886 28.4679 16.0565 28.4079ZM18.033 30.0879C18.0849 29.9835 18.1696 29.8988 18.274 29.8469C18.5207 29.8035 18.7745 29.8567 18.983 29.9954C19.108 30.0754 19.196 30.1969 19.283 30.3104C19.105 30.1279 18.858 30.0374 18.6155 29.9834C18.418 30.0084 18.2195 30.0259 18.0285 30.0874L18.033 30.0879ZM19.943 32.8344C20.043 32.8374 20.1295 32.8579 20.222 32.8774C20.357 32.9939 20.3885 33.1804 20.397 33.3504C20.3985 33.5489 20.3236 33.7404 20.188 33.8854C20.153 33.5264 20.123 33.1544 19.938 32.8339L19.943 32.8344Z" fill="#99987D" stroke="#99987D" stroke-width="0.025"/>
<path d="M14.165 13.0239C14.3185 12.9174 14.4435 12.7709 14.614 12.6899L14.668 12.8499C14.519 12.9649 14.353 13.0539 14.181 13.1264C14.035 13.1874 13.884 13.2514 13.7235 13.2514C13.8565 13.1484 14.02 13.1039 14.165 13.0239ZM16.115 13.3599C16.2425 13.1619 16.38 12.9689 16.549 12.8034L16.5655 13.2034L16.5355 13.0824C16.4105 13.1909 16.299 13.3604 16.1155 13.3544L16.115 13.3599ZM23.915 17.6239C24.112 17.6199 24.305 17.5749 24.501 17.5639C24.671 17.5859 24.8425 17.5129 25.009 17.5689L25.395 17.6704C25.18 17.7234 24.9575 17.7369 24.739 17.7679C24.509 17.7994 24.3005 17.9179 24.069 17.9399L23.4275 18.0249C23.2125 18.0684 22.9875 18.0949 22.791 18.2014L22.1825 18.5104C21.915 18.6869 21.5975 18.7604 21.3325 18.9324C21.1575 19.0474 20.9725 19.1414 20.79 19.2424C20.4875 19.4324 20.1485 19.5539 19.8415 19.7354L19.2915 20.1574C19.1415 20.2674 18.964 20.3499 18.8305 20.4874C18.6995 20.6209 18.504 20.6534 18.3705 20.7839C18.252 20.9024 18.0725 20.9339 17.9665 21.0669C17.8095 21.2509 17.5845 21.3669 17.4455 21.5639L16.7375 22.5999C16.679 22.6999 16.5545 22.7264 16.4455 22.7279C16.2155 22.7319 15.992 22.7979 15.7705 22.8579C15.9105 22.5879 16.0955 22.3479 16.2915 22.1179L16.7545 21.6619C17.0395 21.4004 17.338 21.1504 17.5865 20.8519C17.768 20.6939 17.9395 20.5219 18.1435 20.3934C18.2015 20.3474 18.2785 20.3734 18.346 20.3704L18.396 20.1914L20.766 18.9229C21.08 18.7239 21.44 18.6229 21.77 18.4564C21.8375 18.3499 21.97 18.3229 22.07 18.2564C22.252 18.1414 22.46 18.0799 22.657 17.9954C22.857 17.9654 23.022 17.8454 23.217 17.7974C23.458 17.7539 23.6805 17.6294 23.9285 17.6224L23.915 17.6239ZM26.415 17.7224C26.615 17.7044 26.8085 17.7309 26.999 17.7749L27.5515 18.0124L28.2395 18.4274C28.4195 18.5209 28.5775 18.6549 28.7695 18.7274C29.068 18.9094 29.3433 19.1268 29.5895 19.3749L29.853 19.5979C29.9565 19.7079 30.093 19.7849 30.1765 19.9149C30.013 19.8824 29.8515 19.8319 29.7055 19.7499C29.6055 19.6759 29.5445 19.5624 29.4555 19.4759C29.3275 19.3349 29.1525 19.2549 29.0055 19.1399C28.8991 19.0567 28.7847 18.9841 28.664 18.9234C28.444 18.8159 28.294 18.6064 28.071 18.5009C27.859 18.4024 27.687 18.2209 27.455 18.1689C27.275 18.1279 27.107 18.0489 26.9265 18.0099C26.8265 17.9719 26.74 17.8889 26.6385 17.8424C26.5625 17.8049 26.4745 17.7924 26.4145 17.7234L26.415 17.7224Z" fill="#B3B39F" stroke="#B3B39F" stroke-width="0.025"/>
<path d="M16.338 22.9675L16.4715 22.9755L16.269 23.3205C16.156 23.5005 16.093 23.7065 15.9865 23.8905C15.9025 24.033 15.8895 24.202 15.825 24.3525C15.786 24.4475 15.741 24.5435 15.736 24.6485C15.716 24.9785 15.777 25.3035 15.8125 25.6305C15.854 25.8355 15.9225 26.0355 15.925 26.2465C15.9255 26.484 16.06 26.699 16.04 26.9385C16.0275 27.182 16.096 27.4335 16.01 27.6685L16.006 27.6835L15.886 27.7255C15.8075 27.726 15.736 27.7395 15.658 27.7685C15.649 27.4675 15.519 27.187 15.5065 26.8865C15.4685 26.634 15.333 26.4085 15.308 26.1535C15.2645 25.7735 15.172 25.395 15.193 25.0095C15.2515 24.5685 15.279 24.121 15.399 23.691C15.453 23.528 15.519 23.369 15.589 23.213C15.629 23.1255 15.739 23.1245 15.818 23.0945L16.339 22.9685L16.338 22.9675Z" fill="#B3B39F" stroke="#B3B39F" stroke-width="0.025"/>
<path d="M13.881 13.35C14.011 13.315 14.156 13.2475 14.277 13.346C14.0345 13.5335 13.727 13.593 13.477 13.778L13.3805 13.598C13.5585 13.538 13.6975 13.3965 13.8805 13.35H13.881ZM14.9025 14.55C14.9845 14.786 15.1375 14.985 15.2985 15.17C15.2381 15.2474 15.1735 15.3216 15.105 15.392L14.9025 14.5495V14.55ZM28.71 21.86C28.956 21.796 29.217 21.821 29.4585 21.891C29.6385 21.997 29.847 22.0295 30.0325 22.123C30.2625 22.212 30.4225 22.4155 30.6435 22.5205C30.7435 22.5635 30.81 22.643 30.881 22.7185C31.0412 22.8876 31.2143 23.0443 31.3985 23.187C31.4865 23.2545 31.54 23.3545 31.602 23.445L31.951 23.951C32.076 24.131 32.226 24.295 32.326 24.493C32.4025 24.6345 32.442 24.792 32.508 24.943C32.628 25.203 32.6995 25.482 32.7705 25.758C32.834 26.005 32.9555 26.238 32.974 26.495C32.989 26.681 33.074 26.8525 33.092 27.038C32.9778 26.93 32.8882 26.7987 32.8295 26.653C32.767 26.503 32.6325 26.391 32.5465 26.2505L32.485 26.2155C32.427 26.0845 32.3075 25.999 32.235 25.8805C32.085 25.6435 31.8485 25.4745 31.629 25.3035C31.5215 25.2 31.395 25.122 31.279 25.0365C30.7416 24.6074 30.1116 24.3095 29.439 24.1665C29.2955 24.1375 29.16 24.075 29.014 24.0575C28.4158 23.9989 27.8128 24.0095 27.217 24.089C26.967 24.109 26.757 24.2805 26.5135 24.342C26.2515 24.467 26.0095 24.642 25.7335 24.733L24.75 25.265C24.58 25.3485 24.4285 25.467 24.25 25.544C24.159 25.584 24.07 25.629 23.9865 25.684L23.254 26.1255L22.2865 26.7005C22.1465 26.8015 21.9865 26.882 21.8665 27.003L21.4745 27.3605C21.341 27.5065 21.1545 27.6005 21.0565 27.7785C20.994 27.3755 21.018 26.9625 21.105 26.565L21.346 25.415C21.3548 25.3862 21.3702 25.3598 21.391 25.338C21.6295 25.059 21.9395 24.854 22.173 24.57C22.2205 24.5118 22.2709 24.4561 22.324 24.403C22.474 24.388 22.574 24.28 22.691 24.2065C23.1095 23.9265 23.551 23.6765 24.025 23.5065L24.676 23.188C25.026 23.005 25.4225 22.9055 25.772 22.7105C25.922 22.664 26.057 22.584 26.198 22.5165C26.498 22.415 26.813 22.3205 27.099 22.1695C27.379 22.0655 27.662 21.961 27.961 21.9345C28.205 21.8745 28.46 21.9245 28.7035 21.8615L28.71 21.86ZM25.426 22.598C25.6445 22.548 25.83 22.4095 26.053 22.373C25.919 22.5155 25.7255 22.563 25.553 22.6405L25.1305 22.8055C24.898 22.902 24.682 23.043 24.4305 23.103C24.6012 22.9533 24.7994 22.8381 25.014 22.764C25.152 22.715 25.279 22.637 25.4215 22.598H25.426ZM21.6025 31.4365C21.6805 31.5215 21.7015 31.6395 21.7525 31.738L22.0195 32.226C22.208 32.506 22.352 32.8125 22.523 33.1025C22.5945 33.2165 22.5955 33.3565 22.639 33.4815C22.687 33.63 22.7615 33.7785 22.754 33.939C22.6275 34.216 22.2965 34.242 22.034 34.2755C21.8465 34.288 21.6525 34.347 21.468 34.2875C21.538 33.95 21.527 33.6025 21.602 33.266C21.644 32.8985 21.6455 32.5285 21.644 32.1595C21.669 31.917 21.6275 31.6755 21.5975 31.436L21.6025 31.4365Z" fill="#4E4D3F" stroke="#4E4D3F" stroke-width="0.025"/>
<path opacity="0.28" d="M30.347 13.5501C30.404 13.5331 30.423 13.6286 30.368 13.6416C30.3095 13.6601 30.2895 13.5616 30.347 13.5501Z" fill="#040202" stroke="#040202" stroke-width="0.025"/>
<path d="M19.5186 17.9299C19.5511 17.8984 19.5951 17.8964 19.6376 17.8999L19.6966 18.0279C19.4726 18.2089 19.1991 18.3099 18.9526 18.4539C18.9001 18.4449 18.8791 18.3959 18.8591 18.3529C19.0971 18.2429 19.3076 18.0854 19.5181 17.9309L19.5186 17.9299ZM20.2086 18.4079C20.3548 18.3465 20.4922 18.2658 20.6171 18.1679C20.8371 18.1559 21.0551 18.1939 21.2671 18.2179C21.4171 18.2129 21.5671 18.2144 21.7036 18.1754L21.6636 18.2254L21.2136 18.4164C21.1287 18.4365 21.0452 18.4619 20.9636 18.4924L20.9496 18.4834L20.8726 18.4344C20.7611 18.4674 20.6506 18.5079 20.5356 18.5244C20.4426 18.5394 20.3606 18.4804 20.2856 18.4444L19.7156 18.8434C19.5156 18.9844 19.2946 19.0944 19.1156 19.2569C18.9386 19.3919 18.7626 19.5634 18.5286 19.5749L18.5451 19.4859C18.5911 19.4034 18.6831 19.3674 18.7631 19.3279C18.9646 19.2479 19.1261 19.0979 19.3196 19.0029L19.8346 18.6629C19.9561 18.5669 20.1026 18.5064 20.2146 18.3979L20.2086 18.4079ZM31.6876 20.5099C31.8479 20.4783 32.0123 20.4721 32.1746 20.4914L32.8946 20.7034C33.0371 20.7354 33.1296 20.8614 33.2146 20.9714L33.0381 20.9709C32.9631 20.8709 32.8401 20.8924 32.7346 20.8974C32.6656 20.7199 32.4096 20.7209 32.3081 20.8659C32.1081 20.8534 31.9161 20.8359 31.7211 20.8624C31.5561 20.8824 31.3781 20.8299 31.2891 20.6794C31.4001 20.6479 31.5141 20.6329 31.6261 20.6064C31.6476 20.5751 31.6677 20.5427 31.6861 20.5094L31.6876 20.5099ZM15.7126 27.9599L16.0701 27.8699C16.0951 27.9079 16.1441 27.9409 16.1351 27.9924L15.8641 28.2604C15.7391 28.3284 15.6141 28.4069 15.5121 28.5029C15.4191 28.5664 15.3341 28.6419 15.2721 28.7379C15.1581 28.9064 14.9886 29.0309 14.8936 29.2129C14.7716 29.4404 14.6201 29.6729 14.6401 29.9454L14.8166 29.9984L14.7156 29.9874C14.5641 29.9534 14.4156 29.9934 14.2581 30.0024C14.3581 29.7914 14.5351 29.6239 14.6146 29.4024C14.7456 29.2794 14.8046 29.1034 14.9161 28.9649C15.1481 28.6329 15.3996 28.3149 15.7061 28.0439L15.7136 27.9604L15.7126 27.9599Z" fill="#D6D6C7" stroke="#D6D6C7" stroke-width="0.025"/>
<path d="M19.6971 18.0271C19.7906 18.1196 19.8301 18.2501 19.9151 18.3491C19.8521 18.3756 19.7921 18.4091 19.7401 18.4551C19.5651 18.6031 19.3701 18.7251 19.1761 18.8441C19.1286 18.6956 19.0346 18.5741 18.9246 18.4666L18.9526 18.4526C19.1991 18.3086 19.4726 18.2026 19.6966 18.0266L19.6971 18.0271Z" fill="#C7C7B3" stroke="#C7C7B3" stroke-width="0.025"/>
<path d="M19.715 18.8526L20.285 18.4536C20.365 18.4906 20.4465 18.5496 20.535 18.5336C20.65 18.5166 20.76 18.4766 20.872 18.4436L20.949 18.4926L20.3815 18.8116C20.304 18.8746 20.243 18.9596 20.149 18.9996C20.013 19.0556 19.8925 19.1421 19.759 19.2021C19.584 19.2801 19.456 19.4371 19.272 19.4946L18.468 19.9046C18.4855 19.7676 18.463 19.6196 18.534 19.4946L18.5175 19.5836C18.7525 19.5721 18.9275 19.4006 19.1045 19.2656C19.2895 19.1026 19.5045 18.9926 19.7045 18.8521L19.715 18.8526ZM31.241 20.7426C31.213 20.7026 31.266 20.6956 31.291 20.6786C31.38 20.8286 31.5585 20.8821 31.723 20.8616C31.923 20.8366 32.1145 20.8526 32.31 20.8651C32.226 21.0801 32.23 21.3311 32.335 21.5376C32.418 21.7046 32.5265 21.8861 32.7125 21.9491C32.8635 21.9961 33.0185 21.9241 33.1425 21.8411C33.224 21.7801 33.315 21.6911 33.306 21.5836C33.318 21.3456 33.1445 21.1646 33.0385 20.9701H33.215C33.4115 21.0701 33.525 21.2601 33.68 21.4051C33.8775 21.6121 33.999 21.8751 34.167 22.1051C34.323 22.3836 34.447 22.6786 34.5735 22.9721C34.6876 23.2362 34.7723 23.512 34.826 23.7946C34.948 24.1856 34.991 24.5976 34.957 25.0056C34.877 25.0291 34.892 25.1096 34.901 25.1741L35.0195 25.2371L34.8945 25.5571C34.7795 25.6771 34.6265 25.7461 34.491 25.8391C34.232 26.0181 33.926 26.1606 33.6045 26.1241C33.6195 25.8801 33.5575 25.6431 33.466 25.4241C33.366 25.1826 33.341 24.9181 33.238 24.6781C33.1005 24.3321 33.0505 23.9551 32.8765 23.6241L32.6025 22.8741C32.5025 22.6426 32.4495 22.3856 32.3135 22.1741C32.2075 22.0156 32.1195 21.8441 31.9975 21.6976L31.9905 21.5496L31.744 21.2356L31.2425 20.7546L31.241 20.7426ZM33.281 22.4926L33.206 22.6626C33.1836 22.8199 33.195 22.9801 33.2395 23.1326C33.2695 23.3561 33.4095 23.5426 33.542 23.7161C33.646 23.8511 33.832 23.8411 33.9835 23.8361C34.1135 23.7331 34.2335 23.6171 34.3045 23.4611C34.2475 23.2391 34.133 23.0401 34.023 22.8411C33.9861 22.7757 33.9364 22.7184 33.8768 22.6726C33.8173 22.6269 33.7492 22.5935 33.6765 22.5746C33.5915 22.4386 33.4125 22.4246 33.2795 22.4921L33.281 22.4926ZM34.081 24.4601C33.999 24.4876 33.9425 24.5601 33.8945 24.6341C33.7645 24.8591 33.721 25.1441 33.816 25.3906C33.8595 25.5666 33.994 25.7731 34.199 25.7406C34.349 25.7536 34.485 25.6541 34.599 25.5681C34.7405 25.4581 34.7305 25.2566 34.717 25.0951C34.684 24.9631 34.74 24.7961 34.617 24.6951C34.4595 24.5751 34.285 24.4316 34.0755 24.4491L34.081 24.4601ZM16.0575 27.8601C16.199 27.8526 16.3375 27.8161 16.4775 27.7986C16.6775 27.7816 16.89 27.7921 17.096 27.7926C17.3595 27.8026 17.619 27.8606 17.883 27.8726C18.1115 27.8926 18.3195 28.0011 18.512 28.1196C18.815 28.3061 19.162 28.4236 19.4455 28.6336C19.6948 28.7943 19.924 28.9843 20.128 29.1996C20.308 29.4121 20.548 29.5676 20.695 29.8086C20.852 30.0086 20.945 30.2466 21.065 30.4686L21.2415 30.9361C21.319 31.1871 21.3875 31.4431 21.405 31.7061C21.416 31.7851 21.355 31.8461 21.313 31.9061L20.922 32.4061L20.5485 32.8871L20.4985 32.8696C20.431 32.7116 20.256 32.6606 20.1055 32.6216C19.893 32.6106 19.6835 32.6966 19.5195 32.8301C19.3375 33.0111 19.3345 33.2801 19.283 33.5151L19.241 33.6151C19.121 33.6526 18.995 33.6681 18.873 33.6976C18.6105 33.7826 18.332 33.8116 18.057 33.8006L18.033 33.8066C18.0295 33.6231 18.003 33.4416 17.983 33.2601C17.933 33.1126 17.9165 32.9601 17.883 32.8031C17.823 32.6101 17.7795 32.4096 17.677 32.2331C17.5481 31.9564 17.3994 31.6894 17.232 31.4341C17.114 31.2816 16.976 31.1466 16.851 30.9991C16.64 30.7151 16.3275 30.5376 16.0345 30.3491C15.851 30.2391 15.6345 30.1991 15.443 30.1201C15.2405 30.0481 15.0255 30.0341 14.8145 30.0051L14.638 29.9521C14.618 29.6806 14.7695 29.4521 14.8915 29.2196C14.9915 29.0371 15.1565 28.9126 15.27 28.7446C15.3315 28.6446 15.4165 28.5731 15.51 28.5096C15.46 28.6286 15.498 28.7596 15.4485 28.8861L15.5165 28.9231L15.5125 29.0041C15.6164 29.1399 15.7507 29.2495 15.9045 29.3241C16.1435 29.4651 16.4295 29.5391 16.7035 29.4821C16.7925 29.4246 16.9035 29.3841 16.9535 29.2821C17.0035 29.1741 17.0855 29.0661 17.0825 28.9391C17.0867 28.8018 17.0575 28.6656 16.9975 28.5421C16.8875 28.3936 16.6975 28.3361 16.541 28.2671C16.321 28.1981 16.091 28.2296 15.863 28.2676C15.945 28.1696 16.045 28.0901 16.134 27.9996C16.144 27.9481 16.094 27.9146 16.069 27.8771L16.057 27.8621L16.0575 27.8601ZM17.991 29.7841C17.838 29.8841 17.7875 30.0766 17.802 30.2551C17.8585 30.4351 17.933 30.6226 18.0845 30.7441C18.117 30.7676 18.1345 30.8076 18.1465 30.8431C18.2885 30.9411 18.3565 31.1111 18.4965 31.2181C18.634 31.3316 18.8045 31.3881 18.97 31.4466C19.1075 31.4876 19.26 31.4556 19.367 31.3591C19.528 31.2456 19.59 31.0516 19.659 30.8756C19.663 30.6836 19.679 30.4716 19.559 30.3056C19.436 30.1356 19.309 29.9571 19.1365 29.8391C18.8035 29.6211 18.3325 29.5476 17.9905 29.7891L17.991 29.7841Z" fill="#C7C7B3" stroke="#C7C7B3" stroke-width="0.025"/>
<path opacity="0.78" d="M21.7085 18.1799C21.7735 18.1919 21.7045 18.2864 21.6685 18.2349L21.7085 18.1799Z" fill="#221C1B" stroke="#221C1B" stroke-width="0.025"/>
<path opacity="0.7" d="M33.429 20.8215C33.471 20.803 33.498 20.8175 33.509 20.863L33.474 20.876C33.429 20.879 33.413 20.861 33.428 20.821L33.429 20.8215Z" fill="#190E08" stroke="#190E08" stroke-width="0.025"/>
<path d="M32.4885 21.0525C32.7055 21.2175 32.8425 21.46 32.986 21.6865C32.916 21.7125 32.836 21.765 32.759 21.714C32.532 21.587 32.4435 21.3 32.4885 21.0525ZM33.6285 23.5C33.4769 23.2765 33.3384 23.004 33.417 22.726C33.4968 22.7432 33.5738 22.7713 33.646 22.8095L33.5459 22.812C33.716 23.062 33.8869 23.332 33.8939 23.645C33.8014 23.6075 33.697 23.579 33.629 23.495L33.6285 23.5ZM34.1325 25.571C33.9065 25.3695 33.8825 24.991 34.0814 24.764C34.2164 24.947 34.3005 25.1815 34.2455 25.414C34.2395 25.485 34.1754 25.5265 34.1325 25.5755V25.571ZM15.8615 29C15.9345 28.8575 16.0695 28.76 16.1915 28.663C16.383 28.615 16.5835 28.66 16.7765 28.688C16.8765 28.778 16.8755 28.918 16.823 29.038C16.7945 29.1695 16.6755 29.273 16.543 29.28C16.3855 29.293 16.2365 29.229 16.0965 29.165C16.013 29.123 15.919 29.086 15.8625 29.0065L15.8615 29ZM18.1515 30.262C18.3015 30.182 18.4715 30.192 18.6315 30.197C18.9565 30.239 19.1815 30.497 19.404 30.7185C19.4045 30.9155 19.319 31.1645 19.114 31.226C18.846 31.2075 18.6025 31.046 18.449 30.826C18.3965 30.742 18.313 30.6885 18.222 30.656L18.2105 30.581C18.1365 30.5025 18.007 30.33 18.152 30.2595L18.1515 30.262ZM19.5475 33.218C19.5735 33.097 19.6515 32.997 19.739 32.914C19.924 33.208 19.9715 33.564 19.949 33.9105C19.8838 33.9672 19.8224 34.028 19.765 34.0925C19.5425 34.1205 19.3765 33.8325 19.4675 33.6395C19.5155 33.5035 19.5025 33.3555 19.5465 33.218H19.5475Z" fill="#FC0101" stroke="#FC0101" stroke-width="0.025"/>
<path d="M32.69 21.0565C32.762 21.0725 32.85 21.0745 32.898 21.1415C32.9705 21.235 33.028 21.3395 33.078 21.4415C32.938 21.323 32.824 21.1765 32.6895 21.0515L32.69 21.0565ZM33.4165 22.7315C33.4311 22.7008 33.4489 22.6717 33.4695 22.6445C33.638 22.741 33.798 22.8665 33.8845 23.047C33.948 23.1895 34.052 23.313 34.0845 23.467C33.9845 23.3545 33.9645 23.1895 33.8645 23.0735L33.6395 22.8155C33.5673 22.7773 33.4903 22.7492 33.4105 22.732L33.4165 22.7315ZM34.31 24.7415C34.553 24.8425 34.57 25.155 34.495 25.3745L34.445 25.398C34.4445 25.29 34.452 25.1815 34.4365 25.0745C34.405 24.9595 34.3465 24.8545 34.31 24.741V24.7415Z" fill="#97967C" stroke="#97967C" stroke-width="0.025"/>
<path d="M33.465 25.4189C33.5565 25.6424 33.618 25.8789 33.6035 26.1189C33.9245 26.1559 34.231 26.0189 34.49 25.8339C34.625 25.7414 34.778 25.6719 34.8935 25.5519C34.8655 25.7244 34.717 25.8349 34.6525 25.9919C34.491 26.3454 34.225 26.6334 33.975 26.9244C33.8506 27.0117 33.7335 27.109 33.625 27.2154C33.615 27.0504 33.637 26.8839 33.6065 26.7154C33.564 26.4754 33.605 26.2304 33.5815 25.9879C33.5855 25.7869 33.485 25.6064 33.4665 25.4089L33.465 25.4189ZM21.242 30.9309C21.3985 31.2244 21.4285 31.5674 21.4435 31.8949C21.4 32.1689 21.416 32.4464 21.416 32.7229C21.431 33.0339 21.3385 33.3354 21.324 33.6439C21.315 33.8154 21.2855 33.9849 21.252 34.1539L21.067 34.3539C20.977 34.4124 20.867 34.4139 20.7645 34.4259C20.596 34.5659 20.3835 34.6259 20.1795 34.6884C20.023 34.7274 19.8695 34.7799 19.7095 34.8009L18.8385 34.8989C18.4755 34.9169 18.115 34.9664 17.7545 35.0099C17.848 34.7399 17.9315 34.4634 17.9795 34.1799C18.0035 34.0529 17.981 33.9164 18.0295 33.7949L18.0535 33.7889C18.3285 33.7999 18.6065 33.7704 18.8695 33.6859L19.2375 33.6034L19.2795 33.5034C19.2445 33.6394 19.2105 33.7814 19.2365 33.9219C19.2695 34.1029 19.4065 34.2679 19.5865 34.3119C19.758 34.3419 19.9445 34.3209 20.0945 34.2269C20.562 33.9769 20.748 33.3189 20.4945 32.8569L20.5445 32.8744C20.657 32.7044 20.801 32.5594 20.918 32.3934L21.309 31.8934C21.3515 31.8334 21.412 31.7724 21.401 31.6934C21.3835 31.4299 21.315 31.1734 21.2375 30.9234L21.242 30.9309Z" fill="#65655B" stroke="#65655B" stroke-width="0.025"/>
<path d="M20.797 27.846L20.836 27.406C20.8325 27.646 20.881 27.885 20.8685 28.126C20.837 28.035 20.7885 27.945 20.797 27.846Z" fill="#4B493B" stroke="#4B493B" stroke-width="0.025"/>
</g>
<defs>
<clipPath id="clip0_6_926">
<rect width="32" height="32" fill="white" transform="translate(8 8)"/>
</clipPath>
</defs>
</svg>
