<svg width="48" height="48" viewBox="0 0 48 48" fill="none" xmlns="http://www.w3.org/2000/svg">
<rect width="48" height="48" rx="12" fill="#E0E0FF" fill-opacity="0.04"/>
<path d="M40 31.5508C40 31.5508 35.1259 30.8287 32.5503 30.6216C30.0769 30.4229 27.1459 30.3081 24.0014 30.3081C20.857 30.3081 17.926 30.4229 15.4532 30.6216C12.8769 30.8315 8.00354 31.8334 8.00354 31.8334V33.0929C8.00354 34.2124 15.1663 35.122 24.0014 35.122C32.8365 35.122 39.9993 34.2124 39.9993 33.0929L40 31.5508Z" fill="#F0D50C"/>
<path d="M19.0825 14.8455C13.2407 16.927 9.33957 22.458 9.33923 28.6596V30.7363C11.4239 30.2382 13.5494 29.9301 15.6897 29.8155C15.6752 29.4171 15.6678 29.0157 15.6673 28.6113C15.6694 23.1621 16.9848 18.2586 19.0825 14.8455Z" fill="#F0D50C"/>
<path d="M38.6629 28.6597C38.6679 25.2568 37.4842 21.9591 35.3162 19.3362C36.2561 22.3379 36.7244 25.4674 36.7044 28.6128C36.7044 29.1851 36.6897 29.7509 36.6603 30.3102C37.3275 30.4129 37.9884 30.5531 38.6398 30.7301L38.6629 28.6597Z" fill="#FFF04D"/>
<path d="M38.6629 28.6597C38.6679 25.2568 37.4842 21.9591 35.3162 19.3362C36.2561 22.3379 36.7244 25.4674 36.7044 28.6128C36.7044 29.1851 36.6897 29.7509 36.6603 30.3102C37.3275 30.4129 37.9884 30.5531 38.6398 30.7301L38.6629 28.6597Z" fill="#FFEA00"/>
<path d="M35.3162 19.3354C31.3881 14.5737 24.9 12.7791 19.0833 14.8454C16.9842 18.2586 15.6694 23.162 15.6694 28.612C15.6694 29.0164 15.6769 29.4178 15.6918 29.8162C17.8749 29.6475 20.4022 29.5433 23.1086 29.5244C23.1086 29.5244 23.7237 29.5244 24.0028 29.5244C28.2362 29.4736 32.4674 29.7372 36.6618 30.3129C36.6902 29.7532 36.7049 29.1874 36.7058 28.6155C36.7257 25.4688 36.2569 22.3382 35.3162 19.3354Z" fill="#FFF04D"/>
<path d="M29.8991 20.3053L28.97 14.4978C28.9039 14.0705 28.5978 13.7194 28.1835 13.5959C25.4761 12.8014 22.5974 12.8014 19.89 13.5959C19.4759 13.7197 19.1701 14.0707 19.1042 14.4978L18.1743 20.3053" fill="#FFF04D"/>
<path d="M24.0028 29.4014C23.7229 29.4014 23.4452 29.4014 23.1695 29.4014H23.1387H23.1079C14.6884 29.4601 8.00423 30.3446 8.00423 31.427V32.9957C7.99059 33.0876 8.01019 33.1814 8.05951 33.2602C8.48711 32.939 8.97862 32.7133 9.50088 32.5983C10.831 32.2747 12.1829 32.0483 13.5458 31.921C14.3199 31.8361 15.0931 32.0884 15.668 32.6137C16.7207 33.5774 18.0962 34.1118 19.5234 34.1117H28.4795C29.9067 34.1117 31.2821 33.5773 32.3348 32.6137C32.9097 32.0878 33.6833 31.8352 34.4577 31.9203C35.8204 32.0476 37.1721 32.2739 38.5019 32.5976C38.9965 32.6927 39.4637 32.8971 39.8692 33.1958C39.8922 33.2189 39.9188 33.2392 39.9391 33.2602C39.9888 33.181 40.0086 33.0868 39.9951 32.9943V31.4256C40 30.3096 32.8372 29.4014 24.0028 29.4014Z" fill="#FFF04D"/>
<path d="M27.3725 24.7427L23.9986 26.8194V29.5167L27.3725 24.7427Z" fill="#6E6F70"/>
<path d="M24.0021 29.5167V26.8194L20.6282 24.7427L24.0021 29.5167Z" fill="#0A0A0A"/>
<path d="M20.6282 23.5107L24.0021 25.4614V18.0537L20.6282 23.5107Z" fill="#0A0A0A"/>
<path d="M27.3725 23.5106L23.9986 18.053V21.5592V25.4607L27.3725 23.5099V23.5106Z" fill="#6E6F70"/>
</svg>
