<svg width="48" height="48" viewBox="0 0 48 48" fill="none" xmlns="http://www.w3.org/2000/svg">
<rect width="48" height="48" rx="12" fill="#E0E0FF" fill-opacity="0.04"/>
<g clip-path="url(#clip0_298_40)">
<path d="M24 8C15.2 8 8 15.2 8 24C8 32.8 15.2 40 24 40C32.8 40 40 32.8 40 24C40 15.2 32.8 8 24 8Z" fill="#01943F"/>
<path d="M20.048 18.9924C20.0588 18.9859 20.0704 18.9806 20.0825 18.9767C20.2112 18.9169 20.3401 18.8604 20.4688 18.8102V16.2687C20.4692 16.0467 20.3813 15.8336 20.2246 15.6763C20.068 15.5191 19.8552 15.4304 19.6332 15.4299H16.1682V22.7244C17.0144 21.0865 18.3785 19.7744 20.048 18.9924Z" fill="white"/>
<path d="M23.5759 23.4344H24.3486C24.6151 23.4345 24.8791 23.3821 25.1254 23.2802C25.3716 23.1782 25.5954 23.0287 25.7839 22.8403C25.9723 22.6518 26.1218 22.428 26.2237 22.1818C26.3257 21.9355 26.3781 21.6716 26.378 21.405V19.2312C25.9601 19.1589 24.0501 19.1187 23.6072 19.1187C21.719 19.1175 19.9006 19.8328 18.5193 21.1203C17.138 22.4077 16.2966 24.1713 16.1651 26.055C16.1526 26.2278 16.1462 26.4005 16.1462 26.5765C16.1462 26.7525 16.1525 26.9253 16.1651 27.098V31.7343C16.1651 31.844 16.1866 31.9527 16.2286 32.0541C16.2706 32.1555 16.3321 32.2477 16.4098 32.3253C16.4874 32.4029 16.5795 32.4644 16.6809 32.5064C16.7823 32.5484 16.891 32.57 17.0007 32.5699H20.4657V26.5355C20.4675 25.7121 20.796 24.923 21.3792 24.3416C21.9623 23.7602 22.7524 23.4341 23.5759 23.4349V23.4344Z" fill="white"/>
<path d="M27.9582 29.0075C27.9474 29.014 27.9358 29.0193 27.9237 29.0233C27.795 29.0829 27.6661 29.1395 27.5374 29.1898V31.7313C27.537 31.9533 27.6249 32.1663 27.7815 32.3236C27.9382 32.4809 28.151 32.5695 28.373 32.57H31.8355V25.2754C30.9895 26.9126 29.6265 28.2246 27.9582 29.0075Z" fill="white"/>
<path d="M31.8349 20.9024V16.2656C31.8349 16.1558 31.8134 16.0471 31.7714 15.9457C31.7294 15.8443 31.6679 15.7522 31.5902 15.6746C31.5126 15.597 31.4205 15.5354 31.3191 15.4934C31.2177 15.4515 31.109 15.4299 30.9993 15.4299H27.5343V21.4649C27.5326 22.2878 27.2045 23.0764 26.622 23.6576C26.0394 24.2388 25.2501 24.5651 24.4273 24.5649H23.6513C23.3847 24.5648 23.1207 24.6172 22.8744 24.7192C22.6281 24.8212 22.4043 24.9707 22.2158 25.1592C22.0274 25.3478 21.8779 25.5716 21.776 25.8179C21.6741 26.0642 21.6217 26.3282 21.6219 26.5948V28.7687C22.0398 28.8409 23.9498 28.8812 24.3926 28.8812C24.4426 28.8812 24.49 28.8812 24.5403 28.8781C25.579 28.8603 26.6024 28.6238 27.5435 28.1838L27.5624 28.1744C28.7664 27.6116 29.7977 26.7368 30.5495 25.6408C31.3012 24.5448 31.7459 23.2676 31.8374 21.9417C31.8499 21.7689 31.8563 21.5961 31.8563 21.4202C31.8538 21.2479 31.8474 21.0752 31.8349 20.9024Z" fill="white"/>
</g>
<defs>
<clipPath id="clip0_298_40">
<rect width="32" height="32" fill="white" transform="translate(8 8)"/>
</clipPath>
</defs>
</svg>
