<svg width="48" height="48" viewBox="0 0 48 48" fill="none" xmlns="http://www.w3.org/2000/svg">
<rect width="48" height="48" rx="12" fill="#E0E0FF" fill-opacity="0.04"/>
<g clip-path="url(#clip0_298_438)">
<path d="M13.6666 8H34.3333C37.4666 8 40 10.5983 40 13.812V34.188C40 37.4017 37.4666 40 34.3333 40H13.6666C10.5333 40 7.99997 37.4017 7.99997 34.188V13.812C7.99997 10.5983 10.5333 8 13.6666 8Z" fill="#330000"/>
<path d="M23.5066 27.2H18.5466L17.5333 30.4136C17.5066 30.5367 17.4 30.6188 17.28 30.6051H14.7733C14.6266 30.6051 14.5866 30.523 14.6266 30.3589L18.92 17.682C18.96 17.5453 19 17.3948 19.0533 17.2307C19.1066 16.9435 19.1333 16.6427 19.1333 16.3418C19.12 16.2735 19.1733 16.2051 19.24 16.1914H22.6933C22.8 16.1914 22.8533 16.2324 22.8666 16.3008L27.7333 30.3863C27.7733 30.5367 27.7333 30.6051 27.6 30.6051H24.8133C24.72 30.6188 24.6266 30.5504 24.6 30.4547L23.5066 27.2ZM19.32 24.4239H22.7066C22.6266 24.1367 22.52 23.7948 22.4 23.4393C22.28 23.07 22.16 22.6735 22.04 22.2632C21.9066 21.8393 21.7866 21.429 21.6533 21.0051C21.52 20.5811 21.4 20.1846 21.2933 19.788C21.1866 19.4051 21.0933 19.0495 21 18.7213H20.9733C20.8533 19.3094 20.7066 19.8974 20.52 20.4854C20.32 21.1418 20.12 21.8256 19.9066 22.5094C19.72 23.2068 19.52 23.8495 19.32 24.4239Z" fill="#FF9A00"/>
<path d="M30.64 18.5299C30.2 18.5436 29.7733 18.3658 29.4533 18.0513C29.1466 17.7094 28.9866 17.2581 29 16.7931C28.9866 16.3282 29.16 15.8906 29.48 15.576C29.8 15.2615 30.2266 15.0974 30.6666 15.0974C31.1866 15.0974 31.5866 15.2615 31.88 15.576C32.1733 15.9042 32.3333 16.3419 32.32 16.7931C32.3333 17.2581 32.1733 17.7094 31.8533 18.0513C31.5466 18.3795 31.0933 18.5572 30.64 18.5299ZM29.1466 30.4V19.8701C29.1466 19.7333 29.2 19.6786 29.32 19.6786H31.96C32.08 19.6786 32.1333 19.747 32.1333 19.8701V30.4C32.1333 30.5504 32.08 30.6188 31.96 30.6188H29.3466C29.2133 30.6188 29.1466 30.5367 29.1466 30.4Z" fill="#FF9A00"/>
</g>
<defs>
<clipPath id="clip0_298_438">
<rect width="32" height="32" fill="white" transform="translate(8 8)"/>
</clipPath>
</defs>
</svg>
