<svg width="48" height="48" viewBox="0 0 48 48" fill="none" xmlns="http://www.w3.org/2000/svg">
<rect width="48" height="48" rx="12" fill="#E0E0FF" fill-opacity="0.04"/>
<g clip-path="url(#clip0_6_519)">
<path d="M19.0747 33.8325C19.0747 33.8325 17.6909 34.674 20.0365 34.9148C22.8603 35.2748 24.3644 35.2151 27.4897 34.6144C28.1178 34.999 28.7821 35.3212 29.473 35.5763C22.4418 38.5823 13.5442 35.3963 19.0747 33.8325ZM18.1747 29.9254C18.1747 29.9254 16.6717 31.0673 19.0162 31.3091C22.0818 31.6095 24.4859 31.6691 28.6349 30.8288C29.0384 31.238 29.5324 31.5467 30.0772 31.7299C21.6014 34.2544 12.1042 31.9695 18.1747 29.9254ZM34.765 36.7766C34.765 36.7766 35.7865 37.6181 33.6232 38.2796C29.5957 39.4834 16.7324 39.8434 13.1257 38.2796C11.8634 37.7396 14.2675 36.9578 15.0382 36.8374C15.82 36.6574 16.2419 36.6574 16.2419 36.6574C14.8582 35.6955 7.04503 38.6408 12.2752 39.4811C26.6414 41.8256 38.4832 38.4596 34.756 36.7766H34.765ZM19.7249 25.8371C19.7249 25.8371 13.1729 27.4009 17.3804 27.9409C19.1838 28.1816 22.7298 28.1209 26.0362 27.8813C28.7407 27.6405 31.4474 27.1613 31.4474 27.1613C31.4474 27.1613 30.4855 27.582 29.824 28.0028C23.1528 29.7465 10.348 28.9646 14.0155 27.1613C17.1408 25.6583 19.726 25.8394 19.726 25.8394L19.7249 25.8371ZM31.4474 32.3891C38.1794 28.9016 35.0542 25.5379 32.8897 25.9575C32.3497 26.0779 32.1078 26.1983 32.1078 26.1983C32.1078 26.1983 32.2878 25.8383 32.7085 25.7179C36.9768 24.2149 40.3428 30.2258 31.3248 32.5691C31.3248 32.5691 31.3844 32.5095 31.4452 32.3891H31.4474ZM20.3887 41.8864C26.8799 42.3071 36.799 41.6456 37.0387 38.5789C37.0387 38.5789 36.5583 39.7826 31.6893 40.6826C26.1588 41.7041 19.3064 41.5826 15.2789 40.9234C15.2789 40.9234 16.1204 41.6445 20.3887 41.8864Z" fill="#4E7896"/>
<path d="M27.3706 6.00122C27.3706 6.00122 31.0977 9.78797 23.8246 15.4985C17.9937 20.1267 22.5027 22.7716 23.8246 25.7776C20.3978 22.712 17.9341 20.0063 19.6171 17.483C22.0808 13.7547 28.8736 11.9626 27.3706 6.00122ZM25.4581 23.2531C27.2018 25.2365 24.9777 27.0398 24.9777 27.0398C24.9777 27.0398 29.4259 24.7561 27.3818 21.9301C25.5188 19.2256 24.0743 17.9026 31.8897 13.3947C31.8897 13.3947 19.5676 16.4603 25.4581 23.2531Z" fill="#F58219"/>
</g>
<defs>
<clipPath id="clip0_6_519">
<rect width="36" height="36" fill="white" transform="translate(6 6)"/>
</clipPath>
</defs>
</svg>
