<svg width="48" height="48" viewBox="0 0 48 48" fill="none" xmlns="http://www.w3.org/2000/svg">
<rect width="48" height="48" rx="12" fill="#E0E0FF" fill-opacity="0.04"/>
<g clip-path="url(#clip0_6_572)">
<path d="M8.77393 30.1499C8.77393 29.6699 8.84093 29.2649 8.97393 28.9369C9.10228 28.6242 9.30192 28.3458 9.55693 28.1239C9.80893 27.9165 10.102 27.7648 10.4169 27.6789C10.7449 27.5869 11.0969 27.5409 11.4769 27.5409C11.8194 27.5388 12.1605 27.5852 12.4899 27.6789C12.8169 27.7709 13.1039 27.9189 13.3499 28.1239C13.5959 28.3289 13.7899 28.5999 13.9329 28.9369C14.0759 29.2649 14.1479 29.6689 14.1479 30.1499C14.1479 30.6099 14.0759 31.0039 13.9329 31.3319C13.8015 31.6429 13.6023 31.9206 13.3499 32.1449C13.1049 32.3599 12.8179 32.5129 12.4899 32.6049C12.1623 32.7085 11.8205 32.7601 11.4769 32.7579C11.0969 32.7579 10.7449 32.7079 10.4169 32.6049C10.0993 32.5182 9.80537 32.3609 9.55693 32.1449C9.31093 31.9299 9.11693 31.6589 8.97393 31.3319C8.84093 31.0049 8.77393 30.6119 8.77393 30.1499ZM17.4299 39.8959C16.9299 39.8959 16.4319 39.8599 15.9099 39.7889C15.3879 39.7179 14.9529 39.6249 14.6059 39.5129V35.8299C14.9229 35.9319 15.2199 36.0039 15.5059 36.0449C15.815 36.0984 16.1283 36.1242 16.4419 36.1219C16.6979 36.1219 16.9379 36.0819 17.1619 35.9989C17.4012 35.929 17.6116 35.7838 17.7619 35.5849C17.9359 35.3909 18.0739 35.1249 18.1759 34.7869C18.2779 34.4599 18.3289 34.0349 18.3289 33.5129V15.1879H23.0089V34.2029C23.0089 34.9909 22.9069 35.7269 22.7019 36.4029C22.5243 37.0701 22.1931 37.6865 21.7349 38.2029C21.2949 38.7249 20.7219 39.1329 20.0149 39.4309C19.3079 39.7289 18.4499 39.8759 17.4369 39.8759M18.1369 10.7319C18.1369 10.2919 18.2039 9.92892 18.3369 9.63192C18.4699 9.33492 18.6489 9.09992 18.8739 8.92592C19.1089 8.74192 19.3799 8.61392 19.6869 8.54192C20.0039 8.46992 20.3369 8.43492 20.6849 8.43492C21.0153 8.43265 21.3448 8.46856 21.6669 8.54192C21.959 8.60668 22.2321 8.7381 22.4649 8.92592C22.7074 9.10901 22.8977 9.35242 23.0169 9.63192C23.1599 9.91892 23.2319 10.2819 23.2319 10.7319C23.2319 11.1619 23.1599 11.5249 23.0169 11.8319C22.8839 12.1289 22.6999 12.3689 22.4649 12.5519C22.2274 12.7322 21.956 12.8628 21.6669 12.9359C21.3448 13.0096 21.0153 13.0459 20.6849 13.0439C20.3369 13.0439 20.0049 13.0089 19.6869 12.9359C19.3941 12.8605 19.1182 12.7302 18.8739 12.5519C18.6489 12.3679 18.4699 12.1269 18.3369 11.8319C18.2039 11.5369 18.1369 11.1719 18.1369 10.7319ZM39.2569 27.2499C39.2569 28.1499 39.0929 28.9379 38.7569 29.6129C38.4361 30.2812 37.9564 30.8607 37.3599 31.3009C36.7559 31.7509 36.0249 32.0889 35.1649 32.3139C34.3049 32.5389 33.3449 32.6519 32.2799 32.6519C31.7169 32.6519 31.1949 32.6319 30.7149 32.5919C30.2565 32.5638 29.8003 32.5074 29.3489 32.4229C28.9189 32.3409 28.5049 32.2389 28.1059 32.1159C27.6928 31.9877 27.288 31.8341 26.8939 31.6559V27.7899C27.3239 28.0049 27.7739 28.1899 28.2439 28.3729L29.6709 28.8329L31.0369 29.1249C31.4478 29.1933 31.8634 29.229 32.2799 29.2319C32.6999 29.2319 33.0579 29.1969 33.3539 29.1249C33.6509 29.0429 33.8909 28.9249 34.0739 28.8029C34.2679 28.6599 34.4069 28.4959 34.4879 28.3029C34.5793 28.1111 34.6264 27.9013 34.6259 27.6889C34.6259 27.4739 34.5899 27.2849 34.5189 27.1209C34.4589 26.9469 34.3189 26.7679 34.0739 26.5839C33.8389 26.3899 33.4909 26.1839 33.0299 25.9399L31.2039 25.0399L29.2539 24.0419C28.7119 23.7039 28.2619 23.3419 27.9039 22.9219C27.5551 22.5112 27.2892 22.0368 27.1209 21.5249C26.9469 20.9929 26.8609 20.3649 26.8609 19.6369C26.8609 18.8389 27.0139 18.1429 27.3209 17.5499C27.6254 16.9491 28.0733 16.4325 28.6249 16.0459C29.1879 15.6459 29.8629 15.3499 30.6509 15.1459C31.4489 14.9409 32.3339 14.8389 33.3059 14.8389C34.3289 14.8389 35.3009 14.9569 36.2219 15.1919C37.1429 15.4269 38.0889 15.7799 39.0619 16.2519L37.6499 19.5669C36.8719 19.1989 36.1299 18.8969 35.4249 18.6619C34.7426 18.4306 34.0274 18.3114 33.3069 18.3089C32.6729 18.3089 32.2119 18.4219 31.9269 18.6469C31.6509 18.8719 31.5129 19.1789 31.5129 19.5669C31.5129 19.7719 31.5489 19.9669 31.6199 20.1199C31.6919 20.2739 31.8349 20.4369 32.0499 20.6199C32.2649 20.7839 32.5669 20.9679 32.9549 21.1719L34.4749 21.8919L36.4389 22.8419C36.9867 23.1239 37.4928 23.4802 37.9429 23.9009C38.3586 24.2945 38.6879 24.7703 38.9099 25.2979C39.1349 25.8299 39.2479 26.4749 39.2479 27.2319" fill="#5E5EEE"/>
</g>
<defs>
<clipPath id="clip0_6_572">
<rect width="32" height="32" fill="white" transform="translate(8 8)"/>
</clipPath>
</defs>
</svg>
