<svg width="48" height="48" viewBox="0 0 48 48" fill="none" xmlns="http://www.w3.org/2000/svg">
<rect width="48" height="48" rx="12" fill="#E0E0FF" fill-opacity="0.04"/>
<g clip-path="url(#clip0_102_5507)">
<path d="M24 38.2682C31.8801 38.2682 38.2682 31.8801 38.2682 24C38.2682 16.1198 31.8801 9.73169 24 9.73169C16.1198 9.73169 9.73169 16.1198 9.73169 24C9.73169 31.8801 16.1198 38.2682 24 38.2682Z" fill="white"/>
<path d="M24 8C20.8355 8 17.7421 8.93838 15.1109 10.6965C12.4797 12.4546 10.4289 14.9534 9.21793 17.8771C8.00693 20.8007 7.69008 24.0177 8.30744 27.1214C8.92481 30.2251 10.4487 33.0761 12.6863 35.3137C14.9239 37.5513 17.7749 39.0752 20.8786 39.6926C23.9823 40.3099 27.1993 39.9931 30.1229 38.7821C33.0466 37.5711 35.5454 35.5203 37.3035 32.8891C39.0616 30.2579 40 27.1645 40 24C40.0061 21.905 39.5995 19.8292 38.8034 17.8913C38.0073 15.9534 36.8373 14.1913 35.3602 12.7055C33.8831 11.2198 32.1278 10.0395 30.1946 9.23216C28.2614 8.42479 26.188 8.0061 24.093 8H24ZM24.2712 24.5424L22.6053 30.1598H31.5157C31.5748 30.1577 31.6336 30.1673 31.6889 30.188C31.7443 30.2087 31.795 30.2401 31.8381 30.2804C31.8813 30.3207 31.9161 30.3691 31.9406 30.4229C31.965 30.4766 31.9786 30.5347 31.9806 30.5937V30.7409L31.2058 33.414C31.1717 33.5405 31.0955 33.6515 30.9899 33.7289C30.8843 33.8064 30.7555 33.8456 30.6247 33.8402H16.9879L19.2736 26.0533L16.7167 26.8281L17.2978 25.046L19.8547 24.2712L23.0702 13.3462C23.1056 13.2205 23.1821 13.1103 23.2874 13.0331C23.3927 12.9558 23.5208 12.9161 23.6513 12.9201H27.0993C27.1583 12.918 27.2172 12.9276 27.2725 12.9483C27.3278 12.969 27.3785 13.0004 27.4217 13.0407C27.4648 13.081 27.4996 13.1294 27.5241 13.1832C27.5486 13.2369 27.5622 13.295 27.5642 13.354V13.5012L24.8523 22.7215L27.4092 21.9467L26.8668 23.8063L24.2712 24.5424Z" fill="#345D9D"/>
</g>
<defs>
<clipPath id="clip0_102_5507">
<rect width="32" height="32" fill="white" transform="translate(8 8)"/>
</clipPath>
</defs>
</svg>
