<svg width="48" height="48" viewBox="0 0 48 48" fill="none" xmlns="http://www.w3.org/2000/svg">
<rect width="48" height="48" rx="12" fill="#E0E0FF" fill-opacity="0.04"/>
<path d="M36.6691 11L25.7087 19.1099L27.7469 14.3305L36.6691 11Z" fill="#E17726" stroke="#E17726" stroke-width="0.104311" stroke-linecap="round" stroke-linejoin="round"/>
<path d="M11.3876 11L22.2504 19.1856L20.3099 14.3305L11.3876 11Z" fill="#E27625" stroke="#E27625" stroke-width="0.104311" stroke-linecap="round" stroke-linejoin="round"/>
<path d="M32.7227 29.804L29.8065 34.259L36.0509 35.9783L37.8397 29.9013L32.7227 29.804Z" fill="#E27625" stroke="#E27625" stroke-width="0.104311" stroke-linecap="round" stroke-linejoin="round"/>
<path d="M10.2276 29.9013L12.0055 35.9783L18.2392 34.259L15.3337 29.804L10.2276 29.9013Z" fill="#E27625" stroke="#E27625" stroke-width="0.104311" stroke-linecap="round" stroke-linejoin="round"/>
<path d="M17.903 22.278L16.1685 24.8948L22.3479 25.176L22.1419 18.5259L17.903 22.278Z" fill="#E27625" stroke="#E27625" stroke-width="0.104311" stroke-linecap="round" stroke-linejoin="round"/>
<path d="M30.1533 22.2783L25.8495 18.4504L25.7086 25.1762L31.8879 24.8951L30.1533 22.2783Z" fill="#E27625" stroke="#E27625" stroke-width="0.104311" stroke-linecap="round" stroke-linejoin="round"/>
<path d="M18.2392 34.259L21.9793 32.4532L18.7596 29.9446L18.2392 34.259Z" fill="#E27625" stroke="#E27625" stroke-width="0.104311" stroke-linecap="round" stroke-linejoin="round"/>
<path d="M26.0773 32.4532L29.8066 34.259L29.2971 29.9446L26.0773 32.4532Z" fill="#E27625" stroke="#E27625" stroke-width="0.104311" stroke-linecap="round" stroke-linejoin="round"/>
<path d="M29.8066 34.2591L26.0773 32.4534L26.3808 34.8755L26.3483 35.9028L29.8066 34.2591Z" fill="#D5BFB2" stroke="#D5BFB2" stroke-width="0.104311" stroke-linecap="round" stroke-linejoin="round"/>
<path d="M18.2392 34.2591L21.7084 35.9028L21.6867 34.8755L21.9793 32.4534L18.2392 34.2591Z" fill="#D5BFB2" stroke="#D5BFB2" stroke-width="0.104311" stroke-linecap="round" stroke-linejoin="round"/>
<path d="M21.7733 28.3443L18.6727 27.4361L20.8626 26.4304L21.7733 28.3443Z" fill="#233447" stroke="#233447" stroke-width="0.104311" stroke-linecap="round" stroke-linejoin="round"/>
<path d="M26.2833 28.3443L27.1939 26.4304L29.3947 27.4361L26.2833 28.3443Z" fill="#233447" stroke="#233447" stroke-width="0.104311" stroke-linecap="round" stroke-linejoin="round"/>
<path d="M18.2391 34.259L18.7812 29.804L15.3337 29.9013L18.2391 34.259Z" fill="#CC6228" stroke="#CC6228" stroke-width="0.104311" stroke-linecap="round" stroke-linejoin="round"/>
<path d="M29.2753 29.804L29.8065 34.259L32.7227 29.9013L29.2753 29.804Z" fill="#CC6228" stroke="#CC6228" stroke-width="0.104311" stroke-linecap="round" stroke-linejoin="round"/>
<path d="M31.8879 24.8948L25.7086 25.1759L26.2831 28.3442L27.1938 26.4302L29.3945 27.4359L31.8879 24.8948Z" fill="#CC6228" stroke="#CC6228" stroke-width="0.104311" stroke-linecap="round" stroke-linejoin="round"/>
<path d="M18.6727 27.4359L20.8626 26.4302L21.7733 28.3442L22.3479 25.1759L16.1685 24.8948L18.6727 27.4359Z" fill="#CC6228" stroke="#CC6228" stroke-width="0.104311" stroke-linecap="round" stroke-linejoin="round"/>
<path d="M16.1686 24.8948L18.7597 29.9446L18.6729 27.4359L16.1686 24.8948Z" fill="#E27525" stroke="#E27525" stroke-width="0.104311" stroke-linecap="round" stroke-linejoin="round"/>
<path d="M29.3947 27.4359L29.2971 29.9446L31.8881 24.8948L29.3947 27.4359Z" fill="#E27525" stroke="#E27525" stroke-width="0.104311" stroke-linecap="round" stroke-linejoin="round"/>
<path d="M22.3482 25.176L21.7736 28.3444L22.4999 32.0857L22.6625 27.1549L22.3482 25.176Z" fill="#E27525" stroke="#E27525" stroke-width="0.104311" stroke-linecap="round" stroke-linejoin="round"/>
<path d="M25.7087 25.176L25.4052 27.1441L25.5569 32.0857L26.2833 28.3444L25.7087 25.176Z" fill="#E27525" stroke="#E27525" stroke-width="0.104311" stroke-linecap="round" stroke-linejoin="round"/>
<path d="M26.2833 28.3444L25.5569 32.0857L26.0773 32.4534L29.2972 29.9447L29.3947 27.436L26.2833 28.3444Z" fill="#F5841F" stroke="#F5841F" stroke-width="0.104311" stroke-linecap="round" stroke-linejoin="round"/>
<path d="M18.6727 27.436L18.7595 29.9447L21.9793 32.4534L22.4996 32.0857L21.7733 28.3444L18.6727 27.436Z" fill="#F5841F" stroke="#F5841F" stroke-width="0.104311" stroke-linecap="round" stroke-linejoin="round"/>
<path d="M26.3483 35.9027L26.3808 34.8754L26.099 34.6375H21.9577L21.6867 34.8754L21.7084 35.9027L18.2392 34.259L19.4534 35.2538L21.9143 36.9515H26.1314L28.6032 35.2538L29.8066 34.259L26.3483 35.9027Z" fill="#C0AC9D" stroke="#C0AC9D" stroke-width="0.104311" stroke-linecap="round" stroke-linejoin="round"/>
<path d="M26.0772 32.4533L25.5568 32.0857H22.4996L21.9793 32.4533L21.6866 34.8755L21.9576 34.6376H26.0989L26.3808 34.8755L26.0772 32.4533Z" fill="#161616" stroke="#161616" stroke-width="0.104311" stroke-linecap="round" stroke-linejoin="round"/>
<path d="M37.1352 19.6397L38.0567 15.1631L36.669 11L26.0773 18.8396L30.1535 22.2781L35.9101 23.9542L37.1785 22.4728L36.6257 22.0727L37.5038 21.2726L36.8316 20.7535L37.7098 20.0831L37.1352 19.6397Z" fill="#763E1A" stroke="#763E1A" stroke-width="0.104311" stroke-linecap="round" stroke-linejoin="round"/>
<path d="M10 15.1631L10.9323 19.6397L10.3361 20.0831L11.225 20.7535L10.5529 21.2726L11.431 22.0727L10.8781 22.4728L12.1465 23.9542L17.9032 22.2781L21.9794 18.8396L11.3877 11L10 15.1631Z" fill="#763E1A" stroke="#763E1A" stroke-width="0.104311" stroke-linecap="round" stroke-linejoin="round"/>
<path d="M35.9102 23.9541L30.1536 22.2781L31.8881 24.8949L29.2971 29.9446L32.7229 29.9014H37.8399L35.9102 23.9541Z" fill="#F5841F" stroke="#F5841F" stroke-width="0.104311" stroke-linecap="round" stroke-linejoin="round"/>
<path d="M17.903 22.2781L12.1465 23.9541L10.2276 29.9014H15.3337L18.7595 29.9446L16.1685 24.8949L17.903 22.2781Z" fill="#F5841F" stroke="#F5841F" stroke-width="0.104311" stroke-linecap="round" stroke-linejoin="round"/>
<path d="M25.7086 25.1762L26.0772 18.8396L27.7467 14.3306H20.3098L21.9792 18.8396L22.3478 25.1762L22.4888 27.1658L22.4996 32.0858H25.5568L25.5677 27.1658L25.7086 25.1762Z" fill="#F5841F" stroke="#F5841F" stroke-width="0.104311" stroke-linecap="round" stroke-linejoin="round"/>
</svg>
