<svg width="48" height="48" viewBox="0 0 48 48" fill="none" xmlns="http://www.w3.org/2000/svg">
<rect width="48" height="48" rx="12" fill="#E0E0FF" fill-opacity="0.04"/>
<g clip-path="url(#clip0_6_878)">
<path fill-rule="evenodd" clip-rule="evenodd" d="M26.8414 8.06225C26.6108 8.06225 26.3954 8.11138 26.1988 8.17563C26.6203 8.4591 26.8508 8.82762 26.968 9.24904C26.9755 9.30574 26.9925 9.34731 27.0001 9.4059C27.0077 9.46448 27.019 9.50416 27.019 9.55708C27.053 10.2847 26.83 10.3754 26.6713 10.8043C26.4313 11.3581 26.4974 11.9533 26.7847 12.4296C26.811 12.4933 26.8439 12.5541 26.8829 12.611C26.5692 10.5209 28.3135 10.2053 28.6348 9.5533C28.6594 8.98258 28.1888 8.60273 27.8165 8.33816C27.4612 8.12272 27.1362 8.05469 26.8414 8.05469V8.06225ZM29.4682 8.5347C29.4342 8.72368 29.4606 8.67454 29.4493 8.7747L29.4304 8.99014L29.3737 9.18857C29.3548 9.25471 29.3321 9.32085 29.3076 9.387L29.2168 9.57598C29.1923 9.60999 29.1753 9.64212 29.1507 9.67425L29.1016 9.74984L28.9768 9.91425C28.9277 9.96339 28.8861 10.022 28.8257 10.0654C28.7652 10.1089 28.7274 10.1637 28.6688 10.2053C28.4949 10.3376 28.2965 10.4358 28.1151 10.5606C28.0584 10.6021 28.0017 10.6362 27.9507 10.6853C27.8947 10.7249 27.8423 10.7691 27.7938 10.8176C27.7371 10.8667 27.6956 10.9158 27.6426 10.9744C27.5897 11.033 27.5519 11.0821 27.5179 11.1388L27.4045 11.3127L27.3138 11.5017L27.2477 11.6907L27.191 11.8985C27.1834 11.9326 27.1834 11.9741 27.1721 12.0063C27.1607 12.0384 27.1645 12.0724 27.1532 12.1045L27.1456 12.3124C27.1456 12.3615 27.1456 12.4107 27.1532 12.4636C27.1532 12.5297 27.1607 12.5959 27.1777 12.6715C27.1948 12.7471 27.2023 12.8038 27.2193 12.8699L27.2855 13.0683C27.3044 13.1099 27.327 13.1515 27.3422 13.1817L25.441 12.4447L24.4829 12.199L23.9613 12.0743C23.4639 11.9751 22.9618 11.9007 22.457 11.8513C22.4381 11.8513 22.4325 11.8437 22.4155 11.8437L20.9357 11.7681L19.8529 11.8097C19.3483 11.8437 18.8437 11.908 18.341 11.9911L17.9687 12.0573L17.2242 12.2217L16.8519 12.32L16.4966 12.4768L16.2245 12.6015C16.2056 12.6091 16.1904 12.6091 16.1829 12.6204L15.9523 12.7338C15.9278 12.7414 15.9108 12.7527 15.8956 12.7584L15.6386 12.8907C15.5819 12.9153 15.5252 12.9474 15.4742 12.9738C15.4496 12.9927 15.4175 13.006 15.3986 13.0154L15.1832 13.1401C15.1147 13.178 15.0485 13.2196 14.9848 13.2649L14.8203 13.3783L14.6389 13.5105L14.4991 13.6239C14.4802 13.6315 14.4651 13.6485 14.4499 13.6579L14.3252 13.7657C14.3177 13.7846 14.3006 13.7902 14.2912 13.7997L14.14 13.9395L13.9756 14.0964L13.8358 14.2476C13.8169 14.2665 13.7942 14.2816 13.7791 14.2967C13.7347 14.3485 13.688 14.3983 13.6392 14.446C13.6317 14.4649 13.6146 14.4706 13.6052 14.4876L13.4162 14.686L12.9702 15.115C12.819 15.2473 12.6641 15.372 12.5072 15.4778L12.0121 15.7915C11.8477 15.8822 11.6719 15.9654 11.4905 16.0372C11.3149 16.1119 11.1358 16.1781 10.9538 16.2356C10.6061 16.3112 10.2508 16.4511 9.94465 16.4756C9.87851 16.4756 9.80481 16.4945 9.73678 16.5002L9.5289 16.5493L9.33047 16.6249C9.26281 16.6517 9.19658 16.682 9.13204 16.7156C9.07535 16.7572 9.00731 16.7912 8.95062 16.829C8.89393 16.8668 8.83723 16.9197 8.78621 16.9689C8.73518 17.018 8.67282 17.0671 8.62179 17.1201L8.48195 17.2845C8.44037 17.3506 8.39124 17.4092 8.35722 17.4735C8.31397 17.534 8.27543 17.5978 8.24194 17.6643L8.15123 17.8798L8.07564 18.0952L8.03407 18.2936C8.0095 18.3919 8.0095 18.4921 8.00005 18.5393C7.9906 18.5865 8.00005 18.6489 8.00005 18.7075C7.99844 18.7436 8.00098 18.7797 8.00761 18.8152C8.01517 18.8719 8.02651 18.9229 8.04162 18.9721L8.09832 19.1233C8.12289 19.1799 8.15501 19.231 8.18903 19.2801L8.29675 19.4313L8.43659 19.5636C8.48504 19.612 8.53751 19.6563 8.59345 19.6959C8.79188 19.8697 8.83912 19.9264 9.09802 20.0587C9.1396 20.0833 9.18117 20.1003 9.23031 20.1248C9.25488 20.1494 9.25488 20.157 9.26433 20.174C9.27189 20.2401 9.28889 20.3063 9.3059 20.3724C9.32168 20.4405 9.34383 20.5069 9.37204 20.5708L9.43819 20.722C9.44575 20.7409 9.45709 20.756 9.46276 20.7636L9.56102 20.945L9.68575 21.1189L9.8256 21.2757C9.87473 21.3249 9.92387 21.3664 9.98245 21.4156L10.1469 21.5403C10.2036 21.5819 10.2603 21.6159 10.3283 21.648C10.3894 21.6832 10.4532 21.7136 10.5192 21.7387C10.5683 21.7633 10.6269 21.7803 10.6836 21.7954C10.7403 21.8105 10.7913 21.8294 10.8234 21.837C10.7988 22.283 10.7894 22.7063 10.8574 22.8537C10.933 23.0181 11.2959 22.5136 11.6587 21.9372C11.6096 22.5079 11.5756 23.1769 11.6587 23.3734C11.7419 23.57 12.2445 22.935 12.6754 22.2244C18.5338 20.8694 23.8819 24.9193 24.4432 30.6378C24.3355 29.7458 23.2375 29.2488 22.7329 29.3716C22.4873 29.9839 22.0639 30.7701 21.3855 31.2558C21.4422 30.7077 21.4176 30.1483 21.3024 29.6022C21.1175 30.363 20.7678 31.0739 20.2781 31.6848C19.4938 31.7415 18.7096 31.3635 18.2938 30.7928C18.2598 30.7682 18.2522 30.7172 18.2277 30.6851L18.1615 30.5112C18.1369 30.4545 18.1199 30.3978 18.1124 30.3373C18.1048 30.2769 18.1048 30.2239 18.1048 30.1559V30.0312C18.1124 29.9745 18.1294 29.9178 18.1464 29.8573L18.2031 29.6835C18.2371 29.6268 18.2598 29.5701 18.3014 29.5096C18.4412 29.1316 18.4412 28.7915 18.188 28.6025C18.1388 28.5685 18.0897 28.5458 18.0311 28.5193C17.9971 28.5118 17.9555 28.4948 17.9234 28.4853L17.8573 28.4608L17.6834 28.4192C17.6269 28.4028 17.5683 28.3946 17.5095 28.3946C17.4495 28.3848 17.3889 28.3792 17.3281 28.3776C17.2865 28.3776 17.245 28.3852 17.2034 28.3852C17.142 28.3847 17.0809 28.3929 17.022 28.4097L16.8481 28.4419L16.6742 28.4986L16.5098 28.5741L16.353 28.6573C14.4254 29.914 15.5782 32.8527 16.8897 33.7068C16.3945 33.7976 15.8881 33.9053 15.7501 34.013C16.0903 34.2435 16.4607 34.4288 16.85 34.5837L18.188 34.9617C18.874 35.1129 19.5675 35.1601 20.2705 35.1185C22.0563 34.9878 23.7439 34.2513 25.0542 33.0311C26.3645 31.8108 27.219 30.1798 27.4763 28.4078L27.5255 28.6233L27.6011 29.0863L27.6351 29.3093L27.654 29.555L27.6729 29.8271V29.9594C27.6729 30.0009 27.6804 30.0501 27.6804 30.0917C27.6804 30.1332 27.6729 30.1899 27.6729 30.2428V30.3562C27.6729 30.4129 27.6653 30.4639 27.6653 30.5206C27.6653 30.5528 27.6653 30.5868 27.6578 30.6284L27.6502 30.8098C27.6426 30.8343 27.6426 30.8589 27.6426 30.8854L27.6181 31.0744C27.6181 31.0989 27.6181 31.1235 27.6105 31.1499L27.5784 31.3899V31.4088L27.5293 31.6394L27.4801 31.8851L27.414 32.1421L27.3478 32.3991L27.2647 32.6637L27.0833 33.1437L26.985 33.3837L26.8716 33.6142C26.864 33.6388 26.8527 33.6558 26.847 33.6709C26.2933 34.7784 25.4996 35.7308 24.5075 36.4716C24.4413 36.5132 24.3752 36.5623 24.309 36.6115C24.2901 36.6304 24.2675 36.636 24.2523 36.653L24.0709 36.7778L24.0955 36.8269H24.103L24.4508 36.7778H24.4583L25.1009 36.6644C25.1576 36.6568 25.2256 36.6398 25.2823 36.6228L25.3957 36.5982L25.5695 36.5661L25.7207 36.5245C26.5466 36.3261 27.3459 36.0521 28.117 35.7308C26.8036 37.5261 25.0423 38.9699 22.9843 39.9205C23.9348 39.8544 24.8854 39.6975 25.8001 39.4329C29.1299 38.4502 31.9325 36.2108 33.6106 33.1928C33.2704 35.1063 32.5115 36.9209 31.3882 38.5069C32.1895 37.9778 32.9246 37.3674 33.5955 36.6738C35.4452 34.7425 36.6593 32.2912 37.0746 29.6494C37.3581 30.9534 37.4375 32.3027 37.3146 33.6331C43.2807 25.3105 37.8098 16.6816 35.5193 14.4101C35.5118 14.3912 35.5004 14.3855 35.5004 14.3685C35.4815 14.4668 35.4759 14.5669 35.4683 14.6652C35.4437 14.8542 35.4192 15.0375 35.3852 15.2189C35.3511 15.4003 35.2944 15.5818 35.2453 15.767C35.1962 15.9522 35.1206 16.1222 35.0469 16.2961C34.9732 16.47 34.89 16.6363 34.8012 16.8007C34.7101 16.9623 34.6111 17.1194 34.5045 17.2712C34.3968 17.4281 34.2815 17.5774 34.1643 17.7172C34.041 17.8611 33.9111 17.9992 33.775 18.1311C33.6919 18.2067 33.6182 18.271 33.535 18.339L33.3461 18.5034C33.1985 18.6205 33.0438 18.7284 32.8831 18.8266C32.7253 18.9284 32.5625 19.0223 32.3955 19.1081C32.2216 19.1913 32.0478 19.265 31.8739 19.3387C31.6979 19.4053 31.5188 19.4633 31.3372 19.5126C31.1558 19.5617 30.9649 19.6033 30.7835 19.6373C30.6021 19.6713 30.4055 19.6864 30.2222 19.7034C30.0899 19.711 29.9576 19.7223 29.8443 19.7223C29.6553 19.7223 29.4663 19.7034 29.283 19.6883C29.0997 19.6732 28.905 19.6467 28.7198 19.6052C28.5323 19.5712 28.3473 19.5245 28.1661 19.4653H28.1586C28.34 19.4464 28.5214 19.4313 28.7066 19.3992C28.8918 19.367 29.0789 19.3236 29.2603 19.2744C29.4417 19.2253 29.6232 19.1667 29.797 19.1006C29.9709 19.0344 30.1523 18.9494 30.3186 18.87C30.488 18.7874 30.6532 18.6966 30.8137 18.5979C30.9706 18.4902 31.1274 18.3825 31.2767 18.2672C31.4248 18.1519 31.5655 18.0276 31.6982 17.8949C31.838 17.7702 31.9627 17.6303 32.0875 17.4905C32.2122 17.3506 32.3275 17.1938 32.4352 17.0445C32.4541 17.0199 32.4692 16.9878 32.4843 16.9613L32.7243 16.5834C32.815 16.4189 32.8982 16.2526 32.97 16.0788C33.0418 15.9049 33.1098 15.7311 33.1684 15.5496C33.227 15.3682 33.2667 15.1944 33.3083 15.0129C33.3498 14.8315 33.3744 14.6406 33.3914 14.4592C33.4084 14.2778 33.4235 14.0813 33.4235 13.898C33.4235 13.7657 33.416 13.6334 33.4046 13.52C33.3857 13.331 33.3631 13.1477 33.3385 12.9663C33.3056 12.7799 33.264 12.5951 33.2138 12.4126C33.1571 12.2387 33.1004 12.0573 33.0324 11.8834C32.9643 11.7096 32.8812 11.5357 32.8018 11.3732C32.7224 11.2107 32.6204 11.0425 32.5183 10.8856C32.4163 10.7288 32.3029 10.5795 32.1876 10.4321L31.8097 10.0106C31.7398 9.93991 31.668 9.87122 31.5942 9.80464C31.2239 9.51684 30.8405 9.2463 30.4452 8.99392C30.3885 8.96179 30.3375 8.93722 30.2808 8.91077C30.0087 8.73691 29.7517 8.6462 29.4965 8.56304L29.4682 8.5347Z" fill="#EA2845"/>
</g>
<defs>
<clipPath id="clip0_6_878">
<rect width="32" height="32" fill="white" transform="translate(8 8)"/>
</clipPath>
</defs>
</svg>
