<svg width="48" height="48" viewBox="0 0 48 48" fill="none" xmlns="http://www.w3.org/2000/svg">
<rect width="48" height="48" rx="12" fill="#E0E0FF" fill-opacity="0.04"/>
<path d="M22.656 8.42693C23.456 7.97393 24.476 7.97193 25.256 8.42693L37.2 15.1599C37.947 15.5799 38.447 16.4129 38.44 17.2739V30.7739C38.445 31.6709 37.896 32.5219 37.108 32.9339L25.228 39.6359C24.8217 39.8605 24.3626 39.9721 23.8986 39.9593C23.4345 39.9465 22.9823 39.8096 22.589 39.5629L19.024 37.5029C18.781 37.3579 18.508 37.2429 18.336 37.0079C18.488 36.8039 18.758 36.7779 18.978 36.6879C19.474 36.5299 19.928 36.2879 20.384 36.0319C20.499 35.9519 20.64 35.9819 20.75 36.0539L23.79 37.8119C24.007 37.9369 24.227 37.7719 24.413 37.6669L36.078 31.0839C36.222 31.0139 36.302 30.8619 36.29 30.7039V17.3339C36.306 17.1539 36.203 16.9899 36.04 16.9169L24.19 10.2439C24.1217 10.1967 24.0407 10.1713 23.9577 10.1711C23.8746 10.171 23.7935 10.196 23.725 10.2429L11.892 16.9299C11.732 17.0029 11.622 17.1649 11.642 17.3449V30.7149C11.628 30.8729 11.712 31.0219 11.857 31.0899L15.019 32.8749C15.613 33.1949 16.342 33.3749 16.996 33.1399C17.2822 33.0321 17.5286 32.8393 17.7021 32.5875C17.8757 32.3356 17.9681 32.0368 17.967 31.7309L17.97 18.4409C17.956 18.2439 18.142 18.0809 18.333 18.1009H19.853C20.053 18.0959 20.21 18.3079 20.183 18.5059L20.18 31.8799C20.181 33.0679 19.693 34.3599 18.594 34.9429C17.24 35.6429 15.566 35.4959 14.228 34.8229L10.828 32.9429C10.028 32.5429 9.49101 31.6789 9.49601 30.7829V17.2829C9.49933 16.8442 9.61996 16.4143 9.84537 16.0378C10.0708 15.6613 10.3928 15.352 10.778 15.1419L22.656 8.42693ZM26.1 17.7849C27.827 17.6849 29.676 17.7189 31.23 18.5699C32.433 19.2219 33.1 20.5899 33.122 21.9279C33.088 22.1079 32.9 22.2079 32.728 22.1949C32.228 22.1939 31.726 22.2019 31.224 22.1919C31.011 22.1999 30.888 22.0039 30.861 21.8159C30.717 21.1759 30.368 20.5429 29.766 20.2339C28.842 19.7709 27.77 19.7939 26.762 19.8039C26.026 19.8439 25.235 19.9069 24.612 20.3389C24.132 20.6669 23.988 21.3389 24.159 21.8609C24.319 22.2439 24.762 22.3669 25.123 22.4809C27.205 23.0249 29.41 22.9809 31.453 23.6879C32.298 23.9799 33.125 24.5479 33.415 25.4329C33.793 26.6189 33.628 28.0369 32.785 28.9889C32.101 29.7729 31.105 30.1889 30.11 30.4309C28.787 30.7259 27.415 30.7329 26.072 30.6009C24.809 30.4569 23.495 30.1249 22.52 29.2649C21.686 28.5409 21.28 27.4129 21.32 26.3249C21.33 26.1409 21.513 26.0129 21.69 26.0279H23.19C23.392 26.0139 23.54 26.1879 23.55 26.3779C23.643 26.9779 23.872 27.6279 24.404 27.9779C25.43 28.6399 26.717 28.5939 27.891 28.6129C28.864 28.5699 29.956 28.5569 30.751 27.9129C31.171 27.5459 31.294 26.9329 31.181 26.4049C31.058 25.9589 30.581 25.7519 30.181 25.6049C28.126 24.9549 25.896 25.1909 23.861 24.4549C23.035 24.1629 22.236 23.6109 21.919 22.7619C21.476 21.5619 21.679 20.0749 22.612 19.1549C23.512 18.2399 24.832 17.8869 26.082 17.7609L26.1 17.7849Z" fill="#8CC84B"/>
</svg>
