<svg width="48" height="48" viewBox="0 0 48 48" fill="none" xmlns="http://www.w3.org/2000/svg">
<rect width="48" height="48" rx="12" fill="#E0E0FF" fill-opacity="0.04"/>
<g clip-path="url(#clip0_6_622)">
<path d="M17.7276 35.0757C17.7038 35.0337 17.6826 34.9903 17.6641 34.9457C17.5363 34.6498 17.4969 34.3233 17.5508 34.0055H9.98576L21.2284 14.2208L24.9193 20.709L25.9895 18.8153L22.7721 13.1472C22.6179 12.8569 22.3933 12.6099 22.119 12.4287C21.8447 12.2476 21.5293 12.1381 21.2017 12.1104C20.8749 12.1253 20.5589 12.2317 20.2895 12.4173C20.0202 12.603 19.8083 12.8605 19.678 13.1606L8.28871 33.1853C8.11843 33.468 8.02026 33.7883 8.00281 34.1179C7.98537 34.4475 8.0492 34.7763 8.18868 35.0755C8.36387 35.3517 8.61285 35.5733 8.90746 35.7153C9.20206 35.8574 9.53054 35.9142 9.85573 35.8792H19.3946C19.0694 35.9147 18.7407 35.8582 18.446 35.7162C18.1513 35.5741 17.9024 35.3522 17.7276 35.0757Z" fill="#00C492"/>
<path d="M39.6594 33.1853L30.3005 16.6981C30.147 16.4047 29.9221 16.1547 29.6465 15.9711C29.3708 15.7876 29.0534 15.6764 28.7235 15.6479C28.3969 15.662 28.0809 15.7677 27.8114 15.9528C27.542 16.1379 27.3301 16.395 27.1998 16.6948L25.9895 18.8154L27.0664 20.7091L28.7332 17.7584L37.9923 34.0056H34.4715C34.5165 34.2741 34.4913 34.5498 34.3981 34.8057C34.3785 34.8622 34.354 34.9169 34.3248 34.9691L34.2948 35.0291C34.1034 35.2993 33.8485 35.5181 33.5525 35.6664C33.2566 35.8146 32.9286 35.8877 32.5977 35.8791H38.1057C38.4366 35.888 38.7647 35.8151 39.0607 35.6668C39.3567 35.5185 39.6116 35.2995 39.8027 35.0291C39.9536 34.7391 40.0201 34.4126 39.9947 34.0867C39.9694 33.7608 39.8532 33.4486 39.6594 33.1853Z" fill="#008776"/>
<path d="M34.2948 35.0289L34.3248 34.9689C34.354 34.9167 34.3786 34.8621 34.3982 34.8055C34.4913 34.5496 34.5166 34.274 34.4715 34.0054C34.4196 33.7157 34.3157 33.4378 34.1648 33.1852L27.0734 20.7089L25.9898 18.8152L24.9129 20.7089L17.8245 33.1855C17.687 33.4411 17.5945 33.7186 17.5512 34.0057C17.4941 34.3225 17.53 34.6491 17.6545 34.9459C17.673 34.9905 17.6942 35.0339 17.718 35.0759C17.8932 35.3521 18.1422 35.5737 18.4368 35.7157C18.7314 35.8577 19.0599 35.9144 19.3851 35.8795H32.5878C32.9203 35.8892 33.2502 35.8167 33.548 35.6683C33.8458 35.5199 34.1023 35.3003 34.2948 35.0289ZM25.9895 22.6027L32.4711 34.0054H19.5114L25.9895 22.6027Z" fill="#2D4A5D"/>
</g>
<defs>
<clipPath id="clip0_6_622">
<rect width="32" height="32" fill="white" transform="translate(8 8)"/>
</clipPath>
</defs>
</svg>
