<svg width="48" height="48" viewBox="0 0 48 48" fill="none" xmlns="http://www.w3.org/2000/svg">
<rect width="48" height="48" rx="12" fill="#E0E0FF" fill-opacity="0.04"/>
<g clip-path="url(#clip0_298_419)">
<path d="M13.6667 8H34.3333C37.4667 8 40 10.5983 40 13.812V34.188C40 37.4017 37.4667 40 34.3333 40H13.6667C10.5333 40 8 37.4017 8 34.188V13.812C8 10.5983 10.5333 8 13.6667 8Z" fill="#001E36"/>
<path d="M15.2 30.441V16.3692C15.2 16.2735 15.24 16.2188 15.3333 16.2188C15.56 16.2188 15.7733 16.2188 16.08 16.2051C16.4 16.1914 16.7333 16.1914 17.0933 16.1777C17.4533 16.1641 17.84 16.1641 18.2533 16.1504C18.6667 16.1367 19.0667 16.1367 19.4667 16.1367C20.56 16.1367 21.4667 16.2735 22.2133 16.5607C22.88 16.7931 23.4933 17.176 24 17.682C24.4267 18.1196 24.76 18.653 24.9733 19.241C25.1733 19.8154 25.28 20.4034 25.28 21.0188C25.28 22.1948 25.0133 23.1658 24.48 23.9316C23.9467 24.6974 23.2 25.2718 22.3333 25.6C21.4267 25.9418 20.4267 26.0649 19.3333 26.0649C19.0133 26.0649 18.8 26.0649 18.6667 26.0512C18.5333 26.0376 18.3467 26.0376 18.0933 26.0376V30.4273C18.1067 30.523 18.04 30.6051 17.9467 30.6188C17.9333 30.6188 17.92 30.6188 17.8933 30.6188H15.36C15.2533 30.6188 15.2 30.5641 15.2 30.441ZM18.1067 18.8581V23.453C18.2933 23.4666 18.4667 23.4803 18.6267 23.4803H19.3333C19.8533 23.4803 20.3733 23.3983 20.8667 23.2342C21.2933 23.1111 21.6667 22.8512 21.96 22.5094C22.24 22.1675 22.3733 21.7025 22.3733 21.1008C22.3867 20.6769 22.28 20.253 22.0667 19.8837C21.84 19.5282 21.52 19.2547 21.1333 19.1042C20.64 18.8991 20.1067 18.8171 19.56 18.8307C19.2133 18.8307 18.9067 18.8307 18.6533 18.8444C18.3867 18.8307 18.2 18.8444 18.1067 18.8581Z" fill="#31A8FF"/>
<path d="M33.6 22.6187C33.2 22.3999 32.7733 22.2494 32.32 22.1537C31.8267 22.0443 31.3333 21.9759 30.8267 21.9759C30.56 21.9623 30.28 22.0033 30.0267 22.0717C29.8533 22.1127 29.7067 22.2084 29.6133 22.3452C29.5467 22.4546 29.5067 22.5913 29.5067 22.7144C29.5067 22.8375 29.56 22.9606 29.64 23.07C29.76 23.2204 29.92 23.3435 30.0933 23.4392C30.4 23.6033 30.72 23.7537 31.04 23.8905C31.76 24.1366 32.4533 24.4785 33.0933 24.8888C33.5333 25.1759 33.8933 25.5588 34.1467 26.0238C34.36 26.4614 34.4667 26.94 34.4533 27.4323C34.4667 28.0751 34.28 28.7178 33.9333 29.2512C33.56 29.7982 33.04 30.2221 32.44 30.4682C31.7867 30.7554 30.9867 30.9059 30.0267 30.9059C29.4133 30.9059 28.8133 30.8512 28.2133 30.7281C27.7467 30.646 27.28 30.4956 26.8533 30.2905C26.76 30.2358 26.6933 30.14 26.7067 30.0306V27.6512C26.7067 27.6101 26.72 27.5554 26.76 27.5281C26.8 27.5007 26.84 27.5144 26.88 27.5417C27.4 27.8563 27.9467 28.0751 28.5333 28.2118C29.04 28.3486 29.5733 28.417 30.1067 28.417C30.6133 28.417 30.9733 28.3486 31.2133 28.2255C31.4267 28.1298 31.5733 27.8973 31.5733 27.6512C31.5733 27.4597 31.4667 27.2819 31.2533 27.1041C31.04 26.9264 30.6 26.7212 29.9467 26.4614C29.2667 26.2153 28.64 25.8871 28.0533 25.4768C27.64 25.1759 27.2933 24.7794 27.04 24.3144C26.8267 23.8768 26.72 23.3982 26.7333 22.9195C26.7333 22.3315 26.8933 21.7708 27.1867 21.2648C27.52 20.7178 28.0133 20.2802 28.5867 20.0067C29.2133 19.6785 30 19.5281 30.9467 19.5281C31.4933 19.5281 32.0533 19.5691 32.6 19.6512C33 19.7059 33.3867 19.8153 33.7467 19.9657C33.8 19.9794 33.8533 20.0341 33.88 20.0888C33.8933 20.1435 33.9067 20.1982 33.9067 20.2529V22.4819C33.9067 22.5366 33.88 22.5913 33.84 22.6187C33.72 22.646 33.6533 22.646 33.6 22.6187Z" fill="#31A8FF"/>
</g>
<defs>
<clipPath id="clip0_298_419">
<rect width="32" height="32" fill="white" transform="translate(8 8)"/>
</clipPath>
</defs>
</svg>
