<svg width="48" height="48" viewBox="0 0 48 48" fill="none" xmlns="http://www.w3.org/2000/svg">
<rect width="48" height="48" rx="12" fill="#E0E0FF" fill-opacity="0.04"/>
<rect x="8" y="8" width="32" height="32" rx="16" fill="#E6007A"/>
<path fill-rule="evenodd" clip-rule="evenodd" d="M24.0002 16.5532C26.5419 16.5532 28.6024 15.3548 28.6024 13.8766C28.6024 12.3983 26.5419 11.2 24.0002 11.2C21.4585 11.2 19.3981 12.3983 19.3981 13.8766C19.3981 15.3548 21.4585 16.5532 24.0002 16.5532ZM24.0002 36.7209C26.5419 36.7209 28.6024 35.5226 28.6024 34.0443C28.6024 32.5661 26.5419 31.3677 24.0002 31.3677C21.4585 31.3677 19.3981 32.5661 19.3981 34.0443C19.3981 35.5226 21.4585 36.7209 24.0002 36.7209ZM17.5684 14.9335C18.8494 15.6732 18.8576 18.0571 17.5868 20.2582C16.3159 22.4593 14.2472 23.6441 12.9662 22.9045C11.6852 22.1649 11.6769 19.7809 12.9478 17.5798C14.2186 15.3787 16.2873 14.1939 17.5684 14.9335ZM35.0507 30.3409C36.3215 28.1398 36.314 25.7562 35.0338 25.0171C33.7537 24.278 31.6857 25.4632 30.4148 27.6643C29.144 29.8654 29.1515 32.2489 30.4317 32.9881C31.7118 33.7272 33.7798 32.542 35.0507 30.3409ZM17.5874 27.6628C18.8583 29.8639 18.85 32.2478 17.569 32.9875C16.288 33.7271 14.2193 32.5423 12.9484 30.3412C11.6776 28.1401 11.6858 25.7561 12.9668 25.0165C14.2479 24.2769 16.3166 25.4617 17.5874 27.6628ZM35.0349 22.9051C36.3151 22.1659 36.3226 19.7824 35.0518 17.5813C33.7809 15.3802 31.7129 14.195 30.4327 14.9341C29.1526 15.6732 29.145 18.0568 30.4159 20.2579C31.6867 22.459 33.7548 23.6442 35.0349 22.9051Z" fill="white"/>
</svg>
