<svg width="48" height="48" viewBox="0 0 48 48" fill="none" xmlns="http://www.w3.org/2000/svg">
<rect width="48" height="48" rx="12" fill="#E0E0FF" fill-opacity="0.04"/>
<rect x="8" y="8" width="32" height="32" rx="16" fill="#7950DD"/>
<path d="M29.4551 20.2654C29.0597 20.0219 28.5455 20.0219 28.1105 20.2654L25.0257 22.1326L22.9297 23.3504L19.845 25.2177C19.4495 25.4612 18.9354 25.4612 18.5004 25.2177L16.0484 23.7564C15.6529 23.5128 15.3761 23.0663 15.3761 22.5792V19.6971C15.3761 19.21 15.6134 18.7635 16.0484 18.52L18.4608 17.0993C18.8563 16.8557 19.3704 16.8557 19.8054 17.0993L22.2179 18.52C22.6133 18.7635 22.8902 19.21 22.8902 19.6971V21.5644L24.9862 20.306V18.4388C24.9862 17.9517 24.749 17.5052 24.3139 17.2616L19.845 14.5826C19.4495 14.339 18.9354 14.339 18.5004 14.5826L13.9523 17.2616C13.5173 17.5052 13.28 17.9517 13.28 18.4388V23.8375C13.28 24.3246 13.5173 24.7711 13.9523 25.0147L18.5004 27.6937C18.8958 27.9373 19.41 27.9373 19.845 27.6937L22.9297 25.8671L25.0257 24.6088L28.1105 22.7821C28.506 22.5386 29.0201 22.5386 29.4551 22.7821L31.8675 24.2029C32.2631 24.4464 32.5399 24.8929 32.5399 25.38V28.2621C32.5399 28.7491 32.3026 29.1957 31.8675 29.4392L29.4551 30.9005C29.0597 31.1441 28.5455 31.1441 28.1105 30.9005L25.6981 29.4798C25.3026 29.2363 25.0257 28.7898 25.0257 28.3026V26.4354L22.9297 27.6937V29.561C22.9297 30.0481 23.167 30.4946 23.6021 30.7381L28.1501 33.4172C28.5455 33.6608 29.0597 33.6608 29.4947 33.4172L34.0427 30.7381C34.4382 30.4946 34.715 30.0481 34.715 29.561V24.1623C34.715 23.6752 34.4777 23.2287 34.0427 22.9851L29.4551 20.2654Z" fill="white"/>
</svg>
