<svg width="48" height="48" viewBox="0 0 48 48" fill="none" xmlns="http://www.w3.org/2000/svg">
<rect width="48" height="48" rx="12" fill="#E0E0FF" fill-opacity="0.04"/>
<g clip-path="url(#clip0_6_588)">
<path d="M16.2808 12.4155C16.2808 10.2618 16.8715 9.09024 20.1328 8.53234C22.347 8.15293 25.186 8.1055 27.8341 8.53234C29.9257 8.86986 31.6861 10.393 31.6861 12.4155V19.5208C31.6861 21.6047 29.977 23.3118 27.8341 23.3118H20.1328C17.5191 23.3118 15.3163 25.4906 15.3163 27.9537V31.3628H12.6683C10.4284 31.3628 9.1243 29.7838 8.57646 27.5743C7.83749 24.606 7.86886 22.8375 8.57646 19.9947C9.18995 17.5148 11.1502 16.2063 13.3903 16.2063H23.9849V15.2578H16.2807V12.4153L16.2808 12.4155Z" fill="url(#paint0_linear_6_588)"/>
<path d="M31.6863 35.1538C31.6863 37.3075 29.7746 38.3983 27.8343 38.9423C24.9153 39.7624 22.5726 39.6369 20.133 38.9423C18.0956 38.3621 16.281 37.1764 16.281 35.1538V28.0485C16.281 26.0036 18.0245 24.2575 20.133 24.2575H27.8343C30.3995 24.2575 32.6509 22.0901 32.6509 19.5207V16.2065H35.5385C37.7813 16.2065 38.8372 17.8356 39.3905 19.995C40.1609 22.9939 40.1951 25.2367 39.3905 27.5746C38.6116 29.8454 37.7784 31.363 35.5385 31.363H23.985V32.3115H31.6863V35.1538Z" fill="url(#paint1_linear_6_588)"/>
<path d="M18.2068 11.944C18.2068 11.1574 18.8516 10.5212 19.6508 10.5212C20.4468 10.5212 21.0947 11.1572 21.0947 11.944C21.0947 12.7282 20.447 13.364 19.6508 13.364C18.852 13.364 18.2068 12.728 18.2068 11.944ZM26.8723 35.6255C26.8723 34.8413 27.5201 34.2055 28.3163 34.2055C29.1151 34.2055 29.7603 34.8415 29.7603 35.6255C29.7603 36.4121 29.1154 37.0483 28.3163 37.0483C27.5202 37.0483 26.8723 36.4123 26.8723 35.6255Z" fill="white"/>
</g>
<defs>
<linearGradient id="paint0_linear_6_588" x1="31.6863" y1="17.2227" x2="8.03419" y2="17.0303" gradientUnits="userSpaceOnUse">
<stop stop-color="#366A96"/>
<stop offset="1" stop-color="#3679B0"/>
</linearGradient>
<linearGradient id="paint1_linear_6_588" x1="39.9811" y1="27.859" x2="-6.83886" y2="27.859" gradientUnits="userSpaceOnUse">
<stop stop-color="#FFC836"/>
<stop offset="1" stop-color="#FFE873"/>
</linearGradient>
<clipPath id="clip0_6_588">
<rect width="32" height="32" fill="white" transform="translate(8 8)"/>
</clipPath>
</defs>
</svg>
