<svg width="48" height="48" viewBox="0 0 48 48" fill="none" xmlns="http://www.w3.org/2000/svg">
<rect width="48" height="48" rx="12" fill="#E0E0FF" fill-opacity="0.04"/>
<g clip-path="url(#clip0_298_71)">
<path fill-rule="evenodd" clip-rule="evenodd" d="M24 8C32.8064 8 40 15.2064 40 24C40 32.8064 32.7936 40 24 40C15.1936 40 8 32.7936 8 24C8 15.1936 15.2064 8 24 8Z" fill="#0645F7"/>
<path fill-rule="evenodd" clip-rule="evenodd" d="M33.1904 33.7025C32.7808 33.7025 32.4608 33.3825 32.4608 32.9729C32.4608 32.5633 32.7936 32.2433 33.1904 32.2433C33.6 32.2433 33.92 32.5633 33.92 32.9729C33.92 33.3825 33.5872 33.7025 33.1904 33.7025ZM32.8192 25.8049C32.4096 25.8049 32.0768 25.4721 32.0768 25.0753C32.0768 24.6657 32.4096 24.3329 32.8192 24.3329C33.2288 24.3329 33.5616 24.6657 33.5616 25.0753C33.5616 25.4849 33.2288 25.8049 32.8192 25.8049ZM32.8192 23.5905C32.4096 23.5905 32.0768 23.2577 32.0768 22.8609C32.0768 22.4513 32.4096 22.1313 32.8192 22.1313C33.2288 22.1313 33.5616 22.4641 33.5616 22.8609C33.5616 23.2705 33.2288 23.5905 32.8192 23.5905ZM31.3216 22.2721V23.6161H29.824V22.0673V21.9521C29.824 21.7601 29.9008 21.5681 30.0416 21.4273L31.7952 19.6993C32.0256 19.4689 32.384 19.3921 32.6784 19.5457C33.1648 19.7889 33.2288 20.3905 32.8704 20.7361L31.3216 22.2593V22.2721ZM32.6784 28.4289C32.384 28.5825 32.0256 28.4929 31.7952 28.2753L30.0416 26.5473C29.888 26.4065 29.824 26.2145 29.824 26.0225V25.9073V24.3585H31.3216V25.7025L32.8704 27.2257C33.2288 27.5713 33.152 28.1729 32.6784 28.4161V28.4289ZM29.0816 21.2737V23.9361V26.5985L33.344 30.8353C33.5744 31.0657 33.6512 31.4241 33.5104 31.7057C33.2672 32.1921 32.6528 32.2561 32.2944 31.9105L27.8016 27.4433C27.648 27.2897 27.584 27.1105 27.584 26.9185V26.6113V23.9489V21.2865V20.9793C27.584 20.7873 27.6608 20.5953 27.8016 20.4545L30.5536 17.7153C30.784 17.4849 31.1424 17.4081 31.4368 17.5617C31.9104 17.8177 31.9744 18.4193 31.6288 18.7521L29.0816 21.2865V21.2737ZM27.3536 19.9297C27.2 20.0833 27.008 20.1473 26.8288 20.1473H26.5216H23.8464H21.1712H20.864C20.672 20.1473 20.48 20.0705 20.3392 19.9297L17.5872 17.1905C17.3568 16.9601 17.28 16.6017 17.4208 16.3201C17.664 15.8465 18.2784 15.7697 18.624 16.1153L21.1712 18.6497H23.8464H26.5216L29.0432 16.1409C29.2736 15.9105 29.632 15.8337 29.9264 15.9873C30.4 16.2433 30.464 16.8449 30.1184 17.1777L27.3536 19.9297ZM26.5344 17.6897C26.3808 17.8433 26.1888 17.9073 26.0096 17.9073H25.8944H24.32V16.4225H25.6896L27.2256 14.8993C27.456 14.6689 27.8144 14.5921 28.1088 14.7457C28.5824 15.0017 28.6464 15.6033 28.3008 15.9361L26.5344 17.6897ZM24.9472 15.7441C24.5376 15.7441 24.2048 15.4113 24.2048 15.0145C24.2048 14.6049 24.5376 14.2849 24.9472 14.2849C25.3568 14.2849 25.6896 14.6177 25.6896 15.0145C25.6896 15.4241 25.3568 15.7441 24.9472 15.7441ZM21.9008 17.9073C21.7088 17.9073 21.5168 17.8305 21.376 17.6897L19.6224 15.9361C19.392 15.7057 19.3152 15.3473 19.456 15.0657C19.6992 14.5921 20.3136 14.5153 20.6592 14.8609L22.208 16.3969H23.5776V17.8817H22.0032H21.888L21.9008 17.9073ZM22.72 15.7441C22.3104 15.7441 21.9776 15.4113 21.9776 15.0145C21.9776 14.6049 22.3104 14.2849 22.72 14.2849C23.1296 14.2849 23.4624 14.6177 23.4624 15.0145C23.4624 15.4241 23.1296 15.7441 22.72 15.7441ZM20.0832 20.9665V21.2737V23.9361V26.5985V26.9057C20.0832 27.0977 20.0064 27.2897 19.8656 27.4305L17.1136 30.1697C16.8832 30.4001 16.5248 30.4769 16.2304 30.3233C15.7568 30.0673 15.6928 29.4657 16.0384 29.1329L18.5856 26.5985V23.9361V21.2737L16.0512 18.7649C15.8208 18.5345 15.744 18.1761 15.8848 17.8945C16.128 17.4081 16.7424 17.3441 17.1008 17.6897L19.8656 20.4417C20.0192 20.5825 20.0832 20.7745 20.0832 20.9665ZM17.6128 21.4401C17.7664 21.5809 17.8304 21.7729 17.8304 21.9649V22.0801V23.6289H16.32V22.2849L14.784 20.7745C14.5536 20.5441 14.464 20.1857 14.6176 19.9041C14.8736 19.4305 15.4752 19.3665 15.8208 19.7121L17.5872 21.4529L17.6128 21.4401ZM14.8352 22.1057C15.2448 22.1057 15.5776 22.4385 15.5776 22.8353C15.5776 23.2449 15.2448 23.5649 14.8352 23.5649C14.4256 23.5649 14.0928 23.2321 14.0928 22.8353C14.0928 22.4257 14.4256 22.1057 14.8352 22.1057ZM14.8352 24.3201C15.2448 24.3201 15.5776 24.6529 15.5776 25.0497C15.5776 25.4593 15.2448 25.7793 14.8352 25.7793C14.4256 25.7793 14.0928 25.4465 14.0928 25.0497C14.0928 24.6401 14.4256 24.3201 14.8352 24.3201ZM16.32 25.7153V24.3713H17.8176V25.9201V26.0353C17.8176 26.2273 17.7408 26.4193 17.6 26.5601L15.8464 28.2881C15.616 28.5185 15.2576 28.5953 14.9632 28.4417C14.4768 28.1985 14.4128 27.5969 14.7712 27.2513L16.32 25.7281V25.7153ZM20.3008 27.8145C20.4544 27.6609 20.6464 27.5969 20.8256 27.5969H21.1328H23.808H26.4832H26.7904C26.9824 27.5969 27.1744 27.6737 27.3152 27.8145L31.7824 32.2561C32.0128 32.4865 32.0896 32.8449 31.9488 33.1265C31.7056 33.6001 31.0912 33.6769 30.7456 33.3313L26.4832 29.0817H23.808H21.1328L18.6112 31.5905C18.3808 31.8209 18.0224 31.8977 17.728 31.7441C17.2544 31.4881 17.1904 30.8865 17.536 30.5537L20.3008 27.8017V27.8145ZM21.3632 30.0417C21.5168 29.8881 21.7088 29.8241 21.888 29.8241H22.0032H23.5776V31.3089H22.208L20.672 32.8321C20.4416 33.0625 20.0832 33.1393 19.7888 32.9857C19.3152 32.7297 19.2512 32.1281 19.5968 31.7953L21.3632 30.0417ZM22.7072 32.1537C23.1168 32.1537 23.4496 32.4865 23.4496 32.8833C23.4496 33.2929 23.1168 33.6257 22.7072 33.6257C22.2976 33.6257 21.9648 33.2929 21.9648 32.8833C21.9648 32.4737 22.2976 32.1537 22.7072 32.1537ZM25.9968 29.8241C26.1888 29.8241 26.3808 29.9009 26.5216 30.0417L28.2752 31.7953C28.5056 32.0257 28.5824 32.3841 28.4416 32.6657C28.1984 33.1393 27.584 33.2161 27.2384 32.8705L25.6896 31.3345H24.32V29.8497H25.8944H25.9968V29.8241ZM24.9344 32.1537C25.344 32.1537 25.6768 32.4865 25.6768 32.8833C25.6768 33.2929 25.344 33.6257 24.9344 33.6257C24.5248 33.6257 24.192 33.2929 24.192 32.8833C24.192 32.4737 24.5248 32.1537 24.9344 32.1537Z" fill="white"/>
<path fill-rule="evenodd" clip-rule="evenodd" d="M31.3088 22.2848V23.6288H29.8112V22.08V21.9648C29.8112 21.7728 29.888 21.5808 30.0288 21.44L31.7824 19.712C32.0128 19.4816 32.3712 19.4048 32.6656 19.5584C33.152 19.8016 33.216 20.4032 32.8576 20.7488L31.3088 22.272V22.2848ZM32.6656 28.4416C32.3712 28.5952 32.0128 28.5056 31.7824 28.288L30.0288 26.56C29.8752 26.4192 29.8112 26.2272 29.8112 26.0352V25.92V24.3712H31.3088V25.7152L32.8576 27.2384C33.216 27.584 33.1392 28.1856 32.6656 28.4288V28.4416ZM27.3408 19.9424C27.1872 20.096 26.9952 20.16 26.816 20.16H26.5088H23.8336H21.1584H20.8512C20.6592 20.16 20.4672 20.0832 20.3264 19.9424L17.5744 17.2032C17.344 16.9728 17.2672 16.6144 17.408 16.3328C17.6512 15.8592 18.2656 15.7824 18.6112 16.128L21.1584 18.6624H23.8336H26.5088L29.0304 16.1536C29.2608 15.9232 29.6192 15.8464 29.9136 16C30.3872 16.256 30.4512 16.8576 30.1056 17.1904L27.3408 19.9424ZM26.5216 17.7024C26.368 17.856 26.176 17.92 25.9968 17.92H25.8816H24.3072V16.4352H25.6768L27.2128 14.912C27.4432 14.6816 27.8016 14.6048 28.096 14.7584C28.5696 15.0144 28.6336 15.616 28.288 15.9488L26.5216 17.7024ZM24.9344 15.7568C24.5248 15.7568 24.192 15.424 24.192 15.0272C24.192 14.6176 24.5248 14.2976 24.9344 14.2976C25.344 14.2976 25.6768 14.6304 25.6768 15.0272C25.6768 15.4368 25.344 15.7568 24.9344 15.7568ZM21.888 17.92C21.696 17.92 21.504 17.8432 21.3632 17.7024L19.6096 15.9488C19.3792 15.7184 19.3024 15.36 19.4432 15.0784C19.6864 14.6048 20.3008 14.528 20.6464 14.8736L22.1952 16.4096H23.5648V17.8944H21.9904H21.8752L21.888 17.92ZM22.7072 15.7568C22.2976 15.7568 21.9648 15.424 21.9648 15.0272C21.9648 14.6176 22.2976 14.2976 22.7072 14.2976C23.1168 14.2976 23.4496 14.6304 23.4496 15.0272C23.4496 15.4368 23.1168 15.7568 22.7072 15.7568ZM20.0704 20.9792V21.2864V23.9488V26.6112V26.9184C20.0704 27.1104 19.9936 27.3024 19.8528 27.4432L17.1008 30.1824C16.8704 30.4128 16.512 30.4896 16.2176 30.336C15.744 30.08 15.68 29.4784 16.0256 29.1456L18.5728 26.6112V23.9488V21.2864L16.0384 18.7776C15.808 18.5472 15.7312 18.1888 15.872 17.9072C16.1152 17.4208 16.7296 17.3568 17.088 17.7024L19.8528 20.4544C20.0064 20.5952 20.0704 20.7872 20.0704 20.9792ZM17.6 21.4528C17.7536 21.5936 17.8176 21.7856 17.8176 21.9776V22.0928V23.6416H16.3072V22.2976L14.7712 20.7872C14.5408 20.5568 14.4512 20.1984 14.6048 19.9168C14.8608 19.4432 15.4624 19.3792 15.808 19.7248L17.5744 21.4656L17.6 21.4528ZM14.8224 22.1184C15.232 22.1184 15.5648 22.4512 15.5648 22.848C15.5648 23.2576 15.232 23.5776 14.8224 23.5776C14.4128 23.5776 14.08 23.2448 14.08 22.848C14.08 22.4384 14.4128 22.1184 14.8224 22.1184ZM14.8224 24.3328C15.232 24.3328 15.5648 24.6656 15.5648 25.0624C15.5648 25.472 15.232 25.792 14.8224 25.792C14.4128 25.792 14.08 25.4592 14.08 25.0624C14.08 24.6528 14.4128 24.3328 14.8224 24.3328ZM16.3072 25.728V24.384H17.8048V25.9328V26.048C17.8048 26.24 17.728 26.432 17.5872 26.5728L15.8336 28.3008C15.6032 28.5312 15.2448 28.608 14.9504 28.4544C14.464 28.2112 14.4 27.6096 14.7584 27.264L16.3072 25.7408V25.728ZM20.288 27.8272C20.4416 27.6736 20.6336 27.6096 20.8128 27.6096H21.12H23.7952H26.4704H26.7776C26.9696 27.6096 27.1616 27.6864 27.3024 27.8272L31.7696 32.2688C32 32.4992 32.0768 32.8576 31.936 33.1392C31.6928 33.6128 31.0784 33.6896 30.7328 33.344L26.4704 29.0944H23.7952H21.12L18.5984 31.6032C18.368 31.8336 18.0096 31.9104 17.7152 31.7568C17.2416 31.5008 17.1776 30.8992 17.5232 30.5664L20.288 27.8144V27.8272ZM21.3504 30.0544C21.504 29.9008 21.696 29.8368 21.8752 29.8368H21.9904H23.5648V31.3216H22.1952L20.6592 32.8448C20.4288 33.0752 20.0704 33.152 19.776 32.9984C19.3024 32.7424 19.2384 32.1408 19.584 31.808L21.3504 30.0544ZM22.6944 32.1664C23.104 32.1664 23.4368 32.4992 23.4368 32.896C23.4368 33.3056 23.104 33.6384 22.6944 33.6384C22.2848 33.6384 21.952 33.3056 21.952 32.896C21.952 32.4864 22.2848 32.1664 22.6944 32.1664ZM25.984 29.8368C26.176 29.8368 26.368 29.9136 26.5088 30.0544L28.2624 31.808C28.4928 32.0384 28.5696 32.3968 28.4288 32.6784C28.1856 33.152 27.5712 33.2288 27.2256 32.8832L25.6768 31.3472H24.3072V29.8624H25.8816H25.984V29.8368ZM24.9216 32.1664C25.3312 32.1664 25.664 32.4992 25.664 32.896C25.664 33.3056 25.3312 33.6384 24.9216 33.6384C24.512 33.6384 24.1792 33.3056 24.1792 32.896C24.1792 32.4864 24.512 32.1664 24.9216 32.1664Z" fill="white"/>
</g>
<defs>
<clipPath id="clip0_298_71">
<rect width="32" height="32" fill="white" transform="translate(8 8)"/>
</clipPath>
</defs>
</svg>
