<svg width="48" height="48" viewBox="0 0 48 48" fill="none" xmlns="http://www.w3.org/2000/svg">
<rect width="48" height="48" rx="12" fill="#E0E0FF" fill-opacity="0.04"/>
<path d="M24.0001 26.8312C25.5783 26.8312 26.8576 25.5519 26.8576 23.9737C26.8576 22.3956 25.5783 21.1162 24.0001 21.1162C22.4219 21.1162 21.1426 22.3956 21.1426 23.9737C21.1426 25.5519 22.4219 26.8312 24.0001 26.8312Z" fill="#00D8FF"/>
<path fill-rule="evenodd" clip-rule="evenodd" d="M24.0002 18.1636C27.8368 18.1636 31.4009 18.7141 34.0882 19.6392C37.3261 20.7539 39.3168 22.4435 39.3168 23.9735C39.3168 25.5678 37.207 27.3628 33.73 28.5148C31.1013 29.3857 27.6421 29.8404 24.0002 29.8404C20.2663 29.8404 16.7304 29.4136 14.0721 28.5052C10.7088 27.3557 8.68311 25.5374 8.68311 23.9735C8.68311 22.456 10.5839 20.7794 13.7762 19.6664C16.4735 18.726 20.1256 18.1636 23.9997 18.1636H24.0002Z" stroke="#00D8FF" stroke-width="1.36704"/>
<path fill-rule="evenodd" clip-rule="evenodd" d="M18.9424 21.0855C20.8592 17.762 23.1165 14.9495 25.2605 13.0838C27.8436 10.8358 30.3018 9.9554 31.6271 10.7196C33.0083 11.5161 33.5092 14.2406 32.7701 17.828C32.2119 20.5403 30.8771 23.7639 29.0577 26.9188C27.1923 30.1535 25.0563 33.0033 22.9415 34.8518C20.2655 37.191 17.6784 38.0375 16.3236 37.2562C15.009 36.4986 14.5062 34.0141 15.1369 30.6925C15.6698 27.8861 17.007 24.4415 18.9418 21.0854L18.9424 21.0855Z" stroke="#00D8FF" stroke-width="1.36704"/>
<path fill-rule="evenodd" clip-rule="evenodd" d="M18.9473 26.9273C17.0252 23.6076 15.7165 20.2466 15.1703 17.4574C14.5127 14.0968 14.9776 11.5273 16.3017 10.7609C17.6815 9.96206 20.2921 10.8887 23.031 13.3206C25.1018 15.1593 27.2282 17.9251 29.053 21.0771C30.9238 24.3086 32.3259 27.5825 32.8713 30.3377C33.5615 33.8244 33.0029 36.4885 31.6494 37.272C30.336 38.0323 27.9327 37.2274 25.3701 35.0221C23.2049 33.159 20.8884 30.28 18.9473 26.9273V26.9273Z" stroke="#00D8FF" stroke-width="1.36704"/>
</svg>
