<svg width="48" height="48" viewBox="0 0 48 48" fill="none" xmlns="http://www.w3.org/2000/svg">
<rect width="48" height="48" rx="12" fill="#E0E0FF" fill-opacity="0.04"/>
<g clip-path="url(#clip0_102_5418)">
<path d="M9.32733 8.31372H38.6736V28.1698H9.32733V8.31372Z" fill="#FFEC03"/>
<path d="M17.2582 17.6567C16.8214 16.9286 16.2961 16.5078 15.3635 16.5078C14.3849 16.5078 13.5397 17.1804 13.5397 18.1467C13.5397 19.0574 14.5159 19.4771 15.2608 19.8003L15.9903 20.1077C17.4187 20.7111 18.6287 21.3973 18.6287 23.0781C18.6287 24.928 17.0834 26.3423 15.1735 26.3423C13.4087 26.3423 12.096 25.2501 11.7466 23.6112L12.9424 23.2891C13.1018 24.3665 13.9635 25.2501 15.1439 25.2501C16.3256 25.2501 17.4033 24.3813 17.4033 23.1904C17.4033 21.9575 16.3976 21.5368 15.3765 21.0888L14.706 20.8075C13.4228 20.2483 12.3156 19.6177 12.3156 18.1047C12.3156 16.4658 13.7593 15.4145 15.3918 15.4145C16.6172 15.4145 17.6524 16.0167 18.2356 17.0545L17.2582 17.6567Z" fill="black"/>
<path d="M20.7404 22.7982C20.7404 24.0866 21.5278 25.3059 22.9868 25.3059C24.4884 25.3059 25.2757 24.1434 25.2757 22.8118C25.2757 21.495 24.4152 20.4312 22.9715 20.4312C21.6151 20.4312 20.7404 21.5654 20.7404 22.7982ZM25.2167 25.2503H25.1884C24.6194 25.9648 23.7589 26.3425 22.8263 26.3425C20.8136 26.3425 19.5446 24.7036 19.5446 22.881C19.5446 21.0051 20.7841 19.3934 22.8405 19.3934C23.7589 19.3934 24.6336 19.8142 25.1884 20.514H25.2167V14.073H26.383V26.1599H25.2167V25.2503Z" fill="black"/>
<path d="M34.1541 15.5966H35.8008L30.9881 20.1821L35.9755 26.1604H34.2851L30.1287 20.9806L29.4735 21.6067V26.1604H28.2482V15.5966H29.4735V20.122L34.1541 15.5966Z" fill="black"/>
<path d="M29.4424 28.6982H38.6724V31.0494H29.4424V28.6982Z" fill="#DADADA"/>
<path d="M29.4424 31.5781H38.6724V33.9281H29.4424V31.5781Z" fill="#DADADA"/>
<path d="M29.4424 34.4565H38.6724V36.8077H29.4424V34.4565Z" fill="#DADADA"/>
<path d="M29.4424 37.3362H38.6724V39.6862H29.4424V37.3362Z" fill="#DADADA"/>
<path d="M19.1086 31.5781H28.8911V33.9281H19.1086V31.5781Z" fill="#DADADA"/>
<path d="M19.1086 28.6982H28.8911V31.0494H19.1086V28.6982Z" fill="#DADADA"/>
<path d="M19.1086 34.4565H28.8911V36.8077H19.1086V34.4565Z" fill="#DADADA"/>
<path d="M19.1086 37.3362H28.8911V39.6862H19.1086V37.3362Z" fill="#DADADA"/>
<path d="M9.32733 31.5781H18.5597V33.9281H9.32733V31.5781Z" fill="#DADADA"/>
<path d="M9.32733 28.6982H18.5597V31.0494H9.32733V28.6982Z" fill="#DADADA"/>
<path d="M9.32733 34.4565H18.5597V36.8077H9.32733V34.4565Z" fill="#DADADA"/>
<path d="M9.32733 37.3362H18.5597V39.6862H9.32733V37.3362Z" fill="#DADADA"/>
<path d="M34.1491 35.2474L18.7547 31.7587L9.32642 36.5506V38.135L18.9531 33.2422L34.3415 36.7309L38.6727 34.5703V32.9915L34.1491 35.2474Z" fill="#FFEC03"/>
<path d="M38.673 29.9337L23.8712 37.6598L9.32678 33.9635V35.413L24.0589 39.1558L38.673 31.5284V29.9337Z" fill="black"/>
</g>
<defs>
<clipPath id="clip0_102_5418">
<rect width="30" height="32" fill="white" transform="translate(9 8)"/>
</clipPath>
</defs>
</svg>
