<svg width="48" height="48" viewBox="0 0 48 48" fill="none" xmlns="http://www.w3.org/2000/svg">
<rect width="48" height="48" rx="12" fill="#E0E0FF" fill-opacity="0.04"/>
<g clip-path="url(#clip0_102_5515)">
<path fill-rule="evenodd" clip-rule="evenodd" d="M24 8C32.8372 8 40 15.1628 40 24C40 32.8372 32.8372 40 24 40C15.1628 40 8 32.8372 8 24C8 15.1628 15.1628 8 24 8Z" fill="#F0B90B"/>
<path d="M16.7936 23.9999L16.8051 28.2307L20.4 30.3461V32.823L14.7013 29.4807V22.7627L16.7936 23.9999ZM16.7936 19.7692V22.2345L14.7 20.9961V18.5307L16.7936 17.2922L18.8974 18.5307L16.7936 19.7692ZM21.9013 18.5307L23.9949 17.2922L26.0987 18.5307L23.9949 19.7692L21.9013 18.5307Z" fill="white"/>
<path d="M18.3064 27.3538V24.8769L20.4 26.1153V28.5807L18.3064 27.3538ZM21.9013 31.2333L23.9949 32.4717L26.0987 31.2333V33.6986L23.9949 34.9371L21.9013 33.6986V31.2333ZM29.1013 18.5307L31.1949 17.2922L33.2987 18.5307V20.9961L31.1949 22.2345V19.7692L29.1013 18.5307ZM31.1949 28.2307L31.2064 23.9999L33.3 22.7615V29.4794L27.6013 32.8217V30.3448L31.1949 28.2307Z" fill="white"/>
<path d="M29.6936 27.3539L27.6 28.5808V26.1154L29.6936 24.877V27.3539Z" fill="white"/>
<path d="M29.6936 20.6461L29.7051 23.123L26.1 25.2384V29.4794L24.0064 30.7063L21.9128 29.4794V25.2384L18.3077 23.123V20.6461L20.4102 19.4076L23.9936 21.5333L27.5987 19.4076L29.7026 20.6461H29.6936ZM18.3064 16.4166L23.9949 13.0627L29.6936 16.4166L27.6 17.6551L23.9949 15.5294L20.4 17.6551L18.3064 16.4166Z" fill="white"/>
</g>
<defs>
<clipPath id="clip0_102_5515">
<rect width="32" height="32" fill="white" transform="translate(8 8)"/>
</clipPath>
</defs>
</svg>
