<svg width="48" height="48" viewBox="0 0 48 48" fill="none" xmlns="http://www.w3.org/2000/svg">
<rect width="48" height="48" rx="12" fill="#E0E0FF" fill-opacity="0.04"/>
<rect x="8" y="8" width="32" height="32" rx="16" fill="black"/>
<path fill-rule="evenodd" clip-rule="evenodd" d="M17.8736 28.4104C17.9339 28.3442 18.0072 28.2913 18.0891 28.255C18.1708 28.2188 18.2594 28.2001 18.3488 28.2L33.0112 28.212C33.0737 28.2122 33.1347 28.2304 33.187 28.2646C33.2393 28.2987 33.2805 28.3474 33.3056 28.4045C33.3308 28.4616 33.3388 28.5249 33.3287 28.5865C33.3187 28.6481 33.2909 28.7054 33.2488 28.7516L30.1264 32.1896C30.0662 32.2558 29.9927 32.3088 29.9109 32.345C29.829 32.3813 29.7404 32.4 29.6508 32.4L14.9888 32.388C14.9264 32.3878 14.8653 32.3696 14.8131 32.3354C14.7608 32.3013 14.7196 32.2526 14.6944 32.1955C14.6693 32.1384 14.6612 32.0751 14.6713 32.0135C14.6814 31.9519 14.7092 31.8946 14.7512 31.8484L17.8736 28.4104ZM33.2488 25.5484C33.2909 25.5946 33.3187 25.652 33.3287 25.7136C33.3388 25.7752 33.3308 25.8384 33.3056 25.8956C33.2805 25.9527 33.2393 26.0013 33.187 26.0355C33.1347 26.0696 33.0737 26.0879 33.0112 26.088L18.3492 26.1C18.2597 26.1 18.1711 26.0813 18.0892 26.0451C18.0073 26.0088 17.9339 25.9559 17.8736 25.8896L14.7512 22.4496C14.7092 22.4035 14.6814 22.3461 14.6713 22.2845C14.6612 22.2229 14.6693 22.1596 14.6944 22.1025C14.7196 22.0454 14.7608 21.9968 14.8131 21.9626C14.8653 21.9284 14.9264 21.9102 14.9888 21.91L29.6512 21.898C29.7407 21.8981 29.8292 21.9168 29.9111 21.9531C29.9929 21.9893 30.0663 22.0422 30.1264 22.1084L33.2488 25.5484ZM17.8736 15.8105C17.9339 15.7443 18.0072 15.6914 18.0891 15.6551C18.1708 15.6189 18.2594 15.6002 18.3488 15.6001L33.0112 15.6121C33.0737 15.6122 33.1347 15.6305 33.187 15.6646C33.2393 15.6988 33.2805 15.7474 33.3056 15.8046C33.3308 15.8617 33.3388 15.9249 33.3287 15.9866C33.3187 16.0482 33.2909 16.1055 33.2488 16.1517L30.1264 19.5897C30.0662 19.6559 29.9927 19.7089 29.9109 19.7451C29.829 19.7814 29.7404 19.8001 29.6508 19.8001L14.9888 19.7881C14.9264 19.7879 14.8653 19.7697 14.8131 19.7355C14.7608 19.7014 14.7196 19.6527 14.6944 19.5956C14.6693 19.5385 14.6612 19.4752 14.6713 19.4136C14.6814 19.352 14.7092 19.2947 14.7512 19.2485L17.8736 15.8105Z" fill="url(#paint0_linear_295_434)"/>
<defs>
<linearGradient id="paint0_linear_295_434" x1="24.9737" y1="40.6566" x2="40.4958" y2="21.495" gradientUnits="userSpaceOnUse">
<stop stop-color="#9945FF"/>
<stop offset="0.2" stop-color="#7962E7"/>
<stop offset="1" stop-color="#00D18C"/>
</linearGradient>
</defs>
</svg>
