<svg width="48" height="48" viewBox="0 0 48 48" fill="none" xmlns="http://www.w3.org/2000/svg">
<rect width="48" height="48" rx="12" fill="#E0E0FF" fill-opacity="0.04"/>
<path d="M32.1989 35.4673C28.4816 37.3983 23.3753 37.594 18.2469 35.6199C14.2458 34.0888 10.8201 31.4512 8.41479 28.0477C9.5369 28.8436 10.7582 29.5038 12.0519 30.0114C17.3525 32.1936 22.6649 32.0951 26.3939 30.0114C21.4717 26.4493 17.0387 22.3145 13.1994 17.7034C12.5379 17.0379 11.946 16.3067 11.4327 15.5212C15.4645 18.742 19.7533 21.6601 24.2606 24.2501C20.9778 21.0847 17.9586 17.6806 15.2316 14.0696C19.7794 18.2208 24.7786 21.9002 30.1458 25.0467L30.7199 25.352C30.8752 24.9964 31.0093 24.6319 31.1218 24.2606C32.3613 20.2014 30.9496 15.5864 27.852 11.7673C35.0231 15.6621 39.2688 22.9838 37.5008 29.1163C37.5008 29.2794 37.4095 29.4438 37.3508 29.6075L37.4082 29.6728C40.9533 33.6556 39.9786 37.8668 39.5311 37.0708C37.5922 33.7437 34.0008 34.7679 32.1995 35.466L32.1989 35.4673Z" fill="#F05138"/>
</svg>
