<svg width="48" height="48" viewBox="0 0 48 48" fill="none" xmlns="http://www.w3.org/2000/svg">
<rect width="48" height="48" rx="12" fill="#E0E0FF" fill-opacity="0.04"/>
<g clip-path="url(#clip0_298_83)">
<path fill-rule="evenodd" clip-rule="evenodd" d="M24 8C32.8064 8 40 15.2064 40 24C40 32.8064 32.7936 40 24 40C15.1936 40 8 32.7936 8 24C8 15.1936 15.2064 8 24 8Z" fill="#0FCE2D"/>
<path fill-rule="evenodd" clip-rule="evenodd" d="M24.3208 15.1649L24.0397 15L23.7585 15.1646C22.3693 15.9776 21.2152 17.1432 20.4208 18.5353C19.7348 19.7376 19.3291 21.0844 19.2339 22.4591C19.6142 22.233 20.0104 22.0342 20.42 21.8644C20.7729 19.5982 22.0908 17.5501 24.0392 16.2986C27.6177 18.5995 28.7945 23.3702 26.6451 27.0959C26.0629 28.105 25.267 28.9773 24.324 29.6471C24.6762 29.8619 25.0461 30.0483 25.4304 30.2043C26.3021 29.4975 27.0442 28.6317 27.6089 27.6529C30.1186 23.3029 28.6435 17.7008 24.3208 15.1649ZM23.9993 21.4586C25.1529 21.4586 26.2952 21.677 27.3558 22.0952C27.4088 22.5068 27.4284 22.9206 27.4148 23.3333C26.3568 22.8348 25.1853 22.5724 23.9993 22.5724C19.7351 22.5724 16.2247 25.9879 16.0256 30.2517C18.0722 31.3045 20.4905 31.4081 22.6244 30.5675C22.976 30.8356 23.3459 31.0788 23.7319 31.2947C22.5077 31.9004 21.1574 32.2287 19.7924 32.2483C19.7493 32.2489 19.7059 32.2492 19.6628 32.2492C18.097 32.2492 16.5517 31.8403 15.1853 31.0628L14.9018 30.9016L14.9038 30.5752C14.9191 28.1455 15.8686 25.8597 17.5776 24.1389C19.2941 22.4105 21.5747 21.4586 23.9993 21.4586ZM29.1393 23.0438C31.5913 24.7227 33.0623 27.4788 33.0948 30.4996L33.0982 30.8276L32.8133 30.9898C31.4187 31.783 29.8774 32.1878 28.3194 32.1878C27.5198 32.1878 26.7157 32.0812 25.925 31.8656C23.5942 31.2303 21.6416 29.7211 20.427 27.6159C19.8677 26.6466 19.493 25.5793 19.3205 24.4802C19.6476 24.2251 19.994 23.9975 20.3568 23.7997C20.4607 24.9417 20.8142 26.0594 21.3909 27.059C23.526 30.7598 28.2132 32.116 31.9716 30.1794C31.8554 27.8843 30.7932 25.7895 29.0509 24.3668C29.1115 23.9277 29.1411 23.4859 29.1393 23.0438ZM23.1044 25.6002C23.1044 25.0873 23.5214 24.6699 24.0341 24.6699C24.5468 24.6699 24.964 25.0873 24.964 25.6002C24.964 26.1133 24.5468 26.5307 24.0341 26.5307C23.5214 26.5307 23.1044 26.1133 23.1044 25.6002ZM21.9914 25.6002C21.9914 26.7275 22.9077 27.6445 24.0341 27.6445C25.1606 27.6445 26.077 26.7275 26.077 25.6002C26.077 24.473 25.1606 23.556 24.0341 23.556C22.9077 23.556 21.9914 24.473 21.9914 25.6002Z" fill="white"/>
</g>
<defs>
<clipPath id="clip0_298_83">
<rect width="32" height="32" fill="white" transform="translate(8 8)"/>
</clipPath>
</defs>
</svg>
