<svg width="48" height="48" viewBox="0 0 48 48" fill="none" xmlns="http://www.w3.org/2000/svg">
<rect width="48" height="48" rx="12" fill="#E0E0FF" fill-opacity="0.04"/>
<g clip-path="url(#clip0_295_351)">
<rect x="8" y="8" width="32" height="32" rx="16" fill="#D61719"/>
<path fill-rule="evenodd" clip-rule="evenodd" d="M17.9127 25.0367C15.666 19.3733 13.9113 14.6333 14.0033 14.51C14.1267 14.418 17.7893 14.972 22.1293 15.7413L30.07 17.188L32.132 19.25L34.1633 21.3433L28.4387 28.33C25.2687 32.1767 22.5293 35.3167 22.3447 35.3167C22.16 35.3473 20.19 30.7 17.9127 25.0367ZM22.714 27.0987C22.9907 24.852 23.1753 22.974 23.114 22.9127C23.077 22.8941 22.6131 22.5163 21.9329 21.9624C21.4867 21.599 20.9475 21.1599 20.3747 20.6967C20.0391 20.4216 19.7329 20.1702 19.4538 19.941L19.4535 19.9408C17.5364 18.3666 16.8969 17.8414 16.7934 17.9316C16.7416 17.9768 16.8241 18.176 16.9478 18.475L16.9478 18.475C16.9798 18.5525 17.0147 18.6367 17.0507 18.7267C17.2973 19.3113 18.528 22.3893 19.79 25.56C21.052 28.6993 22.098 31.2533 22.1293 31.2227C22.16 31.192 22.4367 29.3453 22.714 27.0987ZM31.024 22.4819C31.0547 22.5433 29.516 24.5133 27.546 26.8833C25.6073 29.2533 23.9453 31.2539 23.8833 31.3153C23.822 31.3766 23.7607 31.0999 23.7607 30.6999C23.7913 29.7153 24.592 23.6206 24.7453 23.5286C24.93 23.4053 30.932 22.3893 31.024 22.4819ZM29.3927 21.1893L31.5167 20.7893L30.5933 19.8653C29.5467 18.8186 29.4547 18.85 27.146 20.8813C26.346 21.5893 26.2227 21.8046 26.6847 21.6813C26.7659 21.6666 26.8988 21.6412 27.0695 21.6085L27.0696 21.6085C27.6093 21.5053 28.5277 21.3296 29.3927 21.1893ZM27.5767 18.2033C27.7307 18.2653 26.9927 19.004 25.946 19.896L25.9453 19.8966C24.8687 20.7886 23.914 21.4966 23.822 21.466C23.422 21.4353 17.9733 16.726 18.22 16.634C18.4047 16.572 26.5613 17.9566 27.5767 18.2033Z" fill="white"/>
</g>
<defs>
<clipPath id="clip0_295_351">
<rect width="32" height="32" fill="white" transform="translate(8 8)"/>
</clipPath>
</defs>
</svg>
