<svg width="48" height="48" viewBox="0 0 48 48" fill="none" xmlns="http://www.w3.org/2000/svg">
<rect width="48" height="48" rx="12" fill="#E0E0FF" fill-opacity="0.04"/>
<g clip-path="url(#clip0_298_239)">
<path d="M23.962 39.9806C32.5889 39.9806 39.5824 32.8215 39.5824 23.9903C39.5824 15.1591 32.5889 8 23.962 8C15.3351 8 8.34167 15.1591 8.34167 23.9903C8.34167 32.8215 15.3351 39.9806 23.962 39.9806Z" fill="#5E464D"/>
<path d="M19.0497 38.1692C19.6887 38.39 21.8346 39.096 21.9259 38.4056C21.9754 38.0268 20.8429 37.6385 19.3096 36.8166C17.1289 35.6504 15.134 34.159 13.3917 32.3924C10.8485 29.8693 9.38622 26.4366 9.31948 22.8333C9.18952 17.9958 11.0585 14.0852 14.1328 11.5615C10.3733 14.4976 8.1225 18.9923 8.00592 23.7961C7.91464 27.2951 8.88163 30.243 10.698 32.9263C11.262 33.6634 11.9214 34.3205 12.6583 34.8801C14.3989 36.2123 16.944 37.4444 19.0497 38.1677" fill="white"/>
<path d="M39.7974 20.3254C38.8288 15.7164 35.818 12.4899 31.7907 10.2105C34.8773 12.4288 39.2095 17.1458 36.6489 21.3069C34.4828 24.64 29.2224 23.9871 26.3369 22.4028C22.9145 20.5242 18.6319 16.2973 22.8557 12.1658C25.5943 9.49191 34.3049 12.4899 32.7716 16.4867C31.8774 18.8115 28.3962 18.2949 26.8305 17.1583C25.6763 16.3192 24.7046 14.8773 25.2198 13.3885C25.3838 12.911 25.3606 12.1705 24.6938 12.7153C24.2018 13.1224 23.9465 13.7924 23.8599 14.4186C23.1311 19.6303 32.3075 23.6709 35.0305 18.6283C36.4431 16.0108 34.1533 12.2097 31.2709 10.6535C29.1048 9.47939 26.8506 8.65435 24.0873 8.85474C19.6686 9.16785 15.9615 11.9701 15.4958 16.5383C15.0317 21.0784 18.0316 25.1644 21.5639 27.6082C25.2771 30.1757 30.2683 31.868 34.8356 30.3369C38.9294 28.9639 40.6205 24.2094 39.7974 20.3285" fill="white"/>
<path d="M34.0357 16.7952C34.4751 13.8082 31.8062 11.7574 29.3415 10.8259C26.4359 9.73 22.5974 10.2091 20.4808 12.6435C18.9336 14.4313 19.0342 17.0269 19.8326 19.1279C21.0394 22.3012 23.7639 24.5947 26.9357 25.5857C29.1899 26.2902 31.9145 26.597 34.1981 25.8534C37.5292 24.7685 38.6138 21.2539 37.9253 18.0336C37.7779 17.3374 37.5515 16.6608 37.2507 16.0172C36.8299 15.1232 35.5411 13.3135 37.3172 15.5178C37.5034 15.7634 37.675 16.0201 37.8309 16.2864C38.1973 16.8955 38.4878 17.548 38.6958 18.2293C39.6643 21.2351 38.9047 24.7418 36.2203 26.5563C34.161 27.9449 31.5432 28.1109 29.1543 27.7633C25.9517 27.2937 22.9331 25.7281 20.8351 23.2092C18.9197 20.9126 17.6123 17.614 18.3999 14.5988C18.977 12.393 20.7469 10.746 22.8666 10.0588C25.5478 9.1805 28.4999 9.58911 30.9119 11.0153C32.1218 11.7276 33.2327 12.7139 33.8516 14.007C34.1315 14.5896 34.282 15.227 34.2925 15.8747C34.2987 16.137 34.2784 16.3993 34.2322 16.6575C34.2151 16.7514 34.0187 17.016 34.0465 16.7984" fill="#3FE0C5"/>
</g>
<defs>
<clipPath id="clip0_298_239">
<rect width="32" height="32" fill="white" transform="translate(8 8)"/>
</clipPath>
</defs>
</svg>
