<svg width="48" height="48" viewBox="0 0 48 48" fill="none" xmlns="http://www.w3.org/2000/svg">
<rect width="48" height="48" rx="12" fill="#E0E0FF" fill-opacity="0.04"/>
<g clip-path="url(#clip0_298_206)">
<path d="M8 16.125C8 11.6377 11.6377 8 16.125 8H31.875C36.3623 8 40 11.6377 40 16.125V31.875C40 36.3623 36.3623 40 31.875 40H16.125C11.6377 40 8 36.3623 8 31.875V16.125Z" fill="white"/>
<path fill-rule="evenodd" clip-rule="evenodd" d="M21.9756 14.8092C22.4399 14.542 22.8846 14.2331 23.3083 13.8793C23.7142 13.5402 24.3046 13.5402 24.7105 13.8793C25.1356 14.2343 25.5819 14.5442 26.0479 14.8119C27.1044 15.4189 28.2337 15.7965 29.4149 15.9929C29.9048 16.0744 30.3302 16.1189 30.7852 16.1403L30.8635 16.1437C30.9159 16.1458 30.9688 16.1477 31.0223 16.1493L31.103 16.1515C31.1436 16.1525 31.1845 16.1533 31.2259 16.154L31.3093 16.1553L31.394 16.1561L31.48 16.1567L31.5675 16.1569L31.6566 16.1569L31.7018 16.1567L31.9985 16.1552C32.609 16.1552 33.1014 16.655 33.0922 17.2654C33.0076 22.8725 32.72 26.0617 32.0872 28.1404C31.7563 29.2273 31.3147 30.064 30.7142 30.75C30.634 30.8416 30.5519 30.9298 30.4672 31.0154L30.4247 31.0579C30.3605 31.1214 30.2948 31.1835 30.2273 31.2445L30.182 31.2849C29.901 31.5336 29.5883 31.7642 29.2238 31.9976L29.1643 32.0355C29.1242 32.0607 29.0836 32.0861 29.0423 32.1115L28.9799 32.1496L28.9165 32.1879C28.8846 32.207 28.8523 32.2263 28.8196 32.2456L28.7537 32.2842L28.7203 32.3036L28.6792 32.3273L28.5751 32.3862L28.4034 32.4819L28.1173 32.6399L27.3123 33.0812L26.9011 33.3076L26.8041 33.3621C26.0303 33.8003 25.354 34.2252 24.6469 34.7325C24.2658 35.0058 23.7529 35.0058 23.3719 34.7325C22.6471 34.2126 21.955 33.7792 21.1568 33.3291L21.1388 33.319L21.0004 33.2422L19.925 32.652L19.5907 32.4672L19.4348 32.3801L19.3508 32.3325L19.3078 32.3078L19.2668 32.2839L19.201 32.2453L19.1685 32.226L19.1041 32.1876L19.0408 32.1493L19.0096 32.1302L18.9477 32.0921C18.2625 31.6674 17.7557 31.2607 17.3088 30.7492C16.7499 30.1094 16.3291 29.3386 16.0074 28.356L15.9843 28.2845C15.969 28.2367 15.954 28.1883 15.9391 28.1395C15.3086 26.0619 15.0223 22.8747 14.9376 17.2654C14.9284 16.655 15.4207 16.1552 16.0313 16.1552L16.0637 16.1552L16.2813 16.1565L16.3732 16.1569L16.4633 16.1569L16.5519 16.1567L16.5956 16.1564L16.6819 16.1557L16.7669 16.1545L16.809 16.1538L16.8922 16.1522C17.4846 16.1387 17.9957 16.0946 18.6076 15.9926C19.7888 15.7958 20.9187 15.4173 21.9756 14.8092ZM24.0392 16.121L24.0095 16.0998L23.9825 16.1191C23.6847 16.3302 23.3793 16.5254 23.0667 16.7052C21.7691 17.4519 20.393 17.9128 18.9674 18.1504C18.3227 18.2578 17.7758 18.3108 17.1843 18.3323L17.145 18.3336L17.1481 18.4742C17.2506 23.0673 17.5176 25.7679 18.016 27.4492L18.0325 27.5042L18.0517 27.5664C18.2921 28.3376 18.5825 28.8821 18.9563 29.31C19.0627 29.4318 19.1777 29.5469 19.3066 29.6599L19.3405 29.6893C19.3862 29.7285 19.4336 29.7675 19.483 29.8064L19.5204 29.8356L19.5394 29.8502L19.578 29.8794L19.5976 29.894L19.6373 29.9233L19.6575 29.938L19.6985 29.9673L19.7193 29.9821L19.7616 30.0116L19.8047 30.0412L19.8488 30.0709C19.8711 30.0859 19.8937 30.1008 19.9166 30.1159L19.9631 30.146L20.0105 30.1764L20.0589 30.2069L20.1083 30.2377L20.1587 30.2688L20.2103 30.3001L20.2629 30.3317L20.2896 30.3476L20.3439 30.3796L20.3993 30.412L20.4504 30.4413L20.5287 30.4855L20.6402 30.5478L20.9561 30.7225L22.06 31.3284L22.2031 31.4078L22.2996 31.4623C22.8895 31.7966 23.4313 32.1266 23.9715 32.4872L24.0096 32.5127L24.0478 32.4871C24.5903 32.125 25.1345 31.7938 25.7271 31.4583L25.7886 31.4235L25.8246 31.4034L26.0238 31.2932L26.9982 30.7589L27.3725 30.5524L27.5226 30.4686L27.6015 30.4238L27.6504 30.3955L27.7053 30.3632L27.7592 30.3313L27.8119 30.2997L27.8635 30.2684L27.9141 30.2373L27.9636 30.2065L28.0121 30.1759L28.0596 30.1456L28.1061 30.1154L28.1516 30.0854C28.1742 30.0704 28.1964 30.0555 28.2182 30.0407L28.2615 30.011L28.2828 29.9963L28.3247 29.9668L28.3658 29.9374C28.3861 29.9227 28.4061 29.9081 28.4258 29.8934L28.4648 29.8642L28.5031 29.835L28.5406 29.8057C28.7447 29.6451 28.9154 29.4839 29.0685 29.3091C29.4032 28.9268 29.6713 28.4514 29.8966 27.8046L29.9167 27.7463C29.9433 27.6678 29.9692 27.5869 29.9947 27.5033C30.5105 25.8088 30.7837 23.0609 30.8851 18.3338L30.841 18.3323C30.2634 18.3114 29.7293 18.2608 29.1057 18.159L29.0562 18.1508C27.6308 17.9138 26.2554 17.4539 24.9583 16.7086C24.6446 16.5284 24.3381 16.3327 24.0392 16.121Z" fill="#3375BB"/>
</g>
<defs>
<clipPath id="clip0_298_206">
<rect width="32" height="32" fill="white" transform="translate(8 8)"/>
</clipPath>
</defs>
</svg>
