<svg width="48" height="48" viewBox="0 0 48 48" fill="none" xmlns="http://www.w3.org/2000/svg">
<rect width="48" height="48" rx="12" fill="#E0E0FF" fill-opacity="0.04"/>
<g clip-path="url(#clip0_6_548)">
<path d="M8 24V40H40.001V7.99902H8V24ZM33.7885 22.725C34.601 22.928 35.221 23.289 35.79 23.878C36.085 24.193 36.5215 24.767 36.557 24.904C36.567 24.944 35.1755 25.879 34.332 26.4025C34.302 26.4225 34.1795 26.291 34.042 26.0875C33.6305 25.4875 33.199 25.229 32.5385 25.1835C31.5685 25.1175 30.9385 25.6255 30.9485 26.4735C30.9485 26.7225 30.9835 26.8695 31.0855 27.0735C31.299 27.5155 31.6955 27.7795 32.9395 28.3185C35.2305 29.3035 36.2105 29.9535 36.8195 30.8785C37.4995 31.9095 37.6525 33.5555 37.1905 34.7795C36.6825 36.1105 35.423 37.0145 33.6505 37.3145C33.102 37.411 31.8015 37.396 31.2125 37.2895C29.9275 37.061 28.7085 36.426 27.9565 35.593C27.6615 35.268 27.088 34.4195 27.1235 34.358C27.1385 34.338 27.271 34.2565 27.4185 34.17L28.607 33.485L29.527 32.9515L29.72 33.2365C29.989 33.648 30.5785 34.2115 30.934 34.3995C31.955 34.938 33.357 34.8615 34.0475 34.242C34.3425 33.973 34.464 33.6935 34.464 33.282C34.464 32.911 34.419 32.7485 34.2255 32.4695C33.9765 32.1145 33.4685 31.8145 32.0255 31.1895C30.3745 30.4785 29.6635 30.0365 29.0135 29.3355C28.6375 28.929 28.282 28.279 28.1345 27.7355C28.0125 27.2835 27.982 26.1505 28.0785 25.6935C28.4185 24.0935 29.6225 22.986 31.36 22.656C31.924 22.5495 33.235 22.59 33.788 22.727L33.7885 22.725ZM26.276 24.06L26.286 25.37H22.121V37.205H19.175V25.37H15.01V24.085L15.045 22.765C15.06 22.745 17.595 22.735 20.668 22.74L26.2605 22.755L26.276 24.06Z" fill="#007ACC"/>
</g>
<defs>
<clipPath id="clip0_6_548">
<rect width="32" height="32" fill="white" transform="translate(8 8)"/>
</clipPath>
</defs>
</svg>
