<svg width="162" height="146" viewBox="0 0 162 146" fill="none" xmlns="http://www.w3.org/2000/svg">
<path d="M83.5812 143.22C82.1129 144.107 80.2739 144.109 78.8036 143.224L24.0401 110.256C22.6499 109.419 21.7999 107.915 21.7998 106.293V6.49857C21.7998 3.9435 23.8709 1.87196 26.4259 1.87183H135.78C138.336 1.87183 140.407 3.94344 140.407 6.49857V106.297C140.407 107.918 139.559 109.421 138.172 110.258L83.5812 143.22Z" fill="white" stroke="url(#paint0_linear_3878_29)" stroke-width="3.6763"/>
<path d="M83.5812 143.22C82.1129 144.107 80.2739 144.109 78.8036 143.224L24.0401 110.256C22.6499 109.419 21.7999 107.915 21.7998 106.293V6.49857C21.7998 3.9435 23.8709 1.87196 26.4259 1.87183H135.78C138.336 1.87183 140.407 3.94344 140.407 6.49857V106.297C140.407 107.918 139.559 109.421 138.172 110.258L83.5812 143.22Z" fill="white" stroke="url(#paint1_linear_3878_29)" stroke-width="3.6763"/>
<path d="M83.3193 143.22C81.8503 144.107 80.0114 144.109 78.5417 143.224L23.7779 110.256C22.3878 109.419 21.5377 107.915 21.5376 106.293V6.49857C21.5376 3.9435 23.6087 1.87196 26.1637 1.87183H135.518C138.073 1.87183 140.145 3.94344 140.145 6.49857V106.297C140.145 107.918 139.296 109.421 137.909 110.258L83.3193 143.22Z" fill="white" stroke="url(#paint2_linear_3878_29)" stroke-width="3.6763"/>
<path d="M43.4575 35.3237V34.8698H46.1621V35.3237H45.0718V38.3644H44.5462V35.3237H43.4575ZM50.1013 36.6171C50.1013 36.9903 50.0331 37.311 49.8965 37.5795C49.76 37.8469 49.5729 38.0527 49.3352 38.1972C49.0985 38.3406 48.8295 38.4122 48.5281 38.4122C48.2255 38.4122 47.9553 38.3406 47.7175 38.1972C47.4809 38.0527 47.2944 37.8462 47.1578 37.5778C47.0213 37.3093 46.9531 36.9891 46.9531 36.6171C46.9531 36.244 47.0213 35.9238 47.1578 35.6564C47.2944 35.388 47.4809 35.1821 47.7175 35.0388C47.9553 34.8943 48.2255 34.8221 48.5281 34.8221C48.8295 34.8221 49.0985 34.8943 49.3352 35.0388C49.5729 35.1821 49.76 35.388 49.8965 35.6564C50.0331 35.9238 50.1013 36.244 50.1013 36.6171ZM49.5791 36.6171C49.5791 36.3327 49.5331 36.0933 49.441 35.8987C49.3499 35.7031 49.2248 35.5553 49.0655 35.4551C48.9074 35.3538 48.7282 35.3033 48.5281 35.3033C48.3267 35.3033 48.1469 35.3538 47.9889 35.4551C47.8307 35.5553 47.7056 35.7031 47.6134 35.8987C47.5224 36.0933 47.4769 36.3327 47.4769 36.6171C47.4769 36.9015 47.5224 37.1415 47.6134 37.3372C47.7056 37.5317 47.8307 37.6796 47.9889 37.7809C48.1469 37.881 48.3267 37.931 48.5281 37.931C48.7282 37.931 48.9074 37.881 49.0655 37.7809C49.2248 37.6796 49.3499 37.5317 49.441 37.3372C49.5331 37.1415 49.5791 36.9015 49.5791 36.6171ZM51.2148 38.3644V34.8698H52.4604C52.7323 34.8698 52.9575 34.9193 53.1361 35.0183C53.3147 35.1172 53.4484 35.2526 53.5371 35.4244C53.6258 35.5951 53.6702 35.7873 53.6702 36.0012C53.6702 36.2162 53.6253 36.4095 53.5354 36.5813C53.4467 36.7519 53.3124 36.8873 53.1327 36.9874C52.9541 37.0864 52.7294 37.1358 52.4587 37.1358H51.6021V36.6888H52.4109C52.5827 36.6888 52.7221 36.6593 52.8289 36.6001C52.9359 36.5398 53.0144 36.4579 53.0645 36.3543C53.1145 36.2508 53.1395 36.1331 53.1395 36.0012C53.1395 35.8692 53.1145 35.752 53.0645 35.6496C53.0144 35.5473 52.9353 35.467 52.8272 35.409C52.7204 35.351 52.5793 35.322 52.4041 35.322H51.742V38.3644H51.2148ZM58.7194 34.8698H59.2484V37.1683C59.2484 37.4129 59.1909 37.6296 59.076 37.8184C58.9612 38.0061 58.7996 38.154 58.5915 38.2621C58.3833 38.369 58.1393 38.4224 57.8595 38.4224C57.5807 38.4224 57.3373 38.369 57.1291 38.2621C56.921 38.154 56.7594 38.0061 56.6445 37.8184C56.5296 37.6296 56.4722 37.4129 56.4722 37.1683V34.8698H56.9994V37.1256C56.9994 37.2838 57.0341 37.4242 57.1035 37.5471C57.174 37.67 57.2736 37.7666 57.4021 37.8372C57.5306 37.9066 57.6831 37.9412 57.8595 37.9412C58.0369 37.9412 58.1899 37.9066 58.3184 37.8372C58.4481 37.7666 58.5471 37.67 58.6154 37.5471C58.6848 37.4242 58.7194 37.2838 58.7194 37.1256V34.8698ZM60.8379 34.8698L61.6741 36.2366H61.7013L62.5375 34.8698H63.1483L62.0597 36.6171L63.1551 38.3644H62.5408L61.7013 37.0164H61.6741L60.8345 38.3644H60.2203L61.3345 36.6171L60.2271 34.8698H60.8379ZM65.4174 34.7061L64.2912 38.89H63.8356L64.9619 34.7061H65.4174ZM68.5951 34.8698H69.1241V37.1683C69.1241 37.4129 69.0664 37.6296 68.9518 37.8184C68.8372 38.0061 68.6752 38.154 68.4672 38.2621C68.259 38.369 68.015 38.4224 67.7351 38.4224C67.4564 38.4224 67.213 38.369 67.0048 38.2621C66.7966 38.154 66.6351 38.0061 66.5202 37.8184C66.4053 37.6296 66.3478 37.4129 66.3478 37.1683V34.8698H66.8752V37.1256C66.8752 37.2838 66.9098 37.4242 66.9792 37.5471C67.0497 37.67 67.1493 37.7666 67.2778 37.8372C67.4064 37.9066 67.5588 37.9412 67.7351 37.9412C67.9126 37.9412 68.0656 37.9066 68.1942 37.8372C68.3238 37.7666 68.4228 37.67 68.4911 37.5471C68.5605 37.4242 68.5951 37.2838 68.5951 37.1256V34.8698ZM70.8738 34.8698V38.3644H70.3466V34.8698H70.8738ZM74.9568 38.3644H73.8255V34.8698H74.9932C75.335 34.8698 75.6295 34.9398 75.8752 35.0797C76.121 35.2185 76.3091 35.4182 76.4402 35.6787C76.572 35.938 76.6379 36.2491 76.6379 36.612C76.6379 36.976 76.5713 37.2889 76.4381 37.5505C76.3063 37.8121 76.1148 38.0135 75.8649 38.1545C75.6144 38.2945 75.3117 38.3644 74.9568 38.3644ZM74.3527 37.9037H74.9279C75.1943 37.9037 75.4153 37.8537 75.5917 37.7536C75.7681 37.6523 75.8999 37.5061 75.9878 37.315C76.075 37.1228 76.1189 36.8885 76.1189 36.612C76.1189 36.3379 76.075 36.1052 75.9878 35.9141C75.9013 35.723 75.7723 35.578 75.6007 35.479C75.4284 35.38 75.2156 35.3306 74.9602 35.3306H74.3527V37.9037ZM77.7499 38.3644V34.8698H79.9403V35.3237H78.2771V36.3884H79.8264V36.8407H78.2771V37.9106H79.9609V38.3644H77.7499ZM83.0067 35.7878C82.9888 35.6263 82.9133 35.5012 82.7815 35.4125C82.6497 35.3226 82.4836 35.2777 82.2832 35.2777C82.1404 35.2777 82.0161 35.3004 81.9111 35.3459C81.8068 35.3903 81.7258 35.4517 81.6674 35.5302C81.6104 35.6076 81.5823 35.6957 81.5823 35.7947C81.5823 35.8777 81.6015 35.9494 81.64 36.0097C81.6798 36.0699 81.7319 36.1206 81.7951 36.1615C81.8603 36.2013 81.9296 36.2349 82.0038 36.2622C82.0772 36.2884 82.1486 36.31 82.2166 36.3271L82.5584 36.4158C82.6696 36.4431 82.7843 36.4801 82.9009 36.5267C83.0183 36.5733 83.1268 36.6347 83.227 36.711C83.3272 36.7872 83.4082 36.8816 83.4693 36.9942C83.5318 37.1069 83.5634 37.2416 83.5634 37.3986C83.5634 37.5966 83.5119 37.7723 83.4096 37.9259C83.3087 38.0795 83.1611 38.2007 82.9675 38.2893C82.7753 38.3781 82.5426 38.4224 82.2694 38.4224C82.0079 38.4224 81.7821 38.3809 81.5905 38.2979C81.3997 38.2149 81.2501 38.0971 81.1416 37.9447C81.0338 37.7911 80.9741 37.6091 80.9624 37.3986H81.4917C81.502 37.5249 81.5432 37.6302 81.6146 37.7143C81.6873 37.7974 81.78 37.8594 81.8926 37.9003C82.0065 37.9401 82.1308 37.9601 82.2667 37.9601C82.4156 37.9601 82.5481 37.9367 82.6641 37.89C82.7808 37.8423 82.8735 37.7763 82.9401 37.6921C83.0073 37.6068 83.041 37.5073 83.041 37.3935C83.041 37.29 83.0115 37.2052 82.9524 37.1393C82.8941 37.0733 82.8151 37.0187 82.7149 36.9755C82.6161 36.9322 82.5042 36.8941 82.3793 36.8611L81.966 36.7486C81.6859 36.6723 81.4642 36.5603 81.3009 36.4123C81.1382 36.2645 81.0565 36.0688 81.0565 35.8254C81.0565 35.624 81.1114 35.4483 81.2205 35.2981C81.3297 35.148 81.4773 35.0314 81.664 34.9483C81.8507 34.8641 82.0607 34.8221 82.2955 34.8221C82.5316 34.8221 82.741 34.8636 82.9215 34.9467C83.1035 35.0296 83.2469 35.144 83.3513 35.2896C83.4563 35.4341 83.5105 35.6001 83.5153 35.7878H83.0067ZM85.1765 34.8698V38.3644H84.6493V34.8698H85.1765ZM88.7652 35.9738C88.7323 35.8703 88.6883 35.7776 88.6327 35.6957C88.5778 35.6126 88.5126 35.5421 88.4364 35.4841C88.3602 35.425 88.273 35.38 88.1749 35.3493C88.0788 35.3186 87.9724 35.3033 87.8564 35.3033C87.6594 35.3033 87.4816 35.3538 87.3237 35.4551C87.1658 35.5563 87.0402 35.7048 86.9482 35.9005C86.8576 36.095 86.8116 36.3333 86.8116 36.6155C86.8116 36.8987 86.8576 37.1381 86.9503 37.3338C87.0422 37.5294 87.1686 37.6779 87.3285 37.7792C87.4891 37.8804 87.6717 37.931 87.8763 37.931C88.0664 37.931 88.2319 37.8924 88.3733 37.815C88.5154 37.7376 88.6252 37.6284 88.7027 37.4874C88.781 37.3452 88.8201 37.1779 88.8201 36.9857L88.9567 37.0113H87.9566V36.5762H89.3302V36.9738C89.3302 37.2672 89.2677 37.522 89.1428 37.7382C89.0185 37.9532 88.8469 38.1193 88.6272 38.2365C88.4089 38.3537 88.1584 38.4122 87.8763 38.4122C87.5605 38.4122 87.2825 38.3394 87.0436 38.1938C86.8061 38.0482 86.6208 37.8417 86.4876 37.5744C86.3544 37.3059 86.2879 36.9874 86.2879 36.6188C86.2879 36.3401 86.3263 36.0898 86.4039 35.8681C86.4814 35.6462 86.5899 35.458 86.7299 35.3033C86.8706 35.1474 87.0368 35.0285 87.2262 34.9467C87.4177 34.8636 87.6264 34.8221 87.8529 34.8221C88.0417 34.8221 88.2174 34.8499 88.3801 34.9057C88.5435 34.9614 88.689 35.0405 88.8167 35.1428C88.9451 35.2453 89.0515 35.367 89.1359 35.508C89.2203 35.6479 89.2766 35.8032 89.3061 35.9738H88.7652ZM93.2765 34.8698V38.3644H92.7919L91.0154 35.8015H90.9831V38.3644H90.4559V34.8698H90.944L92.7219 37.4362H92.7541V34.8698H93.2765ZM96.5247 38.3644H95.9646L97.2222 34.8698H97.8317L99.0893 38.3644H98.5298L97.5414 35.5046H97.5139L96.5247 38.3644ZM96.6181 36.996H98.4337V37.4396H96.6181V36.996ZM102.251 35.9738C102.217 35.8703 102.173 35.7776 102.118 35.6957C102.063 35.6126 101.998 35.5421 101.922 35.4841C101.845 35.425 101.758 35.38 101.66 35.3493C101.564 35.3186 101.458 35.3033 101.341 35.3033C101.144 35.3033 100.967 35.3538 100.809 35.4551C100.651 35.5563 100.525 35.7048 100.433 35.9005C100.343 36.095 100.297 36.3333 100.297 36.6155C100.297 36.8987 100.343 37.1381 100.435 37.3338C100.527 37.5294 100.654 37.6779 100.814 37.7792C100.974 37.8804 101.157 37.931 101.361 37.931C101.552 37.931 101.717 37.8924 101.858 37.815C102 37.7376 102.11 37.6284 102.188 37.4874C102.266 37.3452 102.305 37.1779 102.305 36.9857L102.442 37.0113H101.442V36.5762H102.815V36.9738C102.815 37.2672 102.753 37.522 102.628 37.7382C102.504 37.9532 102.332 38.1193 102.112 38.2365C101.894 38.3537 101.644 38.4122 101.361 38.4122C101.046 38.4122 100.768 38.3394 100.529 38.1938C100.291 38.0482 100.106 37.8417 99.9727 37.5744C99.8396 37.3059 99.773 36.9874 99.773 36.6188C99.773 36.3401 99.8114 36.0898 99.889 35.8681C99.9666 35.6462 100.075 35.458 100.215 35.3033C100.356 35.1474 100.522 35.0285 100.711 34.9467C100.903 34.8636 101.112 34.8221 101.338 34.8221C101.527 34.8221 101.703 34.8499 101.865 34.9057C102.029 34.9614 102.174 35.0405 102.302 35.1428C102.43 35.2453 102.537 35.367 102.621 35.508C102.705 35.6479 102.762 35.8032 102.792 35.9738H102.251ZM103.941 38.3644V34.8698H106.132V35.3237H104.468V36.3884H106.018V36.8407H104.468V37.9106H106.152V38.3644H103.941ZM110.113 34.8698V38.3644H109.628L107.852 35.8015H107.819V38.3644H107.292V34.8698H107.78L109.558 37.4362H109.59V34.8698H110.113ZM114.24 36.0062H113.708C113.688 35.8925 113.649 35.7924 113.594 35.7059C113.538 35.6195 113.47 35.5461 113.389 35.4859C113.308 35.4255 113.218 35.38 113.118 35.3493C113.019 35.3186 112.914 35.3033 112.802 35.3033C112.6 35.3033 112.421 35.3538 112.261 35.4551C112.103 35.5563 111.978 35.7048 111.886 35.9005C111.795 36.0961 111.749 36.335 111.749 36.6171C111.749 36.9015 111.795 37.1415 111.886 37.3372C111.978 37.5329 112.104 37.6807 112.263 37.7809C112.422 37.881 112.601 37.931 112.8 37.931C112.911 37.931 113.015 37.9163 113.115 37.8867C113.214 37.8559 113.305 37.811 113.386 37.7519C113.467 37.6927 113.535 37.6205 113.59 37.5351C113.647 37.4487 113.686 37.3497 113.708 37.2383L114.24 37.24C114.212 37.4117 114.157 37.5698 114.075 37.7143C113.994 37.8576 113.89 37.9817 113.763 38.0863C113.636 38.1898 113.492 38.2701 113.329 38.3269C113.167 38.3838 112.989 38.4122 112.797 38.4122C112.494 38.4122 112.225 38.3406 111.988 38.1972C111.751 38.0527 111.565 37.8462 111.429 37.5778C111.293 37.3093 111.226 36.9891 111.226 36.6171C111.226 36.244 111.294 35.9238 111.43 35.6564C111.567 35.388 111.753 35.1821 111.99 35.0388C112.226 34.8943 112.495 34.8221 112.797 34.8221C112.982 34.8221 113.155 34.8488 113.316 34.9022C113.477 34.9546 113.623 35.0319 113.751 35.1343C113.879 35.2356 113.986 35.3595 114.07 35.5063C114.154 35.6519 114.211 35.8186 114.24 36.0062ZM115.058 34.8698H115.657L116.569 36.4585H116.607L117.52 34.8698H118.119L116.852 36.9925V38.3644H116.326V36.9925L115.058 34.8698Z" fill="#475C6C"/>
<g filter="url(#filter0_d_3878_29)">
<path d="M58.6199 103.354C58.5833 102.985 58.4261 102.698 58.1484 102.494C57.8706 102.29 57.4937 102.188 57.0175 102.188C56.694 102.188 56.4209 102.233 56.198 102.325C55.9753 102.413 55.8044 102.537 55.6853 102.696C55.5693 102.854 55.5113 103.034 55.5113 103.236C55.5052 103.403 55.5404 103.55 55.6166 103.675C55.696 103.8 55.8044 103.908 55.9417 104C56.079 104.089 56.2377 104.167 56.4178 104.234C56.5979 104.298 56.7902 104.353 56.9947 104.399L57.8371 104.6C58.246 104.692 58.6214 104.814 58.9632 104.966C59.3051 105.119 59.6011 105.307 59.8514 105.529C60.1017 105.752 60.2955 106.014 60.4328 106.316C60.5732 106.619 60.6449 106.965 60.648 107.356C60.6449 107.93 60.4985 108.427 60.2085 108.848C59.9216 109.267 59.5065 109.591 58.9632 109.824C58.423 110.053 57.7714 110.167 57.0084 110.167C56.2514 110.167 55.5923 110.051 55.0306 109.819C54.4721 109.587 54.0357 109.243 53.7213 108.789C53.41 108.331 53.2467 107.765 53.2314 107.09H55.1497C55.1711 107.404 55.261 107.667 55.4198 107.878C55.5815 108.085 55.7967 108.243 56.0653 108.35C56.3369 108.453 56.6437 108.505 56.9855 108.505C57.3212 108.505 57.6127 108.456 57.8599 108.359C58.1102 108.261 58.304 108.125 58.4413 107.951C58.5787 107.777 58.6473 107.577 58.6473 107.352C58.6473 107.141 58.5848 106.964 58.4597 106.82C58.3375 106.677 58.1575 106.555 57.9194 106.454C57.6844 106.354 57.396 106.262 57.0542 106.179L56.0332 105.923C55.2428 105.731 54.6186 105.43 54.1608 105.021C53.703 104.612 53.4756 104.062 53.4786 103.368C53.4756 102.801 53.6267 102.305 53.9319 101.881C54.2402 101.456 54.6629 101.125 55.2 100.887C55.7372 100.649 56.3476 100.53 57.0313 100.53C57.7272 100.53 58.3345 100.649 58.8534 100.887C59.3753 101.125 59.7812 101.456 60.0711 101.881C60.3611 102.305 60.5107 102.796 60.5198 103.354H58.6199ZM63.4529 110.034V100.658H69.7706V102.293H65.4352V104.527H69.4459V106.161H65.4352V108.4H69.7892V110.034H63.4529ZM72.8184 110.034V100.658H74.8002V108.4H78.82V110.034H72.8184ZM81.6042 110.034V100.658H87.9222V102.293H83.5866V104.527H87.5968V106.161H83.5866V108.4H87.9407V110.034H81.6042ZM99.2423 103.941H97.2372C97.2008 103.681 97.126 103.451 97.0127 103.249C96.9001 103.045 96.7546 102.871 96.5782 102.728C96.4011 102.584 96.1965 102.474 95.9645 102.398C95.7352 102.321 95.4867 102.284 95.2183 102.284C94.733 102.284 94.3102 102.404 93.9498 102.645C93.5901 102.883 93.3107 103.231 93.1124 103.689C92.914 104.144 92.8144 104.696 92.8144 105.346C92.8144 106.014 92.914 106.576 93.1124 107.031C93.3135 107.485 93.5942 107.829 93.9546 108.061C94.315 108.293 94.7317 108.409 95.2046 108.409C95.4703 108.409 95.7153 108.374 95.9412 108.304C96.1704 108.234 96.3736 108.131 96.55 107.997C96.7271 107.86 96.874 107.693 96.9901 107.498C97.1088 107.302 97.1912 107.08 97.2372 106.829L99.2423 106.839C99.1901 107.269 99.061 107.684 98.853 108.084C98.6485 108.481 98.3725 108.836 98.0245 109.151C97.6799 109.462 97.2674 109.709 96.7882 109.892C96.3125 110.072 95.7737 110.163 95.1724 110.163C94.3363 110.163 93.5881 109.973 92.9291 109.595C92.2728 109.216 91.7539 108.668 91.3722 107.951C90.994 107.234 90.8045 106.365 90.8045 105.346C90.8045 104.324 90.9974 103.454 91.3818 102.737C91.7662 102.019 92.2879 101.473 92.9476 101.097C93.6066 100.719 94.3486 100.53 95.1724 100.53C95.7153 100.53 96.2192 100.606 96.6832 100.759C97.15 100.911 97.5639 101.135 97.9236 101.427C98.284 101.717 98.5771 102.073 98.8029 102.494C99.0315 102.915 99.1784 103.398 99.2423 103.941ZM101.778 102.293V100.658H109.478V102.293H106.608V110.034H104.649V102.293H101.778Z" fill="url(#paint3_linear_3878_29)"/>
</g>
<g filter="url(#filter1_d_3878_29)">
<path d="M142.78 46.6018H19.2202C16.9455 46.6018 15.1016 48.4458 15.1016 50.7205V78.8645C15.1016 81.1392 16.9455 82.9832 19.2202 82.9832H142.78C145.054 82.9832 146.898 81.1392 146.898 78.8645V50.7205C146.898 48.4458 145.054 46.6018 142.78 46.6018Z" fill="url(#paint4_linear_3878_29)"/>
</g>
<path d="M50.8846 55.7278C55.5377 55.5616 58.6865 58.7524 58.8465 63.5871V63.5892C59.0341 68.9461 55.56 75.4852 48.4687 75.8915C46.3137 76.0137 44.1695 75.5566 42.7573 74.7569C42.5762 74.6539 42.5085 74.4184 42.6005 74.2262L43.2232 72.9254C43.3218 72.7209 43.5646 72.6412 43.7562 72.7531C44.1558 72.9858 44.6251 73.1849 45.1391 73.3599C45.3492 73.4313 45.5751 73.3043 45.6318 73.0819C46.6172 69.2344 47.713 65.1343 48.8073 61.3534C48.8547 61.1914 48.9938 61.0781 49.1564 61.0685L50.6065 60.9855C50.8752 60.9697 51.0763 61.2367 50.9973 61.5044C49.8584 65.3519 48.7416 69.4864 47.7849 73.3414C47.7219 73.5961 47.9089 73.8418 48.1617 73.8418C48.342 73.8418 48.5224 73.8384 48.6953 73.8288C53.655 73.5446 56.7416 68.3009 56.5706 63.7161C56.4339 59.7794 54.0909 57.7405 50.9021 57.8729C49.1832 57.9483 47.3965 58.6602 46.0876 59.7458C45.9064 59.8968 45.6411 59.8556 45.5165 59.6524L44.7871 58.4662C44.6774 58.2885 44.7192 58.0547 44.881 57.9272C46.6008 56.5749 48.8868 55.8186 50.8846 55.7278ZM110.253 54.2812C110.523 54.2657 110.725 54.5345 110.645 54.802C109.411 58.8918 108.405 62.4696 107.85 64.5804C107.112 67.4435 107.083 68.2693 107.922 68.2213C108.626 68.1808 109.575 67.184 110.469 65.6773C110.504 65.6183 110.523 65.5503 110.525 65.4824C110.643 62.4654 112.495 59.7211 115.249 59.5635C117.094 59.4583 118.104 60.8489 118.176 62.2176C118.314 64.8302 115.726 66.501 113.22 66.3459C112.928 66.328 112.716 66.6411 112.844 66.9136C113.194 67.6611 113.932 68.0785 115.191 68.0057C116.388 67.9384 117.644 66.9067 118.435 65.9862C118.598 65.7967 118.886 65.805 119.034 66.0068H119.032L119.597 66.7756C119.704 66.9239 119.702 67.1278 119.591 67.2719C118.613 68.5384 116.899 69.7568 114.831 69.8749C113.2 69.9676 111.854 69.3504 111.121 68.1835C110.976 67.9529 110.656 67.9391 110.494 68.1574C109.625 69.3223 108.573 70.2332 107.477 70.2957C105.526 70.4069 104.974 69.1006 105.457 66.2189C105.505 65.932 105.253 65.6897 104.982 65.7611C104.577 65.8681 104.148 65.9155 103.712 65.8777C103.53 65.862 103.36 65.9725 103.305 66.1523C102.583 68.5205 100.864 70.724 98.6389 70.8517C97.2186 70.9327 95.0975 70.1199 95.3096 66.7262C95.3275 66.4502 95.0783 66.2319 94.8229 66.3095C94.3774 66.4447 93.8976 66.5086 93.4096 66.4667C93.2283 66.4516 93.0595 66.5621 93.0046 66.742C92.2824 69.1102 90.5629 71.313 88.3388 71.4407C86.9179 71.5217 84.7968 70.7096 85.0082 67.3152C85.0261 67.0392 84.7776 66.8216 84.5222 66.8985C84.0767 67.0337 83.5969 67.0982 83.1088 67.0564C82.9276 67.0406 82.7588 67.1511 82.7038 67.3309C81.981 69.6992 80.2622 71.9026 78.0381 72.0303C77.0277 72.088 75.6603 71.6933 75.0329 70.238C74.912 69.9573 74.5489 69.9147 74.3698 70.1591C73.4911 71.3555 72.4216 72.3001 71.3041 72.3639C70.1591 72.4298 69.5324 71.9713 69.2599 71.153C69.1631 70.8647 68.8014 70.7954 68.6061 71.0247C67.8242 71.9424 66.9335 72.6145 66.0326 72.6653C64.6437 72.7456 63.8442 71.718 63.7782 70.4728C63.702 69.0203 64.3316 67.3193 65.0344 65.4624C65.1321 65.205 64.9552 64.9257 64.6885 64.9133C64.2832 64.8961 63.8198 64.8543 63.3847 64.7726C63.1886 64.7355 62.998 64.857 62.9423 65.0554C62.1112 68.0181 60.8386 70.9224 59.7648 72.6385C59.6449 72.8307 59.3968 72.8815 59.2164 72.7497L58.3959 72.147C58.228 72.0221 58.1825 71.7832 58.2947 71.6027C59.8464 69.1212 61.2244 65.2352 61.6994 62.3618C61.7292 62.1785 61.8788 62.0419 62.0581 62.0309L63.1487 61.9685C63.3988 61.954 63.5957 62.1868 63.5503 62.4428L63.5456 62.4702C63.5049 62.6981 63.6573 62.9123 63.8774 62.9418C64.8554 63.0764 66.317 63.0929 67.309 63.0537C67.5879 63.0434 67.785 63.3317 67.6837 63.6008C66.8879 65.7144 65.8218 68.6434 65.8831 69.8028C65.911 70.3259 66.1423 70.6121 66.5494 70.5888C67.3285 70.5442 68.5271 68.9805 69.4356 67.239C69.4521 67.2081 69.4638 67.1737 69.4713 67.1394C69.7837 65.7473 70.2504 64.1925 70.7193 62.624C70.7666 62.4634 70.9053 62.3508 71.0666 62.3412L72.3729 62.2671C72.6427 62.2513 72.8445 62.5224 72.7628 62.7901C71.532 66.8326 70.3726 70.3705 71.7476 70.2922C72.5974 70.2442 73.8014 68.8047 74.8372 66.7557C74.8537 66.7221 74.8661 66.6864 74.8729 66.6486C74.9251 66.3809 74.9882 66.1008 75.0658 65.8084C75.8559 62.6577 76.7847 59.5449 77.6729 56.4142C77.7189 56.251 77.8583 56.1363 78.0216 56.1266L79.3622 56.0502C79.6348 56.0348 79.8366 56.3083 79.7515 56.5778C79.216 58.2545 78.6559 60.0403 78.1246 61.7598C78.0127 62.1215 78.4005 62.4229 78.7074 62.2149C79.2366 61.8538 79.8489 61.6136 80.4413 61.5799C81.9501 61.4941 82.977 62.7338 83.0759 64.6003C83.0814 64.6991 83.0869 64.8055 83.0896 64.9133C83.0951 65.1206 83.2502 65.2874 83.4486 65.3053C84.1584 65.3677 84.8847 65.157 85.4455 64.6573C85.5031 64.6065 85.5416 64.5371 85.5615 64.4616C86.3076 61.569 87.1575 58.7047 87.9736 55.8243C88.0203 55.661 88.1604 55.5457 88.3237 55.536L89.6643 55.4596C89.9369 55.4444 90.138 55.7178 90.0529 55.9872C89.5174 57.6641 88.9573 59.4503 88.426 61.1694C88.3141 61.5319 88.7026 61.8332 89.0095 61.6246C89.5387 61.2635 90.1503 61.0239 90.7427 60.9903C92.2515 60.9038 93.2791 62.1435 93.3773 64.0106C93.3835 64.1095 93.389 64.2159 93.3917 64.3236C93.3965 64.5303 93.5523 64.6971 93.75 64.7142C94.4605 64.7774 95.1868 64.5673 95.7476 64.0676C95.8052 64.0161 95.8437 63.9468 95.8636 63.8713C96.6097 60.9779 97.4596 58.1142 98.2757 55.2337C98.3224 55.0706 98.4625 54.9558 98.6258 54.9462L99.9658 54.8697C100.238 54.8543 100.44 55.1278 100.355 55.3973C99.8189 57.0741 99.2594 58.8604 98.7274 60.5798C98.6162 60.9422 99.0047 61.2429 99.3116 61.0342C99.8408 60.6732 100.452 60.4343 101.044 60.3999C102.554 60.3141 103.581 61.5539 103.679 63.421C103.684 63.5198 103.69 63.6248 103.693 63.7333C103.699 63.9385 103.853 64.1074 104.051 64.1246C104.738 64.1857 105.441 63.9907 105.993 63.526C106.054 63.4745 106.097 63.4018 106.118 63.3228C106.751 60.8866 107.68 57.6948 108.576 54.6404C108.624 54.4794 108.764 54.3674 108.925 54.3576L110.253 54.2812ZM79.702 63.5178C78.6243 63.5795 77.4642 64.8193 76.9878 66.7186C76.3934 69.0999 77.1155 70.0328 78.0498 69.9792H78.0484C79.5826 69.8914 81.0674 67.0852 80.9534 64.9195C80.9033 63.9742 80.3487 63.4814 79.702 63.5178ZM90.0034 62.9288C88.9264 62.9906 87.7663 64.2296 87.2899 66.1297C86.6955 68.5102 87.4169 69.4431 88.3512 69.3903H88.3505C89.8847 69.3024 91.3695 66.4962 91.2555 64.3305C91.2061 63.3846 90.6508 62.8924 90.0034 62.9288ZM100.306 62.3391C99.2285 62.4016 98.0677 63.6406 97.5914 65.5407C96.9962 67.9213 97.719 68.8541 98.6533 68.8013C100.186 68.7127 101.671 65.9066 101.556 63.7409C101.508 62.7956 100.953 62.3028 100.306 62.3391ZM115.201 61.3884H115.201C113.977 61.4584 113.02 62.7812 112.714 64.3854C112.666 64.6401 112.853 64.8776 113.104 64.8721C114.684 64.8323 116.268 63.7916 116.218 62.4284C116.208 61.8044 115.825 61.3527 115.201 61.3884ZM72.7827 57.6463C73.406 57.6106 73.9105 58.0561 73.9462 58.7283C73.997 59.6991 73.211 60.7185 72.3482 60.7672C71.6769 60.8049 71.2444 60.356 71.2094 59.6833C71.1552 58.6636 71.9205 57.6956 72.7827 57.6463Z" fill="white"/>
<g filter="url(#filter2_d_3878_29)">
<path fill-rule="evenodd" clip-rule="evenodd" d="M81.1189 12.7288C77.2638 12.7288 74.1357 15.8567 74.1357 19.7119C74.1357 23.567 77.2638 26.695 81.1189 26.695C84.9664 26.695 88.1021 23.567 88.1021 19.7119C88.1021 15.8567 84.9664 12.7288 81.1189 12.7288ZM85.7311 15.9476C86.5644 16.9625 87.0642 18.2577 87.0793 19.6589C86.8829 19.621 84.9135 19.2195 82.929 19.4695C82.8837 19.371 82.846 19.265 82.8 19.159C82.6792 18.8712 82.5426 18.5758 82.4067 18.2956C84.6026 17.4018 85.6027 16.1143 85.7311 15.9476ZM81.1189 13.7588C82.6339 13.7588 84.0198 14.3268 85.0728 15.2584C84.9664 15.4099 84.0651 16.6142 81.9447 17.4094C80.9672 15.6144 79.8847 14.145 79.7179 13.9178C80.1648 13.8118 80.6343 13.7588 81.1189 13.7588ZM78.5818 14.3192C78.7404 14.5313 79.8009 16.0082 80.7935 17.7654C78.0059 18.5076 75.5443 18.4925 75.2794 18.4925C75.6658 16.6444 76.9151 15.1069 78.5818 14.3192ZM75.151 19.7194C75.151 19.6589 75.151 19.5982 75.151 19.5377C75.4084 19.5453 78.3011 19.5831 81.2782 18.6894C81.4518 19.0227 81.6111 19.3635 81.7628 19.7043C81.6866 19.727 81.6035 19.7497 81.528 19.7725C78.4528 20.7646 76.817 23.4761 76.6804 23.7033C75.7338 22.6506 75.151 21.2494 75.151 19.7194ZM81.1189 25.6801C79.7405 25.6801 78.4679 25.2105 77.4609 24.4228C77.5666 24.2032 78.7788 21.8704 82.141 20.6965C82.1568 20.6889 82.1644 20.6889 82.1795 20.6813C83.0197 22.855 83.3608 24.6803 83.4514 25.203C82.732 25.5134 81.9447 25.6801 81.1189 25.6801ZM84.444 24.6577C84.3829 24.2941 84.0651 22.5521 83.2853 20.4087C85.1559 20.1133 86.7916 20.598 86.9962 20.6662C86.7388 22.3249 85.7846 23.7564 84.444 24.6577Z" fill="url(#paint5_linear_3878_29)"/>
</g>
<defs>
<filter id="filter0_d_3878_29" x="50.7518" y="94.3306" width="61.2063" height="15.8361" filterUnits="userSpaceOnUse" color-interpolation-filters="sRGB">
<feFlood flood-opacity="0" result="BackgroundImageFix"/>
<feColorMatrix in="SourceAlpha" type="matrix" values="0 0 0 0 0 0 0 0 0 0 0 0 0 0 0 0 0 0 127 0" result="hardAlpha"/>
<feOffset dy="-3.71949"/>
<feGaussianBlur stdDeviation="1.23983"/>
<feComposite in2="hardAlpha" operator="out"/>
<feColorMatrix type="matrix" values="0 0 0 0 0 0 0 0 0 0 0 0 0 0 0 0 0 0 0.06 0"/>
<feBlend mode="normal" in2="BackgroundImageFix" result="effect1_dropShadow_3878_29"/>
<feBlend mode="normal" in="SourceGraphic" in2="effect1_dropShadow_3878_29" result="shape"/>
</filter>
<filter id="filter1_d_3878_29" x="12.6219" y="40.4027" width="136.756" height="42.5805" filterUnits="userSpaceOnUse" color-interpolation-filters="sRGB">
<feFlood flood-opacity="0" result="BackgroundImageFix"/>
<feColorMatrix in="SourceAlpha" type="matrix" values="0 0 0 0 0 0 0 0 0 0 0 0 0 0 0 0 0 0 127 0" result="hardAlpha"/>
<feOffset dy="-3.71949"/>
<feGaussianBlur stdDeviation="1.23983"/>
<feComposite in2="hardAlpha" operator="out"/>
<feColorMatrix type="matrix" values="0 0 0 0 0 0 0 0 0 0 0 0 0 0 0 0 0 0 0.06 0"/>
<feBlend mode="normal" in2="BackgroundImageFix" result="effect1_dropShadow_3878_29"/>
<feBlend mode="normal" in="SourceGraphic" in2="effect1_dropShadow_3878_29" result="shape"/>
</filter>
<filter id="filter2_d_3878_29" x="71.6561" y="6.52961" width="18.9256" height="20.1654" filterUnits="userSpaceOnUse" color-interpolation-filters="sRGB">
<feFlood flood-opacity="0" result="BackgroundImageFix"/>
<feColorMatrix in="SourceAlpha" type="matrix" values="0 0 0 0 0 0 0 0 0 0 0 0 0 0 0 0 0 0 127 0" result="hardAlpha"/>
<feOffset dy="-3.71949"/>
<feGaussianBlur stdDeviation="1.23983"/>
<feComposite in2="hardAlpha" operator="out"/>
<feColorMatrix type="matrix" values="0 0 0 0 0 0 0 0 0 0 0 0 0 0 0 0 0 0 0.06 0"/>
<feBlend mode="normal" in2="BackgroundImageFix" result="effect1_dropShadow_3878_29"/>
<feBlend mode="normal" in="SourceGraphic" in2="effect1_dropShadow_3878_29" result="shape"/>
</filter>
<linearGradient id="paint0_linear_3878_29" x1="141.668" y1="146.136" x2="-1.44101" y2="27.0153" gradientUnits="userSpaceOnUse">
<stop/>
<stop offset="0.521228"/>
<stop offset="1" stop-color="#4A6071"/>
</linearGradient>
<linearGradient id="paint1_linear_3878_29" x1="141.668" y1="146.136" x2="-1.44101" y2="27.0153" gradientUnits="userSpaceOnUse">
<stop/>
<stop offset="0.521228"/>
<stop offset="1" stop-color="#4A6071"/>
</linearGradient>
<linearGradient id="paint2_linear_3878_29" x1="80.2804" y1="222.63" x2="26.3493" y2="-69.6644" gradientUnits="userSpaceOnUse">
<stop/>
<stop offset="0.521228"/>
<stop offset="1" stop-color="#4A6071"/>
</linearGradient>
<linearGradient id="paint3_linear_3878_29" x1="52.7187" y1="99.0512" x2="58.2029" y2="123.646" gradientUnits="userSpaceOnUse">
<stop stop-color="#4A6071"/>
<stop offset="0.478772"/>
<stop offset="1"/>
</linearGradient>
<linearGradient id="paint4_linear_3878_29" x1="15.1016" y1="46.6018" x2="33.3483" y2="113.653" gradientUnits="userSpaceOnUse">
<stop stop-color="#4A6071"/>
<stop offset="0.478772"/>
<stop offset="1"/>
</linearGradient>
<linearGradient id="paint5_linear_3878_29" x1="74.1357" y1="12.7288" x2="87.9572" y2="26.7493" gradientUnits="userSpaceOnUse">
<stop stop-color="#4A6071"/>
<stop offset="0.478772"/>
<stop offset="1"/>
</linearGradient>
</defs>
</svg>
